<?xml version="1.0" encoding="UTF-8" standalone="no"?>
<!DOCTYPE svg PUBLIC "-//W3C//DTD SVG 1.1//EN"
 "http://www.w3.org/Graphics/SVG/1.1/DTD/svg11.dtd">
<!-- Generated by graphviz version 2.43.0 (0)
 -->
<!-- Title: data_objects/invoice_data.h Pages: 1 -->
<svg width="228pt" height="148pt"
 viewBox="0.00 0.00 227.50 148.00" xmlns="http://www.w3.org/2000/svg" xmlns:xlink="http://www.w3.org/1999/xlink">
<g id="graph0" class="graph" transform="scale(1 1) rotate(0) translate(4 144)">
<title>data_objects/invoice_data.h</title>
<!-- Node1 -->
<g id="Node000001" class="node">
<title>Node1</title>
<g id="a_Node000001"><a xlink:title=" ">
<polygon fill="#999999" stroke="#666666" points="189,-140 72,-140 72,-110 189,-110 189,-140"/>
<text text-anchor="start" x="80" y="-128" font-family="Helvetica,sans-Serif" font-size="10.00">data_objects/invoice</text>
<text text-anchor="middle" x="130.5" y="-117" font-family="Helvetica,sans-Serif" font-size="10.00">_data.h</text>
</a>
</g>
</g>
<!-- Node2 -->
<g id="Node000002" class="node">
<title>Node2</title>
<g id="a_Node000002"><a xlink:href="../../d7/de6/invoice_8h.html" target="_top" xlink:title=" ">
<polygon fill="white" stroke="#666666" points="136.5,-74 56.5,-74 56.5,-55 136.5,-55 136.5,-74"/>
<text text-anchor="middle" x="96.5" y="-62" font-family="Helvetica,sans-Serif" font-size="10.00">pdf/invoice.h</text>
</a>
</g>
</g>
<!-- Node1&#45;&gt;Node2 -->
<g id="edge1_Node000001_Node000002" class="edge">
<title>Node1&#45;&gt;Node2</title>
<g id="a_edge1_Node000001_Node000002"><a xlink:title=" ">
<path fill="none" stroke="#63b8ff" d="M117.09,-100.92C111.65,-91.56 105.69,-81.32 101.59,-74.27"/>
<polygon fill="#63b8ff" stroke="#63b8ff" points="114.22,-102.95 122.27,-109.84 120.27,-99.43 114.22,-102.95"/>
</a>
</g>
</g>
<!-- Node4 -->
<g id="Node000004" class="node">
<title>Node4</title>
<g id="a_Node000004"><a xlink:href="../../d8/dd9/mainwindow_8cpp.html" target="_top" xlink:title=" ">
<polygon fill="white" stroke="#666666" points="219.5,-19 109.5,-19 109.5,0 219.5,0 219.5,-19"/>
<text text-anchor="middle" x="164.5" y="-7" font-family="Helvetica,sans-Serif" font-size="10.00">ui/mainwindow.cpp</text>
</a>
</g>
</g>
<!-- Node1&#45;&gt;Node4 -->
<g id="edge4_Node000001_Node000004" class="edge">
<title>Node1&#45;&gt;Node4</title>
<g id="a_edge4_Node000001_Node000004"><a xlink:title=" ">
<path fill="none" stroke="#63b8ff" d="M137.64,-100.2C140.13,-91.91 142.94,-82.55 145.5,-74 151.38,-54.38 158.27,-31.34 161.92,-19.13"/>
<polygon fill="#63b8ff" stroke="#63b8ff" points="134.23,-99.41 134.71,-109.99 140.93,-101.42 134.23,-99.41"/>
</a>
</g>
</g>
<!-- Node3 -->
<g id="Node000003" class="node">
<title>Node3</title>
<g id="a_Node000003"><a xlink:href="../../d1/dfb/invoice_8cpp.html" target="_top" xlink:title=" ">
<polygon fill="white" stroke="#666666" points="91,-19 0,-19 0,0 91,0 91,-19"/>
<text text-anchor="middle" x="45.5" y="-7" font-family="Helvetica,sans-Serif" font-size="10.00">pdf/invoice.cpp</text>
</a>
</g>
</g>
<!-- Node2&#45;&gt;Node3 -->
<g id="edge2_Node000002_Node000003" class="edge">
<title>Node2&#45;&gt;Node3</title>
<g id="a_edge2_Node000002_Node000003"><a xlink:title=" ">
<path fill="none" stroke="#63b8ff" d="M81.12,-47.52C72.13,-38.18 61.14,-26.75 53.76,-19.09"/>
<polygon fill="#63b8ff" stroke="#63b8ff" points="78.62,-49.97 88.08,-54.75 83.67,-45.12 78.62,-49.97"/>
</a>
</g>
</g>
<!-- Node2&#45;&gt;Node4 -->
<g id="edge3_Node000002_Node000004" class="edge">
<title>Node2&#45;&gt;Node4</title>
<g id="a_edge3_Node000002_Node000004"><a xlink:title=" ">
<path fill="none" stroke="#63b8ff" d="M115.62,-48.6C127.8,-39.11 143.16,-27.13 153.38,-19.17"/>
<polygon fill="#63b8ff" stroke="#63b8ff" points="113.16,-46.08 107.43,-54.98 117.46,-51.6 113.16,-46.08"/>
</a>
</g>
</g>
</g>
</svg>
