<?xml version="1.0" encoding="UTF-8" standalone="no"?>
<!DOCTYPE svg PUBLIC "-//W3C//DTD SVG 1.1//EN"
 "http://www.w3.org/Graphics/SVG/1.1/DTD/svg11.dtd">
<!-- Generated by graphviz version 2.43.0 (0)
 -->
<!-- Title: Graphical Class Hierarchy Pages: 1 -->
<svg width="225pt" height="175pt"
 viewBox="0.00 0.00 225.00 175.00" xmlns="http://www.w3.org/2000/svg" xmlns:xlink="http://www.w3.org/1999/xlink">
<g id="graph0" class="graph" transform="scale(1 1) rotate(0) translate(4 171)">
<title>Graphical Class Hierarchy</title>
<!-- Node0 -->
<g id="Node000000" class="node">
<title>Node0</title>
<g id="a_Node000000"><a xlink:title=" ">
<polygon fill="#e0e0e0" stroke="#999999" points="59,-93 0,-93 0,-74 59,-74 59,-93"/>
<text text-anchor="middle" x="29.5" y="-81" font-family="Helvetica,sans-Serif" font-size="10.00">QWidget</text>
</a>
</g>
</g>
<!-- Node1 -->
<g id="Node000001" class="node">
<title>Node1</title>
<g id="a_Node000001"><a xlink:href="d3/da4/classdateInputWidget.html" target="_top" xlink:title="a Widget containing a label and a datepicker below">
<polygon fill="white" stroke="#666666" points="205,-167 107,-167 107,-148 205,-148 205,-167"/>
<text text-anchor="middle" x="156" y="-155" font-family="Helvetica,sans-Serif" font-size="10.00">dateInputWidget</text>
</a>
</g>
</g>
<!-- Node0&#45;&gt;Node1 -->
<g id="edge2_Node000000_Node000001" class="edge">
<title>Node0&#45;&gt;Node1</title>
<g id="a_edge2_Node000000_Node000001"><a xlink:title=" ">
<path fill="none" stroke="#63b8ff" d="M46.32,-100.69C58.54,-113.06 76.46,-129.29 95,-139.5 101.1,-142.86 107.9,-145.66 114.66,-147.98"/>
<polygon fill="#63b8ff" stroke="#63b8ff" points="48.6,-98.02 39.16,-93.23 43.55,-102.87 48.6,-98.02"/>
</a>
</g>
</g>
<!-- Node2 -->
<g id="Node000002" class="node">
<title>Node2</title>
<g id="a_Node000002"><a xlink:href="d5/ddc/classproductWidget.html" target="_top" xlink:title="the respective widget for entering product data">
<polygon fill="white" stroke="#666666" points="200,-130 112,-130 112,-111 200,-111 200,-130"/>
<text text-anchor="middle" x="156" y="-118" font-family="Helvetica,sans-Serif" font-size="10.00">productWidget</text>
</a>
</g>
</g>
<!-- Node0&#45;&gt;Node2 -->
<g id="edge3_Node000000_Node000002" class="edge">
<title>Node0&#45;&gt;Node2</title>
<g id="a_edge3_Node000000_Node000002"><a xlink:title=" ">
<path fill="none" stroke="#63b8ff" d="M68.82,-94.89C86.05,-100.01 106.16,-105.99 122.62,-110.88"/>
<polygon fill="#63b8ff" stroke="#63b8ff" points="69.65,-91.48 59.06,-91.99 67.65,-98.19 69.65,-91.48"/>
</a>
</g>
</g>
<!-- Node3 -->
<g id="Node000003" class="node">
<title>Node3</title>
<g id="a_Node000003"><a xlink:href="d0/d49/classrepresentativeWidget.html" target="_top" xlink:title="the respective widget for entering representative data">
<polygon fill="white" stroke="#666666" points="217,-93 95,-93 95,-74 217,-74 217,-93"/>
<text text-anchor="middle" x="156" y="-81" font-family="Helvetica,sans-Serif" font-size="10.00">representativeWidget</text>
</a>
</g>
</g>
<!-- Node0&#45;&gt;Node3 -->
<g id="edge4_Node000000_Node000003" class="edge">
<title>Node0&#45;&gt;Node3</title>
<g id="a_edge4_Node000000_Node000003"><a xlink:title=" ">
<path fill="none" stroke="#63b8ff" d="M69.31,-83.5C77.42,-83.5 86.16,-83.5 94.84,-83.5"/>
<polygon fill="#63b8ff" stroke="#63b8ff" points="69.06,-80 59.06,-83.5 69.06,-87 69.06,-80"/>
</a>
</g>
</g>
<!-- Node4 -->
<g id="Node000004" class="node">
<title>Node4</title>
<g id="a_Node000004"><a xlink:href="d6/d52/classspinBoxInputWidget.html" target="_top" xlink:title="a Widget containing a label and a spinbox (int input) below">
<polygon fill="white" stroke="#666666" points="213.5,-56 98.5,-56 98.5,-37 213.5,-37 213.5,-56"/>
<text text-anchor="middle" x="156" y="-44" font-family="Helvetica,sans-Serif" font-size="10.00">spinBoxInputWidget</text>
</a>
</g>
</g>
<!-- Node0&#45;&gt;Node4 -->
<g id="edge5_Node000000_Node000004" class="edge">
<title>Node0&#45;&gt;Node4</title>
<g id="a_edge5_Node000000_Node000004"><a xlink:title=" ">
<path fill="none" stroke="#63b8ff" d="M68.82,-72.11C86.05,-66.99 106.16,-61.01 122.62,-56.12"/>
<polygon fill="#63b8ff" stroke="#63b8ff" points="67.65,-68.81 59.06,-75.01 69.65,-75.52 67.65,-68.81"/>
</a>
</g>
</g>
<!-- Node5 -->
<g id="Node000005" class="node">
<title>Node5</title>
<g id="a_Node000005"><a xlink:href="d2/da6/classtextInputWidget.html" target="_top" xlink:title="a Widget containing a label and a text input below">
<polygon fill="white" stroke="#666666" points="203.5,-19 108.5,-19 108.5,0 203.5,0 203.5,-19"/>
<text text-anchor="middle" x="156" y="-7" font-family="Helvetica,sans-Serif" font-size="10.00">textInputWidget</text>
</a>
</g>
</g>
<!-- Node0&#45;&gt;Node5 -->
<g id="edge6_Node000000_Node000005" class="edge">
<title>Node0&#45;&gt;Node5</title>
<g id="a_edge6_Node000000_Node000005"><a xlink:title=" ">
<path fill="none" stroke="#63b8ff" d="M46.84,-66.29C59.11,-54.25 76.84,-38.57 95,-28.5 101.78,-24.74 109.42,-21.6 116.91,-19.03"/>
<polygon fill="#63b8ff" stroke="#63b8ff" points="44.17,-64.02 39.63,-73.59 49.15,-68.94 44.17,-64.02"/>
</a>
</g>
</g>
</g>
</svg>
