<?xml version="1.0" encoding="UTF-8" standalone="no"?>
<!DOCTYPE svg PUBLIC "-//W3C//DTD SVG 1.1//EN"
 "http://www.w3.org/Graphics/SVG/1.1/DTD/svg11.dtd">
<!-- Generated by graphviz version 2.43.0 (0)
 -->
<!-- Title: pdf/invoice.h Pages: 1 -->
<svg width="855pt" height="203pt"
 viewBox="0.00 0.00 854.50 203.00" xmlns="http://www.w3.org/2000/svg" xmlns:xlink="http://www.w3.org/1999/xlink">
<g id="graph0" class="graph" transform="scale(1 1) rotate(0) translate(4 199)">
<title>pdf/invoice.h</title>
<!-- Node1 -->
<g id="Node000001" class="node">
<title>Node1</title>
<g id="a_Node000001"><a xlink:title=" ">
<polygon fill="#999999" stroke="#666666" points="254.5,-195 174.5,-195 174.5,-176 254.5,-176 254.5,-195"/>
<text text-anchor="middle" x="214.5" y="-183" font-family="Helvetica,sans-Serif" font-size="10.00">pdf/invoice.h</text>
</a>
</g>
</g>
<!-- Node2 -->
<g id="Node000002" class="node">
<title>Node2</title>
<g id="a_Node000002"><a xlink:title=" ">
<polygon fill="#e0e0e0" stroke="#999999" points="92,-74 45,-74 45,-55 92,-55 92,-74"/>
<text text-anchor="middle" x="68.5" y="-62" font-family="Helvetica,sans-Serif" font-size="10.00">hpdf.h</text>
</a>
</g>
</g>
<!-- Node1&#45;&gt;Node2 -->
<g id="edge1_Node000001_Node000002" class="edge">
<title>Node1&#45;&gt;Node2</title>
<g id="a_edge1_Node000001_Node000002"><a xlink:title=" ">
<path fill="none" stroke="#63b8ff" d="M204,-175.94C179.5,-155.97 118.27,-106.06 87.2,-80.75"/>
<polygon fill="#63b8ff" stroke="#63b8ff" points="89.26,-77.91 79.3,-74.3 84.84,-83.33 89.26,-77.91"/>
</a>
</g>
</g>
<!-- Node3 -->
<g id="Node000003" class="node">
<title>Node3</title>
<g id="a_Node000003"><a xlink:href="../../d1/d5c/pdf__utils_8h.html" target="_top" xlink:title=" ">
<polygon fill="white" stroke="#666666" points="248.5,-134.5 180.5,-134.5 180.5,-115.5 248.5,-115.5 248.5,-134.5"/>
<text text-anchor="middle" x="214.5" y="-122.5" font-family="Helvetica,sans-Serif" font-size="10.00">pdf_utils.h</text>
</a>
</g>
</g>
<!-- Node1&#45;&gt;Node3 -->
<g id="edge2_Node000001_Node000003" class="edge">
<title>Node1&#45;&gt;Node3</title>
<g id="a_edge2_Node000001_Node000003"><a xlink:title=" ">
<path fill="none" stroke="#63b8ff" d="M214.5,-175.87C214.5,-167.75 214.5,-155.31 214.5,-144.89"/>
<polygon fill="#63b8ff" stroke="#63b8ff" points="218,-144.67 214.5,-134.67 211,-144.67 218,-144.67"/>
</a>
</g>
</g>
<!-- Node12 -->
<g id="Node000012" class="node">
<title>Node12</title>
<g id="a_Node000012"><a xlink:href="../../da/ddf/invoice__data_8h.html" target="_top" xlink:title=" ">
<polygon fill="white" stroke="#666666" points="572.5,-140 446.5,-140 446.5,-110 572.5,-110 572.5,-140"/>
<text text-anchor="start" x="454.5" y="-128" font-family="Helvetica,sans-Serif" font-size="10.00">../data_objects/invoice</text>
<text text-anchor="middle" x="509.5" y="-117" font-family="Helvetica,sans-Serif" font-size="10.00">_data.h</text>
</a>
</g>
</g>
<!-- Node1&#45;&gt;Node12 -->
<g id="edge13_Node000001_Node000012" class="edge">
<title>Node1&#45;&gt;Node12</title>
<g id="a_edge13_Node000001_Node000012"><a xlink:title=" ">
<path fill="none" stroke="#63b8ff" d="M254.59,-176.55C301.11,-167.33 378.75,-151.93 436.15,-140.55"/>
<polygon fill="#63b8ff" stroke="#63b8ff" points="437.13,-143.92 446.26,-138.54 435.77,-137.05 437.13,-143.92"/>
</a>
</g>
</g>
<!-- Node3&#45;&gt;Node2 -->
<g id="edge3_Node000003_Node000002" class="edge">
<title>Node3&#45;&gt;Node2</title>
<g id="a_edge3_Node000003_Node000002"><a xlink:title=" ">
<path fill="none" stroke="#63b8ff" d="M193.27,-115.49C168.51,-105.57 127.38,-89.09 99.15,-77.78"/>
<polygon fill="#63b8ff" stroke="#63b8ff" points="100.34,-74.49 89.76,-74.02 97.74,-80.99 100.34,-74.49"/>
</a>
</g>
</g>
<!-- Node4 -->
<g id="Node000004" class="node">
<title>Node4</title>
<g id="a_Node000004"><a xlink:title=" ">
<polygon fill="#e0e0e0" stroke="#999999" points="244.5,-74 184.5,-74 184.5,-55 244.5,-55 244.5,-74"/>
<text text-anchor="middle" x="214.5" y="-62" font-family="Helvetica,sans-Serif" font-size="10.00">iostream</text>
</a>
</g>
</g>
<!-- Node3&#45;&gt;Node4 -->
<g id="edge4_Node000003_Node000004" class="edge">
<title>Node3&#45;&gt;Node4</title>
<g id="a_edge4_Node000003_Node000004"><a xlink:title=" ">
<path fill="none" stroke="#63b8ff" d="M214.5,-115.37C214.5,-107.25 214.5,-94.81 214.5,-84.39"/>
<polygon fill="#63b8ff" stroke="#63b8ff" points="218,-84.17 214.5,-74.17 211,-84.17 218,-84.17"/>
</a>
</g>
</g>
<!-- Node5 -->
<g id="Node000005" class="node">
<title>Node5</title>
<g id="a_Node000005"><a xlink:title=" ">
<polygon fill="#e0e0e0" stroke="#999999" points="446.5,-19 402.5,-19 402.5,0 446.5,0 446.5,-19"/>
<text text-anchor="middle" x="424.5" y="-7" font-family="Helvetica,sans-Serif" font-size="10.00">string</text>
</a>
</g>
</g>
<!-- Node3&#45;&gt;Node5 -->
<g id="edge5_Node000003_Node000005" class="edge">
<title>Node3&#45;&gt;Node5</title>
<g id="a_edge5_Node000003_Node000005"><a xlink:title=" ">
<path fill="none" stroke="#63b8ff" d="M248.65,-118.16C281.21,-111.42 330.63,-98.03 367.5,-74 386.23,-61.79 402.69,-41.9 413.04,-27.64"/>
<polygon fill="#63b8ff" stroke="#63b8ff" points="416.07,-29.41 418.93,-19.21 410.33,-25.41 416.07,-29.41"/>
</a>
</g>
</g>
<!-- Node6 -->
<g id="Node000006" class="node">
<title>Node6</title>
<g id="a_Node000006"><a xlink:href="../../d8/d60/pdf__exception_8h.html" target="_top" xlink:title=" ">
<polygon fill="white" stroke="#666666" points="358,-74 263,-74 263,-55 358,-55 358,-74"/>
<text text-anchor="middle" x="310.5" y="-62" font-family="Helvetica,sans-Serif" font-size="10.00">pdf_exception.h</text>
</a>
</g>
</g>
<!-- Node3&#45;&gt;Node6 -->
<g id="edge6_Node000003_Node000006" class="edge">
<title>Node3&#45;&gt;Node6</title>
<g id="a_edge6_Node000003_Node000006"><a xlink:title=" ">
<path fill="none" stroke="#63b8ff" d="M228.67,-115.37C244.19,-105.91 269.33,-90.59 287.65,-79.42"/>
<polygon fill="#63b8ff" stroke="#63b8ff" points="289.56,-82.36 296.28,-74.17 285.92,-76.38 289.56,-82.36"/>
</a>
</g>
</g>
<!-- Node7 -->
<g id="Node000007" class="node">
<title>Node7</title>
<g id="a_Node000007"><a xlink:href="../../d5/d60/utils_8h.html" target="_top" xlink:title=" ">
<polygon fill="white" stroke="#666666" points="166.5,-74 110.5,-74 110.5,-55 166.5,-55 166.5,-74"/>
<text text-anchor="middle" x="138.5" y="-62" font-family="Helvetica,sans-Serif" font-size="10.00">../utils.h</text>
</a>
</g>
</g>
<!-- Node3&#45;&gt;Node7 -->
<g id="edge8_Node000003_Node000007" class="edge">
<title>Node3&#45;&gt;Node7</title>
<g id="a_edge8_Node000003_Node000007"><a xlink:title=" ">
<path fill="none" stroke="#63b8ff" d="M203.29,-115.37C191.39,-106.21 172.36,-91.56 157.99,-80.51"/>
<polygon fill="#63b8ff" stroke="#63b8ff" points="159.82,-77.49 149.76,-74.17 155.55,-83.04 159.82,-77.49"/>
</a>
</g>
</g>
<!-- Node6&#45;&gt;Node5 -->
<g id="edge7_Node000006_Node000005" class="edge">
<title>Node6&#45;&gt;Node5</title>
<g id="a_edge7_Node000006_Node000005"><a xlink:title=" ">
<path fill="none" stroke="#63b8ff" d="M328.82,-54.98C347.16,-46.46 375.61,-33.23 396.73,-23.41"/>
<polygon fill="#63b8ff" stroke="#63b8ff" points="398.26,-26.56 405.85,-19.17 395.31,-20.21 398.26,-26.56"/>
</a>
</g>
</g>
<!-- Node8 -->
<g id="Node000008" class="node">
<title>Node8</title>
<g id="a_Node000008"><a xlink:title=" ">
<polygon fill="#e0e0e0" stroke="#999999" points="51,-19 0,-19 0,0 51,0 51,-19"/>
<text text-anchor="middle" x="25.5" y="-7" font-family="Helvetica,sans-Serif" font-size="10.00">iconv.h</text>
</a>
</g>
</g>
<!-- Node7&#45;&gt;Node8 -->
<g id="edge9_Node000007_Node000008" class="edge">
<title>Node7&#45;&gt;Node8</title>
<g id="a_edge9_Node000007_Node000008"><a xlink:title=" ">
<path fill="none" stroke="#63b8ff" d="M120.34,-54.98C102.25,-46.5 74.22,-33.35 53.31,-23.54"/>
<polygon fill="#63b8ff" stroke="#63b8ff" points="54.53,-20.25 43.99,-19.17 51.55,-26.59 54.53,-20.25"/>
</a>
</g>
</g>
<!-- Node9 -->
<g id="Node000009" class="node">
<title>Node9</title>
<g id="a_Node000009"><a xlink:title=" ">
<polygon fill="#e0e0e0" stroke="#999999" points="134,-19 69,-19 69,0 134,0 134,-19"/>
<text text-anchor="middle" x="101.5" y="-7" font-family="Helvetica,sans-Serif" font-size="10.00">stdexcept</text>
</a>
</g>
</g>
<!-- Node7&#45;&gt;Node9 -->
<g id="edge10_Node000007_Node000009" class="edge">
<title>Node7&#45;&gt;Node9</title>
<g id="a_edge10_Node000007_Node000009"><a xlink:title=" ">
<path fill="none" stroke="#63b8ff" d="M132.39,-54.75C127.22,-47.34 119.65,-36.5 113.31,-27.41"/>
<polygon fill="#63b8ff" stroke="#63b8ff" points="116.09,-25.29 107.5,-19.09 110.35,-29.29 116.09,-25.29"/>
</a>
</g>
</g>
<!-- Node10 -->
<g id="Node000010" class="node">
<title>Node10</title>
<g id="a_Node000010"><a xlink:title=" ">
<polygon fill="#e0e0e0" stroke="#999999" points="199,-19 152,-19 152,0 199,0 199,-19"/>
<text text-anchor="middle" x="175.5" y="-7" font-family="Helvetica,sans-Serif" font-size="10.00">vector</text>
</a>
</g>
</g>
<!-- Node7&#45;&gt;Node10 -->
<g id="edge11_Node000007_Node000010" class="edge">
<title>Node7&#45;&gt;Node10</title>
<g id="a_edge11_Node000007_Node000010"><a xlink:title=" ">
<path fill="none" stroke="#63b8ff" d="M144.61,-54.75C149.78,-47.34 157.35,-36.5 163.69,-27.41"/>
<polygon fill="#63b8ff" stroke="#63b8ff" points="166.65,-29.29 169.5,-19.09 160.91,-25.29 166.65,-29.29"/>
</a>
</g>
</g>
<!-- Node11 -->
<g id="Node000011" class="node">
<title>Node11</title>
<g id="a_Node000011"><a xlink:title=" ">
<polygon fill="#e0e0e0" stroke="#999999" points="273.5,-19 217.5,-19 217.5,0 273.5,0 273.5,-19"/>
<text text-anchor="middle" x="245.5" y="-7" font-family="Helvetica,sans-Serif" font-size="10.00">sstream</text>
</a>
</g>
</g>
<!-- Node7&#45;&gt;Node11 -->
<g id="edge12_Node000007_Node000011" class="edge">
<title>Node7&#45;&gt;Node11</title>
<g id="a_edge12_Node000007_Node000011"><a xlink:title=" ">
<path fill="none" stroke="#63b8ff" d="M155.69,-54.98C172.75,-46.54 199.13,-33.47 218.9,-23.68"/>
<polygon fill="#63b8ff" stroke="#63b8ff" points="220.59,-26.75 228,-19.17 217.48,-20.47 220.59,-26.75"/>
</a>
</g>
</g>
<!-- Node12&#45;&gt;Node5 -->
<g id="edge16_Node000012_Node000005" class="edge">
<title>Node12&#45;&gt;Node5</title>
<g id="a_edge16_Node000012_Node000005"><a xlink:title=" ">
<path fill="none" stroke="#63b8ff" d="M483.71,-109.93C469.98,-101.23 453.83,-88.88 443.5,-74 434.17,-60.56 429.35,-42.46 426.9,-29.02"/>
<polygon fill="#63b8ff" stroke="#63b8ff" points="430.34,-28.38 425.35,-19.04 423.42,-29.45 430.34,-28.38"/>
</a>
</g>
</g>
<!-- Node13 -->
<g id="Node000013" class="node">
<title>Node13</title>
<g id="a_Node000013"><a xlink:title=" ">
<polygon fill="#e0e0e0" stroke="#999999" points="484.5,-74 452.5,-74 452.5,-55 484.5,-55 484.5,-74"/>
<text text-anchor="middle" x="468.5" y="-62" font-family="Helvetica,sans-Serif" font-size="10.00">list</text>
</a>
</g>
</g>
<!-- Node12&#45;&gt;Node13 -->
<g id="edge14_Node000012_Node000013" class="edge">
<title>Node12&#45;&gt;Node13</title>
<g id="a_edge14_Node000012_Node000013"><a xlink:title=" ">
<path fill="none" stroke="#63b8ff" d="M499.58,-109.84C493.81,-101.61 486.5,-91.18 480.42,-82.51"/>
<polygon fill="#63b8ff" stroke="#63b8ff" points="483.25,-80.45 474.64,-74.27 477.52,-84.46 483.25,-80.45"/>
</a>
</g>
</g>
<!-- Node14 -->
<g id="Node000014" class="node">
<title>Node14</title>
<g id="a_Node000014"><a xlink:title=" ">
<polygon fill="#e0e0e0" stroke="#999999" points="598,-74 503,-74 503,-55 598,-55 598,-74"/>
<text text-anchor="middle" x="550.5" y="-62" font-family="Helvetica,sans-Serif" font-size="10.00">qdatetimeedit.h</text>
</a>
</g>
</g>
<!-- Node12&#45;&gt;Node14 -->
<g id="edge15_Node000012_Node000014" class="edge">
<title>Node12&#45;&gt;Node14</title>
<g id="a_edge15_Node000012_Node000014"><a xlink:title=" ">
<path fill="none" stroke="#63b8ff" d="M519.42,-109.84C525.19,-101.61 532.5,-91.18 538.58,-82.51"/>
<polygon fill="#63b8ff" stroke="#63b8ff" points="541.48,-84.46 544.36,-74.27 535.75,-80.45 541.48,-84.46"/>
</a>
</g>
</g>
<!-- Node15 -->
<g id="Node000015" class="node">
<title>Node15</title>
<g id="a_Node000015"><a xlink:href="../../d3/dae/product__data_8h.html" target="_top" xlink:title=" ">
<polygon fill="white" stroke="#666666" points="705,-74 616,-74 616,-55 705,-55 705,-74"/>
<text text-anchor="middle" x="660.5" y="-62" font-family="Helvetica,sans-Serif" font-size="10.00">product_data.h</text>
</a>
</g>
</g>
<!-- Node12&#45;&gt;Node15 -->
<g id="edge17_Node000012_Node000015" class="edge">
<title>Node12&#45;&gt;Node15</title>
<g id="a_edge17_Node000012_Node000015"><a xlink:title=" ">
<path fill="none" stroke="#63b8ff" d="M545.67,-109.99C570.97,-100.18 604.46,-87.21 628.74,-77.81"/>
<polygon fill="#63b8ff" stroke="#63b8ff" points="630.14,-81.02 638.2,-74.14 627.61,-74.49 630.14,-81.02"/>
</a>
</g>
</g>
<!-- Node16 -->
<g id="Node000016" class="node">
<title>Node16</title>
<g id="a_Node000016"><a xlink:href="../../dd/dca/representative__data_8h.html" target="_top" xlink:title=" ">
<polygon fill="white" stroke="#666666" points="846.5,-74 722.5,-74 722.5,-55 846.5,-55 846.5,-74"/>
<text text-anchor="middle" x="784.5" y="-62" font-family="Helvetica,sans-Serif" font-size="10.00">representative_data.h</text>
</a>
</g>
</g>
<!-- Node12&#45;&gt;Node16 -->
<g id="edge19_Node000012_Node000016" class="edge">
<title>Node12&#45;&gt;Node16</title>
<g id="a_edge19_Node000012_Node000016"><a xlink:title=" ">
<path fill="none" stroke="#63b8ff" d="M572.59,-110.58C621.68,-100.14 688.88,-85.84 734.35,-76.17"/>
<polygon fill="#63b8ff" stroke="#63b8ff" points="735.22,-79.56 744.27,-74.06 733.76,-72.72 735.22,-79.56"/>
</a>
</g>
</g>
<!-- Node15&#45;&gt;Node5 -->
<g id="edge18_Node000015_Node000005" class="edge">
<title>Node15&#45;&gt;Node5</title>
<g id="a_edge18_Node000015_Node000005"><a xlink:title=" ">
<path fill="none" stroke="#63b8ff" d="M622.58,-54.98C576.6,-44.66 499.9,-27.43 456.67,-17.73"/>
<polygon fill="#63b8ff" stroke="#63b8ff" points="457.22,-14.26 446.7,-15.49 455.69,-21.09 457.22,-14.26"/>
</a>
</g>
</g>
<!-- Node16&#45;&gt;Node5 -->
<g id="edge20_Node000016_Node000005" class="edge">
<title>Node16&#45;&gt;Node5</title>
<g id="a_edge20_Node000016_Node000005"><a xlink:title=" ">
<path fill="none" stroke="#63b8ff" d="M726.66,-54.98C650.16,-43.72 517.92,-24.25 456.98,-15.28"/>
<polygon fill="#63b8ff" stroke="#63b8ff" points="457.2,-11.78 446.8,-13.78 456.18,-18.7 457.2,-11.78"/>
</a>
</g>
</g>
</g>
</svg>
