<?xml version="1.0" encoding="UTF-8" standalone="no"?>
<!DOCTYPE svg PUBLIC "-//W3C//DTD SVG 1.1//EN"
 "http://www.w3.org/Graphics/SVG/1.1/DTD/svg11.dtd">
<!-- Generated by graphviz version 2.43.0 (0)
 -->
<!-- Title: productWidget::productWidget Pages: 1 -->
<svg width="775pt" height="64pt"
 viewBox="0.00 0.00 775.00 64.00" xmlns="http://www.w3.org/2000/svg" xmlns:xlink="http://www.w3.org/1999/xlink">
<g id="graph0" class="graph" transform="scale(1 1) rotate(0) translate(4 60)">
<title>productWidget::productWidget</title>
<!-- Node1 -->
<g id="Node000001" class="node">
<title>Node1</title>
<g id="a_Node000001"><a xlink:title=" ">
<polygon fill="#999999" stroke="#666666" points="767,-37 602,-37 602,-18 767,-18 767,-37"/>
<text text-anchor="middle" x="684.5" y="-25" font-family="Helvetica,sans-Serif" font-size="10.00">productWidget::productWidget</text>
</a>
</g>
</g>
<!-- Node2 -->
<g id="Node000002" class="node">
<title>Node2</title>
<g id="a_Node000002"><a xlink:href="../../d5/ddc/classproductWidget.html#a63260ea7f3df590fe9c36c9e6ac5fd1e" target="_top" xlink:title=" ">
<polygon fill="white" stroke="#666666" points="566,-56 394,-56 394,-37 566,-37 566,-56"/>
<text text-anchor="middle" x="480" y="-44" font-family="Helvetica,sans-Serif" font-size="10.00">productWidget::requestDeletion</text>
</a>
</g>
</g>
<!-- Node1&#45;&gt;Node2 -->
<g id="edge1_Node000001_Node000002" class="edge">
<title>Node1&#45;&gt;Node2</title>
<g id="a_edge1_Node000001_Node000002"><a xlink:title=" ">
<path fill="none" stroke="#63b8ff" d="M591.74,-36.11C583.19,-36.91 574.54,-37.72 566.06,-38.52"/>
<polygon fill="#63b8ff" stroke="#63b8ff" points="592.09,-39.59 601.72,-35.17 591.44,-32.62 592.09,-39.59"/>
</a>
</g>
</g>
<!-- Node3 -->
<g id="Node000003" class="node">
<title>Node3</title>
<g id="a_Node000003"><a xlink:href="../../d6/d1a/classMainWindow.html#a99a0369f7d7ac8af7bb45d9a89da781d" target="_top" xlink:title="helper function to add a product widget to the productList widget">
<polygon fill="white" stroke="#666666" points="358,-56 184,-56 184,-37 358,-37 358,-56"/>
<text text-anchor="middle" x="271" y="-44" font-family="Helvetica,sans-Serif" font-size="10.00">MainWindow::addProductWidget</text>
</a>
</g>
</g>
<!-- Node2&#45;&gt;Node3 -->
<g id="edge2_Node000002_Node000003" class="edge">
<title>Node2&#45;&gt;Node3</title>
<g id="a_edge2_Node000002_Node000003"><a xlink:title=" ">
<path fill="none" stroke="#63b8ff" d="M383.87,-46.5C375.28,-46.5 366.61,-46.5 358.1,-46.5"/>
<polygon fill="#63b8ff" stroke="#63b8ff" points="383.91,-50 393.91,-46.5 383.91,-43 383.91,-50"/>
</a>
</g>
</g>
<!-- Node5 -->
<g id="Node000005" class="node">
<title>Node5</title>
<g id="a_Node000005"><a xlink:href="../../d5/ddc/classproductWidget.html#ada0eb5a2b09521fa42d4ef72daaabe18" target="_top" xlink:title=" ">
<polygon fill="white" stroke="#666666" points="350.5,-19 191.5,-19 191.5,0 350.5,0 350.5,-19"/>
<text text-anchor="middle" x="271" y="-7" font-family="Helvetica,sans-Serif" font-size="10.00">productWidget::handleDelete</text>
</a>
</g>
</g>
<!-- Node2&#45;&gt;Node5 -->
<g id="edge4_Node000002_Node000005" class="edge">
<title>Node2&#45;&gt;Node5</title>
<g id="a_edge4_Node000002_Node000005"><a xlink:title=" ">
<path fill="none" stroke="#63b8ff" d="M415.71,-35.19C386.85,-30.03 353.05,-23.99 325.49,-19.06"/>
<polygon fill="#63b8ff" stroke="#63b8ff" points="415.23,-38.66 425.69,-36.97 416.46,-31.77 415.23,-38.66"/>
</a>
</g>
</g>
<!-- Node4 -->
<g id="Node000004" class="node">
<title>Node4</title>
<g id="a_Node000004"><a xlink:href="../../d6/d1a/classMainWindow.html#a996c5a2b6f77944776856f08ec30858d" target="_top" xlink:title=" ">
<polygon fill="white" stroke="#666666" points="148,-56 0,-56 0,-37 148,-37 148,-56"/>
<text text-anchor="middle" x="74" y="-44" font-family="Helvetica,sans-Serif" font-size="10.00">MainWindow::MainWindow</text>
</a>
</g>
</g>
<!-- Node3&#45;&gt;Node4 -->
<g id="edge3_Node000003_Node000004" class="edge">
<title>Node3&#45;&gt;Node4</title>
<g id="a_edge3_Node000003_Node000004"><a xlink:title=" ">
<path fill="none" stroke="#63b8ff" d="M173.79,-46.5C165.16,-46.5 156.51,-46.5 148.13,-46.5"/>
<polygon fill="#63b8ff" stroke="#63b8ff" points="173.9,-50 183.9,-46.5 173.9,-43 173.9,-50"/>
</a>
</g>
</g>
<!-- Node5&#45;&gt;Node1 -->
<g id="edge5_Node000005_Node000001" class="edge">
<title>Node5&#45;&gt;Node1</title>
<g id="a_edge5_Node000005_Node000001"><a xlink:title=" ">
<path fill="none" stroke="#63b8ff" d="M361.18,-13.4C432.69,-16.53 532.23,-20.88 601.71,-23.92"/>
<polygon fill="#63b8ff" stroke="#63b8ff" points="360.99,-9.89 350.84,-12.95 360.68,-16.88 360.99,-9.89"/>
</a>
</g>
</g>
</g>
</svg>
