<?xml version="1.0" encoding="UTF-8" standalone="no"?>
<!DOCTYPE svg PUBLIC "-//W3C//DTD SVG 1.1//EN"
 "http://www.w3.org/Graphics/SVG/1.1/DTD/svg11.dtd">
<!-- Generated by graphviz version 2.43.0 (0)
 -->
<!-- Title: productWidget::handleDelete Pages: 1 -->
<svg width="576pt" height="46pt"
 viewBox="0.00 0.00 576.00 46.00" xmlns="http://www.w3.org/2000/svg" xmlns:xlink="http://www.w3.org/1999/xlink">
<g id="graph0" class="graph" transform="scale(1 1) rotate(0) translate(4 42)">
<title>productWidget::handleDelete</title>
<!-- Node1 -->
<g id="Node000001" class="node">
<title>Node1</title>
<g id="a_Node000001"><a xlink:title=" ">
<polygon fill="#999999" stroke="#666666" points="159,-19 0,-19 0,0 159,0 159,-19"/>
<text text-anchor="middle" x="79.5" y="-7" font-family="Helvetica,sans-Serif" font-size="10.00">productWidget::handleDelete</text>
</a>
</g>
</g>
<!-- Node2 -->
<g id="Node000002" class="node">
<title>Node2</title>
<g id="a_Node000002"><a xlink:href="../../d5/ddc/classproductWidget.html#a63260ea7f3df590fe9c36c9e6ac5fd1e" target="_top" xlink:title=" ">
<polygon fill="white" stroke="#666666" points="367,-38 195,-38 195,-19 367,-19 367,-38"/>
<text text-anchor="middle" x="281" y="-26" font-family="Helvetica,sans-Serif" font-size="10.00">productWidget::requestDeletion</text>
</a>
</g>
</g>
<!-- Node1&#45;&gt;Node2 -->
<g id="edge1_Node000001_Node000002" class="edge">
<title>Node1&#45;&gt;Node2</title>
<g id="a_edge1_Node000001_Node000002"><a xlink:title=" ">
<path fill="none" stroke="#63b8ff" d="M159.06,-16.98C167.53,-17.79 176.2,-18.61 184.83,-19.44"/>
<polygon fill="#63b8ff" stroke="#63b8ff" points="184.64,-22.93 194.93,-20.4 185.31,-15.97 184.64,-22.93"/>
</a>
</g>
</g>
<!-- Node3 -->
<g id="Node000003" class="node">
<title>Node3</title>
<g id="a_Node000003"><a xlink:href="../../d5/ddc/classproductWidget.html#a09a25507340e6cef7121dc4796df83e2" target="_top" xlink:title=" ">
<polygon fill="white" stroke="#666666" points="568,-19 403,-19 403,0 568,0 568,-19"/>
<text text-anchor="middle" x="485.5" y="-7" font-family="Helvetica,sans-Serif" font-size="10.00">productWidget::productWidget</text>
</a>
</g>
</g>
<!-- Node2&#45;&gt;Node3 -->
<g id="edge2_Node000002_Node000003" class="edge">
<title>Node2&#45;&gt;Node3</title>
<g id="a_edge2_Node000002_Node000003"><a xlink:title=" ">
<path fill="none" stroke="#63b8ff" d="M367.29,-20.5C375.67,-19.71 384.19,-18.91 392.63,-18.12"/>
<polygon fill="#63b8ff" stroke="#63b8ff" points="393.23,-21.58 402.86,-17.16 392.58,-14.61 393.23,-21.58"/>
</a>
</g>
</g>
<!-- Node3&#45;&gt;Node1 -->
<g id="edge3_Node000003_Node000001" class="edge">
<title>Node3&#45;&gt;Node1</title>
<g id="a_edge3_Node000003_Node000001"><a xlink:title=" ">
<path fill="none" stroke="#63b8ff" d="M402.73,-9.5C335.03,-9.5 239.02,-9.5 169.42,-9.5"/>
<polygon fill="#63b8ff" stroke="#63b8ff" points="169.35,-6 159.35,-9.5 169.35,-13 169.35,-6"/>
</a>
</g>
</g>
</g>
</svg>
