<?xml version="1.0" encoding="UTF-8" standalone="no"?>
<!DOCTYPE svg PUBLIC "-//W3C//DTD SVG 1.1//EN"
 "http://www.w3.org/Graphics/SVG/1.1/DTD/svg11.dtd">
<!-- Generated by graphviz version 2.43.0 (0)
 -->
<!-- Title: productWidget::handleDelete Pages: 1 -->
<svg width="970pt" height="46pt"
 viewBox="0.00 0.00 970.00 46.00" xmlns="http://www.w3.org/2000/svg" xmlns:xlink="http://www.w3.org/1999/xlink">
<g id="graph0" class="graph" transform="scale(1 1) rotate(0) translate(4 42)">
<title>productWidget::handleDelete</title>
<!-- Node1 -->
<g id="Node000001" class="node">
<title>Node1</title>
<g id="a_Node000001"><a xlink:title=" ">
<polygon fill="#999999" stroke="#666666" points="962,-19 803,-19 803,0 962,0 962,-19"/>
<text text-anchor="middle" x="882.5" y="-7" font-family="Helvetica,sans-Serif" font-size="10.00">productWidget::handleDelete</text>
</a>
</g>
</g>
<!-- Node2 -->
<g id="Node000002" class="node">
<title>Node2</title>
<g id="a_Node000002"><a xlink:href="../../d5/ddc/classproductWidget.html#a09a25507340e6cef7121dc4796df83e2" target="_top" xlink:title=" ">
<polygon fill="white" stroke="#666666" points="767,-38 602,-38 602,-19 767,-19 767,-38"/>
<text text-anchor="middle" x="684.5" y="-26" font-family="Helvetica,sans-Serif" font-size="10.00">productWidget::productWidget</text>
</a>
</g>
</g>
<!-- Node1&#45;&gt;Node2 -->
<g id="edge1_Node000001_Node000002" class="edge">
<title>Node1&#45;&gt;Node2</title>
<g id="a_edge1_Node000001_Node000002"><a xlink:title=" ">
<path fill="none" stroke="#63b8ff" d="M792.95,-18.08C784.41,-18.91 775.78,-19.75 767.31,-20.57"/>
<polygon fill="#63b8ff" stroke="#63b8ff" points="793.29,-21.57 802.91,-17.12 792.62,-14.6 793.29,-21.57"/>
</a>
</g>
</g>
<!-- Node3 -->
<g id="Node000003" class="node">
<title>Node3</title>
<g id="a_Node000003"><a xlink:href="../../d5/ddc/classproductWidget.html#a63260ea7f3df590fe9c36c9e6ac5fd1e" target="_top" xlink:title=" ">
<polygon fill="white" stroke="#666666" points="566,-19 394,-19 394,0 566,0 566,-19"/>
<text text-anchor="middle" x="480" y="-7" font-family="Helvetica,sans-Serif" font-size="10.00">productWidget::requestDeletion</text>
</a>
</g>
</g>
<!-- Node2&#45;&gt;Node3 -->
<g id="edge2_Node000002_Node000003" class="edge">
<title>Node2&#45;&gt;Node3</title>
<g id="a_edge2_Node000002_Node000003"><a xlink:title=" ">
<path fill="none" stroke="#63b8ff" d="M591.74,-19.89C583.19,-19.09 574.54,-18.28 566.06,-17.48"/>
<polygon fill="#63b8ff" stroke="#63b8ff" points="591.44,-23.38 601.72,-20.83 592.09,-16.41 591.44,-23.38"/>
</a>
</g>
</g>
<!-- Node3&#45;&gt;Node1 -->
<g id="edge5_Node000003_Node000001" class="edge">
<title>Node3&#45;&gt;Node1</title>
<g id="a_edge5_Node000003_Node000001"><a xlink:title=" ">
<path fill="none" stroke="#63b8ff" d="M576.08,-9.5C645.26,-9.5 737.82,-9.5 802.85,-9.5"/>
<polygon fill="#63b8ff" stroke="#63b8ff" points="576.05,-6 566.05,-9.5 576.05,-13 576.05,-6"/>
</a>
</g>
</g>
<!-- Node4 -->
<g id="Node000004" class="node">
<title>Node4</title>
<g id="a_Node000004"><a xlink:href="../../d6/d1a/classMainWindow.html#a99a0369f7d7ac8af7bb45d9a89da781d" target="_top" xlink:title="helper function to add a product widget to the productList widget">
<polygon fill="white" stroke="#666666" points="358,-19 184,-19 184,0 358,0 358,-19"/>
<text text-anchor="middle" x="271" y="-7" font-family="Helvetica,sans-Serif" font-size="10.00">MainWindow::addProductWidget</text>
</a>
</g>
</g>
<!-- Node3&#45;&gt;Node4 -->
<g id="edge3_Node000003_Node000004" class="edge">
<title>Node3&#45;&gt;Node4</title>
<g id="a_edge3_Node000003_Node000004"><a xlink:title=" ">
<path fill="none" stroke="#63b8ff" d="M383.87,-9.5C375.28,-9.5 366.61,-9.5 358.1,-9.5"/>
<polygon fill="#63b8ff" stroke="#63b8ff" points="383.91,-13 393.91,-9.5 383.91,-6 383.91,-13"/>
</a>
</g>
</g>
<!-- Node5 -->
<g id="Node000005" class="node">
<title>Node5</title>
<g id="a_Node000005"><a xlink:href="../../d6/d1a/classMainWindow.html#a996c5a2b6f77944776856f08ec30858d" target="_top" xlink:title=" ">
<polygon fill="white" stroke="#666666" points="148,-19 0,-19 0,0 148,0 148,-19"/>
<text text-anchor="middle" x="74" y="-7" font-family="Helvetica,sans-Serif" font-size="10.00">MainWindow::MainWindow</text>
</a>
</g>
</g>
<!-- Node4&#45;&gt;Node5 -->
<g id="edge4_Node000004_Node000005" class="edge">
<title>Node4&#45;&gt;Node5</title>
<g id="a_edge4_Node000004_Node000005"><a xlink:title=" ">
<path fill="none" stroke="#63b8ff" d="M173.79,-9.5C165.16,-9.5 156.51,-9.5 148.13,-9.5"/>
<polygon fill="#63b8ff" stroke="#63b8ff" points="173.9,-13 183.9,-9.5 173.9,-6 173.9,-13"/>
</a>
</g>
</g>
</g>
</svg>
