<?xml version="1.0" encoding="UTF-8" standalone="no"?>
<!DOCTYPE svg PUBLIC "-//W3C//DTD SVG 1.1//EN"
 "http://www.w3.org/Graphics/SVG/1.1/DTD/svg11.dtd">
<!-- Generated by graphviz version 2.43.0 (0)
 -->
<!-- Title: productWidget::requestDeletion Pages: 1 -->
<svg width="591pt" height="83pt"
 viewBox="0.00 0.00 591.00 83.00" xmlns="http://www.w3.org/2000/svg" xmlns:xlink="http://www.w3.org/1999/xlink">
<g id="graph0" class="graph" transform="scale(1 1) rotate(0) translate(4 79)">
<title>productWidget::requestDeletion</title>
<!-- Node1 -->
<g id="Node000001" class="node">
<title>Node1</title>
<g id="a_Node000001"><a xlink:title=" ">
<polygon fill="#999999" stroke="#666666" points="583,-38 411,-38 411,-19 583,-19 583,-38"/>
<text text-anchor="middle" x="497" y="-26" font-family="Helvetica,sans-Serif" font-size="10.00">productWidget::requestDeletion</text>
</a>
</g>
</g>
<!-- Node2 -->
<g id="Node000002" class="node">
<title>Node2</title>
<g id="a_Node000002"><a xlink:href="../../d6/d1a/classMainWindow.html#a99a0369f7d7ac8af7bb45d9a89da781d" target="_top" xlink:title="helper function to add a product widget to the productList widget">
<polygon fill="white" stroke="#666666" points="375,-75 201,-75 201,-56 375,-56 375,-75"/>
<text text-anchor="middle" x="288" y="-63" font-family="Helvetica,sans-Serif" font-size="10.00">MainWindow::addProductWidget</text>
</a>
</g>
</g>
<!-- Node1&#45;&gt;Node2 -->
<g id="edge1_Node000001_Node000002" class="edge">
<title>Node1&#45;&gt;Node2</title>
<g id="a_edge1_Node000001_Node000002"><a xlink:title=" ">
<path fill="none" stroke="#63b8ff" d="M432.71,-39.81C403.85,-44.97 370.05,-51.01 342.49,-55.94"/>
<polygon fill="#63b8ff" stroke="#63b8ff" points="433.46,-43.23 442.69,-38.03 432.23,-36.34 433.46,-43.23"/>
</a>
</g>
</g>
<!-- Node4 -->
<g id="Node000004" class="node">
<title>Node4</title>
<g id="a_Node000004"><a xlink:href="../../d5/ddc/classproductWidget.html#ada0eb5a2b09521fa42d4ef72daaabe18" target="_top" xlink:title=" ">
<polygon fill="white" stroke="#666666" points="367.5,-38 208.5,-38 208.5,-19 367.5,-19 367.5,-38"/>
<text text-anchor="middle" x="288" y="-26" font-family="Helvetica,sans-Serif" font-size="10.00">productWidget::handleDelete</text>
</a>
</g>
</g>
<!-- Node1&#45;&gt;Node4 -->
<g id="edge3_Node000001_Node000004" class="edge">
<title>Node1&#45;&gt;Node4</title>
<g id="a_edge3_Node000001_Node000004"><a xlink:title=" ">
<path fill="none" stroke="#63b8ff" d="M400.81,-28.5C389.75,-28.5 378.57,-28.5 367.77,-28.5"/>
<polygon fill="#63b8ff" stroke="#63b8ff" points="400.91,-32 410.91,-28.5 400.91,-25 400.91,-32"/>
</a>
</g>
</g>
<!-- Node3 -->
<g id="Node000003" class="node">
<title>Node3</title>
<g id="a_Node000003"><a xlink:href="../../d6/d1a/classMainWindow.html#a996c5a2b6f77944776856f08ec30858d" target="_top" xlink:title=" ">
<polygon fill="white" stroke="#666666" points="156.5,-75 8.5,-75 8.5,-56 156.5,-56 156.5,-75"/>
<text text-anchor="middle" x="82.5" y="-63" font-family="Helvetica,sans-Serif" font-size="10.00">MainWindow::MainWindow</text>
</a>
</g>
</g>
<!-- Node2&#45;&gt;Node3 -->
<g id="edge2_Node000002_Node000003" class="edge">
<title>Node2&#45;&gt;Node3</title>
<g id="a_edge2_Node000002_Node000003"><a xlink:title=" ">
<path fill="none" stroke="#63b8ff" d="M190.91,-65.5C179.39,-65.5 167.78,-65.5 156.66,-65.5"/>
<polygon fill="#63b8ff" stroke="#63b8ff" points="190.99,-69 200.99,-65.5 190.99,-62 190.99,-69"/>
</a>
</g>
</g>
<!-- Node5 -->
<g id="Node000005" class="node">
<title>Node5</title>
<g id="a_Node000005"><a xlink:href="../../d5/ddc/classproductWidget.html#a09a25507340e6cef7121dc4796df83e2" target="_top" xlink:title=" ">
<polygon fill="white" stroke="#666666" points="165,-19 0,-19 0,0 165,0 165,-19"/>
<text text-anchor="middle" x="82.5" y="-7" font-family="Helvetica,sans-Serif" font-size="10.00">productWidget::productWidget</text>
</a>
</g>
</g>
<!-- Node4&#45;&gt;Node5 -->
<g id="edge4_Node000004_Node000005" class="edge">
<title>Node4&#45;&gt;Node5</title>
<g id="a_edge4_Node000004_Node000005"><a xlink:title=" ">
<path fill="none" stroke="#63b8ff" d="M198.33,-20.22C187.36,-19.2 176.19,-18.15 165.33,-17.14"/>
<polygon fill="#63b8ff" stroke="#63b8ff" points="198.04,-23.71 208.32,-21.15 198.69,-16.74 198.04,-23.71"/>
</a>
</g>
</g>
<!-- Node5&#45;&gt;Node1 -->
<g id="edge5_Node000005_Node000001" class="edge">
<title>Node5&#45;&gt;Node1</title>
<g id="a_edge5_Node000005_Node000001"><a xlink:title=" ">
<path fill="none" stroke="#63b8ff" d="M175.45,-5.84C232.9,-4.47 308.36,-4.3 375,-9.5 398.74,-11.35 424.87,-15.22 446.75,-18.99"/>
<polygon fill="#63b8ff" stroke="#63b8ff" points="175.21,-2.35 165.3,-6.1 175.39,-9.35 175.21,-2.35"/>
</a>
</g>
</g>
</g>
</svg>
