<?xml version="1.0" encoding="UTF-8" standalone="no"?>
<!DOCTYPE svg PUBLIC "-//W3C//DTD SVG 1.1//EN"
 "http://www.w3.org/Graphics/SVG/1.1/DTD/svg11.dtd">
<!-- Generated by graphviz version 2.43.0 (0)
 -->
<!-- Title: productWidget::requestDeletion Pages: 1 -->
<svg width="576pt" height="46pt"
 viewBox="0.00 0.00 576.00 46.00" xmlns="http://www.w3.org/2000/svg" xmlns:xlink="http://www.w3.org/1999/xlink">
<g id="graph0" class="graph" transform="scale(1 1) rotate(0) translate(4 42)">
<title>productWidget::requestDeletion</title>
<!-- Node1 -->
<g id="Node000001" class="node">
<title>Node1</title>
<g id="a_Node000001"><a xlink:title=" ">
<polygon fill="#999999" stroke="#666666" points="172,-19 0,-19 0,0 172,0 172,-19"/>
<text text-anchor="middle" x="86" y="-7" font-family="Helvetica,sans-Serif" font-size="10.00">productWidget::requestDeletion</text>
</a>
</g>
</g>
<!-- Node2 -->
<g id="Node000002" class="node">
<title>Node2</title>
<g id="a_Node000002"><a xlink:href="../../d5/ddc/classproductWidget.html#a09a25507340e6cef7121dc4796df83e2" target="_top" xlink:title=" ">
<polygon fill="white" stroke="#666666" points="373,-38 208,-38 208,-19 373,-19 373,-38"/>
<text text-anchor="middle" x="290.5" y="-26" font-family="Helvetica,sans-Serif" font-size="10.00">productWidget::productWidget</text>
</a>
</g>
</g>
<!-- Node1&#45;&gt;Node2 -->
<g id="edge1_Node000001_Node000002" class="edge">
<title>Node1&#45;&gt;Node2</title>
<g id="a_edge1_Node000001_Node000002"><a xlink:title=" ">
<path fill="none" stroke="#63b8ff" d="M172.29,-17.5C180.67,-18.29 189.19,-19.09 197.63,-19.88"/>
<polygon fill="#63b8ff" stroke="#63b8ff" points="197.58,-23.39 207.86,-20.84 198.23,-16.42 197.58,-23.39"/>
</a>
</g>
</g>
<!-- Node3 -->
<g id="Node000003" class="node">
<title>Node3</title>
<g id="a_Node000003"><a xlink:href="../../d5/ddc/classproductWidget.html#ada0eb5a2b09521fa42d4ef72daaabe18" target="_top" xlink:title=" ">
<polygon fill="white" stroke="#666666" points="568,-19 409,-19 409,0 568,0 568,-19"/>
<text text-anchor="middle" x="488.5" y="-7" font-family="Helvetica,sans-Serif" font-size="10.00">productWidget::handleDelete</text>
</a>
</g>
</g>
<!-- Node2&#45;&gt;Node3 -->
<g id="edge2_Node000002_Node000003" class="edge">
<title>Node2&#45;&gt;Node3</title>
<g id="a_edge2_Node000002_Node000003"><a xlink:title=" ">
<path fill="none" stroke="#63b8ff" d="M373.2,-20.58C381.57,-19.77 390.09,-18.94 398.53,-18.12"/>
<polygon fill="#63b8ff" stroke="#63b8ff" points="399.14,-21.58 408.76,-17.13 398.47,-14.61 399.14,-21.58"/>
</a>
</g>
</g>
<!-- Node3&#45;&gt;Node1 -->
<g id="edge3_Node000003_Node000001" class="edge">
<title>Node3&#45;&gt;Node1</title>
<g id="a_edge3_Node000003_Node000001"><a xlink:title=" ">
<path fill="none" stroke="#63b8ff" d="M408.66,-9.5C343.76,-9.5 251.52,-9.5 182.44,-9.5"/>
<polygon fill="#63b8ff" stroke="#63b8ff" points="182.43,-6 172.43,-9.5 182.43,-13 182.43,-6"/>
</a>
</g>
</g>
</g>
</svg>
