<?xml version="1.0" encoding="UTF-8" standalone="no"?>
<!DOCTYPE svg PUBLIC "-//W3C//DTD SVG 1.1//EN"
 "http://www.w3.org/Graphics/SVG/1.1/DTD/svg11.dtd">
<!-- Generated by graphviz version 2.43.0 (0)
 -->
<!-- Title: productWidget::productWidget Pages: 1 -->
<svg width="576pt" height="46pt"
 viewBox="0.00 0.00 576.00 46.00" xmlns="http://www.w3.org/2000/svg" xmlns:xlink="http://www.w3.org/1999/xlink">
<g id="graph0" class="graph" transform="scale(1 1) rotate(0) translate(4 42)">
<title>productWidget::productWidget</title>
<!-- Node1 -->
<g id="Node000001" class="node">
<title>Node1</title>
<g id="a_Node000001"><a xlink:title=" ">
<polygon fill="#999999" stroke="#666666" points="165,-19 0,-19 0,0 165,0 165,-19"/>
<text text-anchor="middle" x="82.5" y="-7" font-family="Helvetica,sans-Serif" font-size="10.00">productWidget::productWidget</text>
</a>
</g>
</g>
<!-- Node2 -->
<g id="Node000002" class="node">
<title>Node2</title>
<g id="a_Node000002"><a xlink:href="../../d5/ddc/classproductWidget.html#ada0eb5a2b09521fa42d4ef72daaabe18" target="_top" xlink:title=" ">
<polygon fill="white" stroke="#666666" points="360,-38 201,-38 201,-19 360,-19 360,-38"/>
<text text-anchor="middle" x="280.5" y="-26" font-family="Helvetica,sans-Serif" font-size="10.00">productWidget::handleDelete</text>
</a>
</g>
</g>
<!-- Node1&#45;&gt;Node2 -->
<g id="edge1_Node000001_Node000002" class="edge">
<title>Node1&#45;&gt;Node2</title>
<g id="a_edge1_Node000001_Node000002"><a xlink:title=" ">
<path fill="none" stroke="#63b8ff" d="M165.2,-17.42C173.57,-18.23 182.09,-19.06 190.53,-19.88"/>
<polygon fill="#63b8ff" stroke="#63b8ff" points="190.47,-23.39 200.76,-20.87 191.14,-16.42 190.47,-23.39"/>
</a>
</g>
</g>
<!-- Node3 -->
<g id="Node000003" class="node">
<title>Node3</title>
<g id="a_Node000003"><a xlink:href="../../d5/ddc/classproductWidget.html#a63260ea7f3df590fe9c36c9e6ac5fd1e" target="_top" xlink:title=" ">
<polygon fill="white" stroke="#666666" points="568,-19 396,-19 396,0 568,0 568,-19"/>
<text text-anchor="middle" x="482" y="-7" font-family="Helvetica,sans-Serif" font-size="10.00">productWidget::requestDeletion</text>
</a>
</g>
</g>
<!-- Node2&#45;&gt;Node3 -->
<g id="edge2_Node000002_Node000003" class="edge">
<title>Node2&#45;&gt;Node3</title>
<g id="a_edge2_Node000002_Node000003"><a xlink:title=" ">
<path fill="none" stroke="#63b8ff" d="M360.06,-21.02C368.53,-20.21 377.2,-19.39 385.83,-18.56"/>
<polygon fill="#63b8ff" stroke="#63b8ff" points="386.31,-22.03 395.93,-17.6 385.64,-15.07 386.31,-22.03"/>
</a>
</g>
</g>
<!-- Node3&#45;&gt;Node1 -->
<g id="edge3_Node000003_Node000001" class="edge">
<title>Node3&#45;&gt;Node1</title>
<g id="a_edge3_Node000003_Node000001"><a xlink:title=" ">
<path fill="none" stroke="#63b8ff" d="M395.79,-9.5C330.96,-9.5 241.86,-9.5 175.43,-9.5"/>
<polygon fill="#63b8ff" stroke="#63b8ff" points="175.38,-6 165.38,-9.5 175.38,-13 175.38,-6"/>
</a>
</g>
</g>
</g>
</svg>
