<?xml version="1.0" encoding="UTF-8" standalone="no"?>
<!DOCTYPE svg PUBLIC "-//W3C//DTD SVG 1.1//EN"
 "http://www.w3.org/Graphics/SVG/1.1/DTD/svg11.dtd">
<!-- Generated by graphviz version 2.43.0 (0)
 -->
<!-- Title: drawLine Pages: 1 -->
<svg width="599pt" height="148pt"
 viewBox="0.00 0.00 599.00 148.00" xmlns="http://www.w3.org/2000/svg" xmlns:xlink="http://www.w3.org/1999/xlink">
<g id="graph0" class="graph" transform="scale(1 1) rotate(0) translate(4 144)">
<title>drawLine</title>
<!-- Node1 -->
<g id="Node000001" class="node">
<title>Node1</title>
<g id="a_Node000001"><a xlink:title="draw a line, line width needs to be set before">
<polygon fill="#999999" stroke="#666666" points="591,-59 530,-59 530,-40 591,-40 591,-59"/>
<text text-anchor="middle" x="560.5" y="-47" font-family="Helvetica,sans-Serif" font-size="10.00">drawLine</text>
</a>
</g>
</g>
<!-- Node2 -->
<g id="Node000002" class="node">
<title>Node2</title>
<g id="a_Node000002"><a xlink:href="../../d0/d60/classInvoice.html#ab4acb460d577d22d5eec6a66cd36f451" target="_top" xlink:title="prints the footer on the current pdf page, excluding the page number">
<polygon fill="white" stroke="#666666" points="480.5,-102 343.5,-102 343.5,-83 480.5,-83 480.5,-102"/>
<text text-anchor="middle" x="412" y="-90" font-family="Helvetica,sans-Serif" font-size="10.00">Invoice::_generateFooter</text>
</a>
</g>
</g>
<!-- Node1&#45;&gt;Node2 -->
<g id="edge1_Node000001_Node000002" class="edge">
<title>Node1&#45;&gt;Node2</title>
<g id="a_edge1_Node000001_Node000002"><a xlink:title=" ">
<path fill="none" stroke="#63b8ff" d="M520.23,-61.03C496.82,-67.9 467.48,-76.51 445.4,-82.99"/>
<polygon fill="#63b8ff" stroke="#63b8ff" points="521.24,-64.38 529.85,-58.2 519.27,-57.66 521.24,-64.38"/>
</a>
</g>
</g>
<!-- Node5 -->
<g id="Node000005" class="node">
<title>Node5</title>
<g id="a_Node000005"><a xlink:href="../../d5/d0b/classproduct__table.html#adf1b09a9c7c79633006a53f5000f7cd6" target="_top" xlink:title="Function to automatically draw the Product table on to a given invoice page.">
<polygon fill="white" stroke="#666666" points="294,-64.5 137,-64.5 137,-34.5 294,-34.5 294,-64.5"/>
<text text-anchor="start" x="145" y="-52.5" font-family="Helvetica,sans-Serif" font-size="10.00">product_table::createProduct</text>
<text text-anchor="middle" x="215.5" y="-41.5" font-family="Helvetica,sans-Serif" font-size="10.00">Table</text>
</a>
</g>
</g>
<!-- Node1&#45;&gt;Node5 -->
<g id="edge5_Node000001_Node000005" class="edge">
<title>Node1&#45;&gt;Node5</title>
<g id="a_edge5_Node000001_Node000005"><a xlink:title=" ">
<path fill="none" stroke="#63b8ff" d="M519.92,-49.5C464.95,-49.5 364.33,-49.5 294.09,-49.5"/>
<polygon fill="#63b8ff" stroke="#63b8ff" points="519.96,-53 529.96,-49.5 519.96,-46 519.96,-53"/>
</a>
</g>
</g>
<!-- Node6 -->
<g id="Node000006" class="node">
<title>Node6</title>
<g id="a_Node000006"><a xlink:href="../../d5/d0b/classproduct__table.html#a7c305272f377548eb4f3d1a4f403ef59" target="_top" xlink:title="Draws the Product Tables Total Row on to a given pdf page.">
<polygon fill="white" stroke="#666666" points="494,-19 330,-19 330,0 494,0 494,-19"/>
<text text-anchor="middle" x="412" y="-7" font-family="Helvetica,sans-Serif" font-size="10.00">product_table::createTotalRow</text>
</a>
</g>
</g>
<!-- Node1&#45;&gt;Node6 -->
<g id="edge7_Node000001_Node000006" class="edge">
<title>Node1&#45;&gt;Node6</title>
<g id="a_edge7_Node000001_Node000006"><a xlink:title=" ">
<path fill="none" stroke="#63b8ff" d="M519.96,-38.7C497.52,-32.58 469.67,-24.97 448.02,-19.06"/>
<polygon fill="#63b8ff" stroke="#63b8ff" points="519.28,-42.15 529.85,-41.41 521.13,-35.39 519.28,-42.15"/>
</a>
</g>
</g>
<!-- Node3 -->
<g id="Node000003" class="node">
<title>Node3</title>
<g id="a_Node000003"><a xlink:href="../../d0/d60/classInvoice.html#ae366ae46961f362bc7ec30285ab90a67" target="_top" xlink:title="create a new page and add to pages list">
<polygon fill="white" stroke="#666666" points="291.5,-140 139.5,-140 139.5,-121 291.5,-121 291.5,-140"/>
<text text-anchor="middle" x="215.5" y="-128" font-family="Helvetica,sans-Serif" font-size="10.00">Invoice::_generateNewPage</text>
</a>
</g>
</g>
<!-- Node2&#45;&gt;Node3 -->
<g id="edge2_Node000002_Node000003" class="edge">
<title>Node2&#45;&gt;Node3</title>
<g id="a_edge2_Node000002_Node000003"><a xlink:title=" ">
<path fill="none" stroke="#63b8ff" d="M352.19,-103.99C324.44,-109.41 291.71,-115.81 265.35,-120.96"/>
<polygon fill="#63b8ff" stroke="#63b8ff" points="353.03,-107.39 362.17,-102.04 351.68,-100.52 353.03,-107.39"/>
</a>
</g>
</g>
<!-- Node4 -->
<g id="Node000004" class="node">
<title>Node4</title>
<g id="a_Node000004"><a xlink:href="../../d0/d60/classInvoice.html#a48f0228b01b24ea6c4db18f700e36015" target="_top" xlink:title="generate a PDF invoice and save it to the users downloads folder as the invoice_number....">
<polygon fill="white" stroke="#666666" points="101,-80 0,-80 0,-61 101,-61 101,-80"/>
<text text-anchor="middle" x="50.5" y="-68" font-family="Helvetica,sans-Serif" font-size="10.00">Invoice::generate</text>
</a>
</g>
</g>
<!-- Node2&#45;&gt;Node4 -->
<g id="edge4_Node000002_Node000004" class="edge">
<title>Node2&#45;&gt;Node4</title>
<g id="a_edge4_Node000002_Node000004"><a xlink:title=" ">
<path fill="none" stroke="#63b8ff" d="M333.23,-87.74C262.81,-83.43 161.19,-77.21 101.18,-73.54"/>
<polygon fill="#63b8ff" stroke="#63b8ff" points="333.19,-91.24 343.38,-88.36 333.61,-84.26 333.19,-91.24"/>
</a>
</g>
</g>
<!-- Node3&#45;&gt;Node4 -->
<g id="edge3_Node000003_Node000004" class="edge">
<title>Node3&#45;&gt;Node4</title>
<g id="a_edge3_Node000003_Node000004"><a xlink:title=" ">
<path fill="none" stroke="#63b8ff" d="M171.42,-117.98C160.15,-114.48 148.05,-110.53 137,-106.5 114.76,-98.39 89.87,-87.73 72.7,-80.11"/>
<polygon fill="#63b8ff" stroke="#63b8ff" points="170.49,-121.36 181.07,-120.93 172.53,-114.66 170.49,-121.36"/>
</a>
</g>
</g>
<!-- Node5&#45;&gt;Node4 -->
<g id="edge6_Node000005_Node000004" class="edge">
<title>Node5&#45;&gt;Node4</title>
<g id="a_edge6_Node000005_Node000004"><a xlink:title=" ">
<path fill="none" stroke="#63b8ff" d="M126.86,-60.79C118.06,-61.93 109.35,-63.05 101.15,-64.1"/>
<polygon fill="#63b8ff" stroke="#63b8ff" points="127.35,-64.26 136.82,-59.51 126.45,-57.31 127.35,-64.26"/>
</a>
</g>
</g>
<!-- Node6&#45;&gt;Node4 -->
<g id="edge8_Node000006_Node000004" class="edge">
<title>Node6&#45;&gt;Node4</title>
<g id="a_edge8_Node000006_Node000004"><a xlink:title=" ">
<path fill="none" stroke="#63b8ff" d="M319.55,-5.24C265.52,-5.08 196.3,-9 137,-25.5 109.85,-33.05 81.51,-50.07 65.24,-60.88"/>
<polygon fill="#63b8ff" stroke="#63b8ff" points="319.77,-8.74 329.8,-5.32 319.83,-1.74 319.77,-8.74"/>
</a>
</g>
</g>
</g>
</svg>
