<?xml version="1.0" encoding="UTF-8" standalone="no"?>
<!DOCTYPE svg PUBLIC "-//W3C//DTD SVG 1.1//EN"
 "http://www.w3.org/Graphics/SVG/1.1/DTD/svg11.dtd">
<!-- Generated by graphviz version 2.43.0 (0)
 -->
<!-- Title: writeTextIfNotHeightExceeded Pages: 1 -->
<svg width="656pt" height="76pt"
 viewBox="0.00 0.00 656.00 75.50" xmlns="http://www.w3.org/2000/svg" xmlns:xlink="http://www.w3.org/1999/xlink">
<g id="graph0" class="graph" transform="scale(1 1) rotate(0) translate(4 71.5)">
<title>writeTextIfNotHeightExceeded</title>
<!-- Node1 -->
<g id="Node000001" class="node">
<title>Node1</title>
<g id="a_Node000001"><a xlink:title="write text on to the pdf at a given point when max height is not exceeded">
<polygon fill="#999999" stroke="#666666" points="648,-40 483,-40 483,-21 648,-21 648,-40"/>
<text text-anchor="middle" x="565.5" y="-28" font-family="Helvetica,sans-Serif" font-size="10.00">writeTextIfNotHeightExceeded</text>
</a>
</g>
</g>
<!-- Node2 -->
<g id="Node000002" class="node">
<title>Node2</title>
<g id="a_Node000002"><a xlink:href="../../d8/d27/product__table_8cpp.html#a6fead7fb5c4027b48fc26fb283e3f71f" target="_top" xlink:title=" ">
<polygon fill="white" stroke="#666666" points="447,-60 337,-60 337,-41 447,-41 447,-60"/>
<text text-anchor="middle" x="392" y="-48" font-family="Helvetica,sans-Serif" font-size="10.00">_createProductRow</text>
</a>
</g>
</g>
<!-- Node1&#45;&gt;Node2 -->
<g id="edge1_Node000001_Node000002" class="edge">
<title>Node1&#45;&gt;Node2</title>
<g id="a_edge1_Node000001_Node000002"><a xlink:title=" ">
<path fill="none" stroke="#63b8ff" d="M472.8,-41.19C464.12,-42.21 455.51,-43.21 447.35,-44.16"/>
<polygon fill="#63b8ff" stroke="#63b8ff" points="473.49,-44.64 483.02,-40 472.68,-37.68 473.49,-44.64"/>
</a>
</g>
</g>
<!-- Node5 -->
<g id="Node000005" class="node">
<title>Node5</title>
<g id="a_Node000005"><a xlink:href="../../d5/d0b/classproduct__table.html#a7c305272f377548eb4f3d1a4f403ef59" target="_top" xlink:title="Draws the Product Tables Total Row on to a given pdf page.">
<polygon fill="white" stroke="#666666" points="301,-19 137,-19 137,0 301,0 301,-19"/>
<text text-anchor="middle" x="219" y="-7" font-family="Helvetica,sans-Serif" font-size="10.00">product_table::createTotalRow</text>
</a>
</g>
</g>
<!-- Node1&#45;&gt;Node5 -->
<g id="edge4_Node000001_Node000005" class="edge">
<title>Node1&#45;&gt;Node5</title>
<g id="a_edge4_Node000001_Node000005"><a xlink:title=" ">
<path fill="none" stroke="#63b8ff" d="M472.7,-24.9C419.28,-21.65 352.53,-17.58 301.06,-14.44"/>
<polygon fill="#63b8ff" stroke="#63b8ff" points="472.66,-28.41 482.86,-25.52 473.09,-21.42 472.66,-28.41"/>
</a>
</g>
</g>
<!-- Node3 -->
<g id="Node000003" class="node">
<title>Node3</title>
<g id="a_Node000003"><a xlink:href="../../d5/d0b/classproduct__table.html#adf1b09a9c7c79633006a53f5000f7cd6" target="_top" xlink:title="Function to automatically draw the Product table on to a given invoice page.">
<polygon fill="white" stroke="#666666" points="297.5,-67.5 140.5,-67.5 140.5,-37.5 297.5,-37.5 297.5,-67.5"/>
<text text-anchor="start" x="148.5" y="-55.5" font-family="Helvetica,sans-Serif" font-size="10.00">product_table::createProduct</text>
<text text-anchor="middle" x="219" y="-44.5" font-family="Helvetica,sans-Serif" font-size="10.00">Table</text>
</a>
</g>
</g>
<!-- Node2&#45;&gt;Node3 -->
<g id="edge2_Node000002_Node000003" class="edge">
<title>Node2&#45;&gt;Node3</title>
<g id="a_edge2_Node000002_Node000003"><a xlink:title=" ">
<path fill="none" stroke="#63b8ff" d="M326.8,-51.25C317.34,-51.36 307.51,-51.48 297.81,-51.59"/>
<polygon fill="#63b8ff" stroke="#63b8ff" points="326.94,-54.75 336.89,-51.13 326.85,-47.75 326.94,-54.75"/>
</a>
</g>
</g>
<!-- Node4 -->
<g id="Node000004" class="node">
<title>Node4</title>
<g id="a_Node000004"><a xlink:href="../../d0/d60/classInvoice.html#a48f0228b01b24ea6c4db18f700e36015" target="_top" xlink:title="generate a PDF invoice and save it to the users downloads folder as the invoice_number....">
<polygon fill="white" stroke="#666666" points="101,-40 0,-40 0,-21 101,-21 101,-40"/>
<text text-anchor="middle" x="50.5" y="-28" font-family="Helvetica,sans-Serif" font-size="10.00">Invoice::generate</text>
</a>
</g>
</g>
<!-- Node3&#45;&gt;Node4 -->
<g id="edge3_Node000003_Node000004" class="edge">
<title>Node3&#45;&gt;Node4</title>
<g id="a_edge3_Node000003_Node000004"><a xlink:title=" ">
<path fill="none" stroke="#63b8ff" d="M130.2,-40.9C120.29,-39.59 110.47,-38.29 101.3,-37.08"/>
<polygon fill="#63b8ff" stroke="#63b8ff" points="129.74,-44.37 140.11,-42.21 130.66,-37.43 129.74,-44.37"/>
</a>
</g>
</g>
<!-- Node5&#45;&gt;Node4 -->
<g id="edge5_Node000005_Node000004" class="edge">
<title>Node5&#45;&gt;Node4</title>
<g id="a_edge5_Node000005_Node000004"><a xlink:title=" ">
<path fill="none" stroke="#63b8ff" d="M132.39,-20.3C121.79,-21.63 111.24,-22.97 101.43,-24.2"/>
<polygon fill="#63b8ff" stroke="#63b8ff" points="133.06,-23.74 142.54,-19.02 132.19,-16.8 133.06,-23.74"/>
</a>
</g>
</g>
</g>
</svg>
