<?xml version="1.0" encoding="UTF-8" standalone="no"?>
<!DOCTYPE svg PUBLIC "-//W3C//DTD SVG 1.1//EN"
 "http://www.w3.org/Graphics/SVG/1.1/DTD/svg11.dtd">
<!-- Generated by graphviz version 2.43.0 (0)
 -->
<!-- Title: changeFont Pages: 1 -->
<svg width="601pt" height="252pt"
 viewBox="0.00 0.00 601.00 252.00" xmlns="http://www.w3.org/2000/svg" xmlns:xlink="http://www.w3.org/1999/xlink">
<g id="graph0" class="graph" transform="scale(1 1) rotate(0) translate(4 248)">
<title>changeFont</title>
<!-- Node1 -->
<g id="Node000001" class="node">
<title>Node1</title>
<g id="a_Node000001"><a xlink:title="change the font and font size">
<polygon fill="#999999" stroke="#666666" points="593,-150 520,-150 520,-131 593,-131 593,-150"/>
<text text-anchor="middle" x="556.5" y="-138" font-family="Helvetica,sans-Serif" font-size="10.00">changeFont</text>
</a>
</g>
</g>
<!-- Node2 -->
<g id="Node000002" class="node">
<title>Node2</title>
<g id="a_Node000002"><a xlink:href="../../d8/d27/product__table_8cpp.html#a15a37a94b45b36a871ebb8ebf5f36159" target="_top" xlink:title=" ">
<polygon fill="white" stroke="#666666" points="478,-244 353,-244 353,-225 478,-225 478,-244"/>
<text text-anchor="middle" x="415.5" y="-232" font-family="Helvetica,sans-Serif" font-size="10.00">_createProductHeader</text>
</a>
</g>
</g>
<!-- Node1&#45;&gt;Node2 -->
<g id="edge1_Node000001_Node000002" class="edge">
<title>Node1&#45;&gt;Node2</title>
<g id="a_edge1_Node000001_Node000002"><a xlink:title=" ">
<path fill="none" stroke="#63b8ff" d="M543.4,-158.25C530.62,-175.64 508.9,-201.63 484,-216.5 478.27,-219.92 471.89,-222.7 465.4,-224.96"/>
<polygon fill="#63b8ff" stroke="#63b8ff" points="546.29,-160.22 549.24,-150.04 540.59,-156.16 546.29,-160.22"/>
</a>
</g>
</g>
<!-- Node4 -->
<g id="Node000004" class="node">
<title>Node4</title>
<g id="a_Node000004"><a xlink:href="../../d0/d60/classInvoice.html#a48f0228b01b24ea6c4db18f700e36015" target="_top" xlink:title="generate a PDF invoice and save it to the users downloads folder as the invoice_number....">
<polygon fill="white" stroke="#666666" points="101,-112 0,-112 0,-93 101,-93 101,-112"/>
<text text-anchor="middle" x="50.5" y="-100" font-family="Helvetica,sans-Serif" font-size="10.00">Invoice::generate</text>
</a>
</g>
</g>
<!-- Node1&#45;&gt;Node4 -->
<g id="edge14_Node000001_Node000004" class="edge">
<title>Node1&#45;&gt;Node4</title>
<g id="a_edge14_Node000001_Node000004"><a xlink:title=" ">
<path fill="none" stroke="#63b8ff" d="M509.57,-142.49C432.13,-145 270.94,-146.66 137,-124.5 119.01,-121.52 99.27,-116.56 83.29,-112.1"/>
<polygon fill="#63b8ff" stroke="#63b8ff" points="510.05,-145.97 519.92,-142.13 509.81,-138.98 510.05,-145.97"/>
</a>
</g>
</g>
<!-- Node5 -->
<g id="Node000005" class="node">
<title>Node5</title>
<g id="a_Node000005"><a xlink:href="../../d8/d27/product__table_8cpp.html#a6fead7fb5c4027b48fc26fb283e3f71f" target="_top" xlink:title=" ">
<polygon fill="white" stroke="#666666" points="470.5,-207 360.5,-207 360.5,-188 470.5,-188 470.5,-207"/>
<text text-anchor="middle" x="415.5" y="-195" font-family="Helvetica,sans-Serif" font-size="10.00">_createProductRow</text>
</a>
</g>
</g>
<!-- Node1&#45;&gt;Node5 -->
<g id="edge4_Node000001_Node000005" class="edge">
<title>Node1&#45;&gt;Node5</title>
<g id="a_edge4_Node000001_Node000005"><a xlink:title=" ">
<path fill="none" stroke="#63b8ff" d="M526.67,-154.53C513.74,-160.64 498.23,-167.7 484,-173.5 471.45,-178.62 457.35,-183.73 445.29,-187.91"/>
<polygon fill="#63b8ff" stroke="#63b8ff" points="528.46,-157.55 535.98,-150.09 525.45,-151.23 528.46,-157.55"/>
</a>
</g>
</g>
<!-- Node6 -->
<g id="Node000006" class="node">
<title>Node6</title>
<g id="a_Node000006"><a xlink:href="../../d0/d60/classInvoice.html#ab4acb460d577d22d5eec6a66cd36f451" target="_top" xlink:title="prints the footer on the current pdf page, excluding the page number">
<polygon fill="white" stroke="#666666" points="484,-131 347,-131 347,-112 484,-112 484,-131"/>
<text text-anchor="middle" x="415.5" y="-119" font-family="Helvetica,sans-Serif" font-size="10.00">Invoice::_generateFooter</text>
</a>
</g>
</g>
<!-- Node1&#45;&gt;Node6 -->
<g id="edge6_Node000001_Node000006" class="edge">
<title>Node1&#45;&gt;Node6</title>
<g id="a_edge6_Node000001_Node000006"><a xlink:title=" ">
<path fill="none" stroke="#63b8ff" d="M509.61,-134.23C501.4,-133.11 492.7,-131.92 484.03,-130.73"/>
<polygon fill="#63b8ff" stroke="#63b8ff" points="509.32,-137.72 519.7,-135.61 510.27,-130.78 509.32,-137.72"/>
</a>
</g>
</g>
<!-- Node8 -->
<g id="Node000008" class="node">
<title>Node8</title>
<g id="a_Node000008"><a xlink:href="../../d0/d60/classInvoice.html#a29edd9e425464d3b97e00c6da3c83a7e" target="_top" xlink:title="print page numbering on all pages">
<polygon fill="white" stroke="#666666" points="311,-56 137,-56 137,-37 311,-37 311,-56"/>
<text text-anchor="middle" x="224" y="-44" font-family="Helvetica,sans-Serif" font-size="10.00">Invoice::_generatePageNumbers</text>
</a>
</g>
</g>
<!-- Node1&#45;&gt;Node8 -->
<g id="edge10_Node000001_Node000008" class="edge">
<title>Node1&#45;&gt;Node8</title>
<g id="a_edge10_Node000001_Node000008"><a xlink:title=" ">
<path fill="none" stroke="#63b8ff" d="M531.18,-125.89C517.67,-118.31 500.34,-109.41 484,-103.5 420.03,-80.36 343.63,-64.94 290.45,-56.04"/>
<polygon fill="#63b8ff" stroke="#63b8ff" points="529.44,-128.93 539.86,-130.88 532.93,-122.86 529.44,-128.93"/>
</a>
</g>
</g>
<!-- Node9 -->
<g id="Node000009" class="node">
<title>Node9</title>
<g id="a_Node000009"><a xlink:href="../../d5/d0b/classproduct__table.html#a7c305272f377548eb4f3d1a4f403ef59" target="_top" xlink:title="Draws the Product Table on to a given pdf page.">
<polygon fill="white" stroke="#666666" points="306,-19 142,-19 142,0 306,0 306,-19"/>
<text text-anchor="middle" x="224" y="-7" font-family="Helvetica,sans-Serif" font-size="10.00">product_table::createTotalRow</text>
</a>
</g>
</g>
<!-- Node1&#45;&gt;Node9 -->
<g id="edge12_Node000001_Node000009" class="edge">
<title>Node1&#45;&gt;Node9</title>
<g id="a_edge12_Node000001_Node000009"><a xlink:title=" ">
<path fill="none" stroke="#63b8ff" d="M543.89,-122.25C531.37,-104.15 509.73,-77.07 484,-62.5 429.59,-31.68 359.73,-18.65 306.28,-13.21"/>
<polygon fill="#63b8ff" stroke="#63b8ff" points="541.12,-124.41 549.58,-130.78 546.94,-120.52 541.12,-124.41"/>
</a>
</g>
</g>
<!-- Node3 -->
<g id="Node000003" class="node">
<title>Node3</title>
<g id="a_Node000003"><a xlink:href="../../d5/d0b/classproduct__table.html#adf1b09a9c7c79633006a53f5000f7cd6" target="_top" xlink:title="Function to automatically draw the Product table on to a given invoice page.">
<polygon fill="white" stroke="#666666" points="302.5,-217.5 145.5,-217.5 145.5,-187.5 302.5,-187.5 302.5,-217.5"/>
<text text-anchor="start" x="153.5" y="-205.5" font-family="Helvetica,sans-Serif" font-size="10.00">product_table::createProduct</text>
<text text-anchor="middle" x="224" y="-194.5" font-family="Helvetica,sans-Serif" font-size="10.00">Table</text>
</a>
</g>
</g>
<!-- Node2&#45;&gt;Node3 -->
<g id="edge2_Node000002_Node000003" class="edge">
<title>Node2&#45;&gt;Node3</title>
<g id="a_edge2_Node000002_Node000003"><a xlink:title=" ">
<path fill="none" stroke="#63b8ff" d="M348.14,-223.29C333.4,-220.81 317.66,-218.15 302.52,-215.59"/>
<polygon fill="#63b8ff" stroke="#63b8ff" points="347.71,-226.77 358.16,-224.99 348.88,-219.87 347.71,-226.77"/>
</a>
</g>
</g>
<!-- Node3&#45;&gt;Node4 -->
<g id="edge3_Node000003_Node000004" class="edge">
<title>Node3&#45;&gt;Node4</title>
<g id="a_edge3_Node000003_Node000004"><a xlink:title=" ">
<path fill="none" stroke="#63b8ff" d="M158.89,-183.83C151.33,-180.78 143.87,-177.33 137,-173.5 106,-156.2 75.39,-127.09 60.63,-112.08"/>
<polygon fill="#63b8ff" stroke="#63b8ff" points="157.89,-187.2 168.48,-187.5 160.39,-180.66 157.89,-187.2"/>
</a>
</g>
</g>
<!-- Node5&#45;&gt;Node3 -->
<g id="edge5_Node000005_Node000003" class="edge">
<title>Node5&#45;&gt;Node3</title>
<g id="a_edge5_Node000005_Node000003"><a xlink:title=" ">
<path fill="none" stroke="#63b8ff" d="M350.13,-199.2C334.91,-199.6 318.53,-200.03 302.8,-200.45"/>
<polygon fill="#63b8ff" stroke="#63b8ff" points="350.55,-202.69 360.45,-198.93 350.36,-195.69 350.55,-202.69"/>
</a>
</g>
</g>
<!-- Node6&#45;&gt;Node4 -->
<g id="edge9_Node000006_Node000004" class="edge">
<title>Node6&#45;&gt;Node4</title>
<g id="a_edge9_Node000006_Node000004"><a xlink:title=" ">
<path fill="none" stroke="#63b8ff" d="M336.37,-117.41C265.09,-113.68 161.88,-108.28 101.24,-105.1"/>
<polygon fill="#63b8ff" stroke="#63b8ff" points="336.48,-120.92 346.65,-117.95 336.84,-113.93 336.48,-120.92"/>
</a>
</g>
</g>
<!-- Node7 -->
<g id="Node000007" class="node">
<title>Node7</title>
<g id="a_Node000007"><a xlink:href="../../d0/d60/classInvoice.html#ae366ae46961f362bc7ec30285ab90a67" target="_top" xlink:title="create a new page and add to pages list">
<polygon fill="white" stroke="#666666" points="300,-93 148,-93 148,-74 300,-74 300,-93"/>
<text text-anchor="middle" x="224" y="-81" font-family="Helvetica,sans-Serif" font-size="10.00">Invoice::_generateNewPage</text>
</a>
</g>
</g>
<!-- Node6&#45;&gt;Node7 -->
<g id="edge7_Node000006_Node000007" class="edge">
<title>Node6&#45;&gt;Node7</title>
<g id="a_edge7_Node000006_Node000007"><a xlink:title=" ">
<path fill="none" stroke="#63b8ff" d="M356.61,-109.89C329.65,-104.49 297.99,-98.14 272.47,-93.02"/>
<polygon fill="#63b8ff" stroke="#63b8ff" points="356.19,-113.38 366.68,-111.91 357.56,-106.51 356.19,-113.38"/>
</a>
</g>
</g>
<!-- Node7&#45;&gt;Node4 -->
<g id="edge8_Node000007_Node000004" class="edge">
<title>Node7&#45;&gt;Node4</title>
<g id="a_edge8_Node000007_Node000004"><a xlink:title=" ">
<path fill="none" stroke="#63b8ff" d="M137.71,-92.95C125.13,-94.34 112.53,-95.74 101,-97.02"/>
<polygon fill="#63b8ff" stroke="#63b8ff" points="138.22,-96.41 147.78,-91.83 137.45,-89.46 138.22,-96.41"/>
</a>
</g>
</g>
<!-- Node8&#45;&gt;Node4 -->
<g id="edge11_Node000008_Node000004" class="edge">
<title>Node8&#45;&gt;Node4</title>
<g id="a_edge11_Node000008_Node000004"><a xlink:title=" ">
<path fill="none" stroke="#63b8ff" d="M162.16,-58.42C153.64,-60.53 145.05,-62.89 137,-65.5 113.61,-73.07 87.85,-84.69 70.79,-92.89"/>
<polygon fill="#63b8ff" stroke="#63b8ff" points="163.17,-61.78 172.09,-56.06 161.55,-54.97 163.17,-61.78"/>
</a>
</g>
</g>
<!-- Node9&#45;&gt;Node4 -->
<g id="edge13_Node000009_Node000004" class="edge">
<title>Node9&#45;&gt;Node4</title>
<g id="a_edge13_Node000009_Node000004"><a xlink:title=" ">
<path fill="none" stroke="#63b8ff" d="M149.01,-22.34C144.87,-23.87 140.84,-25.58 137,-27.5 103.79,-44.09 73.25,-76.76 59.36,-92.95"/>
<polygon fill="#63b8ff" stroke="#63b8ff" points="150.42,-25.56 158.82,-19.09 148.22,-18.91 150.42,-25.56"/>
</a>
</g>
</g>
</g>
</svg>
