<?xml version="1.0" encoding="UTF-8" standalone="no"?>
<!DOCTYPE svg PUBLIC "-//W3C//DTD SVG 1.1//EN"
 "http://www.w3.org/Graphics/SVG/1.1/DTD/svg11.dtd">
<!-- Generated by graphviz version 2.43.0 (0)
 -->
<!-- Title: _createProductRow Pages: 1 -->
<svg width="477pt" height="138pt"
 viewBox="0.00 0.00 477.00 138.00" xmlns="http://www.w3.org/2000/svg" xmlns:xlink="http://www.w3.org/1999/xlink">
<g id="graph0" class="graph" transform="scale(1 1) rotate(0) translate(4 134)">
<title>_createProductRow</title>
<!-- Node1 -->
<g id="Node000001" class="node">
<title>Node1</title>
<g id="a_Node000001"><a xlink:title=" ">
<polygon fill="#999999" stroke="#666666" points="110,-74 0,-74 0,-55 110,-55 110,-74"/>
<text text-anchor="middle" x="55" y="-62" font-family="Helvetica,sans-Serif" font-size="10.00">_createProductRow</text>
</a>
</g>
</g>
<!-- Node2 -->
<g id="Node000002" class="node">
<title>Node2</title>
<g id="a_Node000002"><a xlink:href="../../d1/d5c/pdf__utils_8h.html#a8f9be0ef8bc5cfda0696a2a158d9f20c" target="_top" xlink:title="change the font and font size">
<polygon fill="white" stroke="#666666" points="265,-130 192,-130 192,-111 265,-111 265,-130"/>
<text text-anchor="middle" x="228.5" y="-118" font-family="Helvetica,sans-Serif" font-size="10.00">changeFont</text>
</a>
</g>
</g>
<!-- Node1&#45;&gt;Node2 -->
<g id="edge1_Node000001_Node000002" class="edge">
<title>Node1&#45;&gt;Node2</title>
<g id="a_edge1_Node000001_Node000002"><a xlink:title=" ">
<path fill="none" stroke="#63b8ff" d="M75.63,-74.01C93.6,-82.43 121.11,-94.57 146,-102.5 157.43,-106.14 169.98,-109.31 181.74,-111.93"/>
<polygon fill="#63b8ff" stroke="#63b8ff" points="181.31,-115.42 191.83,-114.09 182.78,-108.57 181.31,-115.42"/>
</a>
</g>
</g>
<!-- Node3 -->
<g id="Node000003" class="node">
<title>Node3</title>
<g id="a_Node000003"><a xlink:href="../../d5/d60/utils_8h.html#a586071aa49d37b6beb5834b949798af2" target="_top" xlink:title="converts various datatypes to string using ostringstream">
<polygon fill="white" stroke="#666666" points="250.5,-93 206.5,-93 206.5,-74 250.5,-74 250.5,-93"/>
<text text-anchor="middle" x="228.5" y="-81" font-family="Helvetica,sans-Serif" font-size="10.00">to_str</text>
</a>
</g>
</g>
<!-- Node1&#45;&gt;Node3 -->
<g id="edge2_Node000001_Node000003" class="edge">
<title>Node1&#45;&gt;Node3</title>
<g id="a_edge2_Node000001_Node000003"><a xlink:title=" ">
<path fill="none" stroke="#63b8ff" d="M110.26,-70.51C138.64,-73.66 172.37,-77.39 196.34,-80.05"/>
<polygon fill="#63b8ff" stroke="#63b8ff" points="195.97,-83.53 206.3,-81.15 196.74,-76.57 195.97,-83.53"/>
</a>
</g>
</g>
<!-- Node4 -->
<g id="Node000004" class="node">
<title>Node4</title>
<g id="a_Node000004"><a xlink:href="../../d1/d5c/pdf__utils_8h.html#a718810ab35a6f1052271a2edb887936f" target="_top" xlink:title="write text on to the pdf at a given point">
<polygon fill="white" stroke="#666666" points="259.5,-56 197.5,-56 197.5,-37 259.5,-37 259.5,-56"/>
<text text-anchor="middle" x="228.5" y="-44" font-family="Helvetica,sans-Serif" font-size="10.00">writeText</text>
</a>
</g>
</g>
<!-- Node1&#45;&gt;Node4 -->
<g id="edge3_Node000001_Node000004" class="edge">
<title>Node1&#45;&gt;Node4</title>
<g id="a_edge3_Node000001_Node000004"><a xlink:title=" ">
<path fill="none" stroke="#63b8ff" d="M110.26,-58.8C135.11,-56.2 164.06,-53.16 186.97,-50.75"/>
<polygon fill="#63b8ff" stroke="#63b8ff" points="187.46,-54.22 197.04,-49.7 186.73,-47.26 187.46,-54.22"/>
</a>
</g>
</g>
<!-- Node7 -->
<g id="Node000007" class="node">
<title>Node7</title>
<g id="a_Node000007"><a xlink:href="../../d1/d5c/pdf__utils_8h.html#a89f23d21ae93c3b6bc0de036965dffed" target="_top" xlink:title="write text on to the pdf at a given point when max height is not exceeded">
<polygon fill="white" stroke="#666666" points="311,-19 146,-19 146,0 311,0 311,-19"/>
<text text-anchor="middle" x="228.5" y="-7" font-family="Helvetica,sans-Serif" font-size="10.00">writeTextIfNotHeightExceeded</text>
</a>
</g>
</g>
<!-- Node1&#45;&gt;Node7 -->
<g id="edge6_Node000001_Node000007" class="edge">
<title>Node1&#45;&gt;Node7</title>
<g id="a_edge6_Node000001_Node000007"><a xlink:title=" ">
<path fill="none" stroke="#63b8ff" d="M77.13,-54.99C95.16,-47.13 121.92,-36.07 146,-28.5 154.07,-25.96 162.68,-23.6 171.18,-21.45"/>
<polygon fill="#63b8ff" stroke="#63b8ff" points="172.17,-24.82 181.05,-19.05 170.51,-18.01 172.17,-24.82"/>
</a>
</g>
</g>
<!-- Node5 -->
<g id="Node000005" class="node">
<title>Node5</title>
<g id="a_Node000005"><a xlink:href="../../d1/d5c/pdf__utils_8h.html#a03775da971402fe5e7cf8dbe201e3888" target="_top" xlink:title="calculates the height of a given text on the pdf">
<polygon fill="white" stroke="#666666" points="469,-56 347,-56 347,-37 469,-37 469,-56"/>
<text text-anchor="middle" x="408" y="-44" font-family="Helvetica,sans-Serif" font-size="10.00">calculate_text_height</text>
</a>
</g>
</g>
<!-- Node4&#45;&gt;Node5 -->
<g id="edge4_Node000004_Node000005" class="edge">
<title>Node4&#45;&gt;Node5</title>
<g id="a_edge4_Node000004_Node000005"><a xlink:title=" ">
<path fill="none" stroke="#63b8ff" d="M259.61,-46.5C280.75,-46.5 309.92,-46.5 336.73,-46.5"/>
<polygon fill="#63b8ff" stroke="#63b8ff" points="336.87,-50 346.87,-46.5 336.87,-43 336.87,-50"/>
</a>
</g>
</g>
<!-- Node6 -->
<g id="Node000006" class="node">
<title>Node6</title>
<g id="a_Node000006"><a xlink:href="../../d5/d60/utils_8h.html#ab750ae7075d3bd96b4e6bf46e08998fe" target="_top" xlink:title="converts a UTF8 string to ISO8859&#45;1 / ANSI using iconv">
<polygon fill="white" stroke="#666666" points="460,-19 356,-19 356,0 460,0 460,-19"/>
<text text-anchor="middle" x="408" y="-7" font-family="Helvetica,sans-Serif" font-size="10.00">UTF8toISO8859_1</text>
</a>
</g>
</g>
<!-- Node4&#45;&gt;Node6 -->
<g id="edge5_Node000004_Node000006" class="edge">
<title>Node4&#45;&gt;Node6</title>
<g id="a_edge5_Node000004_Node000006"><a xlink:title=" ">
<path fill="none" stroke="#63b8ff" d="M259.61,-40.22C284.67,-35 321.02,-27.42 351.35,-21.1"/>
<polygon fill="#63b8ff" stroke="#63b8ff" points="352.3,-24.48 361.38,-19.01 350.88,-17.62 352.3,-24.48"/>
</a>
</g>
</g>
<!-- Node7&#45;&gt;Node5 -->
<g id="edge7_Node000007_Node000005" class="edge">
<title>Node7&#45;&gt;Node5</title>
<g id="a_edge7_Node000007_Node000005"><a xlink:title=" ">
<path fill="none" stroke="#63b8ff" d="M275.21,-19.03C298.41,-23.86 326.79,-29.78 351.27,-34.88"/>
<polygon fill="#63b8ff" stroke="#63b8ff" points="350.63,-38.33 361.14,-36.94 352.06,-31.47 350.63,-38.33"/>
</a>
</g>
</g>
<!-- Node7&#45;&gt;Node6 -->
<g id="edge8_Node000007_Node000006" class="edge">
<title>Node7&#45;&gt;Node6</title>
<g id="a_edge8_Node000007_Node000006"><a xlink:title=" ">
<path fill="none" stroke="#63b8ff" d="M311.24,-9.5C322.87,-9.5 334.66,-9.5 345.82,-9.5"/>
<polygon fill="#63b8ff" stroke="#63b8ff" points="345.85,-13 355.85,-9.5 345.85,-6 345.85,-13"/>
</a>
</g>
</g>
</g>
</svg>
