<?xml version="1.0" encoding="UTF-8" standalone="no"?>
<!DOCTYPE svg PUBLIC "-//W3C//DTD SVG 1.1//EN"
 "http://www.w3.org/Graphics/SVG/1.1/DTD/svg11.dtd">
<!-- Generated by graphviz version 2.43.0 (0)
 -->
<!-- Title: _createProductHeader Pages: 1 -->
<svg width="400pt" height="82pt"
 viewBox="0.00 0.00 400.00 82.00" xmlns="http://www.w3.org/2000/svg" xmlns:xlink="http://www.w3.org/1999/xlink">
<g id="graph0" class="graph" transform="scale(1 1) rotate(0) translate(4 78)">
<title>_createProductHeader</title>
<!-- Node1 -->
<g id="Node000001" class="node">
<title>Node1</title>
<g id="a_Node000001"><a xlink:title=" ">
<polygon fill="#999999" stroke="#666666" points="125,-55 0,-55 0,-36 125,-36 125,-55"/>
<text text-anchor="middle" x="62.5" y="-43" font-family="Helvetica,sans-Serif" font-size="10.00">_createProductHeader</text>
</a>
</g>
</g>
<!-- Node2 -->
<g id="Node000002" class="node">
<title>Node2</title>
<g id="a_Node000002"><a xlink:href="../../d1/d5c/pdf__utils_8h.html#a8f9be0ef8bc5cfda0696a2a158d9f20c" target="_top" xlink:title="change the font and font size">
<polygon fill="white" stroke="#666666" points="234,-74 161,-74 161,-55 234,-55 234,-74"/>
<text text-anchor="middle" x="197.5" y="-62" font-family="Helvetica,sans-Serif" font-size="10.00">changeFont</text>
</a>
</g>
</g>
<!-- Node1&#45;&gt;Node2 -->
<g id="edge1_Node000001_Node000002" class="edge">
<title>Node1&#45;&gt;Node2</title>
<g id="a_edge1_Node000001_Node000002"><a xlink:title=" ">
<path fill="none" stroke="#63b8ff" d="M125.33,-54.33C133.91,-55.56 142.6,-56.8 150.82,-57.97"/>
<polygon fill="#63b8ff" stroke="#63b8ff" points="150.54,-61.47 160.93,-59.42 151.53,-54.54 150.54,-61.47"/>
</a>
</g>
</g>
<!-- Node3 -->
<g id="Node000003" class="node">
<title>Node3</title>
<g id="a_Node000003"><a xlink:href="../../d1/d5c/pdf__utils_8h.html#a718810ab35a6f1052271a2edb887936f" target="_top" xlink:title="write text on to the pdf at a given point">
<polygon fill="white" stroke="#666666" points="228.5,-37 166.5,-37 166.5,-18 228.5,-18 228.5,-37"/>
<text text-anchor="middle" x="197.5" y="-25" font-family="Helvetica,sans-Serif" font-size="10.00">writeText</text>
</a>
</g>
</g>
<!-- Node1&#45;&gt;Node3 -->
<g id="edge2_Node000001_Node000003" class="edge">
<title>Node1&#45;&gt;Node3</title>
<g id="a_edge2_Node000001_Node000003"><a xlink:title=" ">
<path fill="none" stroke="#63b8ff" d="M125.33,-37.13C135.79,-35.72 146.41,-34.28 156.13,-32.96"/>
<polygon fill="#63b8ff" stroke="#63b8ff" points="156.85,-36.4 166.29,-31.59 155.92,-29.46 156.85,-36.4"/>
</a>
</g>
</g>
<!-- Node4 -->
<g id="Node000004" class="node">
<title>Node4</title>
<g id="a_Node000004"><a xlink:href="../../d1/d5c/pdf__utils_8h.html#a03775da971402fe5e7cf8dbe201e3888" target="_top" xlink:title="calculates the height of a given text on the pdf">
<polygon fill="white" stroke="#666666" points="392,-56 270,-56 270,-37 392,-37 392,-56"/>
<text text-anchor="middle" x="331" y="-44" font-family="Helvetica,sans-Serif" font-size="10.00">calculate_text_height</text>
</a>
</g>
</g>
<!-- Node3&#45;&gt;Node4 -->
<g id="edge3_Node000003_Node000004" class="edge">
<title>Node3&#45;&gt;Node4</title>
<g id="a_edge3_Node000003_Node000004"><a xlink:title=" ">
<path fill="none" stroke="#63b8ff" d="M228.67,-31.86C238.07,-33.22 248.87,-34.78 259.83,-36.36"/>
<polygon fill="#63b8ff" stroke="#63b8ff" points="259.51,-39.85 269.9,-37.82 260.51,-32.92 259.51,-39.85"/>
</a>
</g>
</g>
<!-- Node5 -->
<g id="Node000005" class="node">
<title>Node5</title>
<g id="a_Node000005"><a xlink:href="../../d5/d60/utils_8h.html#ab750ae7075d3bd96b4e6bf46e08998fe" target="_top" xlink:title="converts a UTF8 string to ISO8859&#45;1 / ANSI using iconv">
<polygon fill="white" stroke="#666666" points="383,-19 279,-19 279,0 383,0 383,-19"/>
<text text-anchor="middle" x="331" y="-7" font-family="Helvetica,sans-Serif" font-size="10.00">UTF8toISO8859_1</text>
</a>
</g>
</g>
<!-- Node3&#45;&gt;Node5 -->
<g id="edge4_Node000003_Node000005" class="edge">
<title>Node3&#45;&gt;Node5</title>
<g id="a_edge4_Node000003_Node000005"><a xlink:title=" ">
<path fill="none" stroke="#63b8ff" d="M228.67,-23.37C240.63,-21.73 254.83,-19.79 268.77,-17.88"/>
<polygon fill="#63b8ff" stroke="#63b8ff" points="269.4,-21.33 278.83,-16.5 268.45,-14.39 269.4,-21.33"/>
</a>
</g>
</g>
</g>
</svg>
