<?xml version="1.0" encoding="UTF-8" standalone="no"?>
<!DOCTYPE svg PUBLIC "-//W3C//DTD SVG 1.1//EN"
 "http://www.w3.org/Graphics/SVG/1.1/DTD/svg11.dtd">
<!-- Generated by graphviz version 2.43.0 (0)
 -->
<!-- Title: spinBoxInputWidget Pages: 1 -->
<svg width="163pt" height="194pt"
 viewBox="0.00 0.00 163.00 194.00" xmlns="http://www.w3.org/2000/svg" xmlns:xlink="http://www.w3.org/1999/xlink">

<svg id="main" version="1.1" xmlns="http://www.w3.org/2000/svg" xmlns:xlink="http://www.w3.org/1999/xlink" xml:space="preserve">

<style type="text/css"><![CDATA[
.node, .edge {opacity: 0.7;}
.node.selected, .edge.selected {opacity: 1;}
.edge:hover path { stroke: red; }
.edge:hover polygon { stroke: red; fill: red; }
]]></style>
<script type="application/ecmascript" xlink:href="../../svg.min.js"/>
<svg id="graph" class="graph">
<g id="graph0" class="graph" transform="scale(1 1) rotate(0) translate(4 190)">
<title>spinBoxInputWidget</title>
<!-- Node1 -->
<g id="Node000001" class="node">
<title>Node1</title>
<g id="a_Node000001"><a xlink:title="a Widget containing a label and a spinbox (int input) below">
<polygon fill="#999999" stroke="transparent" points="155,-101 0,-101 0,0 155,0 155,-101"/>
<text text-anchor="start" x="28.5" y="-88.5" font-family="Helvetica,sans-Serif" font-size="10.00">spinBoxInputWidget</text>
<text text-anchor="start" x="4.5" y="-73.5" font-family="Helvetica,sans-Serif" font-size="10.00">+</text>
<text text-anchor="start" x="17.5" y="-73.5" font-family="Helvetica,sans-Serif" font-size="10.00">QVBoxLayout * layout</text>
<text text-anchor="start" x="4.5" y="-58.5" font-family="Helvetica,sans-Serif" font-size="10.00">+</text>
<text text-anchor="start" x="17.5" y="-58.5" font-family="Helvetica,sans-Serif" font-size="10.00">QLabel * label</text>
<text text-anchor="start" x="4.5" y="-43.5" font-family="Helvetica,sans-Serif" font-size="10.00">+</text>
<text text-anchor="start" x="17.5" y="-43.5" font-family="Helvetica,sans-Serif" font-size="10.00">QSpinBox * input</text>
<text text-anchor="start" x="4.5" y="-28.5" font-family="Helvetica,sans-Serif" font-size="10.00">+</text>
<text text-anchor="start" x="17.5" y="-28.5" font-family="Helvetica,sans-Serif" font-size="10.00">spinBoxInputWidget</text>
<text text-anchor="start" x="17.5" y="-17.5" font-family="Helvetica,sans-Serif" font-size="10.00">(const QString &amp;inputLabel,</text>
<text text-anchor="start" x="17.5" y="-6.5" font-family="Helvetica,sans-Serif" font-size="10.00"> QWidget *parent=nullptr)</text>
<polygon fill="#666666" stroke="#666666" points="0.5,-83.5 0.5,-83.5 155.5,-83.5 155.5,-83.5 0.5,-83.5"/>
<polygon fill="#666666" stroke="#666666" points="0.5,-38.5 0.5,-38.5 15.5,-38.5 15.5,-38.5 0.5,-38.5"/>
<polygon fill="#666666" stroke="#666666" points="15.5,-38.5 15.5,-38.5 155.5,-38.5 155.5,-38.5 15.5,-38.5"/>
<polygon fill="none" stroke="#666666" points="0,0 0,-101 155,-101 155,0 0,0"/>
</a>
</g>
</g>
<!-- Node2 -->
<g id="Node000002" class="node">
<title>Node2</title>
<g id="a_Node000002"><a xlink:title=" ">
<polygon fill="white" stroke="transparent" points="104,-186 51,-186 51,-137 104,-137 104,-186"/>
<text text-anchor="start" x="56.5" y="-173.5" font-family="Helvetica,sans-Serif" font-size="10.00">QWidget</text>
<text text-anchor="start" x="76" y="-158.5" font-family="Helvetica,sans-Serif" font-size="10.00"> </text>
<text text-anchor="start" x="76" y="-143.5" font-family="Helvetica,sans-Serif" font-size="10.00"> </text>
<polygon fill="#666666" stroke="#666666" points="51.5,-168.5 51.5,-168.5 104.5,-168.5 104.5,-168.5 51.5,-168.5"/>
<polygon fill="#666666" stroke="#666666" points="51.5,-153.5 51.5,-153.5 104.5,-153.5 104.5,-153.5 51.5,-153.5"/>
<polygon fill="none" stroke="#666666" points="51,-137 51,-186 104,-186 104,-137 51,-137"/>
</a>
</g>
</g>
<!-- Node2&#45;&gt;Node1 -->
<g id="edge1_Node000001_Node000002" class="edge">
<title>Node2&#45;&gt;Node1</title>
<g id="a_edge1_Node000001_Node000002"><a xlink:title=" ">
<path fill="none" stroke="#63b8ff" d="M77.5,-126.67C77.5,-118.56 77.5,-109.73 77.5,-101.07"/>
<polygon fill="none" stroke="#63b8ff" points="74,-126.85 77.5,-136.85 81,-126.85 74,-126.85"/>
</a>
</g>
</g>
</g>
</svg>
</svg>

<style type='text/css'>
<![CDATA[
[data-mouse-over-selected='false'] { opacity: 0.7; }
[data-mouse-over-selected='true']  { opacity: 1.0; }
]]>
</style>
<script type="application/ecmascript"><![CDATA[
document.addEventListener('DOMContentLoaded', (event) => {
  highlightEdges();
  highlightAdjacentNodes();
});
]]></script>
</svg>
