<?xml version="1.0" encoding="UTF-8" standalone="no"?>
<!DOCTYPE svg PUBLIC "-//W3C//DTD SVG 1.1//EN"
 "http://www.w3.org/Graphics/SVG/1.1/DTD/svg11.dtd">
<!-- Generated by graphviz version 2.43.0 (0)
 -->
<!-- Title: ui/customWidgets/inputWidget/textInputWidget.h Pages: 1 -->
<svg width="614pt" height="225pt"
 viewBox="0.00 0.00 613.50 225.00" xmlns="http://www.w3.org/2000/svg" xmlns:xlink="http://www.w3.org/1999/xlink">
<g id="graph0" class="graph" transform="scale(1 1) rotate(0) translate(4 221)">
<title>ui/customWidgets/inputWidget/textInputWidget.h</title>
<!-- Node1 -->
<g id="Node000001" class="node">
<title>Node1</title>
<g id="a_Node000001"><a xlink:title=" ">
<polygon fill="#999999" stroke="#666666" points="391,-217 224,-217 224,-187 391,-187 391,-217"/>
<text text-anchor="start" x="232" y="-205" font-family="Helvetica,sans-Serif" font-size="10.00">ui/customWidgets/inputWidget</text>
<text text-anchor="middle" x="307.5" y="-194" font-family="Helvetica,sans-Serif" font-size="10.00">/textInputWidget.h</text>
</a>
</g>
</g>
<!-- Node2 -->
<g id="Node000002" class="node">
<title>Node2</title>
<g id="a_Node000002"><a xlink:href="../../d6/d7b/textInputWidget_8cpp.html" target="_top" xlink:title=" ">
<polygon fill="white" stroke="#666666" points="167,-151 0,-151 0,-121 167,-121 167,-151"/>
<text text-anchor="start" x="8" y="-139" font-family="Helvetica,sans-Serif" font-size="10.00">ui/customWidgets/inputWidget</text>
<text text-anchor="middle" x="83.5" y="-128" font-family="Helvetica,sans-Serif" font-size="10.00">/textInputWidget.cpp</text>
</a>
</g>
</g>
<!-- Node1&#45;&gt;Node2 -->
<g id="edge1_Node000001_Node000002" class="edge">
<title>Node1&#45;&gt;Node2</title>
<g id="a_edge1_Node000001_Node000002"><a xlink:title=" ">
<path fill="none" stroke="#63b8ff" d="M248.43,-184.12C212.31,-173.8 166.66,-160.76 132.54,-151.01"/>
<polygon fill="#63b8ff" stroke="#63b8ff" points="247.77,-187.57 258.34,-186.95 249.69,-180.84 247.77,-187.57"/>
</a>
</g>
</g>
<!-- Node3 -->
<g id="Node000003" class="node">
<title>Node3</title>
<g id="a_Node000003"><a xlink:href="../../d8/d44/productWidget_8h.html" target="_top" xlink:title=" ">
<polygon fill="white" stroke="#666666" points="329.5,-151 185.5,-151 185.5,-121 329.5,-121 329.5,-151"/>
<text text-anchor="start" x="193.5" y="-139" font-family="Helvetica,sans-Serif" font-size="10.00">ui/customWidgets/product</text>
<text text-anchor="middle" x="257.5" y="-128" font-family="Helvetica,sans-Serif" font-size="10.00">Widget/productWidget.h</text>
</a>
</g>
</g>
<!-- Node1&#45;&gt;Node3 -->
<g id="edge2_Node000001_Node000003" class="edge">
<title>Node1&#45;&gt;Node3</title>
<g id="a_edge2_Node000001_Node000003"><a xlink:title=" ">
<path fill="none" stroke="#63b8ff" d="M290.16,-178.81C283,-169.64 274.9,-159.28 268.57,-151.16"/>
<polygon fill="#63b8ff" stroke="#63b8ff" points="287.49,-181.07 296.4,-186.8 293,-176.76 287.49,-181.07"/>
</a>
</g>
</g>
<!-- Node5 -->
<g id="Node000005" class="node">
<title>Node5</title>
<g id="a_Node000005"><a xlink:href="../../d9/d53/mainwindow_8h.html" target="_top" xlink:title=" ">
<polygon fill="white" stroke="#666666" points="407,-79.5 308,-79.5 308,-60.5 407,-60.5 407,-79.5"/>
<text text-anchor="middle" x="357.5" y="-67.5" font-family="Helvetica,sans-Serif" font-size="10.00">ui/mainwindow.h</text>
</a>
</g>
</g>
<!-- Node1&#45;&gt;Node5 -->
<g id="edge10_Node000001_Node000005" class="edge">
<title>Node1&#45;&gt;Node5</title>
<g id="a_edge10_Node000001_Node000005"><a xlink:title=" ">
<path fill="none" stroke="#63b8ff" d="M323.66,-178.4C329,-170.1 334.58,-160.42 338.5,-151 348.8,-126.22 354.22,-94.69 356.37,-79.69"/>
<polygon fill="#63b8ff" stroke="#63b8ff" points="320.69,-176.54 318.03,-186.8 326.51,-180.44 320.69,-176.54"/>
</a>
</g>
</g>
<!-- Node8 -->
<g id="Node000008" class="node">
<title>Node8</title>
<g id="a_Node000008"><a xlink:href="../../d1/db6/representativeWidget_8h.html" target="_top" xlink:title=" ">
<polygon fill="white" stroke="#666666" points="565,-151 386,-151 386,-121 565,-121 565,-151"/>
<text text-anchor="start" x="394" y="-139" font-family="Helvetica,sans-Serif" font-size="10.00">ui/customWidgets/representative</text>
<text text-anchor="middle" x="475.5" y="-128" font-family="Helvetica,sans-Serif" font-size="10.00">Widget/representativeWidget.h</text>
</a>
</g>
</g>
<!-- Node1&#45;&gt;Node8 -->
<g id="edge7_Node000001_Node000008" class="edge">
<title>Node1&#45;&gt;Node8</title>
<g id="a_edge7_Node000001_Node000008"><a xlink:title=" ">
<path fill="none" stroke="#63b8ff" d="M353.9,-183.32C380.64,-173.14 413.79,-160.51 438.72,-151.01"/>
<polygon fill="#63b8ff" stroke="#63b8ff" points="352.47,-180.12 344.37,-186.95 354.96,-186.67 352.47,-180.12"/>
</a>
</g>
</g>
<!-- Node4 -->
<g id="Node000004" class="node">
<title>Node4</title>
<g id="a_Node000004"><a xlink:href="../../df/d5d/productWidget_8cpp.html" target="_top" xlink:title=" ">
<polygon fill="white" stroke="#666666" points="289.5,-85 143.5,-85 143.5,-55 289.5,-55 289.5,-85"/>
<text text-anchor="start" x="151.5" y="-73" font-family="Helvetica,sans-Serif" font-size="10.00">ui/customWidgets/product</text>
<text text-anchor="middle" x="216.5" y="-62" font-family="Helvetica,sans-Serif" font-size="10.00">Widget/productWidget.cpp</text>
</a>
</g>
</g>
<!-- Node3&#45;&gt;Node4 -->
<g id="edge3_Node000003_Node000004" class="edge">
<title>Node3&#45;&gt;Node4</title>
<g id="a_edge3_Node000003_Node000004"><a xlink:title=" ">
<path fill="none" stroke="#63b8ff" d="M242.92,-112.24C237.14,-103.21 230.66,-93.11 225.57,-85.16"/>
<polygon fill="#63b8ff" stroke="#63b8ff" points="240.06,-114.26 248.4,-120.8 245.95,-110.49 240.06,-114.26"/>
</a>
</g>
</g>
<!-- Node3&#45;&gt;Node5 -->
<g id="edge4_Node000003_Node000005" class="edge">
<title>Node3&#45;&gt;Node5</title>
<g id="a_edge4_Node000003_Node000005"><a xlink:title=" ">
<path fill="none" stroke="#63b8ff" d="M288.19,-115.36C306.84,-103.42 329.73,-88.77 343.97,-79.66"/>
<polygon fill="#63b8ff" stroke="#63b8ff" points="286.23,-112.46 279.69,-120.8 290,-118.35 286.23,-112.46"/>
</a>
</g>
</g>
<!-- Node6 -->
<g id="Node000006" class="node">
<title>Node6</title>
<g id="a_Node000006"><a xlink:href="../../df/d0a/main_8cpp.html" target="_top" xlink:title=" ">
<polygon fill="white" stroke="#666666" points="336.5,-19 274.5,-19 274.5,0 336.5,0 336.5,-19"/>
<text text-anchor="middle" x="305.5" y="-7" font-family="Helvetica,sans-Serif" font-size="10.00">main.cpp</text>
</a>
</g>
</g>
<!-- Node5&#45;&gt;Node6 -->
<g id="edge5_Node000005_Node000006" class="edge">
<title>Node5&#45;&gt;Node6</title>
<g id="a_edge5_Node000005_Node000006"><a xlink:title=" ">
<path fill="none" stroke="#63b8ff" d="M343.07,-52.77C333.4,-41.89 321.05,-27.99 313.2,-19.17"/>
<polygon fill="#63b8ff" stroke="#63b8ff" points="340.57,-55.22 349.83,-60.37 345.8,-50.57 340.57,-55.22"/>
</a>
</g>
</g>
<!-- Node7 -->
<g id="Node000007" class="node">
<title>Node7</title>
<g id="a_Node000007"><a xlink:href="../../d8/dd9/mainwindow_8cpp.html" target="_top" xlink:title=" ">
<polygon fill="white" stroke="#666666" points="464.5,-19 354.5,-19 354.5,0 464.5,0 464.5,-19"/>
<text text-anchor="middle" x="409.5" y="-7" font-family="Helvetica,sans-Serif" font-size="10.00">ui/mainwindow.cpp</text>
</a>
</g>
</g>
<!-- Node5&#45;&gt;Node7 -->
<g id="edge6_Node000005_Node000007" class="edge">
<title>Node5&#45;&gt;Node7</title>
<g id="a_edge6_Node000005_Node000007"><a xlink:title=" ">
<path fill="none" stroke="#63b8ff" d="M371.93,-52.77C381.6,-41.89 393.95,-27.99 401.8,-19.17"/>
<polygon fill="#63b8ff" stroke="#63b8ff" points="369.2,-50.57 365.17,-60.37 374.43,-55.22 369.2,-50.57"/>
</a>
</g>
</g>
<!-- Node8&#45;&gt;Node5 -->
<g id="edge9_Node000008_Node000005" class="edge">
<title>Node8&#45;&gt;Node5</title>
<g id="a_edge9_Node000008_Node000005"><a xlink:title=" ">
<path fill="none" stroke="#63b8ff" d="M440.72,-116.14C418.35,-104 390.35,-88.82 373.2,-79.52"/>
<polygon fill="#63b8ff" stroke="#63b8ff" points="439.15,-119.26 449.6,-120.95 442.48,-113.11 439.15,-119.26"/>
</a>
</g>
</g>
<!-- Node9 -->
<g id="Node000009" class="node">
<title>Node9</title>
<g id="a_Node000009"><a xlink:href="../../da/d16/representativeWidget_8cpp.html" target="_top" xlink:title=" ">
<polygon fill="white" stroke="#666666" points="605.5,-85 425.5,-85 425.5,-55 605.5,-55 605.5,-85"/>
<text text-anchor="start" x="433.5" y="-73" font-family="Helvetica,sans-Serif" font-size="10.00">ui/customWidgets/representative</text>
<text text-anchor="middle" x="515.5" y="-62" font-family="Helvetica,sans-Serif" font-size="10.00">Widget/representativeWidget.cpp</text>
</a>
</g>
</g>
<!-- Node8&#45;&gt;Node9 -->
<g id="edge8_Node000008_Node000009" class="edge">
<title>Node8&#45;&gt;Node9</title>
<g id="a_edge8_Node000008_Node000009"><a xlink:title=" ">
<path fill="none" stroke="#63b8ff" d="M489.72,-112.24C495.37,-103.21 501.68,-93.11 506.65,-85.16"/>
<polygon fill="#63b8ff" stroke="#63b8ff" points="486.71,-110.46 484.38,-120.8 492.65,-114.17 486.71,-110.46"/>
</a>
</g>
</g>
</g>
</svg>
