<?xml version="1.0" encoding="UTF-8" standalone="no"?>
<!DOCTYPE svg PUBLIC "-//W3C//DTD SVG 1.1//EN"
 "http://www.w3.org/Graphics/SVG/1.1/DTD/svg11.dtd">
<!-- Generated by graphviz version 2.43.0 (0)
 -->
<!-- Title: to_str Pages: 1 -->
<svg width="599pt" height="114pt"
 viewBox="0.00 0.00 599.00 113.50" xmlns="http://www.w3.org/2000/svg" xmlns:xlink="http://www.w3.org/1999/xlink">
<g id="graph0" class="graph" transform="scale(1 1) rotate(0) translate(4 109.5)">
<title>to_str</title>
<!-- Node1 -->
<g id="Node000001" class="node">
<title>Node1</title>
<g id="a_Node000001"><a xlink:title="converts various datatypes to string using ostringstream">
<polygon fill="#999999" stroke="#666666" points="591,-57 547,-57 547,-38 591,-38 591,-57"/>
<text text-anchor="middle" x="569" y="-45" font-family="Helvetica,sans-Serif" font-size="10.00">to_str</text>
</a>
</g>
</g>
<!-- Node2 -->
<g id="Node000002" class="node">
<title>Node2</title>
<g id="a_Node000002"><a xlink:href="../../d8/d27/product__table_8cpp.html#a6fead7fb5c4027b48fc26fb283e3f71f" target="_top" xlink:title=" ">
<polygon fill="white" stroke="#666666" points="484,-97 374,-97 374,-78 484,-78 484,-97"/>
<text text-anchor="middle" x="429" y="-85" font-family="Helvetica,sans-Serif" font-size="10.00">_createProductRow</text>
</a>
</g>
</g>
<!-- Node1&#45;&gt;Node2 -->
<g id="edge1_Node000001_Node000002" class="edge">
<title>Node1&#45;&gt;Node2</title>
<g id="a_edge1_Node000001_Node000002"><a xlink:title=" ">
<path fill="none" stroke="#63b8ff" d="M536.88,-56.52C514.83,-62.91 485.29,-71.47 462.85,-77.98"/>
<polygon fill="#63b8ff" stroke="#63b8ff" points="538.11,-59.81 546.74,-53.66 536.16,-53.08 538.11,-59.81"/>
</a>
</g>
</g>
<!-- Node5 -->
<g id="Node000005" class="node">
<title>Node5</title>
<g id="a_Node000005"><a xlink:href="../../d0/d60/classInvoice.html#a29edd9e425464d3b97e00c6da3c83a7e" target="_top" xlink:title="print page numbering on all pages">
<polygon fill="white" stroke="#666666" points="311,-57 137,-57 137,-38 311,-38 311,-57"/>
<text text-anchor="middle" x="224" y="-45" font-family="Helvetica,sans-Serif" font-size="10.00">Invoice::_generatePageNumbers</text>
</a>
</g>
</g>
<!-- Node1&#45;&gt;Node5 -->
<g id="edge4_Node000001_Node000005" class="edge">
<title>Node1&#45;&gt;Node5</title>
<g id="a_edge4_Node000001_Node000005"><a xlink:title=" ">
<path fill="none" stroke="#63b8ff" d="M536.5,-47.5C485.85,-47.5 384.56,-47.5 311.2,-47.5"/>
<polygon fill="#63b8ff" stroke="#63b8ff" points="536.8,-51 546.8,-47.5 536.8,-44 536.8,-51"/>
</a>
</g>
</g>
<!-- Node6 -->
<g id="Node000006" class="node">
<title>Node6</title>
<g id="a_Node000006"><a xlink:href="../../d5/d0b/classproduct__table.html#a7c305272f377548eb4f3d1a4f403ef59" target="_top" xlink:title="Draws the Product Table on to a given pdf page.">
<polygon fill="white" stroke="#666666" points="511,-19 347,-19 347,0 511,0 511,-19"/>
<text text-anchor="middle" x="429" y="-7" font-family="Helvetica,sans-Serif" font-size="10.00">product_table::createTotalRow</text>
</a>
</g>
</g>
<!-- Node1&#45;&gt;Node6 -->
<g id="edge6_Node000001_Node000006" class="edge">
<title>Node1&#45;&gt;Node6</title>
<g id="a_edge6_Node000001_Node000006"><a xlink:title=" ">
<path fill="none" stroke="#63b8ff" d="M536.84,-38.92C515.39,-33.01 486.88,-25.16 464.71,-19.06"/>
<polygon fill="#63b8ff" stroke="#63b8ff" points="536.17,-42.37 546.74,-41.65 538.03,-35.62 536.17,-42.37"/>
</a>
</g>
</g>
<!-- Node3 -->
<g id="Node000003" class="node">
<title>Node3</title>
<g id="a_Node000003"><a xlink:href="../../d5/d0b/classproduct__table.html#adf1b09a9c7c79633006a53f5000f7cd6" target="_top" xlink:title="Function to automatically draw the Product table on to a given invoice page.">
<polygon fill="white" stroke="#666666" points="302.5,-105.5 145.5,-105.5 145.5,-75.5 302.5,-75.5 302.5,-105.5"/>
<text text-anchor="start" x="153.5" y="-93.5" font-family="Helvetica,sans-Serif" font-size="10.00">product_table::createProduct</text>
<text text-anchor="middle" x="224" y="-82.5" font-family="Helvetica,sans-Serif" font-size="10.00">Table</text>
</a>
</g>
</g>
<!-- Node2&#45;&gt;Node3 -->
<g id="edge2_Node000002_Node000003" class="edge">
<title>Node2&#45;&gt;Node3</title>
<g id="a_edge2_Node000002_Node000003"><a xlink:title=" ">
<path fill="none" stroke="#63b8ff" d="M363.64,-88.45C344.26,-88.74 322.78,-89.05 302.63,-89.35"/>
<polygon fill="#63b8ff" stroke="#63b8ff" points="363.92,-91.95 373.87,-88.3 363.82,-84.95 363.92,-91.95"/>
</a>
</g>
</g>
<!-- Node4 -->
<g id="Node000004" class="node">
<title>Node4</title>
<g id="a_Node000004"><a xlink:href="../../d0/d60/classInvoice.html#a48f0228b01b24ea6c4db18f700e36015" target="_top" xlink:title="generate a PDF invoice and save it to the users downloads folder as the invoice_number....">
<polygon fill="white" stroke="#666666" points="101,-57 0,-57 0,-38 101,-38 101,-57"/>
<text text-anchor="middle" x="50.5" y="-45" font-family="Helvetica,sans-Serif" font-size="10.00">Invoice::generate</text>
</a>
</g>
</g>
<!-- Node3&#45;&gt;Node4 -->
<g id="edge3_Node000003_Node000004" class="edge">
<title>Node3&#45;&gt;Node4</title>
<g id="a_edge3_Node000003_Node000004"><a xlink:title=" ">
<path fill="none" stroke="#63b8ff" d="M153.14,-72.98C131.38,-67.53 108.2,-61.72 89.48,-57.02"/>
<polygon fill="#63b8ff" stroke="#63b8ff" points="152.47,-76.42 163.02,-75.46 154.17,-69.63 152.47,-76.42"/>
</a>
</g>
</g>
<!-- Node5&#45;&gt;Node4 -->
<g id="edge5_Node000005_Node000004" class="edge">
<title>Node5&#45;&gt;Node4</title>
<g id="a_edge5_Node000005_Node000004"><a xlink:title=" ">
<path fill="none" stroke="#63b8ff" d="M126.73,-47.5C118.02,-47.5 109.45,-47.5 101.4,-47.5"/>
<polygon fill="#63b8ff" stroke="#63b8ff" points="127,-51 137,-47.5 127,-44 127,-51"/>
</a>
</g>
</g>
<!-- Node6&#45;&gt;Node4 -->
<g id="edge7_Node000006_Node000004" class="edge">
<title>Node6&#45;&gt;Node4</title>
<g id="a_edge7_Node000006_Node000004"><a xlink:title=" ">
<path fill="none" stroke="#63b8ff" d="M336.59,-11.87C279.08,-14.25 203.43,-19.01 137,-28.5 121.04,-30.78 103.64,-34.43 88.73,-37.92"/>
<polygon fill="#63b8ff" stroke="#63b8ff" points="336.89,-15.36 346.75,-11.47 336.62,-8.37 336.89,-15.36"/>
</a>
</g>
</g>
</g>
</svg>
