<?xml version="1.0" encoding="UTF-8" standalone="no"?>
<!DOCTYPE svg PUBLIC "-//W3C//DTD SVG 1.1//EN"
 "http://www.w3.org/Graphics/SVG/1.1/DTD/svg11.dtd">
<!-- Generated by graphviz version 2.43.0 (0)
 -->
<!-- Title: productWidget Pages: 1 -->
<svg width="184pt" height="280pt"
 viewBox="0.00 0.00 184.00 280.00" xmlns="http://www.w3.org/2000/svg" xmlns:xlink="http://www.w3.org/1999/xlink">
<g id="graph0" class="graph" transform="scale(1 1) rotate(0) translate(4 276)">
<title>productWidget</title>
<!-- Node1 -->
<g id="Node000001" class="node">
<title>Node1</title>
<g id="a_Node000001"><a xlink:title="the respective widget for entering product data">
<polygon fill="#999999" stroke="transparent" points="176,-187 0,-187 0,0 176,0 176,-187"/>
<text text-anchor="start" x="52" y="-174.5" font-family="Helvetica,sans-Serif" font-size="10.00">productWidget</text>
<text text-anchor="start" x="4" y="-159.5" font-family="Helvetica,sans-Serif" font-size="10.00">+</text>
<text text-anchor="start" x="17" y="-159.5" font-family="Helvetica,sans-Serif" font-size="10.00">QWidget * centralWidgetwidget</text>
<text text-anchor="start" x="4" y="-144.5" font-family="Helvetica,sans-Serif" font-size="10.00">+</text>
<text text-anchor="start" x="17" y="-144.5" font-family="Helvetica,sans-Serif" font-size="10.00">QHBoxLayout * horizontal</text>
<text text-anchor="start" x="17" y="-133.5" font-family="Helvetica,sans-Serif" font-size="10.00">Layout</text>
<text text-anchor="start" x="4" y="-118.5" font-family="Helvetica,sans-Serif" font-size="10.00">+</text>
<text text-anchor="start" x="17" y="-118.5" font-family="Helvetica,sans-Serif" font-size="10.00">QVBoxLayout * verticalLayout</text>
<text text-anchor="start" x="4" y="-103.5" font-family="Helvetica,sans-Serif" font-size="10.00">+</text>
<text text-anchor="start" x="17" y="-103.5" font-family="Helvetica,sans-Serif" font-size="10.00">textInputWidget * name</text>
<text text-anchor="start" x="4" y="-88.5" font-family="Helvetica,sans-Serif" font-size="10.00">+</text>
<text text-anchor="start" x="17" y="-88.5" font-family="Helvetica,sans-Serif" font-size="10.00">textInputWidget * ppe</text>
<text text-anchor="start" x="4" y="-73.5" font-family="Helvetica,sans-Serif" font-size="10.00">+</text>
<text text-anchor="start" x="17" y="-73.5" font-family="Helvetica,sans-Serif" font-size="10.00">spinBoxInputWidget</text>
<text text-anchor="start" x="17" y="-62.5" font-family="Helvetica,sans-Serif" font-size="10.00"> * count</text>
<text text-anchor="start" x="4" y="-47.5" font-family="Helvetica,sans-Serif" font-size="10.00">+</text>
<text text-anchor="start" x="17" y="-47.5" font-family="Helvetica,sans-Serif" font-size="10.00">QPushButton * deleteButton</text>
<text text-anchor="start" x="4" y="-32.5" font-family="Helvetica,sans-Serif" font-size="10.00">+</text>
<text text-anchor="start" x="17" y="-32.5" font-family="Helvetica,sans-Serif" font-size="10.00">productWidget(QWidget</text>
<text text-anchor="start" x="17" y="-21.5" font-family="Helvetica,sans-Serif" font-size="10.00"> *parent=nullptr)</text>
<text text-anchor="start" x="6.5" y="-6.5" font-family="Helvetica,sans-Serif" font-size="10.00">&#45;</text>
<text text-anchor="start" x="17" y="-6.5" font-family="Helvetica,sans-Serif" font-size="10.00">void handleDelete()</text>
<polygon fill="#666666" stroke="#666666" points="0,-169.5 0,-169.5 176,-169.5 176,-169.5 0,-169.5"/>
<polygon fill="#666666" stroke="#666666" points="0,-42.5 0,-42.5 15,-42.5 15,-42.5 0,-42.5"/>
<polygon fill="#666666" stroke="#666666" points="15,-42.5 15,-42.5 176,-42.5 176,-42.5 15,-42.5"/>
<polygon fill="none" stroke="#666666" points="0,0 0,-187 176,-187 176,0 0,0"/>
</a>
</g>
</g>
<!-- Node2 -->
<g id="Node000002" class="node">
<title>Node2</title>
<g id="a_Node000002"><a xlink:title=" ">
<polygon fill="white" stroke="transparent" points="114.5,-272 61.5,-272 61.5,-223 114.5,-223 114.5,-272"/>
<text text-anchor="start" x="67" y="-259.5" font-family="Helvetica,sans-Serif" font-size="10.00">QWidget</text>
<text text-anchor="start" x="86.5" y="-244.5" font-family="Helvetica,sans-Serif" font-size="10.00"> </text>
<text text-anchor="start" x="86.5" y="-229.5" font-family="Helvetica,sans-Serif" font-size="10.00"> </text>
<polygon fill="#666666" stroke="#666666" points="62,-254.5 62,-254.5 115,-254.5 115,-254.5 62,-254.5"/>
<polygon fill="#666666" stroke="#666666" points="62,-239.5 62,-239.5 115,-239.5 115,-239.5 62,-239.5"/>
<polygon fill="none" stroke="#666666" points="61.5,-223 61.5,-272 114.5,-272 114.5,-223 61.5,-223"/>
</a>
</g>
</g>
<!-- Node2&#45;&gt;Node1 -->
<g id="edge1_Node000001_Node000002" class="edge">
<title>Node2&#45;&gt;Node1</title>
<g id="a_edge1_Node000001_Node000002"><a xlink:title=" ">
<path fill="none" stroke="#63b8ff" d="M88,-212.72C88,-204.93 88,-196.28 88,-187.3"/>
<polygon fill="none" stroke="#63b8ff" points="84.5,-212.75 88,-222.75 91.5,-212.75 84.5,-212.75"/>
</a>
</g>
</g>
</g>
</svg>
