<?xml version="1.0" encoding="UTF-8" standalone="no"?>
<!DOCTYPE svg PUBLIC "-//W3C//DTD SVG 1.1//EN"
 "http://www.w3.org/Graphics/SVG/1.1/DTD/svg11.dtd">
<!-- Generated by graphviz version 2.43.0 (0)
 -->
<!-- Title: pdf/invoice.cpp Pages: 1 -->
<!--zoomable 269 -->

<svg id="main" version="1.1" xmlns="http://www.w3.org/2000/svg" xmlns:xlink="http://www.w3.org/1999/xlink" xml:space="preserve" onload="init(evt)">

<style type="text/css"><![CDATA[
.node, .edge {opacity: 0.7;}
.node.selected, .edge.selected {opacity: 1;}
.edge:hover path { stroke: red; }
.edge:hover polygon { stroke: red; fill: red; }
]]></style>

<defs>
  <circle id="rim" cx="0" cy="0" r="7"/>
  <circle id="rim2" cx="0" cy="0" r="3.5"/>
  <g id="zoomPlus">
    <use xlink:href="#rim" fill="#404040"><set attributeName="fill" to="#808080" begin="zoomplus.mouseover" end="zoomplus.mouseout"/></use>
    <path d="M-4,0h8M0,-4v8" fill="none" stroke="white" stroke-width="1.5" pointer-events="none"/>
  </g>
  <g id="zoomMin">
    <use xlink:href="#rim" fill="#404040"><set attributeName="fill" to="#808080" begin="zoomminus.mouseover" end="zoomminus.mouseout"/></use>
    <path d="M-4,0h8" fill="none" stroke="white" stroke-width="1.5" pointer-events="none"/>
  </g>
  <g id="arrowUp" transform="translate(30 24)">
    <use xlink:href="#rim"/>
    <path pointer-events="none" fill="none" stroke="white" stroke-width="1.5" d="M0,-3.0v7 M-2.5,-0.5L0,-3.0L2.5,-0.5"/>
  </g>
  <g id="arrowRight" transform="rotate(90) translate(36 -43)">
    <use xlink:href="#rim"/>
    <path pointer-events="none" fill="none" stroke="white" stroke-width="1.5" d="M0,-3.0v7 M-2.5,-0.5L0,-3.0L2.5,-0.5"/>
  </g>
  <g id="arrowDown" transform="rotate(180) translate(-30 -48)">
    <use xlink:href="#rim"/>
    <path pointer-events="none" fill="none" stroke="white" stroke-width="1.5" d="M0,-3.0v7 M-2.5,-0.5L0,-3.0L2.5,-0.5"/>
  </g>
  <g id="arrowLeft" transform="rotate(270) translate(-36 17)">
    <use xlink:href="#rim"/>
    <path pointer-events="none" fill="none" stroke="white" stroke-width="1.5" d="M0,-3.0v7 M-2.5,-0.5L0,-3.0L2.5,-0.5"/>
  </g>
  <g id="resetDef">
    <use xlink:href="#rim2" fill="#404040"><set attributeName="fill" to="#808080" begin="reset.mouseover" end="reset.mouseout"/></use>
  </g>
</defs>
<script type="application/ecmascript">
var viewWidth = 1294;
var viewHeight = 269;
var sectionId = 'dynsection-0';
</script>
<script type="application/ecmascript" xlink:href="../../svg.min.js"/>
<svg id="graph" class="graph">
<g id="viewport">
<title>pdf/invoice.cpp</title>
<!-- Node1 -->
<g id="Node000001" class="node">
<title>Node1</title>
<g id="a_Node000001"><a xlink:title=" ">
<polygon fill="#999999" stroke="#666666" points="900,-261 809,-261 809,-242 900,-242 900,-261"/>
<text text-anchor="middle" x="854.5" y="-249" font-family="Helvetica,sans-Serif" font-size="10.00">pdf/invoice.cpp</text>
</a>
</g>
</g>
<!-- Node2 -->
<g id="Node000002" class="node">
<title>Node2</title>
<g id="a_Node000002"><a xlink:href="../../d7/de6/invoice_8h.html" target="_top" xlink:title=" ">
<polygon fill="white" stroke="#666666" points="575,-200.5 514,-200.5 514,-181.5 575,-181.5 575,-200.5"/>
<text text-anchor="middle" x="544.5" y="-188.5" font-family="Helvetica,sans-Serif" font-size="10.00">invoice.h</text>
</a>
</g>
</g>
<!-- Node1&#45;&gt;Node2 -->
<g id="edge1_Node000001_Node000002" class="edge">
<title>Node1&#45;&gt;Node2</title>
<g id="a_edge1_Node000001_Node000002"><a xlink:title=" ">
<path fill="none" stroke="#63b8ff" d="M809.42,-241.99C749.07,-230.6 642.9,-210.57 584.98,-199.64"/>
<polygon fill="#63b8ff" stroke="#63b8ff" points="585.56,-196.19 575.09,-197.77 584.27,-203.07 585.56,-196.19"/>
</a>
</g>
</g>
<!-- Node18 -->
<g id="Node000018" class="node">
<title>Node18</title>
<g id="a_Node000018"><a xlink:title=" ">
<polygon fill="#e0e0e0" stroke="#999999" points="826,-200.5 683,-200.5 683,-181.5 826,-181.5 826,-200.5"/>
<text text-anchor="middle" x="754.5" y="-188.5" font-family="Helvetica,sans-Serif" font-size="10.00">QtCore/qcoreapplication.h</text>
</a>
</g>
</g>
<!-- Node1&#45;&gt;Node18 -->
<g id="edge22_Node000001_Node000018" class="edge">
<title>Node1&#45;&gt;Node18</title>
<g id="a_edge22_Node000001_Node000018"><a xlink:title=" ">
<path fill="none" stroke="#63b8ff" d="M839.74,-241.87C823.5,-232.36 797.15,-216.95 778.04,-205.77"/>
<polygon fill="#63b8ff" stroke="#63b8ff" points="779.71,-202.7 769.32,-200.67 776.18,-208.74 779.71,-202.7"/>
</a>
</g>
</g>
<!-- Node19 -->
<g id="Node000019" class="node">
<title>Node19</title>
<g id="a_Node000019"><a xlink:href="../../d2/d5a/product__table_8h.html" target="_top" xlink:title=" ">
<polygon fill="white" stroke="#666666" points="855.5,-134.5 763.5,-134.5 763.5,-115.5 855.5,-115.5 855.5,-134.5"/>
<text text-anchor="middle" x="809.5" y="-122.5" font-family="Helvetica,sans-Serif" font-size="10.00">product_table.h</text>
</a>
</g>
</g>
<!-- Node1&#45;&gt;Node19 -->
<g id="edge23_Node000001_Node000019" class="edge">
<title>Node1&#45;&gt;Node19</title>
<g id="a_edge23_Node000001_Node000019"><a xlink:title=" ">
<path fill="none" stroke="#63b8ff" d="M852.72,-241.6C849.75,-227.44 843.25,-199.04 834.5,-176 830.3,-164.94 824.43,-153.07 819.43,-143.68"/>
<polygon fill="#63b8ff" stroke="#63b8ff" points="822.34,-141.71 814.48,-134.61 816.2,-145.06 822.34,-141.71"/>
</a>
</g>
</g>
<!-- Node21 -->
<g id="Node000021" class="node">
<title>Node21</title>
<g id="a_Node000021"><a xlink:href="../../d5/d96/dateInputWidget_8h.html" target="_top" xlink:title=" ">
<polygon fill="white" stroke="#666666" points="1099.5,-206 927.5,-206 927.5,-176 1099.5,-176 1099.5,-206"/>
<text text-anchor="start" x="935.5" y="-194" font-family="Helvetica,sans-Serif" font-size="10.00">../ui/customWidgets</text>
<text text-anchor="middle" x="1013.5" y="-183" font-family="Helvetica,sans-Serif" font-size="10.00">/inputWidget/dateInputWidget.h</text>
</a>
</g>
</g>
<!-- Node1&#45;&gt;Node21 -->
<g id="edge28_Node000001_Node000021" class="edge">
<title>Node1&#45;&gt;Node21</title>
<g id="a_edge28_Node000001_Node000021"><a xlink:title=" ">
<path fill="none" stroke="#63b8ff" d="M877.62,-241.99C900.6,-233.54 936.54,-220.32 965.68,-209.59"/>
<polygon fill="#63b8ff" stroke="#63b8ff" points="967.1,-212.8 975.27,-206.06 964.68,-206.23 967.1,-212.8"/>
</a>
</g>
</g>
<!-- Node27 -->
<g id="Node000027" class="node">
<title>Node27</title>
<g id="a_Node000027"><a xlink:title=" ">
<polygon fill="#e0e0e0" stroke="#999999" points="1211.5,-200.5 1117.5,-200.5 1117.5,-181.5 1211.5,-181.5 1211.5,-200.5"/>
<text text-anchor="middle" x="1164.5" y="-188.5" font-family="Helvetica,sans-Serif" font-size="10.00">QStandardPaths</text>
</a>
</g>
</g>
<!-- Node1&#45;&gt;Node27 -->
<g id="edge34_Node000001_Node000027" class="edge">
<title>Node1&#45;&gt;Node27</title>
<g id="a_edge34_Node000001_Node000027"><a xlink:title=" ">
<path fill="none" stroke="#63b8ff" d="M900.11,-243.52C951.1,-235.48 1036.02,-221.39 1108.5,-206 1112.92,-205.06 1117.52,-204.02 1122.1,-202.94"/>
<polygon fill="#63b8ff" stroke="#63b8ff" points="1123.12,-206.29 1132.02,-200.54 1121.48,-199.49 1123.12,-206.29"/>
</a>
</g>
</g>
<!-- Node3 -->
<g id="Node000003" class="node">
<title>Node3</title>
<g id="a_Node000003"><a xlink:title=" ">
<polygon fill="#e0e0e0" stroke="#999999" points="453,-74 406,-74 406,-55 453,-55 453,-74"/>
<text text-anchor="middle" x="429.5" y="-62" font-family="Helvetica,sans-Serif" font-size="10.00">hpdf.h</text>
</a>
</g>
</g>
<!-- Node2&#45;&gt;Node3 -->
<g id="edge2_Node000002_Node000003" class="edge">
<title>Node2&#45;&gt;Node3</title>
<g id="a_edge2_Node000002_Node000003"><a xlink:title=" ">
<path fill="none" stroke="#63b8ff" d="M536.6,-181.44C517.56,-160.83 468.91,-108.17 444.28,-81.5"/>
<polygon fill="#63b8ff" stroke="#63b8ff" points="446.82,-79.09 437.46,-74.12 441.67,-83.84 446.82,-79.09"/>
</a>
</g>
</g>
<!-- Node4 -->
<g id="Node000004" class="node">
<title>Node4</title>
<g id="a_Node000004"><a xlink:href="../../d1/d5c/pdf__utils_8h.html" target="_top" xlink:title=" ">
<polygon fill="white" stroke="#666666" points="394.5,-134.5 326.5,-134.5 326.5,-115.5 394.5,-115.5 394.5,-134.5"/>
<text text-anchor="middle" x="360.5" y="-122.5" font-family="Helvetica,sans-Serif" font-size="10.00">pdf_utils.h</text>
</a>
</g>
</g>
<!-- Node2&#45;&gt;Node4 -->
<g id="edge3_Node000002_Node000004" class="edge">
<title>Node2&#45;&gt;Node4</title>
<g id="a_edge3_Node000002_Node000004"><a xlink:title=" ">
<path fill="none" stroke="#63b8ff" d="M519.68,-181.37C487.5,-170.17 431.18,-150.58 394.88,-137.96"/>
<polygon fill="#63b8ff" stroke="#63b8ff" points="395.81,-134.58 385.22,-134.6 393.51,-141.19 395.81,-134.58"/>
</a>
</g>
</g>
<!-- Node13 -->
<g id="Node000013" class="node">
<title>Node13</title>
<g id="a_Node000013"><a xlink:href="../../da/ddf/invoice__data_8h.html" target="_top" xlink:title=" ">
<polygon fill="white" stroke="#666666" points="678.5,-140 552.5,-140 552.5,-110 678.5,-110 678.5,-140"/>
<text text-anchor="start" x="560.5" y="-128" font-family="Helvetica,sans-Serif" font-size="10.00">../data_objects/invoice</text>
<text text-anchor="middle" x="615.5" y="-117" font-family="Helvetica,sans-Serif" font-size="10.00">_data.h</text>
</a>
</g>
</g>
<!-- Node2&#45;&gt;Node13 -->
<g id="edge14_Node000002_Node000013" class="edge">
<title>Node2&#45;&gt;Node13</title>
<g id="a_edge14_Node000002_Node000013"><a xlink:title=" ">
<path fill="none" stroke="#63b8ff" d="M554.08,-181.37C563.79,-172.61 579.21,-158.71 592.16,-147.04"/>
<polygon fill="#63b8ff" stroke="#63b8ff" points="594.76,-149.41 599.84,-140.12 590.07,-144.21 594.76,-149.41"/>
</a>
</g>
</g>
<!-- Node4&#45;&gt;Node3 -->
<g id="edge4_Node000004_Node000003" class="edge">
<title>Node4&#45;&gt;Node3</title>
<g id="a_edge4_Node000004_Node000003"><a xlink:title=" ">
<path fill="none" stroke="#63b8ff" d="M370.68,-115.37C381.38,-106.3 398.44,-91.84 411.43,-80.82"/>
<polygon fill="#63b8ff" stroke="#63b8ff" points="413.91,-83.3 419.28,-74.17 409.39,-77.96 413.91,-83.3"/>
</a>
</g>
</g>
<!-- Node5 -->
<g id="Node000005" class="node">
<title>Node5</title>
<g id="a_Node000005"><a xlink:title=" ">
<polygon fill="#e0e0e0" stroke="#999999" points="349.5,-74 289.5,-74 289.5,-55 349.5,-55 349.5,-74"/>
<text text-anchor="middle" x="319.5" y="-62" font-family="Helvetica,sans-Serif" font-size="10.00">iostream</text>
</a>
</g>
</g>
<!-- Node4&#45;&gt;Node5 -->
<g id="edge5_Node000004_Node000005" class="edge">
<title>Node4&#45;&gt;Node5</title>
<g id="a_edge5_Node000004_Node000005"><a xlink:title=" ">
<path fill="none" stroke="#63b8ff" d="M354.45,-115.37C348.39,-106.73 338.91,-93.2 331.36,-82.42"/>
<polygon fill="#63b8ff" stroke="#63b8ff" points="334.18,-80.35 325.57,-74.17 328.45,-84.37 334.18,-80.35"/>
</a>
</g>
</g>
<!-- Node6 -->
<g id="Node000006" class="node">
<title>Node6</title>
<g id="a_Node000006"><a xlink:title=" ">
<polygon fill="#e0e0e0" stroke="#999999" points="503.5,-19 459.5,-19 459.5,0 503.5,0 503.5,-19"/>
<text text-anchor="middle" x="481.5" y="-7" font-family="Helvetica,sans-Serif" font-size="10.00">string</text>
</a>
</g>
</g>
<!-- Node4&#45;&gt;Node6 -->
<g id="edge6_Node000004_Node000006" class="edge">
<title>Node4&#45;&gt;Node6</title>
<g id="a_edge6_Node000004_Node000006"><a xlink:title=" ">
<path fill="none" stroke="#63b8ff" d="M363.12,-115.33C367.78,-101.15 378.74,-72.78 396.5,-55 411.36,-40.12 432.23,-29.1 449.57,-21.74"/>
<polygon fill="#63b8ff" stroke="#63b8ff" points="451.33,-24.81 459.3,-17.84 448.72,-18.31 451.33,-24.81"/>
</a>
</g>
</g>
<!-- Node7 -->
<g id="Node000007" class="node">
<title>Node7</title>
<g id="a_Node000007"><a xlink:href="../../d8/d60/pdf__exception_8h.html" target="_top" xlink:title=" ">
<polygon fill="white" stroke="#666666" points="271,-74 176,-74 176,-55 271,-55 271,-74"/>
<text text-anchor="middle" x="223.5" y="-62" font-family="Helvetica,sans-Serif" font-size="10.00">pdf_exception.h</text>
</a>
</g>
</g>
<!-- Node4&#45;&gt;Node7 -->
<g id="edge7_Node000004_Node000007" class="edge">
<title>Node4&#45;&gt;Node7</title>
<g id="a_edge7_Node000004_Node000007"><a xlink:title=" ">
<path fill="none" stroke="#63b8ff" d="M340.58,-115.49C317.55,-105.66 279.42,-89.38 252.96,-78.08"/>
<polygon fill="#63b8ff" stroke="#63b8ff" points="254.02,-74.72 243.45,-74.02 251.27,-81.16 254.02,-74.72"/>
</a>
</g>
</g>
<!-- Node8 -->
<g id="Node000008" class="node">
<title>Node8</title>
<g id="a_Node000008"><a xlink:href="../../d5/d60/utils_8h.html" target="_top" xlink:title=" ">
<polygon fill="white" stroke="#666666" points="157.5,-74 101.5,-74 101.5,-55 157.5,-55 157.5,-74"/>
<text text-anchor="middle" x="129.5" y="-62" font-family="Helvetica,sans-Serif" font-size="10.00">../utils.h</text>
</a>
</g>
</g>
<!-- Node4&#45;&gt;Node8 -->
<g id="edge9_Node000004_Node000008" class="edge">
<title>Node4&#45;&gt;Node8</title>
<g id="a_edge9_Node000004_Node000008"><a xlink:title=" ">
<path fill="none" stroke="#63b8ff" d="M326.91,-115.49C284.54,-104.76 211.86,-86.36 167.5,-75.12"/>
<polygon fill="#63b8ff" stroke="#63b8ff" points="168.23,-71.7 157.68,-72.64 166.51,-78.48 168.23,-71.7"/>
</a>
</g>
</g>
<!-- Node7&#45;&gt;Node6 -->
<g id="edge8_Node000007_Node000006" class="edge">
<title>Node7&#45;&gt;Node6</title>
<g id="a_edge8_Node000007_Node000006"><a xlink:title=" ">
<path fill="none" stroke="#63b8ff" d="M264.95,-54.98C316.33,-44.43 402.8,-26.67 449.41,-17.09"/>
<polygon fill="#63b8ff" stroke="#63b8ff" points="450.18,-20.51 459.27,-15.07 448.77,-13.65 450.18,-20.51"/>
</a>
</g>
</g>
<!-- Node9 -->
<g id="Node000009" class="node">
<title>Node9</title>
<g id="a_Node000009"><a xlink:title=" ">
<polygon fill="#e0e0e0" stroke="#999999" points="191,-19 140,-19 140,0 191,0 191,-19"/>
<text text-anchor="middle" x="165.5" y="-7" font-family="Helvetica,sans-Serif" font-size="10.00">iconv.h</text>
</a>
</g>
</g>
<!-- Node8&#45;&gt;Node9 -->
<g id="edge10_Node000008_Node000009" class="edge">
<title>Node8&#45;&gt;Node9</title>
<g id="a_edge10_Node000008_Node000009"><a xlink:title=" ">
<path fill="none" stroke="#63b8ff" d="M135.44,-54.75C140.48,-47.34 147.84,-36.5 154.01,-27.41"/>
<polygon fill="#63b8ff" stroke="#63b8ff" points="156.94,-29.33 159.67,-19.09 151.15,-25.39 156.94,-29.33"/>
</a>
</g>
</g>
<!-- Node10 -->
<g id="Node000010" class="node">
<title>Node10</title>
<g id="a_Node000010"><a xlink:title=" ">
<polygon fill="#e0e0e0" stroke="#999999" points="274,-19 209,-19 209,0 274,0 274,-19"/>
<text text-anchor="middle" x="241.5" y="-7" font-family="Helvetica,sans-Serif" font-size="10.00">stdexcept</text>
</a>
</g>
</g>
<!-- Node8&#45;&gt;Node10 -->
<g id="edge11_Node000008_Node000010" class="edge">
<title>Node8&#45;&gt;Node10</title>
<g id="a_edge11_Node000008_Node000010"><a xlink:title=" ">
<path fill="none" stroke="#63b8ff" d="M147.49,-54.98C165.43,-46.5 193.22,-33.35 213.93,-23.54"/>
<polygon fill="#63b8ff" stroke="#63b8ff" points="215.64,-26.61 223.18,-19.17 212.64,-20.28 215.64,-26.61"/>
</a>
</g>
</g>
<!-- Node11 -->
<g id="Node000011" class="node">
<title>Node11</title>
<g id="a_Node000011"><a xlink:title=" ">
<polygon fill="#e0e0e0" stroke="#999999" points="47,-19 0,-19 0,0 47,0 47,-19"/>
<text text-anchor="middle" x="23.5" y="-7" font-family="Helvetica,sans-Serif" font-size="10.00">vector</text>
</a>
</g>
</g>
<!-- Node8&#45;&gt;Node11 -->
<g id="edge12_Node000008_Node000011" class="edge">
<title>Node8&#45;&gt;Node11</title>
<g id="a_edge12_Node000008_Node000011"><a xlink:title=" ">
<path fill="none" stroke="#63b8ff" d="M112.47,-54.98C95.57,-46.54 69.44,-33.47 49.86,-23.68"/>
<polygon fill="#63b8ff" stroke="#63b8ff" points="51.35,-20.51 40.84,-19.17 48.22,-26.77 51.35,-20.51"/>
</a>
</g>
</g>
<!-- Node12 -->
<g id="Node000012" class="node">
<title>Node12</title>
<g id="a_Node000012"><a xlink:title=" ">
<polygon fill="#e0e0e0" stroke="#999999" points="121.5,-19 65.5,-19 65.5,0 121.5,0 121.5,-19"/>
<text text-anchor="middle" x="93.5" y="-7" font-family="Helvetica,sans-Serif" font-size="10.00">sstream</text>
</a>
</g>
</g>
<!-- Node8&#45;&gt;Node12 -->
<g id="edge13_Node000008_Node000012" class="edge">
<title>Node8&#45;&gt;Node12</title>
<g id="a_edge13_Node000008_Node000012"><a xlink:title=" ">
<path fill="none" stroke="#63b8ff" d="M123.56,-54.75C118.52,-47.34 111.16,-36.5 104.99,-27.41"/>
<polygon fill="#63b8ff" stroke="#63b8ff" points="107.85,-25.39 99.33,-19.09 102.06,-29.33 107.85,-25.39"/>
</a>
</g>
</g>
<!-- Node13&#45;&gt;Node6 -->
<g id="edge17_Node000013_Node000006" class="edge">
<title>Node13&#45;&gt;Node6</title>
<g id="a_edge17_Node000013_Node000006"><a xlink:title=" ">
<path fill="none" stroke="#63b8ff" d="M557.91,-109.96C537.32,-102.36 515.53,-90.94 500.5,-74 489.64,-61.76 484.98,-43.53 482.99,-29.74"/>
<polygon fill="#63b8ff" stroke="#63b8ff" points="486.43,-28.98 481.86,-19.42 479.47,-29.74 486.43,-28.98"/>
</a>
</g>
</g>
<!-- Node14 -->
<g id="Node000014" class="node">
<title>Node14</title>
<g id="a_Node000014"><a xlink:title=" ">
<polygon fill="#e0e0e0" stroke="#999999" points="904.5,-74 872.5,-74 872.5,-55 904.5,-55 904.5,-74"/>
<text text-anchor="middle" x="888.5" y="-62" font-family="Helvetica,sans-Serif" font-size="10.00">list</text>
</a>
</g>
</g>
<!-- Node13&#45;&gt;Node14 -->
<g id="edge15_Node000013_Node000014" class="edge">
<title>Node13&#45;&gt;Node14</title>
<g id="a_edge15_Node000013_Node000014"><a xlink:title=" ">
<path fill="none" stroke="#63b8ff" d="M678.65,-113.31C728.84,-104.31 800.63,-90.32 862.5,-74 862.6,-73.97 862.7,-73.95 862.8,-73.92"/>
<polygon fill="#63b8ff" stroke="#63b8ff" points="863.76,-77.29 872.36,-71.1 861.78,-70.57 863.76,-77.29"/>
</a>
</g>
</g>
<!-- Node15 -->
<g id="Node000015" class="node">
<title>Node15</title>
<g id="a_Node000015"><a xlink:title=" ">
<polygon fill="#e0e0e0" stroke="#999999" points="747,-74 652,-74 652,-55 747,-55 747,-74"/>
<text text-anchor="middle" x="699.5" y="-62" font-family="Helvetica,sans-Serif" font-size="10.00">qdatetimeedit.h</text>
</a>
</g>
</g>
<!-- Node13&#45;&gt;Node15 -->
<g id="edge16_Node000013_Node000015" class="edge">
<title>Node13&#45;&gt;Node15</title>
<g id="a_edge16_Node000013_Node000015"><a xlink:title=" ">
<path fill="none" stroke="#63b8ff" d="M635.83,-109.84C648.77,-100.83 665.49,-89.18 678.55,-80.09"/>
<polygon fill="#63b8ff" stroke="#63b8ff" points="680.71,-82.85 686.91,-74.27 676.71,-77.11 680.71,-82.85"/>
</a>
</g>
</g>
<!-- Node16 -->
<g id="Node000016" class="node">
<title>Node16</title>
<g id="a_Node000016"><a xlink:href="../../d3/dae/product__data_8h.html" target="_top" xlink:title=" ">
<polygon fill="white" stroke="#666666" points="854,-74 765,-74 765,-55 854,-55 854,-74"/>
<text text-anchor="middle" x="809.5" y="-62" font-family="Helvetica,sans-Serif" font-size="10.00">product_data.h</text>
</a>
</g>
</g>
<!-- Node13&#45;&gt;Node16 -->
<g id="edge18_Node000013_Node000016" class="edge">
<title>Node13&#45;&gt;Node16</title>
<g id="a_edge18_Node000013_Node000016"><a xlink:title=" ">
<path fill="none" stroke="#63b8ff" d="M661.97,-109.99C695.45,-99.89 740.07,-86.44 771.44,-76.98"/>
<polygon fill="#63b8ff" stroke="#63b8ff" points="772.57,-80.29 781.13,-74.05 770.55,-73.59 772.57,-80.29"/>
</a>
</g>
</g>
<!-- Node17 -->
<g id="Node000017" class="node">
<title>Node17</title>
<g id="a_Node000017"><a xlink:href="../../dd/dca/representative__data_8h.html" target="_top" xlink:title=" ">
<polygon fill="white" stroke="#666666" points="633.5,-74 509.5,-74 509.5,-55 633.5,-55 633.5,-74"/>
<text text-anchor="middle" x="571.5" y="-62" font-family="Helvetica,sans-Serif" font-size="10.00">representative_data.h</text>
</a>
</g>
</g>
<!-- Node13&#45;&gt;Node17 -->
<g id="edge20_Node000013_Node000017" class="edge">
<title>Node13&#45;&gt;Node17</title>
<g id="a_edge20_Node000013_Node000017"><a xlink:title=" ">
<path fill="none" stroke="#63b8ff" d="M604.85,-109.84C598.66,-101.61 590.81,-91.18 584.29,-82.51"/>
<polygon fill="#63b8ff" stroke="#63b8ff" points="586.9,-80.15 578.09,-74.27 581.31,-84.36 586.9,-80.15"/>
</a>
</g>
</g>
<!-- Node16&#45;&gt;Node6 -->
<g id="edge19_Node000016_Node000006" class="edge">
<title>Node16&#45;&gt;Node6</title>
<g id="a_edge19_Node000016_Node000006"><a xlink:title=" ">
<path fill="none" stroke="#63b8ff" d="M764.92,-56.3C697.98,-45.48 573.04,-25.29 514,-15.75"/>
<polygon fill="#63b8ff" stroke="#63b8ff" points="514.2,-12.24 503.77,-14.1 513.08,-19.15 514.2,-12.24"/>
</a>
</g>
</g>
<!-- Node17&#45;&gt;Node6 -->
<g id="edge21_Node000017_Node000006" class="edge">
<title>Node17&#45;&gt;Node6</title>
<g id="a_edge21_Node000017_Node000006"><a xlink:title=" ">
<path fill="none" stroke="#63b8ff" d="M557.04,-54.98C543.08,-46.77 521.71,-34.18 505.25,-24.49"/>
<polygon fill="#63b8ff" stroke="#63b8ff" points="506.62,-21.23 496.22,-19.17 503.06,-27.26 506.62,-21.23"/>
</a>
</g>
</g>
<!-- Node19&#45;&gt;Node3 -->
<g id="edge24_Node000019_Node000003" class="edge">
<title>Node19&#45;&gt;Node3</title>
<g id="a_edge24_Node000019_Node000003"><a xlink:title=" ">
<path fill="none" stroke="#63b8ff" d="M763.28,-116.89C685.93,-104.98 532.01,-81.28 463.62,-70.75"/>
<polygon fill="#63b8ff" stroke="#63b8ff" points="463.82,-67.24 453.4,-69.18 462.75,-74.16 463.82,-67.24"/>
</a>
</g>
</g>
<!-- Node19&#45;&gt;Node14 -->
<g id="edge25_Node000019_Node000014" class="edge">
<title>Node19&#45;&gt;Node14</title>
<g id="a_edge25_Node000019_Node000014"><a xlink:title=" ">
<path fill="none" stroke="#63b8ff" d="M821.16,-115.37C833.64,-106.12 853.68,-91.28 868.66,-80.19"/>
<polygon fill="#63b8ff" stroke="#63b8ff" points="870.84,-82.93 876.8,-74.17 866.68,-77.31 870.84,-82.93"/>
</a>
</g>
</g>
<!-- Node19&#45;&gt;Node16 -->
<g id="edge27_Node000019_Node000016" class="edge">
<title>Node19&#45;&gt;Node16</title>
<g id="a_edge27_Node000019_Node000016"><a xlink:title=" ">
<path fill="none" stroke="#63b8ff" d="M809.5,-115.37C809.5,-107.25 809.5,-94.81 809.5,-84.39"/>
<polygon fill="#63b8ff" stroke="#63b8ff" points="813,-84.17 809.5,-74.17 806,-84.17 813,-84.17"/>
</a>
</g>
</g>
<!-- Node20 -->
<g id="Node000020" class="node">
<title>Node20</title>
<g id="a_Node000020"><a xlink:title=" ">
<polygon fill="#e0e0e0" stroke="#999999" points="980.5,-74 922.5,-74 922.5,-55 980.5,-55 980.5,-74"/>
<text text-anchor="middle" x="951.5" y="-62" font-family="Helvetica,sans-Serif" font-size="10.00">memory</text>
</a>
</g>
</g>
<!-- Node19&#45;&gt;Node20 -->
<g id="edge26_Node000019_Node000020" class="edge">
<title>Node19&#45;&gt;Node20</title>
<g id="a_edge26_Node000019_Node000020"><a xlink:title=" ">
<path fill="none" stroke="#63b8ff" d="M830.15,-115.49C854.13,-105.62 893.89,-89.23 921.33,-77.93"/>
<polygon fill="#63b8ff" stroke="#63b8ff" points="922.91,-81.06 930.83,-74.02 920.25,-74.59 922.91,-81.06"/>
</a>
</g>
</g>
<!-- Node22 -->
<g id="Node000022" class="node">
<title>Node22</title>
<g id="a_Node000022"><a xlink:title=" ">
<polygon fill="#e0e0e0" stroke="#999999" points="1201,-134.5 1142,-134.5 1142,-115.5 1201,-115.5 1201,-134.5"/>
<text text-anchor="middle" x="1171.5" y="-122.5" font-family="Helvetica,sans-Serif" font-size="10.00">QWidget</text>
</a>
</g>
</g>
<!-- Node21&#45;&gt;Node22 -->
<g id="edge29_Node000021_Node000022" class="edge">
<title>Node21&#45;&gt;Node22</title>
<g id="a_edge29_Node000021_Node000022"><a xlink:title=" ">
<path fill="none" stroke="#63b8ff" d="M1048.17,-175.95C1075.88,-164.73 1114.35,-149.15 1140.92,-138.39"/>
<polygon fill="#63b8ff" stroke="#63b8ff" points="1142.52,-141.52 1150.47,-134.52 1139.89,-135.03 1142.52,-141.52"/>
</a>
</g>
</g>
<!-- Node23 -->
<g id="Node000023" class="node">
<title>Node23</title>
<g id="a_Node000023"><a xlink:title=" ">
<polygon fill="#e0e0e0" stroke="#999999" points="1285.5,-134.5 1219.5,-134.5 1219.5,-115.5 1285.5,-115.5 1285.5,-134.5"/>
<text text-anchor="middle" x="1252.5" y="-122.5" font-family="Helvetica,sans-Serif" font-size="10.00">QDateEdit</text>
</a>
</g>
</g>
<!-- Node21&#45;&gt;Node23 -->
<g id="edge30_Node000021_Node000023" class="edge">
<title>Node21&#45;&gt;Node23</title>
<g id="a_edge30_Node000021_Node000023"><a xlink:title=" ">
<path fill="none" stroke="#63b8ff" d="M1073.73,-175.92C1112.89,-166.47 1164.96,-153.35 1210.5,-140 1212.95,-139.28 1215.48,-138.51 1218.01,-137.72"/>
<polygon fill="#63b8ff" stroke="#63b8ff" points="1219.27,-140.99 1227.72,-134.59 1217.13,-134.33 1219.27,-140.99"/>
</a>
</g>
</g>
<!-- Node24 -->
<g id="Node000024" class="node">
<title>Node24</title>
<g id="a_Node000024"><a xlink:title=" ">
<polygon fill="#e0e0e0" stroke="#999999" points="953.5,-134.5 873.5,-134.5 873.5,-115.5 953.5,-115.5 953.5,-134.5"/>
<text text-anchor="middle" x="913.5" y="-122.5" font-family="Helvetica,sans-Serif" font-size="10.00">QPushButton</text>
</a>
</g>
</g>
<!-- Node21&#45;&gt;Node24 -->
<g id="edge31_Node000021_Node000024" class="edge">
<title>Node21&#45;&gt;Node24</title>
<g id="a_edge31_Node000021_Node000024"><a xlink:title=" ">
<path fill="none" stroke="#63b8ff" d="M991.31,-175.8C974.7,-165.17 952.1,-150.7 935.53,-140.1"/>
<polygon fill="#63b8ff" stroke="#63b8ff" points="937.34,-137.1 927.03,-134.66 933.56,-143 937.34,-137.1"/>
</a>
</g>
</g>
<!-- Node25 -->
<g id="Node000025" class="node">
<title>Node25</title>
<g id="a_Node000025"><a xlink:title=" ">
<polygon fill="#e0e0e0" stroke="#999999" points="1055,-134.5 972,-134.5 972,-115.5 1055,-115.5 1055,-134.5"/>
<text text-anchor="middle" x="1013.5" y="-122.5" font-family="Helvetica,sans-Serif" font-size="10.00">QHBoxLayout</text>
</a>
</g>
</g>
<!-- Node21&#45;&gt;Node25 -->
<g id="edge32_Node000021_Node000025" class="edge">
<title>Node21&#45;&gt;Node25</title>
<g id="a_edge32_Node000021_Node000025"><a xlink:title=" ">
<path fill="none" stroke="#63b8ff" d="M1013.5,-175.8C1013.5,-166.7 1013.5,-154.79 1013.5,-144.9"/>
<polygon fill="#63b8ff" stroke="#63b8ff" points="1017,-144.84 1013.5,-134.84 1010,-144.84 1017,-144.84"/>
</a>
</g>
</g>
<!-- Node26 -->
<g id="Node000026" class="node">
<title>Node26</title>
<g id="a_Node000026"><a xlink:title=" ">
<polygon fill="#e0e0e0" stroke="#999999" points="1123.5,-134.5 1073.5,-134.5 1073.5,-115.5 1123.5,-115.5 1123.5,-134.5"/>
<text text-anchor="middle" x="1098.5" y="-122.5" font-family="Helvetica,sans-Serif" font-size="10.00">QLabel</text>
</a>
</g>
</g>
<!-- Node21&#45;&gt;Node26 -->
<g id="edge33_Node000021_Node000026" class="edge">
<title>Node21&#45;&gt;Node26</title>
<g id="a_edge33_Node000021_Node000026"><a xlink:title=" ">
<path fill="none" stroke="#63b8ff" d="M1032.36,-175.8C1046.14,-165.43 1064.76,-151.4 1078.74,-140.88"/>
<polygon fill="#63b8ff" stroke="#63b8ff" points="1080.87,-143.66 1086.75,-134.84 1076.66,-138.06 1080.87,-143.66"/>
</a>
</g>
</g>
</g>
</svg>

<g id="navigator" transform="translate(0 0)" fill="#404254">
  <rect fill="#f2f5e9" fill-opacity="0.5" stroke="#606060" stroke-width=".5" x="0" y="0" width="60" height="60"/>
  <use id="zoomplus" xlink:href="#zoomPlus" x="17" y="9" onmousedown="handleZoom(evt,'in')"/>
  <use id="zoomminus" xlink:href="#zoomMin" x="42" y="9" onmousedown="handleZoom(evt,'out')"/>
  <use id="reset" xlink:href="#resetDef" x="30" y="36" onmousedown="handleReset()"/>
   <use id="arrowup" xlink:href="#arrowUp" x="0" y="0" onmousedown="handlePan(0,-1)"/>
  <use id="arrowright" xlink:href="#arrowRight" x="0" y="0" onmousedown="handlePan(1,0)"/>
  <use id="arrowdown" xlink:href="#arrowDown" x="0" y="0" onmousedown="handlePan(0,1)"/>
  <use id="arrowleft" xlink:href="#arrowLeft" x="0" y="0" onmousedown="handlePan(-1,0)"/>
</g>
<svg viewBox="0 0 15 15" width="100%" height="30px" preserveAspectRatio="xMaxYMin meet">
 <g id="arrow_out" transform="scale(0.3 0.3)">
  <a xlink:href="invoice_8cpp__incl_org.svg" target="_base">
   <rect id="button" ry="5" rx="5" y="6" x="6" height="38" width="38"
        fill="#f2f5e9" fill-opacity="0.5" stroke="#606060" stroke-width="1.0"/>
   <path id="arrow"
     d="M 11.500037,31.436501 C 11.940474,20.09759 22.043105,11.32322 32.158766,21.979434 L 37.068811,17.246167 C 37.068811,17.246167 37.088388,32 37.088388,32 L 22.160133,31.978069 C 22.160133,31.978069 26.997745,27.140456 26.997745,27.140456 C 18.528582,18.264221 13.291696,25.230495 11.500037,31.436501 z"
     style="fill:#404040;"/>
  </a>
 </g>
</svg>

<style type='text/css'>
<![CDATA[
[data-mouse-over-selected='false'] { opacity: 0.7; }
[data-mouse-over-selected='true']  { opacity: 1.0; }
]]>
</style>
<script type="application/ecmascript"><![CDATA[
document.addEventListener('DOMContentLoaded', (event) => {
  highlightEdges();
  highlightAdjacentNodes();
});
]]></script>
</svg>
