<?xml version="1.0" encoding="UTF-8" standalone="no"?>
<!DOCTYPE svg PUBLIC "-//W3C//DTD SVG 1.1//EN"
 "http://www.w3.org/Graphics/SVG/1.1/DTD/svg11.dtd">
<!-- Generated by graphviz version 2.43.0 (0)
 -->
<!-- Title: pdf/product_table.cpp Pages: 1 -->
<svg width="739pt" height="203pt"
 viewBox="0.00 0.00 739.00 203.00" xmlns="http://www.w3.org/2000/svg" xmlns:xlink="http://www.w3.org/1999/xlink">
<g id="graph0" class="graph" transform="scale(1 1) rotate(0) translate(4 199)">
<title>pdf/product_table.cpp</title>
<!-- Node1 -->
<g id="Node000001" class="node">
<title>Node1</title>
<g id="a_Node000001"><a xlink:title=" ">
<polygon fill="#999999" stroke="#666666" points="330,-195 208,-195 208,-176 330,-176 330,-195"/>
<text text-anchor="middle" x="269" y="-183" font-family="Helvetica,sans-Serif" font-size="10.00">pdf/product_table.cpp</text>
</a>
</g>
</g>
<!-- Node2 -->
<g id="Node000002" class="node">
<title>Node2</title>
<g id="a_Node000002"><a xlink:href="../../d2/d5a/product__table_8h.html" target="_top" xlink:title=" ">
<polygon fill="white" stroke="#666666" points="236,-140 144,-140 144,-121 236,-121 236,-140"/>
<text text-anchor="middle" x="190" y="-128" font-family="Helvetica,sans-Serif" font-size="10.00">product_table.h</text>
</a>
</g>
</g>
<!-- Node1&#45;&gt;Node2 -->
<g id="edge1_Node000001_Node000002" class="edge">
<title>Node1&#45;&gt;Node2</title>
<g id="a_edge1_Node000001_Node000002"><a xlink:title=" ">
<path fill="none" stroke="#63b8ff" d="M256.31,-175.98C244.17,-167.84 225.64,-155.41 211.25,-145.76"/>
<polygon fill="#63b8ff" stroke="#63b8ff" points="213.18,-142.84 202.92,-140.17 209.28,-148.65 213.18,-142.84"/>
</a>
</g>
</g>
<!-- Node8 -->
<g id="Node000008" class="node">
<title>Node8</title>
<g id="a_Node000008"><a xlink:href="../../d1/d5c/pdf__utils_8h.html" target="_top" xlink:title=" ">
<polygon fill="white" stroke="#666666" points="411,-140 343,-140 343,-121 411,-121 411,-140"/>
<text text-anchor="middle" x="377" y="-128" font-family="Helvetica,sans-Serif" font-size="10.00">pdf_utils.h</text>
</a>
</g>
</g>
<!-- Node1&#45;&gt;Node8 -->
<g id="edge7_Node000001_Node000008" class="edge">
<title>Node1&#45;&gt;Node8</title>
<g id="a_edge7_Node000001_Node000008"><a xlink:title=" ">
<path fill="none" stroke="#63b8ff" d="M286.35,-175.98C303.57,-167.54 330.2,-154.47 350.15,-144.68"/>
<polygon fill="#63b8ff" stroke="#63b8ff" points="351.9,-147.72 359.33,-140.17 348.81,-141.43 351.9,-147.72"/>
</a>
</g>
</g>
<!-- Node3 -->
<g id="Node000003" class="node">
<title>Node3</title>
<g id="a_Node000003"><a xlink:title=" ">
<polygon fill="#e0e0e0" stroke="#999999" points="319.5,-79.5 272.5,-79.5 272.5,-60.5 319.5,-60.5 319.5,-79.5"/>
<text text-anchor="middle" x="296" y="-67.5" font-family="Helvetica,sans-Serif" font-size="10.00">hpdf.h</text>
</a>
</g>
</g>
<!-- Node2&#45;&gt;Node3 -->
<g id="edge2_Node000002_Node000003" class="edge">
<title>Node2&#45;&gt;Node3</title>
<g id="a_edge2_Node000002_Node000003"><a xlink:title=" ">
<path fill="none" stroke="#63b8ff" d="M205.64,-120.87C222.94,-111.32 251.05,-95.81 271.33,-84.62"/>
<polygon fill="#63b8ff" stroke="#63b8ff" points="273.23,-87.56 280.3,-79.67 269.85,-81.43 273.23,-87.56"/>
</a>
</g>
</g>
<!-- Node4 -->
<g id="Node000004" class="node">
<title>Node4</title>
<g id="a_Node000004"><a xlink:title=" ">
<polygon fill="#e0e0e0" stroke="#999999" points="32,-79.5 0,-79.5 0,-60.5 32,-60.5 32,-79.5"/>
<text text-anchor="middle" x="16" y="-67.5" font-family="Helvetica,sans-Serif" font-size="10.00">list</text>
</a>
</g>
</g>
<!-- Node2&#45;&gt;Node4 -->
<g id="edge3_Node000002_Node000004" class="edge">
<title>Node2&#45;&gt;Node4</title>
<g id="a_edge3_Node000002_Node000004"><a xlink:title=" ">
<path fill="none" stroke="#63b8ff" d="M153.39,-120.97C122.74,-113.26 78.17,-100.73 41,-85 40.31,-84.71 39.62,-84.4 38.93,-84.09"/>
<polygon fill="#63b8ff" stroke="#63b8ff" points="40.51,-80.97 30,-79.55 37.33,-87.21 40.51,-80.97"/>
</a>
</g>
</g>
<!-- Node5 -->
<g id="Node000005" class="node">
<title>Node5</title>
<g id="a_Node000005"><a xlink:title=" ">
<polygon fill="#e0e0e0" stroke="#999999" points="108,-79.5 50,-79.5 50,-60.5 108,-60.5 108,-79.5"/>
<text text-anchor="middle" x="79" y="-67.5" font-family="Helvetica,sans-Serif" font-size="10.00">memory</text>
</a>
</g>
</g>
<!-- Node2&#45;&gt;Node5 -->
<g id="edge4_Node000002_Node000005" class="edge">
<title>Node2&#45;&gt;Node5</title>
<g id="a_edge4_Node000002_Node000005"><a xlink:title=" ">
<path fill="none" stroke="#63b8ff" d="M173.62,-120.87C155.42,-111.28 125.8,-95.67 104.55,-84.47"/>
<polygon fill="#63b8ff" stroke="#63b8ff" points="105.92,-81.23 95.45,-79.67 102.66,-87.43 105.92,-81.23"/>
</a>
</g>
</g>
<!-- Node6 -->
<g id="Node000006" class="node">
<title>Node6</title>
<g id="a_Node000006"><a xlink:href="../../d3/dae/product__data_8h.html" target="_top" xlink:title=" ">
<polygon fill="white" stroke="#666666" points="254,-85 126,-85 126,-55 254,-55 254,-85"/>
<text text-anchor="start" x="134" y="-73" font-family="Helvetica,sans-Serif" font-size="10.00">../data_objects/product</text>
<text text-anchor="middle" x="190" y="-62" font-family="Helvetica,sans-Serif" font-size="10.00">_data.h</text>
</a>
</g>
</g>
<!-- Node2&#45;&gt;Node6 -->
<g id="edge5_Node000002_Node000006" class="edge">
<title>Node2&#45;&gt;Node6</title>
<g id="a_edge5_Node000002_Node000006"><a xlink:title=" ">
<path fill="none" stroke="#63b8ff" d="M190,-120.87C190,-114.11 190,-104.35 190,-95.26"/>
<polygon fill="#63b8ff" stroke="#63b8ff" points="193.5,-95.11 190,-85.11 186.5,-95.11 193.5,-95.11"/>
</a>
</g>
</g>
<!-- Node7 -->
<g id="Node000007" class="node">
<title>Node7</title>
<g id="a_Node000007"><a xlink:title=" ">
<polygon fill="#e0e0e0" stroke="#999999" points="370,-19 326,-19 326,0 370,0 370,-19"/>
<text text-anchor="middle" x="348" y="-7" font-family="Helvetica,sans-Serif" font-size="10.00">string</text>
</a>
</g>
</g>
<!-- Node6&#45;&gt;Node7 -->
<g id="edge6_Node000006_Node000007" class="edge">
<title>Node6&#45;&gt;Node7</title>
<g id="a_edge6_Node000006_Node000007"><a xlink:title=" ">
<path fill="none" stroke="#63b8ff" d="M227.84,-54.99C254.76,-45.02 290.53,-31.78 316.02,-22.34"/>
<polygon fill="#63b8ff" stroke="#63b8ff" points="317.42,-25.55 325.59,-18.8 314.99,-18.99 317.42,-25.55"/>
</a>
</g>
</g>
<!-- Node8&#45;&gt;Node3 -->
<g id="edge8_Node000008_Node000003" class="edge">
<title>Node8&#45;&gt;Node3</title>
<g id="a_edge8_Node000008_Node000003"><a xlink:title=" ">
<path fill="none" stroke="#63b8ff" d="M365.05,-120.87C352.25,-111.62 331.7,-96.78 316.35,-85.69"/>
<polygon fill="#63b8ff" stroke="#63b8ff" points="318.16,-82.68 308,-79.67 314.06,-88.36 318.16,-82.68"/>
</a>
</g>
</g>
<!-- Node8&#45;&gt;Node7 -->
<g id="edge10_Node000008_Node000007" class="edge">
<title>Node8&#45;&gt;Node7</title>
<g id="a_edge10_Node000008_Node000007"><a xlink:title=" ">
<path fill="none" stroke="#63b8ff" d="M374.91,-120.94C370.26,-101.82 358.91,-55.27 352.54,-29.12"/>
<polygon fill="#63b8ff" stroke="#63b8ff" points="355.91,-28.19 350.14,-19.3 349.11,-29.85 355.91,-28.19"/>
</a>
</g>
</g>
<!-- Node9 -->
<g id="Node000009" class="node">
<title>Node9</title>
<g id="a_Node000009"><a xlink:title=" ">
<polygon fill="#e0e0e0" stroke="#999999" points="436,-79.5 376,-79.5 376,-60.5 436,-60.5 436,-79.5"/>
<text text-anchor="middle" x="406" y="-67.5" font-family="Helvetica,sans-Serif" font-size="10.00">iostream</text>
</a>
</g>
</g>
<!-- Node8&#45;&gt;Node9 -->
<g id="edge9_Node000008_Node000009" class="edge">
<title>Node8&#45;&gt;Node9</title>
<g id="a_edge9_Node000008_Node000009"><a xlink:title=" ">
<path fill="none" stroke="#63b8ff" d="M381.28,-120.87C385.43,-112.49 391.87,-99.51 397.13,-88.89"/>
<polygon fill="#63b8ff" stroke="#63b8ff" points="400.4,-90.18 401.7,-79.67 394.13,-87.07 400.4,-90.18"/>
</a>
</g>
</g>
<!-- Node10 -->
<g id="Node000010" class="node">
<title>Node10</title>
<g id="a_Node000010"><a xlink:href="../../d8/d60/pdf__exception_8h.html" target="_top" xlink:title=" ">
<polygon fill="white" stroke="#666666" points="549.5,-79.5 454.5,-79.5 454.5,-60.5 549.5,-60.5 549.5,-79.5"/>
<text text-anchor="middle" x="502" y="-67.5" font-family="Helvetica,sans-Serif" font-size="10.00">pdf_exception.h</text>
</a>
</g>
</g>
<!-- Node8&#45;&gt;Node10 -->
<g id="edge11_Node000008_Node000010" class="edge">
<title>Node8&#45;&gt;Node10</title>
<g id="a_edge11_Node000008_Node000010"><a xlink:title=" ">
<path fill="none" stroke="#63b8ff" d="M395.18,-120.99C416.01,-111.25 450.37,-95.16 474.48,-83.88"/>
<polygon fill="#63b8ff" stroke="#63b8ff" points="476.23,-86.93 483.8,-79.52 473.26,-80.59 476.23,-86.93"/>
</a>
</g>
</g>
<!-- Node11 -->
<g id="Node000011" class="node">
<title>Node11</title>
<g id="a_Node000011"><a xlink:href="../../d5/d60/utils_8h.html" target="_top" xlink:title=" ">
<polygon fill="white" stroke="#666666" points="624,-79.5 568,-79.5 568,-60.5 624,-60.5 624,-79.5"/>
<text text-anchor="middle" x="596" y="-67.5" font-family="Helvetica,sans-Serif" font-size="10.00">../utils.h</text>
</a>
</g>
</g>
<!-- Node8&#45;&gt;Node11 -->
<g id="edge13_Node000008_Node000011" class="edge">
<title>Node8&#45;&gt;Node11</title>
<g id="a_edge13_Node000008_Node000011"><a xlink:title=" ">
<path fill="none" stroke="#63b8ff" d="M411.22,-122.44C448.05,-114.54 508.2,-100.76 559,-85 560.92,-84.4 562.88,-83.76 564.85,-83.09"/>
<polygon fill="#63b8ff" stroke="#63b8ff" points="566.4,-86.26 574.63,-79.59 564.04,-79.67 566.4,-86.26"/>
</a>
</g>
</g>
<!-- Node10&#45;&gt;Node7 -->
<g id="edge12_Node000010_Node000007" class="edge">
<title>Node10&#45;&gt;Node7</title>
<g id="a_edge12_Node000010_Node000007"><a xlink:title=" ">
<path fill="none" stroke="#63b8ff" d="M479.61,-60.49C453.3,-50.5 409.47,-33.85 379.69,-22.54"/>
<polygon fill="#63b8ff" stroke="#63b8ff" points="380.76,-19.2 370.17,-18.92 378.28,-25.74 380.76,-19.2"/>
</a>
</g>
</g>
<!-- Node12 -->
<g id="Node000012" class="node">
<title>Node12</title>
<g id="a_Node000012"><a xlink:title=" ">
<polygon fill="#e0e0e0" stroke="#999999" points="508.5,-19 457.5,-19 457.5,0 508.5,0 508.5,-19"/>
<text text-anchor="middle" x="483" y="-7" font-family="Helvetica,sans-Serif" font-size="10.00">iconv.h</text>
</a>
</g>
</g>
<!-- Node11&#45;&gt;Node12 -->
<g id="edge14_Node000011_Node000012" class="edge">
<title>Node11&#45;&gt;Node12</title>
<g id="a_edge14_Node000011_Node000012"><a xlink:title=" ">
<path fill="none" stroke="#63b8ff" d="M579.33,-60.37C560.72,-50.73 530.38,-35.03 508.72,-23.81"/>
<polygon fill="#63b8ff" stroke="#63b8ff" points="510.23,-20.66 499.74,-19.17 507.01,-26.87 510.23,-20.66"/>
</a>
</g>
</g>
<!-- Node13 -->
<g id="Node000013" class="node">
<title>Node13</title>
<g id="a_Node000013"><a xlink:title=" ">
<polygon fill="#e0e0e0" stroke="#999999" points="591.5,-19 526.5,-19 526.5,0 591.5,0 591.5,-19"/>
<text text-anchor="middle" x="559" y="-7" font-family="Helvetica,sans-Serif" font-size="10.00">stdexcept</text>
</a>
</g>
</g>
<!-- Node11&#45;&gt;Node13 -->
<g id="edge15_Node000011_Node000013" class="edge">
<title>Node11&#45;&gt;Node13</title>
<g id="a_edge15_Node000011_Node000013"><a xlink:title=" ">
<path fill="none" stroke="#63b8ff" d="M590.54,-60.37C585.13,-51.81 576.69,-38.47 569.9,-27.74"/>
<polygon fill="#63b8ff" stroke="#63b8ff" points="572.79,-25.75 564.48,-19.17 566.87,-29.49 572.79,-25.75"/>
</a>
</g>
</g>
<!-- Node14 -->
<g id="Node000014" class="node">
<title>Node14</title>
<g id="a_Node000014"><a xlink:title=" ">
<polygon fill="#e0e0e0" stroke="#999999" points="656.5,-19 609.5,-19 609.5,0 656.5,0 656.5,-19"/>
<text text-anchor="middle" x="633" y="-7" font-family="Helvetica,sans-Serif" font-size="10.00">vector</text>
</a>
</g>
</g>
<!-- Node11&#45;&gt;Node14 -->
<g id="edge16_Node000011_Node000014" class="edge">
<title>Node11&#45;&gt;Node14</title>
<g id="a_edge16_Node000011_Node000014"><a xlink:title=" ">
<path fill="none" stroke="#63b8ff" d="M601.46,-60.37C606.87,-51.81 615.31,-38.47 622.1,-27.74"/>
<polygon fill="#63b8ff" stroke="#63b8ff" points="625.13,-29.49 627.52,-19.17 619.21,-25.75 625.13,-29.49"/>
</a>
</g>
</g>
<!-- Node15 -->
<g id="Node000015" class="node">
<title>Node15</title>
<g id="a_Node000015"><a xlink:title=" ">
<polygon fill="#e0e0e0" stroke="#999999" points="731,-19 675,-19 675,0 731,0 731,-19"/>
<text text-anchor="middle" x="703" y="-7" font-family="Helvetica,sans-Serif" font-size="10.00">sstream</text>
</a>
</g>
</g>
<!-- Node11&#45;&gt;Node15 -->
<g id="edge17_Node000011_Node000015" class="edge">
<title>Node11&#45;&gt;Node15</title>
<g id="a_edge17_Node000011_Node000015"><a xlink:title=" ">
<path fill="none" stroke="#63b8ff" d="M611.79,-60.37C629.33,-50.78 657.88,-35.17 678.37,-23.97"/>
<polygon fill="#63b8ff" stroke="#63b8ff" points="680.05,-27.04 687.15,-19.17 676.69,-20.89 680.05,-27.04"/>
</a>
</g>
</g>
</g>
</svg>
