<?xml version="1.0" encoding="UTF-8" standalone="no"?>
<!DOCTYPE svg PUBLIC "-//W3C//DTD SVG 1.1//EN"
 "http://www.w3.org/Graphics/SVG/1.1/DTD/svg11.dtd">
<!-- Generated by graphviz version 2.43.0 (0)
 -->
<!-- Title: pdf/product_table.h Pages: 1 -->
<svg width="240pt" height="82pt"
 viewBox="0.00 0.00 239.50 82.00" xmlns="http://www.w3.org/2000/svg" xmlns:xlink="http://www.w3.org/1999/xlink">
<g id="graph0" class="graph" transform="scale(1 1) rotate(0) translate(4 78)">
<title>pdf/product_table.h</title>
<!-- Node1 -->
<g id="Node000001" class="node">
<title>Node1</title>
<g id="a_Node000001"><a xlink:title=" ">
<polygon fill="#999999" stroke="#666666" points="163,-74 52,-74 52,-55 163,-55 163,-74"/>
<text text-anchor="middle" x="107.5" y="-62" font-family="Helvetica,sans-Serif" font-size="10.00">pdf/product_table.h</text>
</a>
</g>
</g>
<!-- Node2 -->
<g id="Node000002" class="node">
<title>Node2</title>
<g id="a_Node000002"><a xlink:href="../../d1/dfb/invoice_8cpp.html" target="_top" xlink:title=" ">
<polygon fill="white" stroke="#666666" points="91,-19 0,-19 0,0 91,0 91,-19"/>
<text text-anchor="middle" x="45.5" y="-7" font-family="Helvetica,sans-Serif" font-size="10.00">pdf/invoice.cpp</text>
</a>
</g>
</g>
<!-- Node1&#45;&gt;Node2 -->
<g id="edge1_Node000001_Node000002" class="edge">
<title>Node1&#45;&gt;Node2</title>
<g id="a_edge1_Node000001_Node000002"><a xlink:title=" ">
<path fill="none" stroke="#63b8ff" d="M89.75,-48.32C78.69,-38.87 64.87,-27.06 55.64,-19.17"/>
<polygon fill="#63b8ff" stroke="#63b8ff" points="87.66,-51.15 97.54,-54.98 92.21,-45.83 87.66,-51.15"/>
</a>
</g>
</g>
<!-- Node3 -->
<g id="Node000003" class="node">
<title>Node3</title>
<g id="a_Node000003"><a xlink:href="../../d8/d27/product__table_8cpp.html" target="_top" xlink:title=" ">
<polygon fill="white" stroke="#666666" points="231.5,-19 109.5,-19 109.5,0 231.5,0 231.5,-19"/>
<text text-anchor="middle" x="170.5" y="-7" font-family="Helvetica,sans-Serif" font-size="10.00">pdf/product_table.cpp</text>
</a>
</g>
</g>
<!-- Node1&#45;&gt;Node3 -->
<g id="edge2_Node000001_Node000003" class="edge">
<title>Node1&#45;&gt;Node3</title>
<g id="a_edge2_Node000001_Node000003"><a xlink:title=" ">
<path fill="none" stroke="#63b8ff" d="M125.54,-48.32C136.77,-38.87 150.82,-27.06 160.19,-19.17"/>
<polygon fill="#63b8ff" stroke="#63b8ff" points="123.02,-45.87 117.62,-54.98 127.53,-51.23 123.02,-45.87"/>
</a>
</g>
</g>
</g>
</svg>
