<?xml version="1.0" encoding="UTF-8" standalone="no"?>
<!DOCTYPE svg PUBLIC "-//W3C//DTD SVG 1.1//EN"
 "http://www.w3.org/Graphics/SVG/1.1/DTD/svg11.dtd">
<!-- Generated by graphviz version 2.43.0 (0)
 -->
<!-- Title: ProductData Pages: 1 -->
<svg width="141pt" height="120pt"
 viewBox="0.00 0.00 141.00 120.00" xmlns="http://www.w3.org/2000/svg" xmlns:xlink="http://www.w3.org/1999/xlink">
<g id="graph0" class="graph" transform="scale(1 1) rotate(0) translate(4 116)">
<title>ProductData</title>
<!-- Node1 -->
<g id="Node000001" class="node">
<title>Node1</title>
<g id="a_Node000001"><a xlink:title=" ">
<polygon fill="#999999" stroke="transparent" points="133,-112 0,-112 0,0 133,0 133,-112"/>
<text text-anchor="start" x="36.5" y="-100" font-family="Helvetica,sans-Serif" font-size="10.00">ProductData</text>
<text text-anchor="start" x="4.5" y="-85" font-family="Helvetica,sans-Serif" font-size="10.00">+</text>
<text text-anchor="start" x="17.5" y="-85" font-family="Helvetica,sans-Serif" font-size="10.00">std::string name</text>
<text text-anchor="start" x="4.5" y="-70" font-family="Helvetica,sans-Serif" font-size="10.00">+</text>
<text text-anchor="start" x="17.5" y="-70" font-family="Helvetica,sans-Serif" font-size="10.00">int count</text>
<text text-anchor="start" x="4.5" y="-55" font-family="Helvetica,sans-Serif" font-size="10.00">+</text>
<text text-anchor="start" x="17.5" y="-55" font-family="Helvetica,sans-Serif" font-size="10.00">double price_per_unit</text>
<text text-anchor="start" x="4.5" y="-40" font-family="Helvetica,sans-Serif" font-size="10.00">+</text>
<text text-anchor="start" x="17.5" y="-40" font-family="Helvetica,sans-Serif" font-size="10.00">ProductData(const</text>
<text text-anchor="start" x="17.5" y="-29" font-family="Helvetica,sans-Serif" font-size="10.00"> std::string &amp;name,</text>
<text text-anchor="start" x="17.5" y="-18" font-family="Helvetica,sans-Serif" font-size="10.00"> const int count, const</text>
<text text-anchor="start" x="17.5" y="-7" font-family="Helvetica,sans-Serif" font-size="10.00"> double price_per_unit)</text>
<polygon fill="#666666" stroke="#666666" points="0.5,-95 0.5,-95 133.5,-95 133.5,-95 0.5,-95"/>
<polygon fill="#666666" stroke="#666666" points="0.5,-50 0.5,-50 15.5,-50 15.5,-50 0.5,-50"/>
<polygon fill="#666666" stroke="#666666" points="15.5,-50 15.5,-50 133.5,-50 133.5,-50 15.5,-50"/>
<polygon fill="none" stroke="#666666" points="0,0 0,-112 133,-112 133,0 0,0"/>
</a>
</g>
</g>
</g>
</svg>
