<?xml version="1.0" encoding="UTF-8" standalone="no"?>
<!DOCTYPE svg PUBLIC "-//W3C//DTD SVG 1.1//EN"
 "http://www.w3.org/Graphics/SVG/1.1/DTD/svg11.dtd">
<!-- Generated by graphviz version 2.43.0 (0)
 -->
<!-- Title: textInputWidget Pages: 1 -->
<svg width="158pt" height="194pt"
 viewBox="0.00 0.00 158.00 194.00" xmlns="http://www.w3.org/2000/svg" xmlns:xlink="http://www.w3.org/1999/xlink">
<g id="graph0" class="graph" transform="scale(1 1) rotate(0) translate(4 190)">
<title>textInputWidget</title>
<!-- Node1 -->
<g id="Node000001" class="node">
<title>Node1</title>
<g id="a_Node000001"><a xlink:title="a Widget containing a label and a text input below">
<polygon fill="#999999" stroke="transparent" points="150,-101 0,-101 0,0 150,0 150,-101"/>
<text text-anchor="start" x="35.5" y="-88.5" font-family="Helvetica,sans-Serif" font-size="10.00">textInputWidget</text>
<text text-anchor="start" x="4" y="-73.5" font-family="Helvetica,sans-Serif" font-size="10.00">+</text>
<text text-anchor="start" x="17" y="-73.5" font-family="Helvetica,sans-Serif" font-size="10.00">QVBoxLayout * layout</text>
<text text-anchor="start" x="4" y="-58.5" font-family="Helvetica,sans-Serif" font-size="10.00">+</text>
<text text-anchor="start" x="17" y="-58.5" font-family="Helvetica,sans-Serif" font-size="10.00">QLabel * label</text>
<text text-anchor="start" x="4" y="-43.5" font-family="Helvetica,sans-Serif" font-size="10.00">+</text>
<text text-anchor="start" x="17" y="-43.5" font-family="Helvetica,sans-Serif" font-size="10.00">QLineEdit * input</text>
<text text-anchor="start" x="4" y="-28.5" font-family="Helvetica,sans-Serif" font-size="10.00">+</text>
<text text-anchor="start" x="17" y="-28.5" font-family="Helvetica,sans-Serif" font-size="10.00">textInputWidget(const</text>
<text text-anchor="start" x="17" y="-17.5" font-family="Helvetica,sans-Serif" font-size="10.00"> QString &amp;inputLabel,</text>
<text text-anchor="start" x="17" y="-6.5" font-family="Helvetica,sans-Serif" font-size="10.00"> QWidget *parent=nullptr)</text>
<polygon fill="#666666" stroke="#666666" points="0,-83.5 0,-83.5 150,-83.5 150,-83.5 0,-83.5"/>
<polygon fill="#666666" stroke="#666666" points="0,-38.5 0,-38.5 15,-38.5 15,-38.5 0,-38.5"/>
<polygon fill="#666666" stroke="#666666" points="15,-38.5 15,-38.5 150,-38.5 150,-38.5 15,-38.5"/>
<polygon fill="none" stroke="#666666" points="0,0 0,-101 150,-101 150,0 0,0"/>
</a>
</g>
</g>
<!-- Node2 -->
<g id="Node000002" class="node">
<title>Node2</title>
<g id="a_Node000002"><a xlink:title=" ">
<polygon fill="white" stroke="transparent" points="101.5,-186 48.5,-186 48.5,-137 101.5,-137 101.5,-186"/>
<text text-anchor="start" x="54" y="-173.5" font-family="Helvetica,sans-Serif" font-size="10.00">QWidget</text>
<text text-anchor="start" x="73.5" y="-158.5" font-family="Helvetica,sans-Serif" font-size="10.00"> </text>
<text text-anchor="start" x="73.5" y="-143.5" font-family="Helvetica,sans-Serif" font-size="10.00"> </text>
<polygon fill="#666666" stroke="#666666" points="49,-168.5 49,-168.5 102,-168.5 102,-168.5 49,-168.5"/>
<polygon fill="#666666" stroke="#666666" points="49,-153.5 49,-153.5 102,-153.5 102,-153.5 49,-153.5"/>
<polygon fill="none" stroke="#666666" points="48.5,-137 48.5,-186 101.5,-186 101.5,-137 48.5,-137"/>
</a>
</g>
</g>
<!-- Node2&#45;&gt;Node1 -->
<g id="edge1_Node000001_Node000002" class="edge">
<title>Node2&#45;&gt;Node1</title>
<g id="a_edge1_Node000001_Node000002"><a xlink:title=" ">
<path fill="none" stroke="#63b8ff" d="M75,-126.67C75,-118.56 75,-109.73 75,-101.07"/>
<polygon fill="none" stroke="#63b8ff" points="71.5,-126.85 75,-136.85 78.5,-126.85 71.5,-126.85"/>
</a>
</g>
</g>
</g>
</svg>
