<?xml version="1.0" encoding="UTF-8" standalone="no"?>
<!DOCTYPE svg PUBLIC "-//W3C//DTD SVG 1.1//EN"
 "http://www.w3.org/Graphics/SVG/1.1/DTD/svg11.dtd">
<!-- Generated by graphviz version 2.43.0 (0)
 -->
<!-- Title: product_table::createProductTable Pages: 1 -->
<svg width="685pt" height="138pt"
 viewBox="0.00 0.00 685.00 138.00" xmlns="http://www.w3.org/2000/svg" xmlns:xlink="http://www.w3.org/1999/xlink">
<g id="graph0" class="graph" transform="scale(1 1) rotate(0) translate(4 134)">
<title>product_table::createProductTable</title>
<!-- Node1 -->
<g id="Node000001" class="node">
<title>Node1</title>
<g id="a_Node000001"><a xlink:title="Function to automatically draw the Product table on to a given invoice page.">
<polygon fill="#999999" stroke="#666666" points="157,-79.5 0,-79.5 0,-49.5 157,-49.5 157,-79.5"/>
<text text-anchor="start" x="8" y="-67.5" font-family="Helvetica,sans-Serif" font-size="10.00">product_table::createProduct</text>
<text text-anchor="middle" x="78.5" y="-56.5" font-family="Helvetica,sans-Serif" font-size="10.00">Table</text>
</a>
</g>
</g>
<!-- Node2 -->
<g id="Node000002" class="node">
<title>Node2</title>
<g id="a_Node000002"><a xlink:href="../../d8/d27/product__table_8cpp.html#a15a37a94b45b36a871ebb8ebf5f36159" target="_top" xlink:title=" ">
<polygon fill="white" stroke="#666666" points="318,-111 193,-111 193,-92 318,-92 318,-111"/>
<text text-anchor="middle" x="255.5" y="-99" font-family="Helvetica,sans-Serif" font-size="10.00">_createProductHeader</text>
</a>
</g>
</g>
<!-- Node1&#45;&gt;Node2 -->
<g id="edge1_Node000001_Node000002" class="edge">
<title>Node1&#45;&gt;Node2</title>
<g id="a_edge1_Node000001_Node000002"><a xlink:title=" ">
<path fill="none" stroke="#63b8ff" d="M150.68,-79.55C166.98,-83 184.07,-86.61 199.56,-89.88"/>
<polygon fill="#63b8ff" stroke="#63b8ff" points="198.98,-93.34 209.49,-91.98 200.43,-86.49 198.98,-93.34"/>
</a>
</g>
</g>
<!-- Node7 -->
<g id="Node000007" class="node">
<title>Node7</title>
<g id="a_Node000007"><a xlink:href="../../d8/d27/product__table_8cpp.html#a6fead7fb5c4027b48fc26fb283e3f71f" target="_top" xlink:title=" ">
<polygon fill="white" stroke="#666666" points="310.5,-74 200.5,-74 200.5,-55 310.5,-55 310.5,-74"/>
<text text-anchor="middle" x="255.5" y="-62" font-family="Helvetica,sans-Serif" font-size="10.00">_createProductRow</text>
</a>
</g>
</g>
<!-- Node1&#45;&gt;Node7 -->
<g id="edge6_Node000001_Node000007" class="edge">
<title>Node1&#45;&gt;Node7</title>
<g id="a_edge6_Node000001_Node000007"><a xlink:title=" ">
<path fill="none" stroke="#63b8ff" d="M157.02,-64.5C168.11,-64.5 179.41,-64.5 190.2,-64.5"/>
<polygon fill="#63b8ff" stroke="#63b8ff" points="190.37,-68 200.37,-64.5 190.37,-61 190.37,-68"/>
</a>
</g>
</g>
<!-- Node10 -->
<g id="Node000010" class="node">
<title>Node10</title>
<g id="a_Node000010"><a xlink:href="../../d1/d5c/pdf__utils_8h.html#ab2771327d46765d94e49f3acf8d0d539" target="_top" xlink:title="draw a line, line width needs to be set before">
<polygon fill="white" stroke="#666666" points="286,-37 225,-37 225,-18 286,-18 286,-37"/>
<text text-anchor="middle" x="255.5" y="-25" font-family="Helvetica,sans-Serif" font-size="10.00">drawLine</text>
</a>
</g>
</g>
<!-- Node1&#45;&gt;Node10 -->
<g id="edge13_Node000001_Node000010" class="edge">
<title>Node1&#45;&gt;Node10</title>
<g id="a_edge13_Node000001_Node000010"><a xlink:title=" ">
<path fill="none" stroke="#63b8ff" d="M150.68,-49.45C172.66,-44.8 196.06,-39.86 215.07,-35.84"/>
<polygon fill="#63b8ff" stroke="#63b8ff" points="215.8,-39.26 224.86,-33.77 214.36,-32.41 215.8,-39.26"/>
</a>
</g>
</g>
<!-- Node3 -->
<g id="Node000003" class="node">
<title>Node3</title>
<g id="a_Node000003"><a xlink:href="../../d1/d5c/pdf__utils_8h.html#a8f9be0ef8bc5cfda0696a2a158d9f20c" target="_top" xlink:title="change the font and font size">
<polygon fill="white" stroke="#666666" points="473,-130 400,-130 400,-111 473,-111 473,-130"/>
<text text-anchor="middle" x="436.5" y="-118" font-family="Helvetica,sans-Serif" font-size="10.00">changeFont</text>
</a>
</g>
</g>
<!-- Node2&#45;&gt;Node3 -->
<g id="edge2_Node000002_Node000003" class="edge">
<title>Node2&#45;&gt;Node3</title>
<g id="a_edge2_Node000002_Node000003"><a xlink:title=" ">
<path fill="none" stroke="#63b8ff" d="M318.1,-108.04C341.67,-110.54 368.11,-113.35 389.93,-115.66"/>
<polygon fill="#63b8ff" stroke="#63b8ff" points="389.6,-119.15 399.91,-116.72 390.34,-112.19 389.6,-119.15"/>
</a>
</g>
</g>
<!-- Node4 -->
<g id="Node000004" class="node">
<title>Node4</title>
<g id="a_Node000004"><a xlink:href="../../d1/d5c/pdf__utils_8h.html#a718810ab35a6f1052271a2edb887936f" target="_top" xlink:title="write text on to the pdf at a given point">
<polygon fill="white" stroke="#666666" points="467.5,-93 405.5,-93 405.5,-74 467.5,-74 467.5,-93"/>
<text text-anchor="middle" x="436.5" y="-81" font-family="Helvetica,sans-Serif" font-size="10.00">writeText</text>
</a>
</g>
</g>
<!-- Node2&#45;&gt;Node4 -->
<g id="edge3_Node000002_Node000004" class="edge">
<title>Node2&#45;&gt;Node4</title>
<g id="a_edge3_Node000002_Node000004"><a xlink:title=" ">
<path fill="none" stroke="#63b8ff" d="M318.1,-95.31C343.71,-92.73 372.7,-89.81 395.47,-87.53"/>
<polygon fill="#63b8ff" stroke="#63b8ff" points="395.86,-91 405.46,-86.52 395.16,-84.04 395.86,-91"/>
</a>
</g>
</g>
<!-- Node5 -->
<g id="Node000005" class="node">
<title>Node5</title>
<g id="a_Node000005"><a xlink:href="../../d1/d5c/pdf__utils_8h.html#a03775da971402fe5e7cf8dbe201e3888" target="_top" xlink:title="calculates the height of a given text on the pdf">
<polygon fill="white" stroke="#666666" points="677,-93 555,-93 555,-74 677,-74 677,-93"/>
<text text-anchor="middle" x="616" y="-81" font-family="Helvetica,sans-Serif" font-size="10.00">calculate_text_height</text>
</a>
</g>
</g>
<!-- Node4&#45;&gt;Node5 -->
<g id="edge4_Node000004_Node000005" class="edge">
<title>Node4&#45;&gt;Node5</title>
<g id="a_edge4_Node000004_Node000005"><a xlink:title=" ">
<path fill="none" stroke="#63b8ff" d="M467.61,-83.5C488.75,-83.5 517.92,-83.5 544.73,-83.5"/>
<polygon fill="#63b8ff" stroke="#63b8ff" points="544.87,-87 554.87,-83.5 544.87,-80 544.87,-87"/>
</a>
</g>
</g>
<!-- Node6 -->
<g id="Node000006" class="node">
<title>Node6</title>
<g id="a_Node000006"><a xlink:href="../../d5/d60/utils_8h.html#ab750ae7075d3bd96b4e6bf46e08998fe" target="_top" xlink:title="converts a UTF8 string to ISO8859&#45;1 / ANSI using iconv">
<polygon fill="white" stroke="#666666" points="668,-56 564,-56 564,-37 668,-37 668,-56"/>
<text text-anchor="middle" x="616" y="-44" font-family="Helvetica,sans-Serif" font-size="10.00">UTF8toISO8859_1</text>
</a>
</g>
</g>
<!-- Node4&#45;&gt;Node6 -->
<g id="edge5_Node000004_Node000006" class="edge">
<title>Node4&#45;&gt;Node6</title>
<g id="a_edge5_Node000004_Node000006"><a xlink:title=" ">
<path fill="none" stroke="#63b8ff" d="M467.61,-77.22C492.67,-72 529.02,-64.42 559.35,-58.1"/>
<polygon fill="#63b8ff" stroke="#63b8ff" points="560.3,-61.48 569.38,-56.01 558.88,-54.62 560.3,-61.48"/>
</a>
</g>
</g>
<!-- Node7&#45;&gt;Node3 -->
<g id="edge7_Node000007_Node000003" class="edge">
<title>Node7&#45;&gt;Node3</title>
<g id="a_edge7_Node000007_Node000003"><a xlink:title=" ">
<path fill="none" stroke="#63b8ff" d="M291.38,-74.04C300.18,-76.78 309.53,-79.99 318,-83.5 334.71,-90.42 337.01,-96.27 354,-102.5 365.26,-106.63 377.76,-109.97 389.51,-112.6"/>
<polygon fill="#63b8ff" stroke="#63b8ff" points="389.1,-116.09 399.61,-114.73 390.54,-109.24 389.1,-116.09"/>
</a>
</g>
</g>
<!-- Node7&#45;&gt;Node4 -->
<g id="edge9_Node000007_Node000004" class="edge">
<title>Node7&#45;&gt;Node4</title>
<g id="a_edge9_Node000007_Node000004"><a xlink:title=" ">
<path fill="none" stroke="#63b8ff" d="M310.69,-70.25C337.88,-73.14 370.25,-76.57 395.21,-79.22"/>
<polygon fill="#63b8ff" stroke="#63b8ff" points="395.1,-82.73 405.42,-80.31 395.84,-75.77 395.1,-82.73"/>
</a>
</g>
</g>
<!-- Node8 -->
<g id="Node000008" class="node">
<title>Node8</title>
<g id="a_Node000008"><a xlink:href="../../d5/d60/utils_8h.html#a586071aa49d37b6beb5834b949798af2" target="_top" xlink:title="converts various datatypes to string using ostringstream">
<polygon fill="white" stroke="#666666" points="458.5,-19 414.5,-19 414.5,0 458.5,0 458.5,-19"/>
<text text-anchor="middle" x="436.5" y="-7" font-family="Helvetica,sans-Serif" font-size="10.00">to_str</text>
</a>
</g>
</g>
<!-- Node7&#45;&gt;Node8 -->
<g id="edge8_Node000007_Node000008" class="edge">
<title>Node7&#45;&gt;Node8</title>
<g id="a_edge8_Node000007_Node000008"><a xlink:title=" ">
<path fill="none" stroke="#63b8ff" d="M291,-54.93C299.9,-52.17 309.39,-48.95 318,-45.5 334.6,-38.84 337.14,-33.47 354,-27.5 370.2,-21.76 388.89,-17.47 404.28,-14.53"/>
<polygon fill="#63b8ff" stroke="#63b8ff" points="405.12,-17.93 414.33,-12.7 403.87,-11.04 405.12,-17.93"/>
</a>
</g>
</g>
<!-- Node9 -->
<g id="Node000009" class="node">
<title>Node9</title>
<g id="a_Node000009"><a xlink:href="../../d1/d5c/pdf__utils_8h.html#a89f23d21ae93c3b6bc0de036965dffed" target="_top" xlink:title="write text on to the pdf at a given point when max height is not exceeded">
<polygon fill="white" stroke="#666666" points="519,-56 354,-56 354,-37 519,-37 519,-56"/>
<text text-anchor="middle" x="436.5" y="-44" font-family="Helvetica,sans-Serif" font-size="10.00">writeTextIfNotHeightExceeded</text>
</a>
</g>
</g>
<!-- Node7&#45;&gt;Node9 -->
<g id="edge10_Node000007_Node000009" class="edge">
<title>Node7&#45;&gt;Node9</title>
<g id="a_edge10_Node000007_Node000009"><a xlink:title=" ">
<path fill="none" stroke="#63b8ff" d="M310.69,-59.05C321.09,-58 332.25,-56.88 343.46,-55.76"/>
<polygon fill="#63b8ff" stroke="#63b8ff" points="344.15,-59.2 353.75,-54.72 343.45,-52.24 344.15,-59.2"/>
</a>
</g>
</g>
<!-- Node9&#45;&gt;Node5 -->
<g id="edge11_Node000009_Node000005" class="edge">
<title>Node9&#45;&gt;Node5</title>
<g id="a_edge11_Node000009_Node000005"><a xlink:title=" ">
<path fill="none" stroke="#63b8ff" d="M483.21,-56.03C506.41,-60.86 534.79,-66.78 559.27,-71.88"/>
<polygon fill="#63b8ff" stroke="#63b8ff" points="558.63,-75.33 569.14,-73.94 560.06,-68.47 558.63,-75.33"/>
</a>
</g>
</g>
<!-- Node9&#45;&gt;Node6 -->
<g id="edge12_Node000009_Node000006" class="edge">
<title>Node9&#45;&gt;Node6</title>
<g id="a_edge12_Node000009_Node000006"><a xlink:title=" ">
<path fill="none" stroke="#63b8ff" d="M519.24,-46.5C530.87,-46.5 542.66,-46.5 553.82,-46.5"/>
<polygon fill="#63b8ff" stroke="#63b8ff" points="553.85,-50 563.85,-46.5 553.85,-43 553.85,-50"/>
</a>
</g>
</g>
</g>
</svg>
