<?xml version="1.0" encoding="UTF-8" standalone="no"?>
<!DOCTYPE svg PUBLIC "-//W3C//DTD SVG 1.1//EN"
 "http://www.w3.org/Graphics/SVG/1.1/DTD/svg11.dtd">
<!-- Generated by graphviz version 2.43.0 (0)
 -->
<!-- Title: representativeWidget Pages: 1 -->
<svg width="255pt" height="409pt"
 viewBox="0.00 0.00 255.00 409.00" xmlns="http://www.w3.org/2000/svg" xmlns:xlink="http://www.w3.org/1999/xlink">
<g id="graph0" class="graph" transform="scale(1 1) rotate(0) translate(4 405)">
<title>representativeWidget</title>
<!-- Node1 -->
<g id="Node000001" class="node">
<title>Node1</title>
<g id="a_Node000001"><a xlink:title="the respective widget for entering representative data">
<polygon fill="#999999" stroke="transparent" points="170,-123 0,-123 0,0 170,0 170,-123"/>
<text text-anchor="start" x="32" y="-110.5" font-family="Helvetica,sans-Serif" font-size="10.00">representativeWidget</text>
<text text-anchor="start" x="4" y="-95.5" font-family="Helvetica,sans-Serif" font-size="10.00">+</text>
<text text-anchor="start" x="17" y="-95.5" font-family="Helvetica,sans-Serif" font-size="10.00">QVBoxLayout * representative</text>
<text text-anchor="start" x="17" y="-84.5" font-family="Helvetica,sans-Serif" font-size="10.00">_layout</text>
<text text-anchor="start" x="4" y="-69.5" font-family="Helvetica,sans-Serif" font-size="10.00">+</text>
<text text-anchor="start" x="17" y="-69.5" font-family="Helvetica,sans-Serif" font-size="10.00">QHBoxLayout * street</text>
<text text-anchor="start" x="17" y="-58.5" font-family="Helvetica,sans-Serif" font-size="10.00">_house_horizontal</text>
<text text-anchor="start" x="4" y="-43.5" font-family="Helvetica,sans-Serif" font-size="10.00">+</text>
<text text-anchor="start" x="17" y="-43.5" font-family="Helvetica,sans-Serif" font-size="10.00">QHBoxLayout * zip_city</text>
<text text-anchor="start" x="17" y="-32.5" font-family="Helvetica,sans-Serif" font-size="10.00">_horizontal</text>
<text text-anchor="start" x="4" y="-17.5" font-family="Helvetica,sans-Serif" font-size="10.00">+</text>
<text text-anchor="start" x="17" y="-17.5" font-family="Helvetica,sans-Serif" font-size="10.00">representativeWidget</text>
<text text-anchor="start" x="17" y="-6.5" font-family="Helvetica,sans-Serif" font-size="10.00">(QWidget *parent=nullptr)</text>
<polygon fill="#666666" stroke="#666666" points="0,-105.5 0,-105.5 170,-105.5 170,-105.5 0,-105.5"/>
<polygon fill="#666666" stroke="#666666" points="0,-27.5 0,-27.5 15,-27.5 15,-27.5 0,-27.5"/>
<polygon fill="#666666" stroke="#666666" points="15,-27.5 15,-27.5 170,-27.5 170,-27.5 15,-27.5"/>
<polygon fill="none" stroke="#666666" points="0,0 0,-123 170,-123 170,0 0,0"/>
</a>
</g>
</g>
<!-- Node2 -->
<g id="Node000002" class="node">
<title>Node2</title>
<g id="a_Node000002"><a xlink:title=" ">
<polygon fill="white" stroke="transparent" points="107.5,-401 54.5,-401 54.5,-352 107.5,-352 107.5,-401"/>
<text text-anchor="start" x="60" y="-388.5" font-family="Helvetica,sans-Serif" font-size="10.00">QWidget</text>
<text text-anchor="start" x="79.5" y="-373.5" font-family="Helvetica,sans-Serif" font-size="10.00"> </text>
<text text-anchor="start" x="79.5" y="-358.5" font-family="Helvetica,sans-Serif" font-size="10.00"> </text>
<polygon fill="#666666" stroke="#666666" points="55,-383.5 55,-383.5 108,-383.5 108,-383.5 55,-383.5"/>
<polygon fill="#666666" stroke="#666666" points="55,-368.5 55,-368.5 108,-368.5 108,-368.5 55,-368.5"/>
<polygon fill="none" stroke="#666666" points="54.5,-352 54.5,-401 107.5,-401 107.5,-352 54.5,-352"/>
</a>
</g>
</g>
<!-- Node2&#45;&gt;Node1 -->
<g id="edge1_Node000001_Node000002" class="edge">
<title>Node2&#45;&gt;Node1</title>
<g id="a_edge1_Node000001_Node000002"><a xlink:title=" ">
<path fill="none" stroke="#63b8ff" d="M81.43,-341.91C82.1,-289.71 83.39,-188.34 84.23,-123.11"/>
<polygon fill="none" stroke="#63b8ff" points="77.93,-341.93 81.3,-351.97 84.93,-342.02 77.93,-341.93"/>
</a>
</g>
</g>
<!-- Node3 -->
<g id="Node000003" class="node">
<title>Node3</title>
<g id="a_Node000003"><a xlink:href="../../d2/da6/classtextInputWidget.html" target="_top" xlink:title="a Widget containing a label and a text input below">
<polygon fill="white" stroke="transparent" points="247,-315 97,-315 97,-214 247,-214 247,-315"/>
<text text-anchor="start" x="132.5" y="-302.5" font-family="Helvetica,sans-Serif" font-size="10.00">textInputWidget</text>
<text text-anchor="start" x="101" y="-287.5" font-family="Helvetica,sans-Serif" font-size="10.00">+</text>
<text text-anchor="start" x="114" y="-287.5" font-family="Helvetica,sans-Serif" font-size="10.00">QVBoxLayout * layout</text>
<text text-anchor="start" x="101" y="-272.5" font-family="Helvetica,sans-Serif" font-size="10.00">+</text>
<text text-anchor="start" x="114" y="-272.5" font-family="Helvetica,sans-Serif" font-size="10.00">QLabel * label</text>
<text text-anchor="start" x="101" y="-257.5" font-family="Helvetica,sans-Serif" font-size="10.00">+</text>
<text text-anchor="start" x="114" y="-257.5" font-family="Helvetica,sans-Serif" font-size="10.00">QLineEdit * input</text>
<text text-anchor="start" x="101" y="-242.5" font-family="Helvetica,sans-Serif" font-size="10.00">+</text>
<text text-anchor="start" x="114" y="-242.5" font-family="Helvetica,sans-Serif" font-size="10.00">textInputWidget(const</text>
<text text-anchor="start" x="114" y="-231.5" font-family="Helvetica,sans-Serif" font-size="10.00"> QString &amp;inputLabel,</text>
<text text-anchor="start" x="114" y="-220.5" font-family="Helvetica,sans-Serif" font-size="10.00"> QWidget *parent=nullptr)</text>
<polygon fill="#666666" stroke="#666666" points="97,-297.5 97,-297.5 247,-297.5 247,-297.5 97,-297.5"/>
<polygon fill="#666666" stroke="#666666" points="97,-252.5 97,-252.5 112,-252.5 112,-252.5 97,-252.5"/>
<polygon fill="#666666" stroke="#666666" points="112,-252.5 112,-252.5 247,-252.5 247,-252.5 112,-252.5"/>
<polygon fill="none" stroke="#666666" points="97,-214 97,-315 247,-315 247,-214 97,-214"/>
</a>
</g>
</g>
<!-- Node2&#45;&gt;Node3 -->
<g id="edge3_Node000003_Node000002" class="edge">
<title>Node2&#45;&gt;Node3</title>
<g id="a_edge3_Node000003_Node000002"><a xlink:title=" ">
<path fill="none" stroke="#63b8ff" d="M107.06,-344C114.47,-335.04 122.74,-325.05 130.81,-315.29"/>
<polygon fill="none" stroke="#63b8ff" points="104.2,-341.97 100.52,-351.9 109.59,-346.43 104.2,-341.97"/>
</a>
</g>
</g>
<!-- Node3&#45;&gt;Node1 -->
<g id="edge2_Node000001_Node000003" class="edge">
<title>Node3&#45;&gt;Node1</title>
<g id="a_edge2_Node000001_Node000003"><a xlink:title=" ">
<path fill="none" stroke="#63b8ff" d="M150.49,-213.81C140.1,-189.81 127.44,-160.55 116.03,-134.19"/>
<polygon fill="none" stroke="#63b8ff" points="115.99,-134.1 109.94,-130.18 111.22,-123.09 117.28,-127.01 115.99,-134.1"/>
</a>
</g>
<text text-anchor="middle" x="179" y="-188" font-family="Helvetica,sans-Serif" font-size="10.00" fill="grey"> +city</text>
<text text-anchor="middle" x="179" y="-177" font-family="Helvetica,sans-Serif" font-size="10.00" fill="grey">+housenumber</text>
<text text-anchor="middle" x="179" y="-166" font-family="Helvetica,sans-Serif" font-size="10.00" fill="grey">+name</text>
<text text-anchor="middle" x="179" y="-155" font-family="Helvetica,sans-Serif" font-size="10.00" fill="grey">+street</text>
<text text-anchor="middle" x="179" y="-144" font-family="Helvetica,sans-Serif" font-size="10.00" fill="grey">+zipcode</text>
</g>
</g>
</svg>
