<?xml version="1.0" encoding="UTF-8" standalone="no"?>
<!DOCTYPE svg PUBLIC "-//W3C//DTD SVG 1.1//EN"
 "http://www.w3.org/Graphics/SVG/1.1/DTD/svg11.dtd">
<!-- Generated by graphviz version 2.43.0 (0)
 -->
<!-- Title: MainWindow::MainWindow Pages: 1 -->
<svg width="970pt" height="162pt"
 viewBox="0.00 0.00 970.00 161.50" xmlns="http://www.w3.org/2000/svg" xmlns:xlink="http://www.w3.org/1999/xlink">
<g id="graph0" class="graph" transform="scale(1 1) rotate(0) translate(4 157.5)">
<title>MainWindow::MainWindow</title>
<!-- Node1 -->
<g id="Node000001" class="node">
<title>Node1</title>
<g id="a_Node000001"><a xlink:title=" ">
<polygon fill="#999999" stroke="#666666" points="148,-83 0,-83 0,-64 148,-64 148,-83"/>
<text text-anchor="middle" x="74" y="-71" font-family="Helvetica,sans-Serif" font-size="10.00">MainWindow::MainWindow</text>
</a>
</g>
</g>
<!-- Node2 -->
<g id="Node000002" class="node">
<title>Node2</title>
<g id="a_Node000002"><a xlink:href="../../d6/d1a/classMainWindow.html#a99a0369f7d7ac8af7bb45d9a89da781d" target="_top" xlink:title="helper function to add a product widget to the productList widget">
<polygon fill="white" stroke="#666666" points="358,-105 184,-105 184,-86 358,-86 358,-105"/>
<text text-anchor="middle" x="271" y="-93" font-family="Helvetica,sans-Serif" font-size="10.00">MainWindow::addProductWidget</text>
</a>
</g>
</g>
<!-- Node1&#45;&gt;Node2 -->
<g id="edge1_Node000001_Node000002" class="edge">
<title>Node1&#45;&gt;Node2</title>
<g id="a_edge1_Node000001_Node000002"><a xlink:title=" ">
<path fill="none" stroke="#63b8ff" d="M148.17,-81.75C157.13,-82.77 166.4,-83.81 175.62,-84.85"/>
<polygon fill="#63b8ff" stroke="#63b8ff" points="175.27,-88.33 185.6,-85.98 176.05,-81.38 175.27,-88.33"/>
</a>
</g>
</g>
<!-- Node7 -->
<g id="Node000007" class="node">
<title>Node7</title>
<g id="a_Node000007"><a xlink:href="../../d6/d1a/classMainWindow.html#af2e904de7dc4cc73780511ceb9acaf5e" target="_top" xlink:title="helper function to generate the PDF invoice">
<polygon fill="white" stroke="#666666" points="353,-62 189,-62 189,-43 353,-43 353,-62"/>
<text text-anchor="middle" x="271" y="-50" font-family="Helvetica,sans-Serif" font-size="10.00">MainWindow::generateInvoice</text>
</a>
</g>
</g>
<!-- Node1&#45;&gt;Node7 -->
<g id="edge7_Node000001_Node000007" class="edge">
<title>Node1&#45;&gt;Node7</title>
<g id="a_edge7_Node000001_Node000007"><a xlink:title=" ">
<path fill="none" stroke="#63b8ff" d="M148.17,-65.62C158.14,-64.55 168.47,-63.43 178.71,-62.33"/>
<polygon fill="#63b8ff" stroke="#63b8ff" points="179.33,-65.78 188.9,-61.23 178.58,-58.82 179.33,-65.78"/>
</a>
</g>
</g>
<!-- Node3 -->
<g id="Node000003" class="node">
<title>Node3</title>
<g id="a_Node000003"><a xlink:href="../../d6/d1a/classMainWindow.html#a15e61a8508e878fb41f15e0a52bdd9f5" target="_top" xlink:title="helper function to remove a product widget from the productList widget">
<polygon fill="white" stroke="#666666" points="559.5,-153.5 400.5,-153.5 400.5,-123.5 559.5,-123.5 559.5,-153.5"/>
<text text-anchor="start" x="408.5" y="-141.5" font-family="Helvetica,sans-Serif" font-size="10.00">MainWindow::removeProduct</text>
<text text-anchor="middle" x="480" y="-130.5" font-family="Helvetica,sans-Serif" font-size="10.00">Widget</text>
</a>
</g>
</g>
<!-- Node2&#45;&gt;Node3 -->
<g id="edge2_Node000002_Node000003" class="edge">
<title>Node2&#45;&gt;Node3</title>
<g id="a_edge2_Node000002_Node000003"><a xlink:title=" ">
<path fill="none" stroke="#63b8ff" d="M317.94,-105.04C341.17,-109.87 370.08,-115.87 396.96,-121.46"/>
<polygon fill="#63b8ff" stroke="#63b8ff" points="396.26,-124.89 406.76,-123.49 397.68,-118.03 396.26,-124.89"/>
</a>
</g>
</g>
<!-- Node4 -->
<g id="Node000004" class="node">
<title>Node4</title>
<g id="a_Node000004"><a xlink:href="../../d5/ddc/classproductWidget.html#a63260ea7f3df590fe9c36c9e6ac5fd1e" target="_top" xlink:title=" ">
<polygon fill="white" stroke="#666666" points="566,-105 394,-105 394,-86 566,-86 566,-105"/>
<text text-anchor="middle" x="480" y="-93" font-family="Helvetica,sans-Serif" font-size="10.00">productWidget::requestDeletion</text>
</a>
</g>
</g>
<!-- Node2&#45;&gt;Node4 -->
<g id="edge3_Node000002_Node000004" class="edge">
<title>Node2&#45;&gt;Node4</title>
<g id="a_edge3_Node000002_Node000004"><a xlink:title=" ">
<path fill="none" stroke="#63b8ff" d="M358.29,-95.5C366.65,-95.5 375.16,-95.5 383.6,-95.5"/>
<polygon fill="#63b8ff" stroke="#63b8ff" points="383.85,-99 393.85,-95.5 383.85,-92 383.85,-99"/>
</a>
</g>
</g>
<!-- Node5 -->
<g id="Node000005" class="node">
<title>Node5</title>
<g id="a_Node000005"><a xlink:href="../../d5/ddc/classproductWidget.html#a09a25507340e6cef7121dc4796df83e2" target="_top" xlink:title=" ">
<polygon fill="white" stroke="#666666" points="767,-124 602,-124 602,-105 767,-105 767,-124"/>
<text text-anchor="middle" x="684.5" y="-112" font-family="Helvetica,sans-Serif" font-size="10.00">productWidget::productWidget</text>
</a>
</g>
</g>
<!-- Node4&#45;&gt;Node5 -->
<g id="edge4_Node000004_Node000005" class="edge">
<title>Node4&#45;&gt;Node5</title>
<g id="a_edge4_Node000004_Node000005"><a xlink:title=" ">
<path fill="none" stroke="#63b8ff" d="M566.29,-103.5C574.67,-104.29 583.19,-105.09 591.63,-105.88"/>
<polygon fill="#63b8ff" stroke="#63b8ff" points="591.58,-109.39 601.86,-106.84 592.23,-102.42 591.58,-109.39"/>
</a>
</g>
</g>
<!-- Node6 -->
<g id="Node000006" class="node">
<title>Node6</title>
<g id="a_Node000006"><a xlink:href="../../d5/ddc/classproductWidget.html#ada0eb5a2b09521fa42d4ef72daaabe18" target="_top" xlink:title=" ">
<polygon fill="white" stroke="#666666" points="962,-105 803,-105 803,-86 962,-86 962,-105"/>
<text text-anchor="middle" x="882.5" y="-93" font-family="Helvetica,sans-Serif" font-size="10.00">productWidget::handleDelete</text>
</a>
</g>
</g>
<!-- Node5&#45;&gt;Node6 -->
<g id="edge5_Node000005_Node000006" class="edge">
<title>Node5&#45;&gt;Node6</title>
<g id="a_edge5_Node000005_Node000006"><a xlink:title=" ">
<path fill="none" stroke="#63b8ff" d="M767.2,-106.58C775.57,-105.77 784.09,-104.94 792.53,-104.12"/>
<polygon fill="#63b8ff" stroke="#63b8ff" points="793.14,-107.58 802.76,-103.13 792.47,-100.61 793.14,-107.58"/>
</a>
</g>
</g>
<!-- Node6&#45;&gt;Node4 -->
<g id="edge6_Node000006_Node000004" class="edge">
<title>Node6&#45;&gt;Node4</title>
<g id="a_edge6_Node000006_Node000004"><a xlink:title=" ">
<path fill="none" stroke="#63b8ff" d="M802.66,-95.5C737.76,-95.5 645.52,-95.5 576.44,-95.5"/>
<polygon fill="#63b8ff" stroke="#63b8ff" points="576.43,-92 566.43,-95.5 576.43,-99 576.43,-92"/>
</a>
</g>
</g>
<!-- Node8 -->
<g id="Node000008" class="node">
<title>Node8</title>
<g id="a_Node000008"><a xlink:href="../../d6/d1a/classMainWindow.html#a9a81a0104f71d755ece9d9e0faaad07b" target="_top" xlink:title="function checking for missing required fields">
<polygon fill="white" stroke="#666666" points="563,-67.5 397,-67.5 397,-37.5 563,-37.5 563,-67.5"/>
<text text-anchor="start" x="405" y="-55.5" font-family="Helvetica,sans-Serif" font-size="10.00">MainWindow::checkForMissing</text>
<text text-anchor="middle" x="480" y="-44.5" font-family="Helvetica,sans-Serif" font-size="10.00">Fields</text>
</a>
</g>
</g>
<!-- Node7&#45;&gt;Node8 -->
<g id="edge8_Node000007_Node000008" class="edge">
<title>Node7&#45;&gt;Node8</title>
<g id="a_edge8_Node000007_Node000008"><a xlink:title=" ">
<path fill="none" stroke="#63b8ff" d="M353.22,-52.5C364.23,-52.5 375.6,-52.5 386.79,-52.5"/>
<polygon fill="#63b8ff" stroke="#63b8ff" points="387,-56 397,-52.5 387,-49 387,-56"/>
</a>
</g>
</g>
<!-- Node9 -->
<g id="Node000009" class="node">
<title>Node9</title>
<g id="a_Node000009"><a xlink:href="../../da/df1/classPDFException.html#a553ad842633a66e9568eb98642b1c0ef" target="_top" xlink:title=" ">
<polygon fill="white" stroke="#666666" points="547,-19 413,-19 413,0 547,0 547,-19"/>
<text text-anchor="middle" x="480" y="-7" font-family="Helvetica,sans-Serif" font-size="10.00">PDFException::message</text>
</a>
</g>
</g>
<!-- Node7&#45;&gt;Node9 -->
<g id="edge9_Node000007_Node000009" class="edge">
<title>Node7&#45;&gt;Node9</title>
<g id="a_edge9_Node000007_Node000009"><a xlink:title=" ">
<path fill="none" stroke="#63b8ff" d="M317.94,-42.96C349.03,-36.5 390.27,-27.93 423.24,-21.08"/>
<polygon fill="#63b8ff" stroke="#63b8ff" points="424.11,-24.48 433.19,-19.02 422.69,-17.62 424.11,-24.48"/>
</a>
</g>
</g>
</g>
</svg>
