<?xml version="1.0" encoding="UTF-8" standalone="no"?>
<!DOCTYPE svg PUBLIC "-//W3C//DTD SVG 1.1//EN"
 "http://www.w3.org/Graphics/SVG/1.1/DTD/svg11.dtd">
<!-- Generated by graphviz version 2.43.0 (0)
 -->
<!-- Title: MainWindow::removeProductWidget Pages: 1 -->
<svg width="561pt" height="38pt"
 viewBox="0.00 0.00 561.00 38.00" xmlns="http://www.w3.org/2000/svg" xmlns:xlink="http://www.w3.org/1999/xlink">
<g id="graph0" class="graph" transform="scale(1 1) rotate(0) translate(4 34)">
<title>MainWindow::removeProductWidget</title>
<!-- Node1 -->
<g id="Node000001" class="node">
<title>Node1</title>
<g id="a_Node000001"><a xlink:title="helper function to remove a product widget from the productList widget">
<polygon fill="#999999" stroke="#666666" points="553,-30 394,-30 394,0 553,0 553,-30"/>
<text text-anchor="start" x="402" y="-18" font-family="Helvetica,sans-Serif" font-size="10.00">MainWindow::removeProduct</text>
<text text-anchor="middle" x="473.5" y="-7" font-family="Helvetica,sans-Serif" font-size="10.00">Widget</text>
</a>
</g>
</g>
<!-- Node2 -->
<g id="Node000002" class="node">
<title>Node2</title>
<g id="a_Node000002"><a xlink:href="../../d6/d1a/classMainWindow.html#a99a0369f7d7ac8af7bb45d9a89da781d" target="_top" xlink:title="helper function to add a product widget to the productList widget">
<polygon fill="white" stroke="#666666" points="358,-24.5 184,-24.5 184,-5.5 358,-5.5 358,-24.5"/>
<text text-anchor="middle" x="271" y="-12.5" font-family="Helvetica,sans-Serif" font-size="10.00">MainWindow::addProductWidget</text>
</a>
</g>
</g>
<!-- Node1&#45;&gt;Node2 -->
<g id="edge1_Node000001_Node000002" class="edge">
<title>Node1&#45;&gt;Node2</title>
<g id="a_edge1_Node000001_Node000002"><a xlink:title=" ">
<path fill="none" stroke="#63b8ff" d="M383.57,-15C375.09,-15 366.51,-15 358.06,-15"/>
<polygon fill="#63b8ff" stroke="#63b8ff" points="383.83,-18.5 393.83,-15 383.83,-11.5 383.83,-18.5"/>
</a>
</g>
</g>
<!-- Node3 -->
<g id="Node000003" class="node">
<title>Node3</title>
<g id="a_Node000003"><a xlink:href="../../d6/d1a/classMainWindow.html#a996c5a2b6f77944776856f08ec30858d" target="_top" xlink:title=" ">
<polygon fill="white" stroke="#666666" points="148,-24.5 0,-24.5 0,-5.5 148,-5.5 148,-24.5"/>
<text text-anchor="middle" x="74" y="-12.5" font-family="Helvetica,sans-Serif" font-size="10.00">MainWindow::MainWindow</text>
</a>
</g>
</g>
<!-- Node2&#45;&gt;Node3 -->
<g id="edge2_Node000002_Node000003" class="edge">
<title>Node2&#45;&gt;Node3</title>
<g id="a_edge2_Node000002_Node000003"><a xlink:title=" ">
<path fill="none" stroke="#63b8ff" d="M173.79,-15C165.16,-15 156.51,-15 148.13,-15"/>
<polygon fill="#63b8ff" stroke="#63b8ff" points="173.9,-18.5 183.9,-15 173.9,-11.5 173.9,-18.5"/>
</a>
</g>
</g>
</g>
</svg>
