<?xml version="1.0" encoding="UTF-8" standalone="no"?>
<!DOCTYPE svg PUBLIC "-//W3C//DTD SVG 1.1//EN"
 "http://www.w3.org/Graphics/SVG/1.1/DTD/svg11.dtd">
<!-- Generated by graphviz version 2.43.0 (0)
 -->
<!-- Title: MainWindow::generateInvoice Pages: 1 -->
<svg width="374pt" height="76pt"
 viewBox="0.00 0.00 374.00 75.50" xmlns="http://www.w3.org/2000/svg" xmlns:xlink="http://www.w3.org/1999/xlink">
<g id="graph0" class="graph" transform="scale(1 1) rotate(0) translate(4 71.5)">
<title>MainWindow::generateInvoice</title>
<!-- Node1 -->
<g id="Node000001" class="node">
<title>Node1</title>
<g id="a_Node000001"><a xlink:title="helper function to generate the PDF invoice">
<polygon fill="#999999" stroke="#666666" points="164,-40 0,-40 0,-21 164,-21 164,-40"/>
<text text-anchor="middle" x="82" y="-28" font-family="Helvetica,sans-Serif" font-size="10.00">MainWindow::generateInvoice</text>
</a>
</g>
</g>
<!-- Node2 -->
<g id="Node000002" class="node">
<title>Node2</title>
<g id="a_Node000002"><a xlink:href="../../d6/d1a/classMainWindow.html#a9a81a0104f71d755ece9d9e0faaad07b" target="_top" xlink:title="function checking for missing required fields">
<polygon fill="white" stroke="#666666" points="366,-67.5 200,-67.5 200,-37.5 366,-37.5 366,-67.5"/>
<text text-anchor="start" x="208" y="-55.5" font-family="Helvetica,sans-Serif" font-size="10.00">MainWindow::checkForMissing</text>
<text text-anchor="middle" x="283" y="-44.5" font-family="Helvetica,sans-Serif" font-size="10.00">Fields</text>
</a>
</g>
</g>
<!-- Node1&#45;&gt;Node2 -->
<g id="edge1_Node000001_Node000002" class="edge">
<title>Node1&#45;&gt;Node2</title>
<g id="a_edge1_Node000001_Node000002"><a xlink:title=" ">
<path fill="none" stroke="#63b8ff" d="M164.23,-39.48C172.65,-40.41 181.25,-41.36 189.78,-42.3"/>
<polygon fill="#63b8ff" stroke="#63b8ff" points="189.42,-45.79 199.74,-43.41 190.19,-38.83 189.42,-45.79"/>
</a>
</g>
</g>
<!-- Node3 -->
<g id="Node000003" class="node">
<title>Node3</title>
<g id="a_Node000003"><a xlink:href="../../da/df1/classPDFException.html#a553ad842633a66e9568eb98642b1c0ef" target="_top" xlink:title=" ">
<polygon fill="white" stroke="#666666" points="350,-19 216,-19 216,0 350,0 350,-19"/>
<text text-anchor="middle" x="283" y="-7" font-family="Helvetica,sans-Serif" font-size="10.00">PDFException::message</text>
</a>
</g>
</g>
<!-- Node1&#45;&gt;Node3 -->
<g id="edge2_Node000001_Node000003" class="edge">
<title>Node1&#45;&gt;Node3</title>
<g id="a_edge2_Node000001_Node000003"><a xlink:title=" ">
<path fill="none" stroke="#63b8ff" d="M164.23,-21.93C177.93,-20.48 192.11,-18.99 205.68,-17.55"/>
<polygon fill="#63b8ff" stroke="#63b8ff" points="206.35,-21 215.93,-16.47 205.61,-14.04 206.35,-21"/>
</a>
</g>
</g>
</g>
</svg>
