<?xml version="1.0" encoding="UTF-8" standalone="no"?>
<!DOCTYPE svg PUBLIC "-//W3C//DTD SVG 1.1//EN"
 "http://www.w3.org/Graphics/SVG/1.1/DTD/svg11.dtd">
<!-- Generated by graphviz version 2.43.0 (0)
 -->
<!-- Title: MainWindow::addProductWidget Pages: 1 -->
<svg width="786pt" height="76pt"
 viewBox="0.00 0.00 786.00 75.50" xmlns="http://www.w3.org/2000/svg" xmlns:xlink="http://www.w3.org/1999/xlink">
<g id="graph0" class="graph" transform="scale(1 1) rotate(0) translate(4 71.5)">
<title>MainWindow::addProductWidget</title>
<!-- Node1 -->
<g id="Node000001" class="node">
<title>Node1</title>
<g id="a_Node000001"><a xlink:title="helper function to add a product widget to the productList widget">
<polygon fill="#999999" stroke="#666666" points="174,-40 0,-40 0,-21 174,-21 174,-40"/>
<text text-anchor="middle" x="87" y="-28" font-family="Helvetica,sans-Serif" font-size="10.00">MainWindow::addProductWidget</text>
</a>
</g>
</g>
<!-- Node2 -->
<g id="Node000002" class="node">
<title>Node2</title>
<g id="a_Node000002"><a xlink:href="../../d6/d1a/classMainWindow.html#a15e61a8508e878fb41f15e0a52bdd9f5" target="_top" xlink:title="helper function to remove a product widget from the productList widget">
<polygon fill="white" stroke="#666666" points="375.5,-67.5 216.5,-67.5 216.5,-37.5 375.5,-37.5 375.5,-67.5"/>
<text text-anchor="start" x="224.5" y="-55.5" font-family="Helvetica,sans-Serif" font-size="10.00">MainWindow::removeProduct</text>
<text text-anchor="middle" x="296" y="-44.5" font-family="Helvetica,sans-Serif" font-size="10.00">Widget</text>
</a>
</g>
</g>
<!-- Node1&#45;&gt;Node2 -->
<g id="edge1_Node000001_Node000002" class="edge">
<title>Node1&#45;&gt;Node2</title>
<g id="a_edge1_Node000001_Node000002"><a xlink:title=" ">
<path fill="none" stroke="#63b8ff" d="M174.29,-39.67C184.88,-40.8 195.72,-41.95 206.35,-43.08"/>
<polygon fill="#63b8ff" stroke="#63b8ff" points="206.14,-46.58 216.46,-44.15 206.88,-39.61 206.14,-46.58"/>
</a>
</g>
</g>
<!-- Node3 -->
<g id="Node000003" class="node">
<title>Node3</title>
<g id="a_Node000003"><a xlink:href="../../d5/ddc/classproductWidget.html#a63260ea7f3df590fe9c36c9e6ac5fd1e" target="_top" xlink:title=" ">
<polygon fill="white" stroke="#666666" points="382,-19 210,-19 210,0 382,0 382,-19"/>
<text text-anchor="middle" x="296" y="-7" font-family="Helvetica,sans-Serif" font-size="10.00">productWidget::requestDeletion</text>
</a>
</g>
</g>
<!-- Node1&#45;&gt;Node3 -->
<g id="edge2_Node000001_Node000003" class="edge">
<title>Node1&#45;&gt;Node3</title>
<g id="a_edge2_Node000001_Node000003"><a xlink:title=" ">
<path fill="none" stroke="#63b8ff" d="M174.29,-21.75C182.74,-20.89 191.35,-20.02 199.88,-19.15"/>
<polygon fill="#63b8ff" stroke="#63b8ff" points="200.25,-22.63 209.85,-18.14 199.55,-15.67 200.25,-22.63"/>
</a>
</g>
</g>
<!-- Node4 -->
<g id="Node000004" class="node">
<title>Node4</title>
<g id="a_Node000004"><a xlink:href="../../d5/ddc/classproductWidget.html#a09a25507340e6cef7121dc4796df83e2" target="_top" xlink:title=" ">
<polygon fill="white" stroke="#666666" points="583,-38 418,-38 418,-19 583,-19 583,-38"/>
<text text-anchor="middle" x="500.5" y="-26" font-family="Helvetica,sans-Serif" font-size="10.00">productWidget::productWidget</text>
</a>
</g>
</g>
<!-- Node3&#45;&gt;Node4 -->
<g id="edge3_Node000003_Node000004" class="edge">
<title>Node3&#45;&gt;Node4</title>
<g id="a_edge3_Node000003_Node000004"><a xlink:title=" ">
<path fill="none" stroke="#63b8ff" d="M382.29,-17.5C390.67,-18.29 399.19,-19.09 407.63,-19.88"/>
<polygon fill="#63b8ff" stroke="#63b8ff" points="407.58,-23.39 417.86,-20.84 408.23,-16.42 407.58,-23.39"/>
</a>
</g>
</g>
<!-- Node5 -->
<g id="Node000005" class="node">
<title>Node5</title>
<g id="a_Node000005"><a xlink:href="../../d5/ddc/classproductWidget.html#ada0eb5a2b09521fa42d4ef72daaabe18" target="_top" xlink:title=" ">
<polygon fill="white" stroke="#666666" points="778,-19 619,-19 619,0 778,0 778,-19"/>
<text text-anchor="middle" x="698.5" y="-7" font-family="Helvetica,sans-Serif" font-size="10.00">productWidget::handleDelete</text>
</a>
</g>
</g>
<!-- Node4&#45;&gt;Node5 -->
<g id="edge4_Node000004_Node000005" class="edge">
<title>Node4&#45;&gt;Node5</title>
<g id="a_edge4_Node000004_Node000005"><a xlink:title=" ">
<path fill="none" stroke="#63b8ff" d="M583.2,-20.58C591.57,-19.77 600.09,-18.94 608.53,-18.12"/>
<polygon fill="#63b8ff" stroke="#63b8ff" points="609.14,-21.58 618.76,-17.13 608.47,-14.61 609.14,-21.58"/>
</a>
</g>
</g>
<!-- Node5&#45;&gt;Node3 -->
<g id="edge5_Node000005_Node000003" class="edge">
<title>Node5&#45;&gt;Node3</title>
<g id="a_edge5_Node000005_Node000003"><a xlink:title=" ">
<path fill="none" stroke="#63b8ff" d="M618.66,-9.5C553.76,-9.5 461.52,-9.5 392.44,-9.5"/>
<polygon fill="#63b8ff" stroke="#63b8ff" points="392.43,-6 382.43,-9.5 392.43,-13 392.43,-6"/>
</a>
</g>
</g>
</g>
</svg>
