<?xml version="1.0" encoding="UTF-8" standalone="no"?>
<!DOCTYPE svg PUBLIC "-//W3C//DTD SVG 1.1//EN"
 "http://www.w3.org/Graphics/SVG/1.1/DTD/svg11.dtd">
<!-- Generated by graphviz version 2.43.0 (0)
 -->
<!-- Title: ui/customWidgets/productWidget/productWidget.h Pages: 1 -->
<svg width="329pt" height="159pt"
 viewBox="0.00 0.00 329.00 159.00" xmlns="http://www.w3.org/2000/svg" xmlns:xlink="http://www.w3.org/1999/xlink">
<g id="graph0" class="graph" transform="scale(1 1) rotate(0) translate(4 155)">
<title>ui/customWidgets/productWidget/productWidget.h</title>
<!-- Node1 -->
<g id="Node000001" class="node">
<title>Node1</title>
<g id="a_Node000001"><a xlink:title=" ">
<polygon fill="#999999" stroke="#666666" points="215,-151 71,-151 71,-121 215,-121 215,-151"/>
<text text-anchor="start" x="79" y="-139" font-family="Helvetica,sans-Serif" font-size="10.00">ui/customWidgets/product</text>
<text text-anchor="middle" x="143" y="-128" font-family="Helvetica,sans-Serif" font-size="10.00">Widget/productWidget.h</text>
</a>
</g>
</g>
<!-- Node2 -->
<g id="Node000002" class="node">
<title>Node2</title>
<g id="a_Node000002"><a xlink:href="../../df/d5d/productWidget_8cpp.html" target="_top" xlink:title=" ">
<polygon fill="white" stroke="#666666" points="146,-85 0,-85 0,-55 146,-55 146,-85"/>
<text text-anchor="start" x="8" y="-73" font-family="Helvetica,sans-Serif" font-size="10.00">ui/customWidgets/product</text>
<text text-anchor="middle" x="73" y="-62" font-family="Helvetica,sans-Serif" font-size="10.00">Widget/productWidget.cpp</text>
</a>
</g>
</g>
<!-- Node1&#45;&gt;Node2 -->
<g id="edge1_Node000001_Node000002" class="edge">
<title>Node1&#45;&gt;Node2</title>
<g id="a_edge1_Node000001_Node000002"><a xlink:title=" ">
<path fill="none" stroke="#63b8ff" d="M119.95,-113.92C109.63,-104.49 97.73,-93.61 88.49,-85.16"/>
<polygon fill="#63b8ff" stroke="#63b8ff" points="117.72,-116.63 127.46,-120.8 122.45,-111.47 117.72,-116.63"/>
</a>
</g>
</g>
<!-- Node3 -->
<g id="Node000003" class="node">
<title>Node3</title>
<g id="a_Node000003"><a xlink:href="../../d9/d53/mainwindow_8h.html" target="_top" xlink:title=" ">
<polygon fill="white" stroke="#666666" points="263.5,-79.5 164.5,-79.5 164.5,-60.5 263.5,-60.5 263.5,-79.5"/>
<text text-anchor="middle" x="214" y="-67.5" font-family="Helvetica,sans-Serif" font-size="10.00">ui/mainwindow.h</text>
</a>
</g>
</g>
<!-- Node1&#45;&gt;Node3 -->
<g id="edge2_Node000001_Node000003" class="edge">
<title>Node1&#45;&gt;Node3</title>
<g id="a_edge2_Node000001_Node000003"><a xlink:title=" ">
<path fill="none" stroke="#63b8ff" d="M166.37,-113.93C179.22,-102.35 194.47,-88.61 204.19,-79.84"/>
<polygon fill="#63b8ff" stroke="#63b8ff" points="163.84,-111.5 158.76,-120.8 168.53,-116.7 163.84,-111.5"/>
</a>
</g>
</g>
<!-- Node4 -->
<g id="Node000004" class="node">
<title>Node4</title>
<g id="a_Node000004"><a xlink:href="../../df/d0a/main_8cpp.html" target="_top" xlink:title=" ">
<polygon fill="white" stroke="#666666" points="193,-19 131,-19 131,0 193,0 193,-19"/>
<text text-anchor="middle" x="162" y="-7" font-family="Helvetica,sans-Serif" font-size="10.00">main.cpp</text>
</a>
</g>
</g>
<!-- Node3&#45;&gt;Node4 -->
<g id="edge3_Node000003_Node000004" class="edge">
<title>Node3&#45;&gt;Node4</title>
<g id="a_edge3_Node000003_Node000004"><a xlink:title=" ">
<path fill="none" stroke="#63b8ff" d="M199.57,-52.77C189.9,-41.89 177.55,-27.99 169.7,-19.17"/>
<polygon fill="#63b8ff" stroke="#63b8ff" points="197.07,-55.22 206.33,-60.37 202.3,-50.57 197.07,-55.22"/>
</a>
</g>
</g>
<!-- Node5 -->
<g id="Node000005" class="node">
<title>Node5</title>
<g id="a_Node000005"><a xlink:href="../../d8/dd9/mainwindow_8cpp.html" target="_top" xlink:title=" ">
<polygon fill="white" stroke="#666666" points="321,-19 211,-19 211,0 321,0 321,-19"/>
<text text-anchor="middle" x="266" y="-7" font-family="Helvetica,sans-Serif" font-size="10.00">ui/mainwindow.cpp</text>
</a>
</g>
</g>
<!-- Node3&#45;&gt;Node5 -->
<g id="edge4_Node000003_Node000005" class="edge">
<title>Node3&#45;&gt;Node5</title>
<g id="a_edge4_Node000003_Node000005"><a xlink:title=" ">
<path fill="none" stroke="#63b8ff" d="M228.43,-52.77C238.1,-41.89 250.45,-27.99 258.3,-19.17"/>
<polygon fill="#63b8ff" stroke="#63b8ff" points="225.7,-50.57 221.67,-60.37 230.93,-55.22 225.7,-50.57"/>
</a>
</g>
</g>
</g>
</svg>
