<?xml version="1.0" encoding="UTF-8" standalone="no"?>
<!DOCTYPE svg PUBLIC "-//W3C//DTD SVG 1.1//EN"
 "http://www.w3.org/Graphics/SVG/1.1/DTD/svg11.dtd">
<!-- Generated by graphviz version 2.43.0 (0)
 -->
<!-- Title: representativeWidget Pages: 1 -->
<svg width="186pt" height="291pt"
 viewBox="0.00 0.00 186.00 291.00" xmlns="http://www.w3.org/2000/svg" xmlns:xlink="http://www.w3.org/1999/xlink">
<g id="graph0" class="graph" transform="scale(1 1) rotate(0) translate(4 287)">
<title>representativeWidget</title>
<!-- Node1 -->
<g id="Node000001" class="node">
<title>Node1</title>
<g id="a_Node000001"><a xlink:title="the respective widget for entering representative data">
<polygon fill="#999999" stroke="transparent" points="178,-198 0,-198 0,0 178,0 178,-198"/>
<text text-anchor="start" x="36" y="-186" font-family="Helvetica,sans-Serif" font-size="10.00">representativeWidget</text>
<text text-anchor="start" x="4" y="-171" font-family="Helvetica,sans-Serif" font-size="10.00">+</text>
<text text-anchor="start" x="17" y="-171" font-family="Helvetica,sans-Serif" font-size="10.00">QVBoxLayout * representative</text>
<text text-anchor="start" x="17" y="-160" font-family="Helvetica,sans-Serif" font-size="10.00">_layout</text>
<text text-anchor="start" x="4" y="-145" font-family="Helvetica,sans-Serif" font-size="10.00">+</text>
<text text-anchor="start" x="17" y="-145" font-family="Helvetica,sans-Serif" font-size="10.00">textInputWidget * name</text>
<text text-anchor="start" x="4" y="-130" font-family="Helvetica,sans-Serif" font-size="10.00">+</text>
<text text-anchor="start" x="17" y="-130" font-family="Helvetica,sans-Serif" font-size="10.00">QHBoxLayout * street</text>
<text text-anchor="start" x="17" y="-119" font-family="Helvetica,sans-Serif" font-size="10.00">_house_horizontal</text>
<text text-anchor="start" x="4" y="-104" font-family="Helvetica,sans-Serif" font-size="10.00">+</text>
<text text-anchor="start" x="17" y="-104" font-family="Helvetica,sans-Serif" font-size="10.00">textInputWidget * street</text>
<text text-anchor="start" x="4" y="-89" font-family="Helvetica,sans-Serif" font-size="10.00">+</text>
<text text-anchor="start" x="17" y="-89" font-family="Helvetica,sans-Serif" font-size="10.00">textInputWidget * housenumber</text>
<text text-anchor="start" x="4" y="-74" font-family="Helvetica,sans-Serif" font-size="10.00">+</text>
<text text-anchor="start" x="17" y="-74" font-family="Helvetica,sans-Serif" font-size="10.00">QHBoxLayout * zip_city</text>
<text text-anchor="start" x="17" y="-63" font-family="Helvetica,sans-Serif" font-size="10.00">_horizontal</text>
<text text-anchor="start" x="4" y="-48" font-family="Helvetica,sans-Serif" font-size="10.00">+</text>
<text text-anchor="start" x="17" y="-48" font-family="Helvetica,sans-Serif" font-size="10.00">textInputWidget * zipcode</text>
<text text-anchor="start" x="4" y="-33" font-family="Helvetica,sans-Serif" font-size="10.00">+</text>
<text text-anchor="start" x="17" y="-33" font-family="Helvetica,sans-Serif" font-size="10.00">textInputWidget * city</text>
<text text-anchor="start" x="4" y="-18" font-family="Helvetica,sans-Serif" font-size="10.00">+</text>
<text text-anchor="start" x="17" y="-18" font-family="Helvetica,sans-Serif" font-size="10.00">representativeWidget</text>
<text text-anchor="start" x="17" y="-7" font-family="Helvetica,sans-Serif" font-size="10.00">(QWidget *parent=nullptr)</text>
<polygon fill="#666666" stroke="#666666" points="0,-181 0,-181 178,-181 178,-181 0,-181"/>
<polygon fill="#666666" stroke="#666666" points="0,-28 0,-28 15,-28 15,-28 0,-28"/>
<polygon fill="#666666" stroke="#666666" points="15,-28 15,-28 178,-28 178,-28 15,-28"/>
<polygon fill="none" stroke="#666666" points="0,0 0,-198 178,-198 178,0 0,0"/>
</a>
</g>
</g>
<!-- Node2 -->
<g id="Node000002" class="node">
<title>Node2</title>
<g id="a_Node000002"><a xlink:title=" ">
<polygon fill="white" stroke="transparent" points="115.5,-283 62.5,-283 62.5,-234 115.5,-234 115.5,-283"/>
<text text-anchor="start" x="68" y="-270.5" font-family="Helvetica,sans-Serif" font-size="10.00">QWidget</text>
<text text-anchor="start" x="87.5" y="-255.5" font-family="Helvetica,sans-Serif" font-size="10.00"> </text>
<text text-anchor="start" x="87.5" y="-240.5" font-family="Helvetica,sans-Serif" font-size="10.00"> </text>
<polygon fill="#666666" stroke="#666666" points="63,-265.5 63,-265.5 116,-265.5 116,-265.5 63,-265.5"/>
<polygon fill="#666666" stroke="#666666" points="63,-250.5 63,-250.5 116,-250.5 116,-250.5 63,-250.5"/>
<polygon fill="none" stroke="#666666" points="62.5,-234 62.5,-283 115.5,-283 115.5,-234 62.5,-234"/>
</a>
</g>
</g>
<!-- Node2&#45;&gt;Node1 -->
<g id="edge1_Node000001_Node000002" class="edge">
<title>Node2&#45;&gt;Node1</title>
<g id="a_edge1_Node000001_Node000002"><a xlink:title=" ">
<path fill="none" stroke="#63b8ff" d="M89,-223.85C89,-216.03 89,-207.3 89,-198.21"/>
<polygon fill="none" stroke="#63b8ff" points="85.5,-223.92 89,-233.92 92.5,-223.92 85.5,-223.92"/>
</a>
</g>
</g>
</g>
</svg>
