<?xml version="1.0" encoding="UTF-8" standalone="no"?>
<!DOCTYPE svg PUBLIC "-//W3C//DTD SVG 1.1//EN"
 "http://www.w3.org/Graphics/SVG/1.1/DTD/svg11.dtd">
<!-- Generated by graphviz version 2.43.0 (0)
 -->
<!-- Title: ui/customWidgets/productWidget/productWidget.h Pages: 1 -->
<svg width="499pt" height="159pt"
 viewBox="0.00 0.00 499.00 159.00" xmlns="http://www.w3.org/2000/svg" xmlns:xlink="http://www.w3.org/1999/xlink">

<svg id="main" version="1.1" xmlns="http://www.w3.org/2000/svg" xmlns:xlink="http://www.w3.org/1999/xlink" xml:space="preserve">

<style type="text/css"><![CDATA[
.node, .edge {opacity: 0.7;}
.node.selected, .edge.selected {opacity: 1;}
.edge:hover path { stroke: red; }
.edge:hover polygon { stroke: red; fill: red; }
]]></style>
<script type="application/ecmascript" xlink:href="../../svg.min.js"/>
<svg id="graph" class="graph">
<g id="graph0" class="graph" transform="scale(1 1) rotate(0) translate(4 155)">
<title>ui/customWidgets/productWidget/productWidget.h</title>
<!-- Node1 -->
<g id="Node000001" class="node">
<title>Node1</title>
<g id="a_Node000001"><a xlink:title=" ">
<polygon fill="#999999" stroke="#666666" points="278,-151 134,-151 134,-121 278,-121 278,-151"/>
<text text-anchor="start" x="142" y="-139" font-family="Helvetica,sans-Serif" font-size="10.00">ui/customWidgets/product</text>
<text text-anchor="middle" x="206" y="-128" font-family="Helvetica,sans-Serif" font-size="10.00">Widget/productWidget.h</text>
</a>
</g>
</g>
<!-- Node2 -->
<g id="Node000002" class="node">
<title>Node2</title>
<g id="a_Node000002"><a xlink:href="../../d3/df2/textInputWidget_8h.html" target="_top" xlink:title=" ">
<polygon fill="white" stroke="#666666" points="352,-85 220,-85 220,-55 352,-55 352,-85"/>
<text text-anchor="start" x="228" y="-73" font-family="Helvetica,sans-Serif" font-size="10.00">../inputWidget/textInput</text>
<text text-anchor="middle" x="286" y="-62" font-family="Helvetica,sans-Serif" font-size="10.00">Widget.h</text>
</a>
</g>
</g>
<!-- Node1&#45;&gt;Node2 -->
<g id="edge1_Node000001_Node000002" class="edge">
<title>Node1&#45;&gt;Node2</title>
<g id="a_edge1_Node000001_Node000002"><a xlink:title=" ">
<path fill="none" stroke="#63b8ff" d="M223.75,-120.8C234.53,-112.18 248.45,-101.04 260.4,-91.48"/>
<polygon fill="#63b8ff" stroke="#63b8ff" points="262.67,-94.14 268.3,-85.16 258.3,-88.68 262.67,-94.14"/>
</a>
</g>
</g>
<!-- Node8 -->
<g id="Node000008" class="node">
<title>Node8</title>
<g id="a_Node000008"><a xlink:href="../../d1/dd8/spinBoxInputWidget_8h.html" target="_top" xlink:title=" ">
<polygon fill="white" stroke="#666666" points="202,-85 50,-85 50,-55 202,-55 202,-85"/>
<text text-anchor="start" x="58" y="-73" font-family="Helvetica,sans-Serif" font-size="10.00">../inputWidget/spinBoxInput</text>
<text text-anchor="middle" x="126" y="-62" font-family="Helvetica,sans-Serif" font-size="10.00">Widget.h</text>
</a>
</g>
</g>
<!-- Node1&#45;&gt;Node8 -->
<g id="edge7_Node000001_Node000008" class="edge">
<title>Node1&#45;&gt;Node8</title>
<g id="a_edge7_Node000001_Node000008"><a xlink:title=" ">
<path fill="none" stroke="#63b8ff" d="M188.25,-120.8C177.47,-112.18 163.55,-101.04 151.6,-91.48"/>
<polygon fill="#63b8ff" stroke="#63b8ff" points="153.7,-88.68 143.7,-85.16 149.33,-94.14 153.7,-88.68"/>
</a>
</g>
</g>
<!-- Node3 -->
<g id="Node000003" class="node">
<title>Node3</title>
<g id="a_Node000003"><a xlink:title=" ">
<polygon fill="#e0e0e0" stroke="#999999" points="141.5,-19 82.5,-19 82.5,0 141.5,0 141.5,-19"/>
<text text-anchor="middle" x="112" y="-7" font-family="Helvetica,sans-Serif" font-size="10.00">QWidget</text>
</a>
</g>
</g>
<!-- Node2&#45;&gt;Node3 -->
<g id="edge2_Node000002_Node000003" class="edge">
<title>Node2&#45;&gt;Node3</title>
<g id="a_edge2_Node000002_Node000003"><a xlink:title=" ">
<path fill="none" stroke="#63b8ff" d="M244.32,-54.99C214.68,-45.02 175.31,-31.78 147.23,-22.35"/>
<polygon fill="#63b8ff" stroke="#63b8ff" points="148.04,-18.92 137.44,-19.05 145.8,-25.56 148.04,-18.92"/>
</a>
</g>
</g>
<!-- Node4 -->
<g id="Node000004" class="node">
<title>Node4</title>
<g id="a_Node000004"><a xlink:title=" ">
<polygon fill="#e0e0e0" stroke="#999999" points="392.5,-19 329.5,-19 329.5,0 392.5,0 392.5,-19"/>
<text text-anchor="middle" x="361" y="-7" font-family="Helvetica,sans-Serif" font-size="10.00">QLineEdit</text>
</a>
</g>
</g>
<!-- Node2&#45;&gt;Node4 -->
<g id="edge3_Node000002_Node000004" class="edge">
<title>Node2&#45;&gt;Node4</title>
<g id="a_edge3_Node000002_Node000004"><a xlink:title=" ">
<path fill="none" stroke="#63b8ff" d="M304.16,-54.84C315.49,-46 330.06,-34.63 341.62,-25.62"/>
<polygon fill="#63b8ff" stroke="#63b8ff" points="344.03,-28.18 349.76,-19.27 339.72,-22.66 344.03,-28.18"/>
</a>
</g>
</g>
<!-- Node5 -->
<g id="Node000005" class="node">
<title>Node5</title>
<g id="a_Node000005"><a xlink:title=" ">
<polygon fill="#e0e0e0" stroke="#999999" points="491,-19 411,-19 411,0 491,0 491,-19"/>
<text text-anchor="middle" x="451" y="-7" font-family="Helvetica,sans-Serif" font-size="10.00">QPushButton</text>
</a>
</g>
</g>
<!-- Node2&#45;&gt;Node5 -->
<g id="edge4_Node000002_Node000005" class="edge">
<title>Node2&#45;&gt;Node5</title>
<g id="a_edge4_Node000002_Node000005"><a xlink:title=" ">
<path fill="none" stroke="#63b8ff" d="M325.52,-54.99C353.42,-45.1 390.41,-31.98 417,-22.56"/>
<polygon fill="#63b8ff" stroke="#63b8ff" points="418.38,-25.78 426.63,-19.14 416.04,-19.18 418.38,-25.78"/>
</a>
</g>
</g>
<!-- Node6 -->
<g id="Node000006" class="node">
<title>Node6</title>
<g id="a_Node000006"><a xlink:title=" ">
<polygon fill="#e0e0e0" stroke="#999999" points="242.5,-19 159.5,-19 159.5,0 242.5,0 242.5,-19"/>
<text text-anchor="middle" x="201" y="-7" font-family="Helvetica,sans-Serif" font-size="10.00">QHBoxLayout</text>
</a>
</g>
</g>
<!-- Node2&#45;&gt;Node6 -->
<g id="edge5_Node000002_Node000006" class="edge">
<title>Node2&#45;&gt;Node6</title>
<g id="a_edge5_Node000002_Node000006"><a xlink:title=" ">
<path fill="none" stroke="#63b8ff" d="M265.42,-54.84C252.33,-45.83 235.41,-34.18 222.2,-25.09"/>
<polygon fill="#63b8ff" stroke="#63b8ff" points="223.96,-22.05 213.74,-19.27 219.99,-27.82 223.96,-22.05"/>
</a>
</g>
</g>
<!-- Node7 -->
<g id="Node000007" class="node">
<title>Node7</title>
<g id="a_Node000007"><a xlink:title=" ">
<polygon fill="#e0e0e0" stroke="#999999" points="311,-19 261,-19 261,0 311,0 311,-19"/>
<text text-anchor="middle" x="286" y="-7" font-family="Helvetica,sans-Serif" font-size="10.00">QLabel</text>
</a>
</g>
</g>
<!-- Node2&#45;&gt;Node7 -->
<g id="edge6_Node000002_Node000007" class="edge">
<title>Node2&#45;&gt;Node7</title>
<g id="a_edge6_Node000002_Node000007"><a xlink:title=" ">
<path fill="none" stroke="#63b8ff" d="M286,-54.84C286,-47.21 286,-37.7 286,-29.45"/>
<polygon fill="#63b8ff" stroke="#63b8ff" points="289.5,-29.27 286,-19.27 282.5,-29.27 289.5,-29.27"/>
</a>
</g>
</g>
<!-- Node8&#45;&gt;Node3 -->
<g id="edge8_Node000008_Node000003" class="edge">
<title>Node8&#45;&gt;Node3</title>
<g id="a_edge8_Node000008_Node000003"><a xlink:title=" ">
<path fill="none" stroke="#63b8ff" d="M122.61,-54.84C120.77,-47.13 118.46,-37.49 116.47,-29.17"/>
<polygon fill="#63b8ff" stroke="#63b8ff" points="119.83,-28.18 114.1,-19.27 113.02,-29.81 119.83,-28.18"/>
</a>
</g>
</g>
<!-- Node8&#45;&gt;Node6 -->
<g id="edge10_Node000008_Node000006" class="edge">
<title>Node8&#45;&gt;Node6</title>
<g id="a_edge10_Node000008_Node000006"><a xlink:title=" ">
<path fill="none" stroke="#63b8ff" d="M144.16,-54.84C155.49,-46 170.06,-34.63 181.62,-25.62"/>
<polygon fill="#63b8ff" stroke="#63b8ff" points="184.03,-28.18 189.76,-19.27 179.72,-22.66 184.03,-28.18"/>
</a>
</g>
</g>
<!-- Node8&#45;&gt;Node7 -->
<g id="edge11_Node000008_Node000007" class="edge">
<title>Node8&#45;&gt;Node7</title>
<g id="a_edge11_Node000008_Node000007"><a xlink:title=" ">
<path fill="none" stroke="#63b8ff" d="M164.32,-54.99C191.26,-45.14 226.93,-32.1 252.69,-22.68"/>
<polygon fill="#63b8ff" stroke="#63b8ff" points="254.18,-25.86 262.37,-19.14 251.78,-19.29 254.18,-25.86"/>
</a>
</g>
</g>
<!-- Node9 -->
<g id="Node000009" class="node">
<title>Node9</title>
<g id="a_Node000009"><a xlink:title=" ">
<polygon fill="#e0e0e0" stroke="#999999" points="64,-19 0,-19 0,0 64,0 64,-19"/>
<text text-anchor="middle" x="32" y="-7" font-family="Helvetica,sans-Serif" font-size="10.00">QSpinBox</text>
</a>
</g>
</g>
<!-- Node8&#45;&gt;Node9 -->
<g id="edge9_Node000008_Node000009" class="edge">
<title>Node8&#45;&gt;Node9</title>
<g id="a_edge9_Node000008_Node000009"><a xlink:title=" ">
<path fill="none" stroke="#63b8ff" d="M103.25,-54.84C88.4,-45.6 69.1,-33.59 54.34,-24.4"/>
<polygon fill="#63b8ff" stroke="#63b8ff" points="56.15,-21.41 45.81,-19.09 52.45,-27.35 56.15,-21.41"/>
</a>
</g>
</g>
</g>
</svg>
</svg>

<style type='text/css'>
<![CDATA[
[data-mouse-over-selected='false'] { opacity: 0.7; }
[data-mouse-over-selected='true']  { opacity: 1.0; }
]]>
</style>
<script type="application/ecmascript"><![CDATA[
document.addEventListener('DOMContentLoaded', (event) => {
  highlightEdges();
  highlightAdjacentNodes();
});
]]></script>
</svg>
