<?xml version="1.0" encoding="UTF-8" standalone="no"?>
<!DOCTYPE svg PUBLIC "-//W3C//DTD SVG 1.1//EN"
 "http://www.w3.org/Graphics/SVG/1.1/DTD/svg11.dtd">
<!-- Generated by graphviz version 2.43.0 (0)
 -->
<!-- Title: pdf/product_table.h Pages: 1 -->
<svg width="328pt" height="148pt"
 viewBox="0.00 0.00 327.50 148.00" xmlns="http://www.w3.org/2000/svg" xmlns:xlink="http://www.w3.org/1999/xlink">

<svg id="main" version="1.1" xmlns="http://www.w3.org/2000/svg" xmlns:xlink="http://www.w3.org/1999/xlink" xml:space="preserve">

<style type="text/css"><![CDATA[
.node, .edge {opacity: 0.7;}
.node.selected, .edge.selected {opacity: 1;}
.edge:hover path { stroke: red; }
.edge:hover polygon { stroke: red; fill: red; }
]]></style>
<script type="application/ecmascript" xlink:href="../../svg.min.js"/>
<svg id="graph" class="graph">
<g id="graph0" class="graph" transform="scale(1 1) rotate(0) translate(4 144)">
<title>pdf/product_table.h</title>
<!-- Node1 -->
<g id="Node000001" class="node">
<title>Node1</title>
<g id="a_Node000001"><a xlink:title=" ">
<polygon fill="#999999" stroke="#666666" points="168,-140 57,-140 57,-121 168,-121 168,-140"/>
<text text-anchor="middle" x="112.5" y="-128" font-family="Helvetica,sans-Serif" font-size="10.00">pdf/product_table.h</text>
</a>
</g>
</g>
<!-- Node2 -->
<g id="Node000002" class="node">
<title>Node2</title>
<g id="a_Node000002"><a xlink:title=" ">
<polygon fill="#e0e0e0" stroke="#999999" points="47,-79.5 0,-79.5 0,-60.5 47,-60.5 47,-79.5"/>
<text text-anchor="middle" x="23.5" y="-67.5" font-family="Helvetica,sans-Serif" font-size="10.00">hpdf.h</text>
</a>
</g>
</g>
<!-- Node1&#45;&gt;Node2 -->
<g id="edge1_Node000001_Node000002" class="edge">
<title>Node1&#45;&gt;Node2</title>
<g id="a_edge1_Node000001_Node000002"><a xlink:title=" ">
<path fill="none" stroke="#63b8ff" d="M99.37,-120.87C85.17,-111.54 62.3,-96.51 45.38,-85.38"/>
<polygon fill="#63b8ff" stroke="#63b8ff" points="46.97,-82.24 36.69,-79.67 43.12,-88.08 46.97,-82.24"/>
</a>
</g>
</g>
<!-- Node3 -->
<g id="Node000003" class="node">
<title>Node3</title>
<g id="a_Node000003"><a xlink:title=" ">
<polygon fill="#e0e0e0" stroke="#999999" points="97.5,-79.5 65.5,-79.5 65.5,-60.5 97.5,-60.5 97.5,-79.5"/>
<text text-anchor="middle" x="81.5" y="-67.5" font-family="Helvetica,sans-Serif" font-size="10.00">list</text>
</a>
</g>
</g>
<!-- Node1&#45;&gt;Node3 -->
<g id="edge2_Node000001_Node000003" class="edge">
<title>Node1&#45;&gt;Node3</title>
<g id="a_edge2_Node000001_Node000003"><a xlink:title=" ">
<path fill="none" stroke="#63b8ff" d="M107.93,-120.87C103.44,-112.4 96.47,-99.24 90.81,-88.57"/>
<polygon fill="#63b8ff" stroke="#63b8ff" points="93.87,-86.86 86.09,-79.67 87.68,-90.14 93.87,-86.86"/>
</a>
</g>
</g>
<!-- Node4 -->
<g id="Node000004" class="node">
<title>Node4</title>
<g id="a_Node000004"><a xlink:title=" ">
<polygon fill="#e0e0e0" stroke="#999999" points="173.5,-79.5 115.5,-79.5 115.5,-60.5 173.5,-60.5 173.5,-79.5"/>
<text text-anchor="middle" x="144.5" y="-67.5" font-family="Helvetica,sans-Serif" font-size="10.00">memory</text>
</a>
</g>
</g>
<!-- Node1&#45;&gt;Node4 -->
<g id="edge3_Node000001_Node000004" class="edge">
<title>Node1&#45;&gt;Node4</title>
<g id="a_edge3_Node000001_Node000004"><a xlink:title=" ">
<path fill="none" stroke="#63b8ff" d="M117.22,-120.87C121.85,-112.4 129.05,-99.24 134.89,-88.57"/>
<polygon fill="#63b8ff" stroke="#63b8ff" points="138.03,-90.12 139.76,-79.67 131.89,-86.76 138.03,-90.12"/>
</a>
</g>
</g>
<!-- Node5 -->
<g id="Node000005" class="node">
<title>Node5</title>
<g id="a_Node000005"><a xlink:href="../../d3/dae/product__data_8h.html" target="_top" xlink:title=" ">
<polygon fill="white" stroke="#666666" points="319.5,-85 191.5,-85 191.5,-55 319.5,-55 319.5,-85"/>
<text text-anchor="start" x="199.5" y="-73" font-family="Helvetica,sans-Serif" font-size="10.00">../data_objects/product</text>
<text text-anchor="middle" x="255.5" y="-62" font-family="Helvetica,sans-Serif" font-size="10.00">_data.h</text>
</a>
</g>
</g>
<!-- Node1&#45;&gt;Node5 -->
<g id="edge4_Node000001_Node000005" class="edge">
<title>Node1&#45;&gt;Node5</title>
<g id="a_edge4_Node000001_Node000005"><a xlink:title=" ">
<path fill="none" stroke="#63b8ff" d="M133.29,-120.99C153.78,-112.61 185.72,-99.55 211.81,-88.87"/>
<polygon fill="#63b8ff" stroke="#63b8ff" points="213.19,-92.09 221.12,-85.06 210.54,-85.61 213.19,-92.09"/>
</a>
</g>
</g>
<!-- Node6 -->
<g id="Node000006" class="node">
<title>Node6</title>
<g id="a_Node000006"><a xlink:title=" ">
<polygon fill="#e0e0e0" stroke="#999999" points="277.5,-19 233.5,-19 233.5,0 277.5,0 277.5,-19"/>
<text text-anchor="middle" x="255.5" y="-7" font-family="Helvetica,sans-Serif" font-size="10.00">string</text>
</a>
</g>
</g>
<!-- Node5&#45;&gt;Node6 -->
<g id="edge5_Node000005_Node000006" class="edge">
<title>Node5&#45;&gt;Node6</title>
<g id="a_edge5_Node000005_Node000006"><a xlink:title=" ">
<path fill="none" stroke="#63b8ff" d="M255.5,-54.84C255.5,-47.21 255.5,-37.7 255.5,-29.45"/>
<polygon fill="#63b8ff" stroke="#63b8ff" points="259,-29.27 255.5,-19.27 252,-29.27 259,-29.27"/>
</a>
</g>
</g>
</g>
</svg>
</svg>

<style type='text/css'>
<![CDATA[
[data-mouse-over-selected='false'] { opacity: 0.7; }
[data-mouse-over-selected='true']  { opacity: 1.0; }
]]>
</style>
<script type="application/ecmascript"><![CDATA[
document.addEventListener('DOMContentLoaded', (event) => {
  highlightEdges();
  highlightAdjacentNodes();
});
]]></script>
</svg>
