<?xml version="1.0" encoding="UTF-8" standalone="no"?>
<!DOCTYPE svg PUBLIC "-//W3C//DTD SVG 1.1//EN"
 "http://www.w3.org/Graphics/SVG/1.1/DTD/svg11.dtd">
<!-- Generated by graphviz version 2.43.0 (0)
 -->
<!-- Title: productWidget Pages: 1 -->
<svg width="354pt" height="384pt"
 viewBox="0.00 0.00 353.60 384.00" xmlns="http://www.w3.org/2000/svg" xmlns:xlink="http://www.w3.org/1999/xlink">

<svg id="main" version="1.1" xmlns="http://www.w3.org/2000/svg" xmlns:xlink="http://www.w3.org/1999/xlink" xml:space="preserve">

<style type="text/css"><![CDATA[
.node, .edge {opacity: 0.7;}
.node.selected, .edge.selected {opacity: 1;}
.edge:hover path { stroke: red; }
.edge:hover polygon { stroke: red; fill: red; }
]]></style>
<script type="application/ecmascript" xlink:href="../../svg.min.js"/>
<svg id="graph" class="graph">
<g id="graph0" class="graph" transform="scale(1 1) rotate(0) translate(4 380)">
<title>productWidget</title>
<!-- Node1 -->
<g id="Node000001" class="node">
<title>Node1</title>
<g id="a_Node000001"><a xlink:title="the respective widget for entering product data">
<polygon fill="#999999" stroke="transparent" points="185.1,-131 9.1,-131 9.1,0 185.1,0 185.1,-131"/>
<text text-anchor="start" x="61.1" y="-118.5" font-family="Helvetica,sans-Serif" font-size="10.00">productWidget</text>
<text text-anchor="start" x="13.1" y="-103.5" font-family="Helvetica,sans-Serif" font-size="10.00">+</text>
<text text-anchor="start" x="26.1" y="-103.5" font-family="Helvetica,sans-Serif" font-size="10.00">QWidget * centralWidgetwidget</text>
<text text-anchor="start" x="13.1" y="-88.5" font-family="Helvetica,sans-Serif" font-size="10.00">+</text>
<text text-anchor="start" x="26.1" y="-88.5" font-family="Helvetica,sans-Serif" font-size="10.00">QHBoxLayout * horizontal</text>
<text text-anchor="start" x="26.1" y="-77.5" font-family="Helvetica,sans-Serif" font-size="10.00">Layout</text>
<text text-anchor="start" x="13.1" y="-62.5" font-family="Helvetica,sans-Serif" font-size="10.00">+</text>
<text text-anchor="start" x="26.1" y="-62.5" font-family="Helvetica,sans-Serif" font-size="10.00">QVBoxLayout * verticalLayout</text>
<text text-anchor="start" x="13.1" y="-47.5" font-family="Helvetica,sans-Serif" font-size="10.00">+</text>
<text text-anchor="start" x="26.1" y="-47.5" font-family="Helvetica,sans-Serif" font-size="10.00">QPushButton * deleteButton</text>
<text text-anchor="start" x="13.1" y="-32.5" font-family="Helvetica,sans-Serif" font-size="10.00">+</text>
<text text-anchor="start" x="26.1" y="-32.5" font-family="Helvetica,sans-Serif" font-size="10.00">productWidget(QWidget</text>
<text text-anchor="start" x="26.1" y="-21.5" font-family="Helvetica,sans-Serif" font-size="10.00"> *parent=nullptr)</text>
<text text-anchor="start" x="15.6" y="-6.5" font-family="Helvetica,sans-Serif" font-size="10.00">&#45;</text>
<text text-anchor="start" x="26.1" y="-6.5" font-family="Helvetica,sans-Serif" font-size="10.00">void handleDelete()</text>
<polygon fill="#666666" stroke="#666666" points="9.1,-113.5 9.1,-113.5 185.1,-113.5 185.1,-113.5 9.1,-113.5"/>
<polygon fill="#666666" stroke="#666666" points="9.1,-42.5 9.1,-42.5 24.1,-42.5 24.1,-42.5 9.1,-42.5"/>
<polygon fill="#666666" stroke="#666666" points="24.1,-42.5 24.1,-42.5 185.1,-42.5 185.1,-42.5 24.1,-42.5"/>
<polygon fill="none" stroke="#666666" points="9.1,0 9.1,-131 185.1,-131 185.1,0 9.1,0"/>
</a>
</g>
</g>
<!-- Node2 -->
<g id="Node000002" class="node">
<title>Node2</title>
<g id="a_Node000002"><a xlink:title=" ">
<polygon fill="white" stroke="transparent" points="123.6,-376 70.6,-376 70.6,-327 123.6,-327 123.6,-376"/>
<text text-anchor="start" x="76.1" y="-363.5" font-family="Helvetica,sans-Serif" font-size="10.00">QWidget</text>
<text text-anchor="start" x="95.6" y="-348.5" font-family="Helvetica,sans-Serif" font-size="10.00"> </text>
<text text-anchor="start" x="95.6" y="-333.5" font-family="Helvetica,sans-Serif" font-size="10.00"> </text>
<polygon fill="#666666" stroke="#666666" points="71.1,-358.5 71.1,-358.5 124.1,-358.5 124.1,-358.5 71.1,-358.5"/>
<polygon fill="#666666" stroke="#666666" points="71.1,-343.5 71.1,-343.5 124.1,-343.5 124.1,-343.5 71.1,-343.5"/>
<polygon fill="none" stroke="#666666" points="70.6,-327 70.6,-376 123.6,-376 123.6,-327 70.6,-327"/>
</a>
</g>
</g>
<!-- Node2&#45;&gt;Node1 -->
<g id="edge1_Node000001_Node000002" class="edge">
<title>Node2&#45;&gt;Node1</title>
<g id="a_edge1_Node000001_Node000002"><a xlink:title=" ">
<path fill="none" stroke="#63b8ff" d="M61.38,-334.73C43.39,-324.73 23.29,-309.89 13.1,-290 -7.36,-250.05 -0.18,-231.88 13.1,-189 19.4,-168.68 30.37,-148.73 42.33,-131.03"/>
<polygon fill="none" stroke="#63b8ff" points="60.05,-337.99 70.53,-339.52 63.3,-331.78 60.05,-337.99"/>
</a>
</g>
</g>
<!-- Node3 -->
<g id="Node000003" class="node">
<title>Node3</title>
<g id="a_Node000003"><a xlink:href="../../d2/da6/classtextInputWidget.html" target="_top" xlink:title="a Widget containing a label and a text input below">
<polygon fill="white" stroke="transparent" points="172.1,-290 22.1,-290 22.1,-189 172.1,-189 172.1,-290"/>
<text text-anchor="start" x="57.6" y="-277.5" font-family="Helvetica,sans-Serif" font-size="10.00">textInputWidget</text>
<text text-anchor="start" x="26.1" y="-262.5" font-family="Helvetica,sans-Serif" font-size="10.00">+</text>
<text text-anchor="start" x="39.1" y="-262.5" font-family="Helvetica,sans-Serif" font-size="10.00">QVBoxLayout * layout</text>
<text text-anchor="start" x="26.1" y="-247.5" font-family="Helvetica,sans-Serif" font-size="10.00">+</text>
<text text-anchor="start" x="39.1" y="-247.5" font-family="Helvetica,sans-Serif" font-size="10.00">QLabel * label</text>
<text text-anchor="start" x="26.1" y="-232.5" font-family="Helvetica,sans-Serif" font-size="10.00">+</text>
<text text-anchor="start" x="39.1" y="-232.5" font-family="Helvetica,sans-Serif" font-size="10.00">QLineEdit * input</text>
<text text-anchor="start" x="26.1" y="-217.5" font-family="Helvetica,sans-Serif" font-size="10.00">+</text>
<text text-anchor="start" x="39.1" y="-217.5" font-family="Helvetica,sans-Serif" font-size="10.00">textInputWidget(const</text>
<text text-anchor="start" x="39.1" y="-206.5" font-family="Helvetica,sans-Serif" font-size="10.00"> QString &amp;inputLabel,</text>
<text text-anchor="start" x="39.1" y="-195.5" font-family="Helvetica,sans-Serif" font-size="10.00"> QWidget *parent=nullptr)</text>
<polygon fill="#666666" stroke="#666666" points="22.1,-272.5 22.1,-272.5 172.1,-272.5 172.1,-272.5 22.1,-272.5"/>
<polygon fill="#666666" stroke="#666666" points="22.1,-227.5 22.1,-227.5 37.1,-227.5 37.1,-227.5 22.1,-227.5"/>
<polygon fill="#666666" stroke="#666666" points="37.1,-227.5 37.1,-227.5 172.1,-227.5 172.1,-227.5 37.1,-227.5"/>
<polygon fill="none" stroke="#666666" points="22.1,-189 22.1,-290 172.1,-290 172.1,-189 22.1,-189"/>
</a>
</g>
</g>
<!-- Node2&#45;&gt;Node3 -->
<g id="edge3_Node000003_Node000002" class="edge">
<title>Node2&#45;&gt;Node3</title>
<g id="a_edge3_Node000003_Node000002"><a xlink:title=" ">
<path fill="none" stroke="#63b8ff" d="M97.1,-316.78C97.1,-308.41 97.1,-299.25 97.1,-290.29"/>
<polygon fill="none" stroke="#63b8ff" points="93.6,-316.9 97.1,-326.9 100.6,-316.9 93.6,-316.9"/>
</a>
</g>
</g>
<!-- Node4 -->
<g id="Node000004" class="node">
<title>Node4</title>
<g id="a_Node000004"><a xlink:href="../../d6/d52/classspinBoxInputWidget.html" target="_top" xlink:title="a Widget containing a label and a spinbox (int input) below">
<polygon fill="white" stroke="transparent" points="345.6,-290 190.6,-290 190.6,-189 345.6,-189 345.6,-290"/>
<text text-anchor="start" x="219.1" y="-277.5" font-family="Helvetica,sans-Serif" font-size="10.00">spinBoxInputWidget</text>
<text text-anchor="start" x="195.1" y="-262.5" font-family="Helvetica,sans-Serif" font-size="10.00">+</text>
<text text-anchor="start" x="208.1" y="-262.5" font-family="Helvetica,sans-Serif" font-size="10.00">QVBoxLayout * layout</text>
<text text-anchor="start" x="195.1" y="-247.5" font-family="Helvetica,sans-Serif" font-size="10.00">+</text>
<text text-anchor="start" x="208.1" y="-247.5" font-family="Helvetica,sans-Serif" font-size="10.00">QLabel * label</text>
<text text-anchor="start" x="195.1" y="-232.5" font-family="Helvetica,sans-Serif" font-size="10.00">+</text>
<text text-anchor="start" x="208.1" y="-232.5" font-family="Helvetica,sans-Serif" font-size="10.00">QSpinBox * input</text>
<text text-anchor="start" x="195.1" y="-217.5" font-family="Helvetica,sans-Serif" font-size="10.00">+</text>
<text text-anchor="start" x="208.1" y="-217.5" font-family="Helvetica,sans-Serif" font-size="10.00">spinBoxInputWidget</text>
<text text-anchor="start" x="208.1" y="-206.5" font-family="Helvetica,sans-Serif" font-size="10.00">(const QString &amp;inputLabel,</text>
<text text-anchor="start" x="208.1" y="-195.5" font-family="Helvetica,sans-Serif" font-size="10.00"> QWidget *parent=nullptr)</text>
<polygon fill="#666666" stroke="#666666" points="191.1,-272.5 191.1,-272.5 346.1,-272.5 346.1,-272.5 191.1,-272.5"/>
<polygon fill="#666666" stroke="#666666" points="191.1,-227.5 191.1,-227.5 206.1,-227.5 206.1,-227.5 191.1,-227.5"/>
<polygon fill="#666666" stroke="#666666" points="206.1,-227.5 206.1,-227.5 346.1,-227.5 346.1,-227.5 206.1,-227.5"/>
<polygon fill="none" stroke="#666666" points="190.6,-189 190.6,-290 345.6,-290 345.6,-189 190.6,-189"/>
</a>
</g>
</g>
<!-- Node2&#45;&gt;Node4 -->
<g id="edge5_Node000004_Node000002" class="edge">
<title>Node2&#45;&gt;Node4</title>
<g id="a_edge5_Node000004_Node000002"><a xlink:title=" ">
<path fill="none" stroke="#63b8ff" d="M132.32,-327.84C149.34,-316.9 170.49,-303.29 190.98,-290.11"/>
<polygon fill="none" stroke="#63b8ff" points="130.34,-324.96 123.82,-333.31 134.13,-330.85 130.34,-324.96"/>
</a>
</g>
</g>
<!-- Node3&#45;&gt;Node1 -->
<g id="edge2_Node000001_Node000003" class="edge">
<title>Node3&#45;&gt;Node1</title>
<g id="a_edge2_Node000001_Node000003"><a xlink:title=" ">
<path fill="none" stroke="#63b8ff" d="M97.1,-188.75C97.1,-174.58 97.1,-158.8 97.1,-143.42"/>
<polygon fill="none" stroke="#63b8ff" points="97.1,-143.2 93.1,-137.2 97.1,-131.2 101.1,-137.2 97.1,-143.2"/>
</a>
</g>
<text text-anchor="middle" x="117.1" y="-163" font-family="Helvetica,sans-Serif" font-size="10.00" fill="grey"> +name</text>
<text text-anchor="middle" x="117.1" y="-152" font-family="Helvetica,sans-Serif" font-size="10.00" fill="grey">+ppe</text>
</g>
<!-- Node4&#45;&gt;Node1 -->
<g id="edge4_Node000001_Node000004" class="edge">
<title>Node4&#45;&gt;Node1</title>
<g id="a_edge4_Node000001_Node000004"><a xlink:title=" ">
<path fill="none" stroke="#63b8ff" d="M218.64,-188.75C203.44,-173.46 186.38,-156.29 169.95,-139.77"/>
<polygon fill="none" stroke="#63b8ff" points="169.89,-139.71 162.82,-138.28 161.43,-131.2 168.5,-132.64 169.89,-139.71"/>
</a>
</g>
<text text-anchor="middle" x="216.6" y="-157.5" font-family="Helvetica,sans-Serif" font-size="10.00" fill="grey"> +count</text>
</g>
</g>
</svg>
</svg>

<style type='text/css'>
<![CDATA[
[data-mouse-over-selected='false'] { opacity: 0.7; }
[data-mouse-over-selected='true']  { opacity: 1.0; }
]]>
</style>
<script type="application/ecmascript"><![CDATA[
document.addEventListener('DOMContentLoaded', (event) => {
  highlightEdges();
  highlightAdjacentNodes();
});
]]></script>
</svg>
