<?xml version="1.0" encoding="UTF-8" standalone="no"?>
<!DOCTYPE svg PUBLIC "-//W3C//DTD SVG 1.1//EN"
 "http://www.w3.org/Graphics/SVG/1.1/DTD/svg11.dtd">
<!-- Generated by graphviz version 2.43.0 (0)
 -->
<!-- Title: pdf/pdf_exception.h Pages: 1 -->
<svg width="273pt" height="192pt"
 viewBox="0.00 0.00 273.00 192.00" xmlns="http://www.w3.org/2000/svg" xmlns:xlink="http://www.w3.org/1999/xlink">

<svg id="main" version="1.1" xmlns="http://www.w3.org/2000/svg" xmlns:xlink="http://www.w3.org/1999/xlink" xml:space="preserve">

<style type="text/css"><![CDATA[
.node, .edge {opacity: 0.7;}
.node.selected, .edge.selected {opacity: 1;}
.edge:hover path { stroke: red; }
.edge:hover polygon { stroke: red; fill: red; }
]]></style>
<script type="application/ecmascript" xlink:href="../../svg.min.js"/>
<svg id="graph" class="graph">
<g id="graph0" class="graph" transform="scale(1 1) rotate(0) translate(4 188)">
<title>pdf/pdf_exception.h</title>
<!-- Node1 -->
<g id="Node000001" class="node">
<title>Node1</title>
<g id="a_Node000001"><a xlink:title=" ">
<polygon fill="#999999" stroke="#666666" points="265,-184 152,-184 152,-165 265,-165 265,-184"/>
<text text-anchor="middle" x="208.5" y="-172" font-family="Helvetica,sans-Serif" font-size="10.00">pdf/pdf_exception.h</text>
</a>
</g>
</g>
<!-- Node2 -->
<g id="Node000002" class="node">
<title>Node2</title>
<g id="a_Node000002"><a xlink:href="../../d1/d5c/pdf__utils_8h.html" target="_top" xlink:title=" ">
<polygon fill="white" stroke="#666666" points="207.5,-129 121.5,-129 121.5,-110 207.5,-110 207.5,-129"/>
<text text-anchor="middle" x="164.5" y="-117" font-family="Helvetica,sans-Serif" font-size="10.00">pdf/pdf_utils.h</text>
</a>
</g>
</g>
<!-- Node1&#45;&gt;Node2 -->
<g id="edge1_Node000001_Node000002" class="edge">
<title>Node1&#45;&gt;Node2</title>
<g id="a_edge1_Node000001_Node000002"><a xlink:title=" ">
<path fill="none" stroke="#63b8ff" d="M194.77,-156.96C187.1,-147.72 177.87,-136.6 171.63,-129.09"/>
<polygon fill="#63b8ff" stroke="#63b8ff" points="192.15,-159.29 201.23,-164.75 197.54,-154.82 192.15,-159.29"/>
</a>
</g>
</g>
<!-- Node5 -->
<g id="Node000005" class="node">
<title>Node5</title>
<g id="a_Node000005"><a xlink:href="../../d8/dd9/mainwindow_8cpp.html" target="_top" xlink:title=" ">
<polygon fill="white" stroke="#666666" points="263.5,-19 153.5,-19 153.5,0 263.5,0 263.5,-19"/>
<text text-anchor="middle" x="208.5" y="-7" font-family="Helvetica,sans-Serif" font-size="10.00">ui/mainwindow.cpp</text>
</a>
</g>
</g>
<!-- Node1&#45;&gt;Node5 -->
<g id="edge6_Node000001_Node000005" class="edge">
<title>Node1&#45;&gt;Node5</title>
<g id="a_edge6_Node000001_Node000005"><a xlink:title=" ">
<path fill="none" stroke="#63b8ff" d="M217.7,-155.79C228.58,-132.51 244.09,-90.42 234.5,-55 230.81,-41.35 221.77,-27.6 215.39,-19.07"/>
<polygon fill="#63b8ff" stroke="#63b8ff" points="214.54,-154.29 213.27,-164.81 220.82,-157.38 214.54,-154.29"/>
</a>
</g>
</g>
<!-- Node3 -->
<g id="Node000003" class="node">
<title>Node3</title>
<g id="a_Node000003"><a xlink:href="../../d7/de6/invoice_8h.html" target="_top" xlink:title=" ">
<polygon fill="white" stroke="#666666" points="85.5,-74 5.5,-74 5.5,-55 85.5,-55 85.5,-74"/>
<text text-anchor="middle" x="45.5" y="-62" font-family="Helvetica,sans-Serif" font-size="10.00">pdf/invoice.h</text>
</a>
</g>
</g>
<!-- Node2&#45;&gt;Node3 -->
<g id="edge2_Node000002_Node000003" class="edge">
<title>Node2&#45;&gt;Node3</title>
<g id="a_edge2_Node000002_Node000003"><a xlink:title=" ">
<path fill="none" stroke="#63b8ff" d="M136.2,-105.9C114.22,-96.11 84.32,-82.79 64.97,-74.17"/>
<polygon fill="#63b8ff" stroke="#63b8ff" points="134.82,-109.11 145.38,-109.98 137.67,-102.72 134.82,-109.11"/>
</a>
</g>
</g>
<!-- Node6 -->
<g id="Node000006" class="node">
<title>Node6</title>
<g id="a_Node000006"><a xlink:href="../../d8/d27/product__table_8cpp.html" target="_top" xlink:title=" ">
<polygon fill="white" stroke="#666666" points="225.5,-74 103.5,-74 103.5,-55 225.5,-55 225.5,-74"/>
<text text-anchor="middle" x="164.5" y="-62" font-family="Helvetica,sans-Serif" font-size="10.00">pdf/product_table.cpp</text>
</a>
</g>
</g>
<!-- Node2&#45;&gt;Node6 -->
<g id="edge5_Node000002_Node000006" class="edge">
<title>Node2&#45;&gt;Node6</title>
<g id="a_edge5_Node000002_Node000006"><a xlink:title=" ">
<path fill="none" stroke="#63b8ff" d="M164.5,-99.66C164.5,-90.93 164.5,-80.99 164.5,-74.09"/>
<polygon fill="#63b8ff" stroke="#63b8ff" points="161,-99.75 164.5,-109.75 168,-99.75 161,-99.75"/>
</a>
</g>
</g>
<!-- Node4 -->
<g id="Node000004" class="node">
<title>Node4</title>
<g id="a_Node000004"><a xlink:href="../../d1/dfb/invoice_8cpp.html" target="_top" xlink:title=" ">
<polygon fill="white" stroke="#666666" points="91,-19 0,-19 0,0 91,0 91,-19"/>
<text text-anchor="middle" x="45.5" y="-7" font-family="Helvetica,sans-Serif" font-size="10.00">pdf/invoice.cpp</text>
</a>
</g>
</g>
<!-- Node3&#45;&gt;Node4 -->
<g id="edge3_Node000003_Node000004" class="edge">
<title>Node3&#45;&gt;Node4</title>
<g id="a_edge3_Node000003_Node000004"><a xlink:title=" ">
<path fill="none" stroke="#63b8ff" d="M45.5,-44.66C45.5,-35.93 45.5,-25.99 45.5,-19.09"/>
<polygon fill="#63b8ff" stroke="#63b8ff" points="42,-44.75 45.5,-54.75 49,-44.75 42,-44.75"/>
</a>
</g>
</g>
<!-- Node3&#45;&gt;Node5 -->
<g id="edge4_Node000003_Node000005" class="edge">
<title>Node3&#45;&gt;Node5</title>
<g id="a_edge4_Node000003_Node000005"><a xlink:title=" ">
<path fill="none" stroke="#63b8ff" d="M81.49,-51.8C111.91,-41.91 154.78,-27.97 182.11,-19.08"/>
<polygon fill="#63b8ff" stroke="#63b8ff" points="80.12,-48.56 71.69,-54.98 82.28,-55.22 80.12,-48.56"/>
</a>
</g>
</g>
</g>
</svg>
</svg>

<style type='text/css'>
<![CDATA[
[data-mouse-over-selected='false'] { opacity: 0.7; }
[data-mouse-over-selected='true']  { opacity: 1.0; }
]]>
</style>
<script type="application/ecmascript"><![CDATA[
document.addEventListener('DOMContentLoaded', (event) => {
  highlightEdges();
  highlightAdjacentNodes();
});
]]></script>
</svg>
