<?xml version="1.0" encoding="UTF-8" standalone="no"?>
<!DOCTYPE svg PUBLIC "-//W3C//DTD SVG 1.1//EN"
 "http://www.w3.org/Graphics/SVG/1.1/DTD/svg11.dtd">
<!-- Generated by graphviz version 2.43.0 (0)
 -->
<!-- Title: ui/customWidgets/inputWidget/dateInputWidget.h Pages: 1 -->
<svg width="447pt" height="159pt"
 viewBox="0.00 0.00 446.50 159.00" xmlns="http://www.w3.org/2000/svg" xmlns:xlink="http://www.w3.org/1999/xlink">
<g id="graph0" class="graph" transform="scale(1 1) rotate(0) translate(4 155)">
<title>ui/customWidgets/inputWidget/dateInputWidget.h</title>
<!-- Node1 -->
<g id="Node000001" class="node">
<title>Node1</title>
<g id="a_Node000001"><a xlink:title=" ">
<polygon fill="#999999" stroke="#666666" points="331,-151 164,-151 164,-121 331,-121 331,-151"/>
<text text-anchor="start" x="172" y="-139" font-family="Helvetica,sans-Serif" font-size="10.00">ui/customWidgets/inputWidget</text>
<text text-anchor="middle" x="247.5" y="-128" font-family="Helvetica,sans-Serif" font-size="10.00">/dateInputWidget.h</text>
</a>
</g>
</g>
<!-- Node2 -->
<g id="Node000002" class="node">
<title>Node2</title>
<g id="a_Node000002"><a xlink:href="../../d1/dfb/invoice_8cpp.html" target="_top" xlink:title=" ">
<polygon fill="white" stroke="#666666" points="91,-79.5 0,-79.5 0,-60.5 91,-60.5 91,-79.5"/>
<text text-anchor="middle" x="45.5" y="-67.5" font-family="Helvetica,sans-Serif" font-size="10.00">pdf/invoice.cpp</text>
</a>
</g>
</g>
<!-- Node1&#45;&gt;Node2 -->
<g id="edge1_Node000001_Node000002" class="edge">
<title>Node1&#45;&gt;Node2</title>
<g id="a_edge1_Node000001_Node000002"><a xlink:title=" ">
<path fill="none" stroke="#63b8ff" d="M193.51,-117.89C154.39,-105.5 103.17,-89.27 72.38,-79.52"/>
<polygon fill="#63b8ff" stroke="#63b8ff" points="192.58,-121.27 203.17,-120.95 194.69,-114.6 192.58,-121.27"/>
</a>
</g>
</g>
<!-- Node3 -->
<g id="Node000003" class="node">
<title>Node3</title>
<g id="a_Node000003"><a xlink:href="../../d4/de6/dateInputWidget_8cpp.html" target="_top" xlink:title=" ">
<polygon fill="white" stroke="#666666" points="276,-85 109,-85 109,-55 276,-55 276,-85"/>
<text text-anchor="start" x="117" y="-73" font-family="Helvetica,sans-Serif" font-size="10.00">ui/customWidgets/inputWidget</text>
<text text-anchor="middle" x="192.5" y="-62" font-family="Helvetica,sans-Serif" font-size="10.00">/dateInputWidget.cpp</text>
</a>
</g>
</g>
<!-- Node1&#45;&gt;Node3 -->
<g id="edge2_Node000001_Node000003" class="edge">
<title>Node1&#45;&gt;Node3</title>
<g id="a_edge2_Node000001_Node000003"><a xlink:title=" ">
<path fill="none" stroke="#63b8ff" d="M228.67,-113.09C220.73,-103.85 211.72,-93.36 204.67,-85.16"/>
<polygon fill="#63b8ff" stroke="#63b8ff" points="226.12,-115.49 235.29,-120.8 231.43,-110.93 226.12,-115.49"/>
</a>
</g>
</g>
<!-- Node4 -->
<g id="Node000004" class="node">
<title>Node4</title>
<g id="a_Node000004"><a xlink:href="../../d8/dd9/mainwindow_8cpp.html" target="_top" xlink:title=" ">
<polygon fill="white" stroke="#666666" points="358.5,-19 248.5,-19 248.5,0 358.5,0 358.5,-19"/>
<text text-anchor="middle" x="303.5" y="-7" font-family="Helvetica,sans-Serif" font-size="10.00">ui/mainwindow.cpp</text>
</a>
</g>
</g>
<!-- Node1&#45;&gt;Node4 -->
<g id="edge3_Node000001_Node000004" class="edge">
<title>Node1&#45;&gt;Node4</title>
<g id="a_edge3_Node000001_Node000004"><a xlink:title=" ">
<path fill="none" stroke="#63b8ff" d="M266.92,-112.66C273.28,-104.41 279.89,-94.7 284.5,-85 295.15,-62.57 300.35,-33.41 302.4,-19.13"/>
<polygon fill="#63b8ff" stroke="#63b8ff" points="264.02,-110.68 260.47,-120.66 269.47,-115.07 264.02,-110.68"/>
</a>
</g>
</g>
<!-- Node5 -->
<g id="Node000005" class="node">
<title>Node5</title>
<g id="a_Node000005"><a xlink:href="../../d9/d53/mainwindow_8h.html" target="_top" xlink:title=" ">
<polygon fill="white" stroke="#666666" points="431,-79.5 332,-79.5 332,-60.5 431,-60.5 431,-79.5"/>
<text text-anchor="middle" x="381.5" y="-67.5" font-family="Helvetica,sans-Serif" font-size="10.00">ui/mainwindow.h</text>
</a>
</g>
</g>
<!-- Node1&#45;&gt;Node5 -->
<g id="edge4_Node000001_Node000005" class="edge">
<title>Node1&#45;&gt;Node5</title>
<g id="a_edge4_Node000001_Node000005"><a xlink:title=" ">
<path fill="none" stroke="#63b8ff" d="M285.98,-116.62C311.55,-104.41 343.94,-88.94 363.67,-79.52"/>
<polygon fill="#63b8ff" stroke="#63b8ff" points="284.42,-113.49 276.91,-120.95 287.44,-119.8 284.42,-113.49"/>
</a>
</g>
</g>
<!-- Node5&#45;&gt;Node4 -->
<g id="edge6_Node000005_Node000004" class="edge">
<title>Node5&#45;&gt;Node4</title>
<g id="a_edge6_Node000005_Node000004"><a xlink:title=" ">
<path fill="none" stroke="#63b8ff" d="M361.96,-54.35C347.19,-43.27 327.4,-28.43 315.06,-19.17"/>
<polygon fill="#63b8ff" stroke="#63b8ff" points="359.89,-57.17 369.99,-60.37 364.09,-51.57 359.89,-57.17"/>
</a>
</g>
</g>
<!-- Node6 -->
<g id="Node000006" class="node">
<title>Node6</title>
<g id="a_Node000006"><a xlink:href="../../df/d0a/main_8cpp.html" target="_top" xlink:title=" ">
<polygon fill="white" stroke="#666666" points="438.5,-19 376.5,-19 376.5,0 438.5,0 438.5,-19"/>
<text text-anchor="middle" x="407.5" y="-7" font-family="Helvetica,sans-Serif" font-size="10.00">main.cpp</text>
</a>
</g>
</g>
<!-- Node5&#45;&gt;Node6 -->
<g id="edge5_Node000005_Node000006" class="edge">
<title>Node5&#45;&gt;Node6</title>
<g id="a_edge5_Node000005_Node000006"><a xlink:title=" ">
<path fill="none" stroke="#63b8ff" d="M389.43,-51.15C394.15,-40.54 399.92,-27.56 403.65,-19.17"/>
<polygon fill="#63b8ff" stroke="#63b8ff" points="386.2,-49.81 385.34,-60.37 392.6,-52.65 386.2,-49.81"/>
</a>
</g>
</g>
</g>
</svg>
