<?xml version="1.0" encoding="UTF-8" standalone="no"?>
<!DOCTYPE svg PUBLIC "-//W3C//DTD SVG 1.1//EN"
 "http://www.w3.org/Graphics/SVG/1.1/DTD/svg11.dtd">
<!-- Generated by graphviz version 2.43.0 (0)
 -->
<!-- Title: data_objects/product_data.h Pages: 1 -->
<svg width="323pt" height="214pt"
 viewBox="0.00 0.00 322.80 214.00" xmlns="http://www.w3.org/2000/svg" xmlns:xlink="http://www.w3.org/1999/xlink">
<g id="graph0" class="graph" transform="scale(1 1) rotate(0) translate(4 210)">
<title>data_objects/product_data.h</title>
<!-- Node1 -->
<g id="Node000001" class="node">
<title>Node1</title>
<g id="a_Node000001"><a xlink:title=" ">
<polygon fill="#999999" stroke="#666666" points="166.5,-206 47.5,-206 47.5,-176 166.5,-176 166.5,-206"/>
<text text-anchor="start" x="55.5" y="-194" font-family="Helvetica,sans-Serif" font-size="10.00">data_objects/product</text>
<text text-anchor="middle" x="107" y="-183" font-family="Helvetica,sans-Serif" font-size="10.00">_data.h</text>
</a>
</g>
</g>
<!-- Node2 -->
<g id="Node000002" class="node">
<title>Node2</title>
<g id="a_Node000002"><a xlink:href="../../da/ddf/invoice__data_8h.html" target="_top" xlink:title=" ">
<polygon fill="white" stroke="#666666" points="165.5,-140 48.5,-140 48.5,-110 165.5,-110 165.5,-140"/>
<text text-anchor="start" x="56.5" y="-128" font-family="Helvetica,sans-Serif" font-size="10.00">data_objects/invoice</text>
<text text-anchor="middle" x="107" y="-117" font-family="Helvetica,sans-Serif" font-size="10.00">_data.h</text>
</a>
</g>
</g>
<!-- Node1&#45;&gt;Node2 -->
<g id="edge1_Node000001_Node000002" class="edge">
<title>Node1&#45;&gt;Node2</title>
<g id="a_edge1_Node000001_Node000002"><a xlink:title=" ">
<path fill="none" stroke="#63b8ff" d="M107,-165.54C107,-156.96 107,-147.61 107,-140.16"/>
<polygon fill="#63b8ff" stroke="#63b8ff" points="103.5,-165.8 107,-175.8 110.5,-165.8 103.5,-165.8"/>
</a>
</g>
</g>
<!-- Node5 -->
<g id="Node000005" class="node">
<title>Node5</title>
<g id="a_Node000005"><a xlink:href="../../d8/dd9/mainwindow_8cpp.html" target="_top" xlink:title=" ">
<polygon fill="white" stroke="#666666" points="110,-19 0,-19 0,0 110,0 110,-19"/>
<text text-anchor="middle" x="55" y="-7" font-family="Helvetica,sans-Serif" font-size="10.00">ui/mainwindow.cpp</text>
</a>
</g>
</g>
<!-- Node1&#45;&gt;Node5 -->
<g id="edge9_Node000001_Node000005" class="edge">
<title>Node1&#45;&gt;Node5</title>
<g id="a_edge9_Node000001_Node000005"><a xlink:title=" ">
<path fill="none" stroke="#63b8ff" d="M67.82,-170.44C56.41,-162.64 45.33,-152.5 39,-140 18.14,-98.76 40.68,-41.01 50.71,-19.25"/>
<polygon fill="#63b8ff" stroke="#63b8ff" points="66.21,-173.56 76.54,-175.94 69.95,-167.64 66.21,-173.56"/>
</a>
</g>
</g>
<!-- Node6 -->
<g id="Node000006" class="node">
<title>Node6</title>
<g id="a_Node000006"><a xlink:href="../../d2/d5a/product__table_8h.html" target="_top" xlink:title=" ">
<polygon fill="white" stroke="#666666" points="297.5,-134.5 186.5,-134.5 186.5,-115.5 297.5,-115.5 297.5,-134.5"/>
<text text-anchor="middle" x="242" y="-122.5" font-family="Helvetica,sans-Serif" font-size="10.00">pdf/product_table.h</text>
</a>
</g>
</g>
<!-- Node1&#45;&gt;Node6 -->
<g id="edge6_Node000001_Node000006" class="edge">
<title>Node1&#45;&gt;Node6</title>
<g id="a_edge6_Node000001_Node000006"><a xlink:title=" ">
<path fill="none" stroke="#63b8ff" d="M145.77,-171.62C171.53,-159.41 204.16,-143.94 224.03,-134.52"/>
<polygon fill="#63b8ff" stroke="#63b8ff" points="144.16,-168.51 136.63,-175.95 147.16,-174.83 144.16,-168.51"/>
</a>
</g>
</g>
<!-- Node3 -->
<g id="Node000003" class="node">
<title>Node3</title>
<g id="a_Node000003"><a xlink:href="../../d7/de6/invoice_8h.html" target="_top" xlink:title=" ">
<polygon fill="white" stroke="#666666" points="163,-74 83,-74 83,-55 163,-55 163,-74"/>
<text text-anchor="middle" x="123" y="-62" font-family="Helvetica,sans-Serif" font-size="10.00">pdf/invoice.h</text>
</a>
</g>
</g>
<!-- Node2&#45;&gt;Node3 -->
<g id="edge2_Node000002_Node000003" class="edge">
<title>Node2&#45;&gt;Node3</title>
<g id="a_edge2_Node000002_Node000003"><a xlink:title=" ">
<path fill="none" stroke="#63b8ff" d="M113.55,-100.04C116.05,-90.93 118.73,-81.1 120.6,-74.27"/>
<polygon fill="#63b8ff" stroke="#63b8ff" points="110.14,-99.27 110.87,-109.84 116.89,-101.12 110.14,-99.27"/>
</a>
</g>
</g>
<!-- Node2&#45;&gt;Node5 -->
<g id="edge5_Node000002_Node000005" class="edge">
<title>Node2&#45;&gt;Node5</title>
<g id="a_edge5_Node000002_Node000005"><a xlink:title=" ">
<path fill="none" stroke="#63b8ff" d="M90.06,-101.39C84.39,-93.09 78.4,-83.41 74,-74 65.23,-55.23 59.4,-31.46 56.71,-19"/>
<polygon fill="#63b8ff" stroke="#63b8ff" points="87.36,-103.64 95.99,-109.79 93.08,-99.6 87.36,-103.64"/>
</a>
</g>
</g>
<!-- Node4 -->
<g id="Node000004" class="node">
<title>Node4</title>
<g id="a_Node000004"><a xlink:href="../../d1/dfb/invoice_8cpp.html" target="_top" xlink:title=" ">
<polygon fill="white" stroke="#666666" points="297.5,-19 206.5,-19 206.5,0 297.5,0 297.5,-19"/>
<text text-anchor="middle" x="252" y="-7" font-family="Helvetica,sans-Serif" font-size="10.00">pdf/invoice.cpp</text>
</a>
</g>
</g>
<!-- Node3&#45;&gt;Node4 -->
<g id="edge3_Node000003_Node000004" class="edge">
<title>Node3&#45;&gt;Node4</title>
<g id="a_edge3_Node000003_Node000004"><a xlink:title=" ">
<path fill="none" stroke="#63b8ff" d="M153.04,-51.16C176.92,-41.35 209.72,-27.87 230.9,-19.17"/>
<polygon fill="#63b8ff" stroke="#63b8ff" points="151.65,-47.95 143.73,-54.98 154.31,-54.42 151.65,-47.95"/>
</a>
</g>
</g>
<!-- Node3&#45;&gt;Node5 -->
<g id="edge4_Node000003_Node000005" class="edge">
<title>Node3&#45;&gt;Node5</title>
<g id="a_edge4_Node000003_Node000005"><a xlink:title=" ">
<path fill="none" stroke="#63b8ff" d="M103.88,-48.6C91.7,-39.11 76.34,-27.13 66.12,-19.17"/>
<polygon fill="#63b8ff" stroke="#63b8ff" points="102.04,-51.6 112.07,-54.98 106.34,-46.08 102.04,-51.6"/>
</a>
</g>
</g>
<!-- Node6&#45;&gt;Node4 -->
<g id="edge7_Node000006_Node000004" class="edge">
<title>Node6&#45;&gt;Node4</title>
<g id="a_edge7_Node000006_Node000004"><a xlink:title=" ">
<path fill="none" stroke="#63b8ff" d="M272.1,-110.84C287,-102.59 303.57,-90.39 312,-74 323.94,-50.8 292.75,-30.11 271,-19.03"/>
<polygon fill="#63b8ff" stroke="#63b8ff" points="270.41,-107.77 263.13,-115.47 273.62,-114 270.41,-107.77"/>
</a>
</g>
</g>
<!-- Node7 -->
<g id="Node000007" class="node">
<title>Node7</title>
<g id="a_Node000007"><a xlink:href="../../d8/d27/product__table_8cpp.html" target="_top" xlink:title=" ">
<polygon fill="white" stroke="#666666" points="303,-74 181,-74 181,-55 303,-55 303,-74"/>
<text text-anchor="middle" x="242" y="-62" font-family="Helvetica,sans-Serif" font-size="10.00">pdf/product_table.cpp</text>
</a>
</g>
</g>
<!-- Node6&#45;&gt;Node7 -->
<g id="edge8_Node000006_Node000007" class="edge">
<title>Node6&#45;&gt;Node7</title>
<g id="a_edge8_Node000006_Node000007"><a xlink:title=" ">
<path fill="none" stroke="#63b8ff" d="M242,-105.16C242,-94.74 242,-82.3 242,-74.17"/>
<polygon fill="#63b8ff" stroke="#63b8ff" points="238.5,-105.37 242,-115.37 245.5,-105.37 238.5,-105.37"/>
</a>
</g>
</g>
</g>
</svg>
