<?xml version="1.0" encoding="UTF-8" standalone="no"?>
<!DOCTYPE svg PUBLIC "-//W3C//DTD SVG 1.1//EN"
 "http://www.w3.org/Graphics/SVG/1.1/DTD/svg11.dtd">
<!-- Generated by graphviz version 2.43.0 (0)
 -->
<!-- Title: MainWindow Pages: 1 -->
<svg width="533pt" height="1116pt"
 viewBox="0.00 0.00 532.50 1116.00" xmlns="http://www.w3.org/2000/svg" xmlns:xlink="http://www.w3.org/1999/xlink">
<g id="graph0" class="graph" transform="scale(1 1) rotate(0) translate(4 1112)">
<title>MainWindow</title>
<!-- Node1 -->
<g id="Node000001" class="node">
<title>Node1</title>
<g id="a_Node000001"><a xlink:title="main application window">
<polygon fill="#999999" stroke="transparent" points="369.5,-603 169.5,-603 169.5,0 369.5,0 369.5,-603"/>
<text text-anchor="start" x="237.5" y="-590.5" font-family="Helvetica,sans-Serif" font-size="10.00">MainWindow</text>
<text text-anchor="start" x="173.5" y="-575.5" font-family="Helvetica,sans-Serif" font-size="10.00">+</text>
<text text-anchor="start" x="186.5" y="-575.5" font-family="Helvetica,sans-Serif" font-size="10.00">QWidget * centralwidget</text>
<text text-anchor="start" x="173.5" y="-560.5" font-family="Helvetica,sans-Serif" font-size="10.00">+</text>
<text text-anchor="start" x="186.5" y="-560.5" font-family="Helvetica,sans-Serif" font-size="10.00">QVBoxLayout * verticalLayout</text>
<text text-anchor="start" x="173.5" y="-545.5" font-family="Helvetica,sans-Serif" font-size="10.00">+</text>
<text text-anchor="start" x="186.5" y="-545.5" font-family="Helvetica,sans-Serif" font-size="10.00">QHBoxLayout * representatives</text>
<text text-anchor="start" x="186.5" y="-534.5" font-family="Helvetica,sans-Serif" font-size="10.00">_layout</text>
<text text-anchor="start" x="173.5" y="-519.5" font-family="Helvetica,sans-Serif" font-size="10.00">+</text>
<text text-anchor="start" x="186.5" y="-519.5" font-family="Helvetica,sans-Serif" font-size="10.00">QVBoxLayout * sender</text>
<text text-anchor="start" x="186.5" y="-508.5" font-family="Helvetica,sans-Serif" font-size="10.00">_layout</text>
<text text-anchor="start" x="173.5" y="-493.5" font-family="Helvetica,sans-Serif" font-size="10.00">+</text>
<text text-anchor="start" x="186.5" y="-493.5" font-family="Helvetica,sans-Serif" font-size="10.00">QLabel * sender_label</text>
<text text-anchor="start" x="173.5" y="-478.5" font-family="Helvetica,sans-Serif" font-size="10.00">+</text>
<text text-anchor="start" x="186.5" y="-478.5" font-family="Helvetica,sans-Serif" font-size="10.00">QSpacerItem * recipients</text>
<text text-anchor="start" x="186.5" y="-467.5" font-family="Helvetica,sans-Serif" font-size="10.00">_spacer</text>
<text text-anchor="start" x="173.5" y="-452.5" font-family="Helvetica,sans-Serif" font-size="10.00">+</text>
<text text-anchor="start" x="186.5" y="-452.5" font-family="Helvetica,sans-Serif" font-size="10.00">QVBoxLayout * recipient</text>
<text text-anchor="start" x="186.5" y="-441.5" font-family="Helvetica,sans-Serif" font-size="10.00">_layout</text>
<text text-anchor="start" x="173.5" y="-426.5" font-family="Helvetica,sans-Serif" font-size="10.00">+</text>
<text text-anchor="start" x="186.5" y="-426.5" font-family="Helvetica,sans-Serif" font-size="10.00">QLabel * recipient</text>
<text text-anchor="start" x="186.5" y="-415.5" font-family="Helvetica,sans-Serif" font-size="10.00">_label</text>
<text text-anchor="start" x="173.5" y="-400.5" font-family="Helvetica,sans-Serif" font-size="10.00">+</text>
<text text-anchor="start" x="186.5" y="-400.5" font-family="Helvetica,sans-Serif" font-size="10.00">QHBoxLayout * number</text>
<text text-anchor="start" x="186.5" y="-389.5" font-family="Helvetica,sans-Serif" font-size="10.00">_date_horizontal</text>
<text text-anchor="start" x="173.5" y="-374.5" font-family="Helvetica,sans-Serif" font-size="10.00">+</text>
<text text-anchor="start" x="186.5" y="-374.5" font-family="Helvetica,sans-Serif" font-size="10.00">QLabel * footer_label</text>
<text text-anchor="start" x="173.5" y="-359.5" font-family="Helvetica,sans-Serif" font-size="10.00">+</text>
<text text-anchor="start" x="186.5" y="-359.5" font-family="Helvetica,sans-Serif" font-size="10.00">QHBoxLayout * banking</text>
<text text-anchor="start" x="186.5" y="-348.5" font-family="Helvetica,sans-Serif" font-size="10.00">_horizontal</text>
<text text-anchor="start" x="173.5" y="-333.5" font-family="Helvetica,sans-Serif" font-size="10.00">+</text>
<text text-anchor="start" x="186.5" y="-333.5" font-family="Helvetica,sans-Serif" font-size="10.00">QHBoxLayout * product</text>
<text text-anchor="start" x="186.5" y="-322.5" font-family="Helvetica,sans-Serif" font-size="10.00">_label_create_horizontal</text>
<text text-anchor="start" x="173.5" y="-307.5" font-family="Helvetica,sans-Serif" font-size="10.00">+</text>
<text text-anchor="start" x="186.5" y="-307.5" font-family="Helvetica,sans-Serif" font-size="10.00">QLabel * products_label</text>
<text text-anchor="start" x="173.5" y="-292.5" font-family="Helvetica,sans-Serif" font-size="10.00">+</text>
<text text-anchor="start" x="186.5" y="-292.5" font-family="Helvetica,sans-Serif" font-size="10.00">QListWidget * productList</text>
<text text-anchor="start" x="173.5" y="-277.5" font-family="Helvetica,sans-Serif" font-size="10.00">+</text>
<text text-anchor="start" x="186.5" y="-277.5" font-family="Helvetica,sans-Serif" font-size="10.00">QPushButton * add_product</text>
<text text-anchor="start" x="186.5" y="-266.5" font-family="Helvetica,sans-Serif" font-size="10.00">_button</text>
<text text-anchor="start" x="173.5" y="-251.5" font-family="Helvetica,sans-Serif" font-size="10.00">+</text>
<text text-anchor="start" x="186.5" y="-251.5" font-family="Helvetica,sans-Serif" font-size="10.00">QSpacerItem * add_product</text>
<text text-anchor="start" x="186.5" y="-240.5" font-family="Helvetica,sans-Serif" font-size="10.00">_button_space_right</text>
<text text-anchor="start" x="173.5" y="-225.5" font-family="Helvetica,sans-Serif" font-size="10.00">+</text>
<text text-anchor="start" x="186.5" y="-225.5" font-family="Helvetica,sans-Serif" font-size="10.00">QHBoxLayout * generate</text>
<text text-anchor="start" x="186.5" y="-214.5" font-family="Helvetica,sans-Serif" font-size="10.00">_invoice_button_center</text>
<text text-anchor="start" x="186.5" y="-203.5" font-family="Helvetica,sans-Serif" font-size="10.00">_layout</text>
<text text-anchor="start" x="173.5" y="-188.5" font-family="Helvetica,sans-Serif" font-size="10.00">+</text>
<text text-anchor="start" x="186.5" y="-188.5" font-family="Helvetica,sans-Serif" font-size="10.00">QSpacerItem * generate</text>
<text text-anchor="start" x="186.5" y="-177.5" font-family="Helvetica,sans-Serif" font-size="10.00">_invoice_button_space_left</text>
<text text-anchor="start" x="173.5" y="-162.5" font-family="Helvetica,sans-Serif" font-size="10.00">+</text>
<text text-anchor="start" x="186.5" y="-162.5" font-family="Helvetica,sans-Serif" font-size="10.00">QPushButton * generate</text>
<text text-anchor="start" x="186.5" y="-151.5" font-family="Helvetica,sans-Serif" font-size="10.00">_invoice_button</text>
<text text-anchor="start" x="173.5" y="-136.5" font-family="Helvetica,sans-Serif" font-size="10.00">+</text>
<text text-anchor="start" x="186.5" y="-136.5" font-family="Helvetica,sans-Serif" font-size="10.00">QSpacerItem * generate</text>
<text text-anchor="start" x="186.5" y="-125.5" font-family="Helvetica,sans-Serif" font-size="10.00">_invoice_button_space_right</text>
<text text-anchor="start" x="173.5" y="-110.5" font-family="Helvetica,sans-Serif" font-size="10.00">+</text>
<text text-anchor="start" x="186.5" y="-110.5" font-family="Helvetica,sans-Serif" font-size="10.00">MainWindow(QWidget</text>
<text text-anchor="start" x="186.5" y="-99.5" font-family="Helvetica,sans-Serif" font-size="10.00"> *parent=nullptr)</text>
<text text-anchor="start" x="176" y="-84.5" font-family="Helvetica,sans-Serif" font-size="10.00">&#45;</text>
<text text-anchor="start" x="186.5" y="-84.5" font-family="Helvetica,sans-Serif" font-size="10.00">std::list&lt; std::string</text>
<text text-anchor="start" x="186.5" y="-73.5" font-family="Helvetica,sans-Serif" font-size="10.00"> &gt; checkForMissingFields</text>
<text text-anchor="start" x="186.5" y="-62.5" font-family="Helvetica,sans-Serif" font-size="10.00">() const</text>
<text text-anchor="start" x="176" y="-47.5" font-family="Helvetica,sans-Serif" font-size="10.00">&#45;</text>
<text text-anchor="start" x="186.5" y="-47.5" font-family="Helvetica,sans-Serif" font-size="10.00">void addProductWidget()</text>
<text text-anchor="start" x="176" y="-32.5" font-family="Helvetica,sans-Serif" font-size="10.00">&#45;</text>
<text text-anchor="start" x="186.5" y="-32.5" font-family="Helvetica,sans-Serif" font-size="10.00">void removeProductWidget</text>
<text text-anchor="start" x="186.5" y="-21.5" font-family="Helvetica,sans-Serif" font-size="10.00">(const productWidget *widget) const</text>
<text text-anchor="start" x="176" y="-6.5" font-family="Helvetica,sans-Serif" font-size="10.00">&#45;</text>
<text text-anchor="start" x="186.5" y="-6.5" font-family="Helvetica,sans-Serif" font-size="10.00">void generateInvoice()</text>
<polygon fill="#666666" stroke="#666666" points="169.5,-585.5 169.5,-585.5 369.5,-585.5 369.5,-585.5 169.5,-585.5"/>
<polygon fill="#666666" stroke="#666666" points="169.5,-120.5 169.5,-120.5 184.5,-120.5 184.5,-120.5 169.5,-120.5"/>
<polygon fill="#666666" stroke="#666666" points="184.5,-120.5 184.5,-120.5 369.5,-120.5 369.5,-120.5 184.5,-120.5"/>
<polygon fill="none" stroke="#666666" points="169.5,0 169.5,-603 369.5,-603 369.5,0 169.5,0"/>
</a>
</g>
</g>
<!-- Node2 -->
<g id="Node000002" class="node">
<title>Node2</title>
<g id="a_Node000002"><a xlink:title=" ">
<polygon fill="white" stroke="transparent" points="81,-747 0,-747 0,-698 81,-698 81,-747"/>
<text text-anchor="start" x="5.5" y="-734.5" font-family="Helvetica,sans-Serif" font-size="10.00">QMainWindow</text>
<text text-anchor="start" x="39" y="-719.5" font-family="Helvetica,sans-Serif" font-size="10.00"> </text>
<text text-anchor="start" x="39" y="-704.5" font-family="Helvetica,sans-Serif" font-size="10.00"> </text>
<polygon fill="#666666" stroke="#666666" points="0.5,-729.5 0.5,-729.5 81.5,-729.5 81.5,-729.5 0.5,-729.5"/>
<polygon fill="#666666" stroke="#666666" points="0.5,-714.5 0.5,-714.5 81.5,-714.5 81.5,-714.5 0.5,-714.5"/>
<polygon fill="none" stroke="#666666" points="0,-698 0,-747 81,-747 81,-698 0,-698"/>
</a>
</g>
</g>
<!-- Node2&#45;&gt;Node1 -->
<g id="edge1_Node000001_Node000002" class="edge">
<title>Node2&#45;&gt;Node1</title>
<g id="a_edge1_Node000001_Node000002"><a xlink:title=" ">
<path fill="none" stroke="#63b8ff" d="M58.29,-688.96C82.38,-644.87 127.25,-562.77 169.46,-485.55"/>
<polygon fill="none" stroke="#63b8ff" points="55.19,-687.32 53.47,-697.77 61.34,-690.68 55.19,-687.32"/>
</a>
</g>
</g>
<!-- Node3 -->
<g id="Node000003" class="node">
<title>Node3</title>
<g id="a_Node000003"><a xlink:href="../../d0/d49/classrepresentativeWidget.html" target="_top" xlink:title="the respective widget for entering representative data">
<polygon fill="white" stroke="transparent" points="269.5,-784 99.5,-784 99.5,-661 269.5,-661 269.5,-784"/>
<text text-anchor="start" x="131.5" y="-771.5" font-family="Helvetica,sans-Serif" font-size="10.00">representativeWidget</text>
<text text-anchor="start" x="103.5" y="-756.5" font-family="Helvetica,sans-Serif" font-size="10.00">+</text>
<text text-anchor="start" x="116.5" y="-756.5" font-family="Helvetica,sans-Serif" font-size="10.00">QVBoxLayout * representative</text>
<text text-anchor="start" x="116.5" y="-745.5" font-family="Helvetica,sans-Serif" font-size="10.00">_layout</text>
<text text-anchor="start" x="103.5" y="-730.5" font-family="Helvetica,sans-Serif" font-size="10.00">+</text>
<text text-anchor="start" x="116.5" y="-730.5" font-family="Helvetica,sans-Serif" font-size="10.00">QHBoxLayout * street</text>
<text text-anchor="start" x="116.5" y="-719.5" font-family="Helvetica,sans-Serif" font-size="10.00">_house_horizontal</text>
<text text-anchor="start" x="103.5" y="-704.5" font-family="Helvetica,sans-Serif" font-size="10.00">+</text>
<text text-anchor="start" x="116.5" y="-704.5" font-family="Helvetica,sans-Serif" font-size="10.00">QHBoxLayout * zip_city</text>
<text text-anchor="start" x="116.5" y="-693.5" font-family="Helvetica,sans-Serif" font-size="10.00">_horizontal</text>
<text text-anchor="start" x="103.5" y="-678.5" font-family="Helvetica,sans-Serif" font-size="10.00">+</text>
<text text-anchor="start" x="116.5" y="-678.5" font-family="Helvetica,sans-Serif" font-size="10.00">representativeWidget</text>
<text text-anchor="start" x="116.5" y="-667.5" font-family="Helvetica,sans-Serif" font-size="10.00">(QWidget *parent=nullptr)</text>
<polygon fill="#666666" stroke="#666666" points="99.5,-766.5 99.5,-766.5 269.5,-766.5 269.5,-766.5 99.5,-766.5"/>
<polygon fill="#666666" stroke="#666666" points="99.5,-688.5 99.5,-688.5 114.5,-688.5 114.5,-688.5 99.5,-688.5"/>
<polygon fill="#666666" stroke="#666666" points="114.5,-688.5 114.5,-688.5 269.5,-688.5 269.5,-688.5 114.5,-688.5"/>
<polygon fill="none" stroke="#666666" points="99.5,-661 99.5,-784 269.5,-784 269.5,-661 99.5,-661"/>
</a>
</g>
</g>
<!-- Node3&#45;&gt;Node1 -->
<g id="edge2_Node000001_Node000003" class="edge">
<title>Node3&#45;&gt;Node1</title>
<g id="a_edge2_Node000001_Node000003"><a xlink:title=" ">
<path fill="none" stroke="#63b8ff" d="M196.86,-660.57C199.6,-647.06 202.69,-631.84 206,-615.51"/>
<polygon fill="none" stroke="#63b8ff" points="206.07,-615.18 203.34,-608.51 208.45,-603.42 211.18,-610.1 206.07,-615.18"/>
</a>
</g>
<text text-anchor="middle" x="231" y="-635" font-family="Helvetica,sans-Serif" font-size="10.00" fill="grey"> +recipient</text>
<text text-anchor="middle" x="231" y="-624" font-family="Helvetica,sans-Serif" font-size="10.00" fill="grey">+sender</text>
</g>
<!-- Node4 -->
<g id="Node000004" class="node">
<title>Node4</title>
<g id="a_Node000004"><a xlink:title=" ">
<polygon fill="white" stroke="transparent" points="321,-1108 268,-1108 268,-1059 321,-1059 321,-1108"/>
<text text-anchor="start" x="273.5" y="-1095.5" font-family="Helvetica,sans-Serif" font-size="10.00">QWidget</text>
<text text-anchor="start" x="293" y="-1080.5" font-family="Helvetica,sans-Serif" font-size="10.00"> </text>
<text text-anchor="start" x="293" y="-1065.5" font-family="Helvetica,sans-Serif" font-size="10.00"> </text>
<polygon fill="#666666" stroke="#666666" points="268.5,-1090.5 268.5,-1090.5 321.5,-1090.5 321.5,-1090.5 268.5,-1090.5"/>
<polygon fill="#666666" stroke="#666666" points="268.5,-1075.5 268.5,-1075.5 321.5,-1075.5 321.5,-1075.5 268.5,-1075.5"/>
<polygon fill="none" stroke="#666666" points="268,-1059 268,-1108 321,-1108 321,-1059 268,-1059"/>
</a>
</g>
</g>
<!-- Node4&#45;&gt;Node3 -->
<g id="edge3_Node000003_Node000004" class="edge">
<title>Node4&#45;&gt;Node3</title>
<g id="a_edge3_Node000003_Node000004"><a xlink:title=" ">
<path fill="none" stroke="#63b8ff" d="M259.02,-1065.77C241.5,-1055.62 221.76,-1040.95 210.5,-1022 167.2,-949.1 168.5,-848.02 175.16,-784.2"/>
<polygon fill="none" stroke="#63b8ff" points="257.47,-1068.92 267.92,-1070.67 260.85,-1062.78 257.47,-1068.92"/>
</a>
</g>
</g>
<!-- Node5 -->
<g id="Node000005" class="node">
<title>Node5</title>
<g id="a_Node000005"><a xlink:href="../../d2/da6/classtextInputWidget.html" target="_top" xlink:title="a Widget containing a label and a text input below">
<polygon fill="white" stroke="transparent" points="369.5,-1022 219.5,-1022 219.5,-921 369.5,-921 369.5,-1022"/>
<text text-anchor="start" x="255" y="-1009.5" font-family="Helvetica,sans-Serif" font-size="10.00">textInputWidget</text>
<text text-anchor="start" x="223.5" y="-994.5" font-family="Helvetica,sans-Serif" font-size="10.00">+</text>
<text text-anchor="start" x="236.5" y="-994.5" font-family="Helvetica,sans-Serif" font-size="10.00">QVBoxLayout * layout</text>
<text text-anchor="start" x="223.5" y="-979.5" font-family="Helvetica,sans-Serif" font-size="10.00">+</text>
<text text-anchor="start" x="236.5" y="-979.5" font-family="Helvetica,sans-Serif" font-size="10.00">QLabel * label</text>
<text text-anchor="start" x="223.5" y="-964.5" font-family="Helvetica,sans-Serif" font-size="10.00">+</text>
<text text-anchor="start" x="236.5" y="-964.5" font-family="Helvetica,sans-Serif" font-size="10.00">QLineEdit * input</text>
<text text-anchor="start" x="223.5" y="-949.5" font-family="Helvetica,sans-Serif" font-size="10.00">+</text>
<text text-anchor="start" x="236.5" y="-949.5" font-family="Helvetica,sans-Serif" font-size="10.00">textInputWidget(const</text>
<text text-anchor="start" x="236.5" y="-938.5" font-family="Helvetica,sans-Serif" font-size="10.00"> QString &amp;inputLabel,</text>
<text text-anchor="start" x="236.5" y="-927.5" font-family="Helvetica,sans-Serif" font-size="10.00"> QWidget *parent=nullptr)</text>
<polygon fill="#666666" stroke="#666666" points="219.5,-1004.5 219.5,-1004.5 369.5,-1004.5 369.5,-1004.5 219.5,-1004.5"/>
<polygon fill="#666666" stroke="#666666" points="219.5,-959.5 219.5,-959.5 234.5,-959.5 234.5,-959.5 219.5,-959.5"/>
<polygon fill="#666666" stroke="#666666" points="234.5,-959.5 234.5,-959.5 369.5,-959.5 369.5,-959.5 234.5,-959.5"/>
<polygon fill="none" stroke="#666666" points="219.5,-921 219.5,-1022 369.5,-1022 369.5,-921 219.5,-921"/>
</a>
</g>
</g>
<!-- Node4&#45;&gt;Node5 -->
<g id="edge5_Node000005_Node000004" class="edge">
<title>Node4&#45;&gt;Node5</title>
<g id="a_edge5_Node000005_Node000004"><a xlink:title=" ">
<path fill="none" stroke="#63b8ff" d="M294.5,-1048.78C294.5,-1040.41 294.5,-1031.25 294.5,-1022.29"/>
<polygon fill="none" stroke="#63b8ff" points="291,-1048.9 294.5,-1058.9 298,-1048.9 291,-1048.9"/>
</a>
</g>
</g>
<!-- Node6 -->
<g id="Node000006" class="node">
<title>Node6</title>
<g id="a_Node000006"><a xlink:href="../../d3/da4/classdateInputWidget.html" target="_top" xlink:title="a Widget containing a label and a datepicker below">
<polygon fill="white" stroke="transparent" points="486.5,-903 336.5,-903 336.5,-802 486.5,-802 486.5,-903"/>
<text text-anchor="start" x="370.5" y="-890.5" font-family="Helvetica,sans-Serif" font-size="10.00">dateInputWidget</text>
<text text-anchor="start" x="340.5" y="-875.5" font-family="Helvetica,sans-Serif" font-size="10.00">+</text>
<text text-anchor="start" x="353.5" y="-875.5" font-family="Helvetica,sans-Serif" font-size="10.00">QVBoxLayout * layout</text>
<text text-anchor="start" x="340.5" y="-860.5" font-family="Helvetica,sans-Serif" font-size="10.00">+</text>
<text text-anchor="start" x="353.5" y="-860.5" font-family="Helvetica,sans-Serif" font-size="10.00">QLabel * label</text>
<text text-anchor="start" x="340.5" y="-845.5" font-family="Helvetica,sans-Serif" font-size="10.00">+</text>
<text text-anchor="start" x="353.5" y="-845.5" font-family="Helvetica,sans-Serif" font-size="10.00">QDateEdit * input</text>
<text text-anchor="start" x="340.5" y="-830.5" font-family="Helvetica,sans-Serif" font-size="10.00">+</text>
<text text-anchor="start" x="353.5" y="-830.5" font-family="Helvetica,sans-Serif" font-size="10.00">dateInputWidget(const</text>
<text text-anchor="start" x="353.5" y="-819.5" font-family="Helvetica,sans-Serif" font-size="10.00"> QString &amp;inputLabel,</text>
<text text-anchor="start" x="353.5" y="-808.5" font-family="Helvetica,sans-Serif" font-size="10.00"> QWidget *parent=nullptr)</text>
<polygon fill="#666666" stroke="#666666" points="336.5,-885.5 336.5,-885.5 486.5,-885.5 486.5,-885.5 336.5,-885.5"/>
<polygon fill="#666666" stroke="#666666" points="336.5,-840.5 336.5,-840.5 351.5,-840.5 351.5,-840.5 336.5,-840.5"/>
<polygon fill="#666666" stroke="#666666" points="351.5,-840.5 351.5,-840.5 486.5,-840.5 486.5,-840.5 351.5,-840.5"/>
<polygon fill="none" stroke="#666666" points="336.5,-802 336.5,-903 486.5,-903 486.5,-802 336.5,-802"/>
</a>
</g>
</g>
<!-- Node4&#45;&gt;Node6 -->
<g id="edge8_Node000006_Node000004" class="edge">
<title>Node4&#45;&gt;Node6</title>
<g id="a_edge8_Node000006_Node000004"><a xlink:title=" ">
<path fill="none" stroke="#63b8ff" d="M329.82,-1065.24C347.11,-1055.01 366.69,-1040.43 378.5,-1022 401.26,-986.49 408.94,-938.75 411.26,-903.16"/>
<polygon fill="none" stroke="#63b8ff" points="328.04,-1062.23 321.04,-1070.19 331.47,-1068.33 328.04,-1062.23"/>
</a>
</g>
</g>
<!-- Node5&#45;&gt;Node1 -->
<g id="edge6_Node000001_Node000005" class="edge">
<title>Node5&#45;&gt;Node1</title>
<g id="a_edge6_Node000001_Node000005"><a xlink:title=" ">
<path fill="none" stroke="#63b8ff" d="M293.96,-920.72C293.51,-887.17 292.73,-841.92 291.5,-802 289.64,-741.71 287.16,-677.34 284.55,-615.56"/>
<polygon fill="none" stroke="#63b8ff" points="284.53,-615.23 280.28,-609.4 284.02,-603.24 288.28,-609.06 284.53,-615.23"/>
</a>
</g>
<text text-anchor="middle" x="335" y="-742" font-family="Helvetica,sans-Serif" font-size="10.00" fill="grey"> +bic</text>
<text text-anchor="middle" x="335" y="-731" font-family="Helvetica,sans-Serif" font-size="10.00" fill="grey">+iban</text>
<text text-anchor="middle" x="335" y="-720" font-family="Helvetica,sans-Serif" font-size="10.00" fill="grey">+invoice_number</text>
<text text-anchor="middle" x="335" y="-709" font-family="Helvetica,sans-Serif" font-size="10.00" fill="grey">+invoice_title</text>
<text text-anchor="middle" x="335" y="-698" font-family="Helvetica,sans-Serif" font-size="10.00" fill="grey">+tax_number</text>
</g>
<!-- Node5&#45;&gt;Node3 -->
<g id="edge4_Node000003_Node000005" class="edge">
<title>Node5&#45;&gt;Node3</title>
<g id="a_edge4_Node000003_Node000005"><a xlink:title=" ">
<path fill="none" stroke="#63b8ff" d="M228.31,-920.82C223.45,-915.23 219.07,-909.27 215.5,-903 205.18,-884.86 197.26,-837.72 192.01,-796.3"/>
<polygon fill="none" stroke="#63b8ff" points="191.99,-796.15 187.29,-790.68 190.53,-784.24 195.23,-789.71 191.99,-796.15"/>
</a>
</g>
<text text-anchor="middle" x="253.5" y="-872" font-family="Helvetica,sans-Serif" font-size="10.00" fill="grey"> +city</text>
<text text-anchor="middle" x="253.5" y="-861" font-family="Helvetica,sans-Serif" font-size="10.00" fill="grey">+housenumber</text>
<text text-anchor="middle" x="253.5" y="-850" font-family="Helvetica,sans-Serif" font-size="10.00" fill="grey">+name</text>
<text text-anchor="middle" x="253.5" y="-839" font-family="Helvetica,sans-Serif" font-size="10.00" fill="grey">+street</text>
<text text-anchor="middle" x="253.5" y="-828" font-family="Helvetica,sans-Serif" font-size="10.00" fill="grey">+zipcode</text>
</g>
<!-- Node6&#45;&gt;Node1 -->
<g id="edge7_Node000001_Node000006" class="edge">
<title>Node6&#45;&gt;Node1</title>
<g id="a_edge7_Node000001_Node000006"><a xlink:title=" ">
<path fill="none" stroke="#63b8ff" d="M411.13,-801.65C409.99,-762.92 406.51,-708.05 396.5,-661 390.23,-631.51 382.15,-601.13 373.12,-571.12"/>
<polygon fill="none" stroke="#63b8ff" points="373.12,-571.11 367.54,-566.54 369.61,-559.64 375.19,-564.21 373.12,-571.11"/>
</a>
</g>
<text text-anchor="middle" x="467" y="-720" font-family="Helvetica,sans-Serif" font-size="10.00" fill="grey"> +invoice_service_date</text>
</g>
</g>
</svg>
