<?xml version="1.0" encoding="UTF-8" standalone="no"?>
<!DOCTYPE svg PUBLIC "-//W3C//DTD SVG 1.1//EN"
 "http://www.w3.org/Graphics/SVG/1.1/DTD/svg11.dtd">
<!-- Generated by graphviz version 2.43.0 (0)
 -->
<!-- Title: Invoice::generate Pages: 1 -->
<!--zoomable 292 -->

<svg id="main" version="1.1" xmlns="http://www.w3.org/2000/svg" xmlns:xlink="http://www.w3.org/1999/xlink" xml:space="preserve" onload="init(evt)">

<style type="text/css"><![CDATA[
.node, .edge {opacity: 0.7;}
.node.selected, .edge.selected {opacity: 1;}
.edge:hover path { stroke: red; }
.edge:hover polygon { stroke: red; fill: red; }
]]></style>

<defs>
  <circle id="rim" cx="0" cy="0" r="7"/>
  <circle id="rim2" cx="0" cy="0" r="3.5"/>
  <g id="zoomPlus">
    <use xlink:href="#rim" fill="#404040"><set attributeName="fill" to="#808080" begin="zoomplus.mouseover" end="zoomplus.mouseout"/></use>
    <path d="M-4,0h8M0,-4v8" fill="none" stroke="white" stroke-width="1.5" pointer-events="none"/>
  </g>
  <g id="zoomMin">
    <use xlink:href="#rim" fill="#404040"><set attributeName="fill" to="#808080" begin="zoomminus.mouseover" end="zoomminus.mouseout"/></use>
    <path d="M-4,0h8" fill="none" stroke="white" stroke-width="1.5" pointer-events="none"/>
  </g>
  <g id="arrowUp" transform="translate(30 24)">
    <use xlink:href="#rim"/>
    <path pointer-events="none" fill="none" stroke="white" stroke-width="1.5" d="M0,-3.0v7 M-2.5,-0.5L0,-3.0L2.5,-0.5"/>
  </g>
  <g id="arrowRight" transform="rotate(90) translate(36 -43)">
    <use xlink:href="#rim"/>
    <path pointer-events="none" fill="none" stroke="white" stroke-width="1.5" d="M0,-3.0v7 M-2.5,-0.5L0,-3.0L2.5,-0.5"/>
  </g>
  <g id="arrowDown" transform="rotate(180) translate(-30 -48)">
    <use xlink:href="#rim"/>
    <path pointer-events="none" fill="none" stroke="white" stroke-width="1.5" d="M0,-3.0v7 M-2.5,-0.5L0,-3.0L2.5,-0.5"/>
  </g>
  <g id="arrowLeft" transform="rotate(270) translate(-36 17)">
    <use xlink:href="#rim"/>
    <path pointer-events="none" fill="none" stroke="white" stroke-width="1.5" d="M0,-3.0v7 M-2.5,-0.5L0,-3.0L2.5,-0.5"/>
  </g>
  <g id="resetDef">
    <use xlink:href="#rim2" fill="#404040"><set attributeName="fill" to="#808080" begin="reset.mouseover" end="reset.mouseout"/></use>
  </g>
</defs>
<script type="application/ecmascript">
var viewWidth = 871;
var viewHeight = 292;
var sectionId = 'dynsection-8';
</script>
<script type="application/ecmascript" xlink:href="../../svg.min.js"/>
<svg id="graph" class="graph">
<g id="viewport">
<title>Invoice::generate</title>
<!-- Node1 -->
<g id="Node000001" class="node">
<title>Node1</title>
<g id="a_Node000001"><a xlink:title="generate a PDF invoice and save it to the users downloads folder as the invoice_number....">
<polygon fill="#999999" stroke="#666666" points="101,-172.92 0,-172.92 0,-153.92 101,-153.92 101,-172.92"/>
<text text-anchor="middle" x="50.5" y="-160.92" font-family="Helvetica,sans-Serif" font-size="10.00">Invoice::generate</text>
</a>
</g>
</g>
<!-- Node2 -->
<g id="Node000002" class="node">
<title>Node2</title>
<g id="a_Node000002"><a xlink:href="../../d0/d60/classInvoice.html#ab4acb460d577d22d5eec6a66cd36f451" target="_top" xlink:title="prints the footer on the current pdf page, excluding the page number">
<polygon fill="white" stroke="#666666" points="485.5,-210.92 348.5,-210.92 348.5,-191.92 485.5,-191.92 485.5,-210.92"/>
<text text-anchor="middle" x="417" y="-198.92" font-family="Helvetica,sans-Serif" font-size="10.00">Invoice::_generateFooter</text>
</a>
</g>
</g>
<!-- Node1&#45;&gt;Node2 -->
<g id="edge1_Node000001_Node000002" class="edge">
<title>Node1&#45;&gt;Node2</title>
<g id="a_edge1_Node000001_Node000002"><a xlink:title=" ">
<path fill="none" stroke="#63b8ff" d="M61.51,-173.04C76.48,-186.71 106.27,-211.11 137,-220.42 203.78,-240.64 224.43,-225.8 294,-220.42 314.38,-218.84 336.51,-215.8 356.26,-212.61"/>
<polygon fill="#63b8ff" stroke="#63b8ff" points="357.05,-216.02 366.34,-210.93 355.9,-209.12 357.05,-216.02"/>
</a>
</g>
</g>
<!-- Node3 -->
<g id="Node000003" class="node">
<title>Node3</title>
<g id="a_Node000003"><a xlink:href="../../d1/d5c/pdf__utils_8h.html#a8f9be0ef8bc5cfda0696a2a158d9f20c" target="_top" xlink:title="change the font and font size">
<polygon fill="white" stroke="#666666" points="659,-171.92 586,-171.92 586,-152.92 659,-152.92 659,-171.92"/>
<text text-anchor="middle" x="622.5" y="-159.92" font-family="Helvetica,sans-Serif" font-size="10.00">changeFont</text>
</a>
</g>
</g>
<!-- Node1&#45;&gt;Node3 -->
<g id="edge13_Node000001_Node000003" class="edge">
<title>Node1&#45;&gt;Node3</title>
<g id="a_edge13_Node000001_Node000003"><a xlink:title=" ">
<path fill="none" stroke="#63b8ff" d="M101.09,-163.33C210.26,-163.14 470.08,-162.68 575.69,-162.5"/>
<polygon fill="#63b8ff" stroke="#63b8ff" points="575.72,-166 585.71,-162.48 575.71,-159 575.72,-166"/>
</a>
</g>
</g>
<!-- Node5 -->
<g id="Node000005" class="node">
<title>Node5</title>
<g id="a_Node000005"><a xlink:href="../../d1/d5c/pdf__utils_8h.html#a718810ab35a6f1052271a2edb887936f" target="_top" xlink:title="write text on to the pdf at a given point">
<polygon fill="white" stroke="#666666" points="653.5,-97.92 591.5,-97.92 591.5,-78.92 653.5,-78.92 653.5,-97.92"/>
<text text-anchor="middle" x="622.5" y="-85.92" font-family="Helvetica,sans-Serif" font-size="10.00">writeText</text>
</a>
</g>
</g>
<!-- Node1&#45;&gt;Node5 -->
<g id="edge31_Node000001_Node000005" class="edge">
<title>Node1&#45;&gt;Node5</title>
<g id="a_edge31_Node000001_Node000005"><a xlink:title=" ">
<path fill="none" stroke="#63b8ff" d="M55.8,-153.75C66.16,-131.74 94.8,-78 137,-54.42 279.64,25.29 344.62,3.62 504,-32.42 538.87,-40.3 575.52,-59.83 598.42,-73.59"/>
<polygon fill="#63b8ff" stroke="#63b8ff" points="596.72,-76.65 607.07,-78.91 600.39,-70.69 596.72,-76.65"/>
</a>
</g>
</g>
<!-- Node8 -->
<g id="Node000008" class="node">
<title>Node8</title>
<g id="a_Node000008"><a xlink:href="../../d0/d60/classInvoice.html#ae366ae46961f362bc7ec30285ab90a67" target="_top" xlink:title="create a new page and add to pages list">
<polygon fill="white" stroke="#666666" points="291.5,-210.92 139.5,-210.92 139.5,-191.92 291.5,-191.92 291.5,-210.92"/>
<text text-anchor="middle" x="215.5" y="-198.92" font-family="Helvetica,sans-Serif" font-size="10.00">Invoice::_generateNewPage</text>
</a>
</g>
</g>
<!-- Node1&#45;&gt;Node8 -->
<g id="edge7_Node000001_Node000008" class="edge">
<title>Node1&#45;&gt;Node8</title>
<g id="a_edge7_Node000001_Node000008"><a xlink:title=" ">
<path fill="none" stroke="#63b8ff" d="M92.63,-173C114.24,-178.04 140.91,-184.26 163.79,-189.59"/>
<polygon fill="#63b8ff" stroke="#63b8ff" points="163.13,-193.03 173.66,-191.9 164.72,-186.22 163.13,-193.03"/>
</a>
</g>
</g>
<!-- Node9 -->
<g id="Node000009" class="node">
<title>Node9</title>
<g id="a_Node000009"><a xlink:href="../../d0/d60/classInvoice.html#a29edd9e425464d3b97e00c6da3c83a7e" target="_top" xlink:title="print page numbering on all pages">
<polygon fill="white" stroke="#666666" points="504,-60.92 330,-60.92 330,-41.92 504,-41.92 504,-60.92"/>
<text text-anchor="middle" x="417" y="-48.92" font-family="Helvetica,sans-Serif" font-size="10.00">Invoice::_generatePageNumbers</text>
</a>
</g>
</g>
<!-- Node1&#45;&gt;Node9 -->
<g id="edge9_Node000001_Node000009" class="edge">
<title>Node1&#45;&gt;Node9</title>
<g id="a_edge9_Node000001_Node000009"><a xlink:title=" ">
<path fill="none" stroke="#63b8ff" d="M60.44,-153.8C74.95,-138.85 105.21,-110.32 137,-96.42 194.55,-71.24 264.32,-59.99 319.69,-55.04"/>
<polygon fill="#63b8ff" stroke="#63b8ff" points="320.19,-58.51 329.86,-54.18 319.6,-51.53 320.19,-58.51"/>
</a>
</g>
</g>
<!-- Node11 -->
<g id="Node000011" class="node">
<title>Node11</title>
<g id="a_Node000011"><a xlink:href="../../d5/d0b/classproduct__table.html#adf1b09a9c7c79633006a53f5000f7cd6" target="_top" xlink:title="Function to automatically draw the Product table on to a given invoice page.">
<polygon fill="white" stroke="#666666" points="294,-135.42 137,-135.42 137,-105.42 294,-105.42 294,-135.42"/>
<text text-anchor="start" x="145" y="-123.42" font-family="Helvetica,sans-Serif" font-size="10.00">product_table::createProduct</text>
<text text-anchor="middle" x="215.5" y="-112.42" font-family="Helvetica,sans-Serif" font-size="10.00">Table</text>
</a>
</g>
</g>
<!-- Node1&#45;&gt;Node11 -->
<g id="edge14_Node000001_Node000011" class="edge">
<title>Node1&#45;&gt;Node11</title>
<g id="a_edge14_Node000001_Node000011"><a xlink:title=" ">
<path fill="none" stroke="#63b8ff" d="M87.67,-153.87C105.41,-149.19 127.34,-143.41 147.95,-137.97"/>
<polygon fill="#63b8ff" stroke="#63b8ff" points="148.84,-141.36 157.62,-135.42 147.05,-134.59 148.84,-141.36"/>
</a>
</g>
</g>
<!-- Node15 -->
<g id="Node000015" class="node">
<title>Node15</title>
<g id="a_Node000015"><a xlink:href="../../d5/d0b/classproduct__table.html#a7c305272f377548eb4f3d1a4f403ef59" target="_top" xlink:title="Draws the Product Table on to a given pdf page.">
<polygon fill="white" stroke="#666666" points="499,-247.92 335,-247.92 335,-228.92 499,-228.92 499,-247.92"/>
<text text-anchor="middle" x="417" y="-235.92" font-family="Helvetica,sans-Serif" font-size="10.00">product_table::createTotalRow</text>
</a>
</g>
</g>
<!-- Node1&#45;&gt;Node15 -->
<g id="edge26_Node000001_Node000015" class="edge">
<title>Node1&#45;&gt;Node15</title>
<g id="a_edge26_Node000001_Node000015"><a xlink:title=" ">
<path fill="none" stroke="#63b8ff" d="M58.38,-173.02C71.4,-190.26 101.54,-225.93 137,-239.42 211.1,-267.59 304.5,-259.33 362.22,-249.71"/>
<polygon fill="#63b8ff" stroke="#63b8ff" points="362.97,-253.13 372.22,-247.97 361.77,-246.23 362.97,-253.13"/>
</a>
</g>
</g>
<!-- Node2&#45;&gt;Node3 -->
<g id="edge2_Node000002_Node000003" class="edge">
<title>Node2&#45;&gt;Node3</title>
<g id="a_edge2_Node000002_Node000003"><a xlink:title=" ">
<path fill="none" stroke="#63b8ff" d="M467.78,-191.87C500.8,-185.55 543.81,-177.31 575.93,-171.15"/>
<polygon fill="#63b8ff" stroke="#63b8ff" points="576.79,-174.55 585.95,-169.23 575.47,-167.67 576.79,-174.55"/>
</a>
</g>
</g>
<!-- Node4 -->
<g id="Node000004" class="node">
<title>Node4</title>
<g id="a_Node000004"><a xlink:href="../../d1/d5c/pdf__utils_8h.html#ab2771327d46765d94e49f3acf8d0d539" target="_top" xlink:title="draw a line, line width needs to be set before">
<polygon fill="white" stroke="#666666" points="653,-247.92 592,-247.92 592,-228.92 653,-228.92 653,-247.92"/>
<text text-anchor="middle" x="622.5" y="-235.92" font-family="Helvetica,sans-Serif" font-size="10.00">drawLine</text>
</a>
</g>
</g>
<!-- Node2&#45;&gt;Node4 -->
<g id="edge3_Node000002_Node000004" class="edge">
<title>Node2&#45;&gt;Node4</title>
<g id="a_edge3_Node000002_Node000004"><a xlink:title=" ">
<path fill="none" stroke="#63b8ff" d="M470.41,-210.94C505.11,-217.25 549.92,-225.4 581.7,-231.18"/>
<polygon fill="#63b8ff" stroke="#63b8ff" points="581.49,-234.7 591.95,-233.04 582.74,-227.81 581.49,-234.7"/>
</a>
</g>
</g>
<!-- Node2&#45;&gt;Node5 -->
<g id="edge4_Node000002_Node000005" class="edge">
<title>Node2&#45;&gt;Node5</title>
<g id="a_edge4_Node000002_Node000005"><a xlink:title=" ">
<path fill="none" stroke="#63b8ff" d="M434.58,-191.89C452.45,-181.28 481.39,-163.16 504,-144.42 521.66,-129.77 520.02,-118.7 540,-107.42 552.5,-100.36 567.49,-95.92 581.19,-93.12"/>
<polygon fill="#63b8ff" stroke="#63b8ff" points="582.13,-96.51 591.35,-91.29 580.89,-89.62 582.13,-96.51"/>
</a>
</g>
</g>
<!-- Node6 -->
<g id="Node000006" class="node">
<title>Node6</title>
<g id="a_Node000006"><a xlink:href="../../d1/d5c/pdf__utils_8h.html#a03775da971402fe5e7cf8dbe201e3888" target="_top" xlink:title="calculates the height of a given text on the pdf">
<polygon fill="white" stroke="#666666" points="863,-189.92 741,-189.92 741,-170.92 863,-170.92 863,-189.92"/>
<text text-anchor="middle" x="802" y="-177.92" font-family="Helvetica,sans-Serif" font-size="10.00">calculate_text_height</text>
</a>
</g>
</g>
<!-- Node5&#45;&gt;Node6 -->
<g id="edge5_Node000005_Node000006" class="edge">
<title>Node5&#45;&gt;Node6</title>
<g id="a_edge5_Node000005_Node000006"><a xlink:title=" ">
<path fill="none" stroke="#63b8ff" d="M653.65,-91.29C669.7,-93.82 689.31,-98.56 705,-107.42 724.98,-118.7 723.01,-130.17 741,-144.42 751.02,-152.35 762.93,-159.84 773.49,-165.91"/>
<polygon fill="#63b8ff" stroke="#63b8ff" points="771.91,-169.04 782.35,-170.86 775.33,-162.93 771.91,-169.04"/>
</a>
</g>
</g>
<!-- Node7 -->
<g id="Node000007" class="node">
<title>Node7</title>
<g id="a_Node000007"><a xlink:href="../../d5/d60/utils_8h.html#ab750ae7075d3bd96b4e6bf46e08998fe" target="_top" xlink:title="converts a UTF8 string to ISO8859&#45;1 / ANSI using iconv">
<polygon fill="white" stroke="#666666" points="854,-134.92 750,-134.92 750,-115.92 854,-115.92 854,-134.92"/>
<text text-anchor="middle" x="802" y="-122.92" font-family="Helvetica,sans-Serif" font-size="10.00">UTF8toISO8859_1</text>
</a>
</g>
</g>
<!-- Node5&#45;&gt;Node7 -->
<g id="edge6_Node000005_Node000007" class="edge">
<title>Node5&#45;&gt;Node7</title>
<g id="a_edge6_Node000005_Node000007"><a xlink:title=" ">
<path fill="none" stroke="#63b8ff" d="M653.61,-94.69C678.67,-99.92 715.02,-107.49 745.35,-113.81"/>
<polygon fill="#63b8ff" stroke="#63b8ff" points="744.88,-117.29 755.38,-115.91 746.3,-110.44 744.88,-117.29"/>
</a>
</g>
</g>
<!-- Node8&#45;&gt;Node2 -->
<g id="edge8_Node000008_Node000002" class="edge">
<title>Node8&#45;&gt;Node2</title>
<g id="a_edge8_Node000008_Node000002"><a xlink:title=" ">
<path fill="none" stroke="#63b8ff" d="M291.64,-201.42C306.8,-201.42 322.78,-201.42 338.04,-201.42"/>
<polygon fill="#63b8ff" stroke="#63b8ff" points="338.47,-204.92 348.47,-201.42 338.47,-197.92 338.47,-204.92"/>
</a>
</g>
</g>
<!-- Node9&#45;&gt;Node3 -->
<g id="edge10_Node000009_Node000003" class="edge">
<title>Node9&#45;&gt;Node3</title>
<g id="a_edge10_Node000009_Node000003"><a xlink:title=" ">
<path fill="none" stroke="#63b8ff" d="M489.8,-60.94C494.87,-63.24 499.68,-66.03 504,-69.42 533.1,-92.22 511.03,-121.45 540,-144.42 550.12,-152.44 563.08,-157.06 575.67,-159.67"/>
<polygon fill="#63b8ff" stroke="#63b8ff" points="575.19,-163.14 585.63,-161.36 576.36,-156.24 575.19,-163.14"/>
</a>
</g>
</g>
<!-- Node9&#45;&gt;Node5 -->
<g id="edge12_Node000009_Node000005" class="edge">
<title>Node9&#45;&gt;Node5</title>
<g id="a_edge12_Node000009_Node000005"><a xlink:title=" ">
<path fill="none" stroke="#63b8ff" d="M470.41,-60.94C504.9,-67.22 549.37,-75.3 581.12,-81.07"/>
<polygon fill="#63b8ff" stroke="#63b8ff" points="580.9,-84.59 591.37,-82.94 582.15,-77.7 580.9,-84.59"/>
</a>
</g>
</g>
<!-- Node10 -->
<g id="Node000010" class="node">
<title>Node10</title>
<g id="a_Node000010"><a xlink:href="../../d5/d60/utils_8h.html#a586071aa49d37b6beb5834b949798af2" target="_top" xlink:title="converts various datatypes to string using ostringstream">
<polygon fill="white" stroke="#666666" points="644.5,-134.92 600.5,-134.92 600.5,-115.92 644.5,-115.92 644.5,-134.92"/>
<text text-anchor="middle" x="622.5" y="-122.92" font-family="Helvetica,sans-Serif" font-size="10.00">to_str</text>
</a>
</g>
</g>
<!-- Node9&#45;&gt;Node10 -->
<g id="edge11_Node000009_Node000010" class="edge">
<title>Node9&#45;&gt;Node10</title>
<g id="a_edge11_Node000009_Node000010"><a xlink:title=" ">
<path fill="none" stroke="#63b8ff" d="M484.3,-60.97C491.17,-63.22 497.87,-65.99 504,-69.42 524.31,-80.76 519.75,-95.96 540,-107.42 555.17,-116 574.07,-120.49 589.85,-122.84"/>
<polygon fill="#63b8ff" stroke="#63b8ff" points="589.83,-126.36 600.19,-124.15 590.71,-119.42 589.83,-126.36"/>
</a>
</g>
</g>
<!-- Node11&#45;&gt;Node4 -->
<g id="edge25_Node000011_Node000004" class="edge">
<title>Node11&#45;&gt;Node4</title>
<g id="a_edge25_Node000011_Node000004"><a xlink:title=" ">
<path fill="none" stroke="#63b8ff" d="M240.17,-135.54C256.84,-147.09 278.81,-164.26 294,-183.42 316.73,-212.07 298.99,-238.02 330,-257.42 411.73,-308.54 532.8,-273.27 589.73,-251.71"/>
<polygon fill="#63b8ff" stroke="#63b8ff" points="591.22,-254.89 599.27,-248 588.68,-248.37 591.22,-254.89"/>
</a>
</g>
</g>
<!-- Node12 -->
<g id="Node000012" class="node">
<title>Node12</title>
<g id="a_Node000012"><a xlink:href="../../d8/d27/product__table_8cpp.html#a15a37a94b45b36a871ebb8ebf5f36159" target="_top" xlink:title=" ">
<polygon fill="white" stroke="#666666" points="479.5,-97.92 354.5,-97.92 354.5,-78.92 479.5,-78.92 479.5,-97.92"/>
<text text-anchor="middle" x="417" y="-85.92" font-family="Helvetica,sans-Serif" font-size="10.00">_createProductHeader</text>
</a>
</g>
</g>
<!-- Node11&#45;&gt;Node12 -->
<g id="edge15_Node000011_Node000012" class="edge">
<title>Node11&#45;&gt;Node12</title>
<g id="a_edge15_Node000011_Node000012"><a xlink:title=" ">
<path fill="none" stroke="#63b8ff" d="M294.2,-107.95C311.42,-105.19 329.55,-102.28 346.42,-99.58"/>
<polygon fill="#63b8ff" stroke="#63b8ff" points="347.42,-102.96 356.74,-97.92 346.31,-96.05 347.42,-102.96"/>
</a>
</g>
</g>
<!-- Node13 -->
<g id="Node000013" class="node">
<title>Node13</title>
<g id="a_Node000013"><a xlink:href="../../d8/d27/product__table_8cpp.html#a6fead7fb5c4027b48fc26fb283e3f71f" target="_top" xlink:title=" ">
<polygon fill="white" stroke="#666666" points="472,-134.92 362,-134.92 362,-115.92 472,-115.92 472,-134.92"/>
<text text-anchor="middle" x="417" y="-122.92" font-family="Helvetica,sans-Serif" font-size="10.00">_createProductRow</text>
</a>
</g>
</g>
<!-- Node11&#45;&gt;Node13 -->
<g id="edge18_Node000011_Node000013" class="edge">
<title>Node11&#45;&gt;Node13</title>
<g id="a_edge18_Node000011_Node000013"><a xlink:title=" ">
<path fill="none" stroke="#63b8ff" d="M294.2,-122.36C313.31,-122.84 333.56,-123.35 351.94,-123.81"/>
<polygon fill="#63b8ff" stroke="#63b8ff" points="351.86,-127.31 361.94,-124.06 352.03,-120.31 351.86,-127.31"/>
</a>
</g>
</g>
<!-- Node12&#45;&gt;Node3 -->
<g id="edge16_Node000012_Node000003" class="edge">
<title>Node12&#45;&gt;Node3</title>
<g id="a_edge16_Node000012_Node000003"><a xlink:title=" ">
<path fill="none" stroke="#63b8ff" d="M479.76,-97.46C488.2,-99.99 496.52,-103.25 504,-107.42 524.04,-118.58 519.96,-133.25 540,-144.42 550.88,-150.48 563.64,-154.49 575.79,-157.16"/>
<polygon fill="#63b8ff" stroke="#63b8ff" points="575.32,-160.63 585.8,-159.1 576.65,-153.76 575.32,-160.63"/>
</a>
</g>
</g>
<!-- Node12&#45;&gt;Node5 -->
<g id="edge17_Node000012_Node000005" class="edge">
<title>Node12&#45;&gt;Node5</title>
<g id="a_edge17_Node000012_Node000005"><a xlink:title=" ">
<path fill="none" stroke="#63b8ff" d="M479.61,-88.42C512.53,-88.42 552.13,-88.42 581.12,-88.42"/>
<polygon fill="#63b8ff" stroke="#63b8ff" points="581.29,-91.92 591.29,-88.42 581.29,-84.92 581.29,-91.92"/>
</a>
</g>
</g>
<!-- Node13&#45;&gt;Node3 -->
<g id="edge19_Node000013_Node000003" class="edge">
<title>Node13&#45;&gt;Node3</title>
<g id="a_edge19_Node000013_Node000003"><a xlink:title=" ">
<path fill="none" stroke="#63b8ff" d="M470.41,-134.94C502.99,-140.87 544.49,-148.41 575.75,-154.1"/>
<polygon fill="#63b8ff" stroke="#63b8ff" points="575.46,-157.6 585.93,-155.95 576.72,-150.72 575.46,-157.6"/>
</a>
</g>
</g>
<!-- Node13&#45;&gt;Node5 -->
<g id="edge21_Node000013_Node000005" class="edge">
<title>Node13&#45;&gt;Node5</title>
<g id="a_edge21_Node000013_Node000005"><a xlink:title=" ">
<path fill="none" stroke="#63b8ff" d="M470.41,-115.89C504.9,-109.62 549.37,-101.53 581.12,-95.76"/>
<polygon fill="#63b8ff" stroke="#63b8ff" points="582.15,-99.13 591.37,-93.89 580.9,-92.24 582.15,-99.13"/>
</a>
</g>
</g>
<!-- Node13&#45;&gt;Node10 -->
<g id="edge20_Node000013_Node000010" class="edge">
<title>Node13&#45;&gt;Node10</title>
<g id="a_edge20_Node000013_Node000010"><a xlink:title=" ">
<path fill="none" stroke="#63b8ff" d="M472.27,-125.42C509.87,-125.42 558.62,-125.42 589.98,-125.42"/>
<polygon fill="#63b8ff" stroke="#63b8ff" points="590.31,-128.92 600.31,-125.42 590.31,-121.92 590.31,-128.92"/>
</a>
</g>
</g>
<!-- Node14 -->
<g id="Node000014" class="node">
<title>Node14</title>
<g id="a_Node000014"><a xlink:href="../../d1/d5c/pdf__utils_8h.html#a89f23d21ae93c3b6bc0de036965dffed" target="_top" xlink:title="write text on to the pdf at a given point when max height is not exceeded">
<polygon fill="white" stroke="#666666" points="705,-208.92 540,-208.92 540,-189.92 705,-189.92 705,-208.92"/>
<text text-anchor="middle" x="622.5" y="-196.92" font-family="Helvetica,sans-Serif" font-size="10.00">writeTextIfNotHeightExceeded</text>
</a>
</g>
</g>
<!-- Node13&#45;&gt;Node14 -->
<g id="edge22_Node000013_Node000014" class="edge">
<title>Node13&#45;&gt;Node14</title>
<g id="a_edge22_Node000013_Node000014"><a xlink:title=" ">
<path fill="none" stroke="#63b8ff" d="M435.7,-135C459.01,-147.28 501.56,-168.51 540,-181.42 546.46,-183.58 553.3,-185.56 560.16,-187.35"/>
<polygon fill="#63b8ff" stroke="#63b8ff" points="559.63,-190.82 570.18,-189.83 561.31,-184.03 559.63,-190.82"/>
</a>
</g>
</g>
<!-- Node14&#45;&gt;Node6 -->
<g id="edge23_Node000014_Node000006" class="edge">
<title>Node14&#45;&gt;Node6</title>
<g id="a_edge23_Node000014_Node000006"><a xlink:title=" ">
<path fill="none" stroke="#63b8ff" d="M705.24,-190.67C713.77,-189.75 722.4,-188.83 730.79,-187.93"/>
<polygon fill="#63b8ff" stroke="#63b8ff" points="731.33,-191.39 740.9,-186.85 730.58,-184.43 731.33,-191.39"/>
</a>
</g>
</g>
<!-- Node14&#45;&gt;Node7 -->
<g id="edge24_Node000014_Node000007" class="edge">
<title>Node14&#45;&gt;Node7</title>
<g id="a_edge24_Node000014_Node000007"><a xlink:title=" ">
<path fill="none" stroke="#63b8ff" d="M678.12,-189.82C687.24,-187.52 696.5,-184.74 705,-181.42 719.44,-175.77 753.57,-155.15 776.98,-140.58"/>
<polygon fill="#63b8ff" stroke="#63b8ff" points="779.05,-143.42 785.67,-135.14 775.34,-137.48 779.05,-143.42"/>
</a>
</g>
</g>
<!-- Node15&#45;&gt;Node3 -->
<g id="edge27_Node000015_Node000003" class="edge">
<title>Node15&#45;&gt;Node3</title>
<g id="a_edge27_Node000015_Node000003"><a xlink:title=" ">
<path fill="none" stroke="#63b8ff" d="M484.79,-228.79C491.5,-226.55 498.03,-223.8 504,-220.42 524.52,-208.78 519.61,-193.28 540,-181.42 550.79,-175.13 563.52,-170.93 575.67,-168.11"/>
<polygon fill="#63b8ff" stroke="#63b8ff" points="576.59,-171.5 585.69,-166.06 575.19,-164.64 576.59,-171.5"/>
</a>
</g>
</g>
<!-- Node15&#45;&gt;Node4 -->
<g id="edge28_Node000015_Node000004" class="edge">
<title>Node15&#45;&gt;Node4</title>
<g id="a_edge28_Node000015_Node000004"><a xlink:title=" ">
<path fill="none" stroke="#63b8ff" d="M499.01,-238.42C527.27,-238.42 557.76,-238.42 581.25,-238.42"/>
<polygon fill="#63b8ff" stroke="#63b8ff" points="581.52,-241.92 591.52,-238.42 581.52,-234.92 581.52,-241.92"/>
</a>
</g>
</g>
<!-- Node15&#45;&gt;Node10 -->
<g id="edge29_Node000015_Node000010" class="edge">
<title>Node15&#45;&gt;Node10</title>
<g id="a_edge29_Node000015_Node000010"><a xlink:title=" ">
<path fill="none" stroke="#63b8ff" d="M489.82,-228.91C494.89,-226.61 499.69,-223.81 504,-220.42 533.36,-197.28 510.91,-167.88 540,-144.42 554.01,-133.12 573.54,-128.3 589.97,-126.35"/>
<polygon fill="#63b8ff" stroke="#63b8ff" points="590.58,-129.81 600.23,-125.43 589.96,-122.83 590.58,-129.81"/>
</a>
</g>
</g>
<!-- Node15&#45;&gt;Node14 -->
<g id="edge30_Node000015_Node000014" class="edge">
<title>Node15&#45;&gt;Node14</title>
<g id="a_edge30_Node000015_Node000014"><a xlink:title=" ">
<path fill="none" stroke="#63b8ff" d="M467.78,-228.87C496.22,-223.42 532.06,-216.56 561.98,-210.82"/>
<polygon fill="#63b8ff" stroke="#63b8ff" points="562.72,-214.24 571.88,-208.92 561.4,-207.37 562.72,-214.24"/>
</a>
</g>
</g>
</g>
</svg>

<g id="navigator" transform="translate(0 0)" fill="#404254">
  <rect fill="#f2f5e9" fill-opacity="0.5" stroke="#606060" stroke-width=".5" x="0" y="0" width="60" height="60"/>
  <use id="zoomplus" xlink:href="#zoomPlus" x="17" y="9" onmousedown="handleZoom(evt,'in')"/>
  <use id="zoomminus" xlink:href="#zoomMin" x="42" y="9" onmousedown="handleZoom(evt,'out')"/>
  <use id="reset" xlink:href="#resetDef" x="30" y="36" onmousedown="handleReset()"/>
   <use id="arrowup" xlink:href="#arrowUp" x="0" y="0" onmousedown="handlePan(0,-1)"/>
  <use id="arrowright" xlink:href="#arrowRight" x="0" y="0" onmousedown="handlePan(1,0)"/>
  <use id="arrowdown" xlink:href="#arrowDown" x="0" y="0" onmousedown="handlePan(0,1)"/>
  <use id="arrowleft" xlink:href="#arrowLeft" x="0" y="0" onmousedown="handlePan(-1,0)"/>
</g>
<svg viewBox="0 0 15 15" width="100%" height="30px" preserveAspectRatio="xMaxYMin meet">
 <g id="arrow_out" transform="scale(0.3 0.3)">
  <a xlink:href="classInvoice_a48f0228b01b24ea6c4db18f700e36015_cgraph_org.svg" target="_base">
   <rect id="button" ry="5" rx="5" y="6" x="6" height="38" width="38"
        fill="#f2f5e9" fill-opacity="0.5" stroke="#606060" stroke-width="1.0"/>
   <path id="arrow"
     d="M 11.500037,31.436501 C 11.940474,20.09759 22.043105,11.32322 32.158766,21.979434 L 37.068811,17.246167 C 37.068811,17.246167 37.088388,32 37.088388,32 L 22.160133,31.978069 C 22.160133,31.978069 26.997745,27.140456 26.997745,27.140456 C 18.528582,18.264221 13.291696,25.230495 11.500037,31.436501 z"
     style="fill:#404040;"/>
  </a>
 </g>
</svg>

<style type='text/css'>
<![CDATA[
[data-mouse-over-selected='false'] { opacity: 0.7; }
[data-mouse-over-selected='true']  { opacity: 1.0; }
]]>
</style>
<script type="application/ecmascript"><![CDATA[
document.addEventListener('DOMContentLoaded', (event) => {
  highlightEdges();
  highlightAdjacentNodes();
});
]]></script>
</svg>
