<?xml version="1.0" encoding="UTF-8" standalone="no"?>
<!DOCTYPE svg PUBLIC "-//W3C//DTD SVG 1.1//EN"
 "http://www.w3.org/Graphics/SVG/1.1/DTD/svg11.dtd">
<!-- Generated by graphviz version 2.43.0 (0)
 -->
<!-- Title: Invoice::_generatePageNumbers Pages: 1 -->
<svg width="449pt" height="119pt"
 viewBox="0.00 0.00 449.00 119.00" xmlns="http://www.w3.org/2000/svg" xmlns:xlink="http://www.w3.org/1999/xlink">
<g id="graph0" class="graph" transform="scale(1 1) rotate(0) translate(4 115)">
<title>Invoice::_generatePageNumbers</title>
<!-- Node1 -->
<g id="Node000001" class="node">
<title>Node1</title>
<g id="a_Node000001"><a xlink:title="print page numbering on all pages">
<polygon fill="#999999" stroke="#666666" points="174,-74 0,-74 0,-55 174,-55 174,-74"/>
<text text-anchor="middle" x="87" y="-62" font-family="Helvetica,sans-Serif" font-size="10.00">Invoice::_generatePageNumbers</text>
</a>
</g>
</g>
<!-- Node2 -->
<g id="Node000002" class="node">
<title>Node2</title>
<g id="a_Node000002"><a xlink:href="../../d1/d5c/pdf__utils_8h.html#a8f9be0ef8bc5cfda0696a2a158d9f20c" target="_top" xlink:title="change the font and font size">
<polygon fill="white" stroke="#666666" points="283,-111 210,-111 210,-92 283,-92 283,-111"/>
<text text-anchor="middle" x="246.5" y="-99" font-family="Helvetica,sans-Serif" font-size="10.00">changeFont</text>
</a>
</g>
</g>
<!-- Node1&#45;&gt;Node2 -->
<g id="edge1_Node000001_Node000002" class="edge">
<title>Node1&#45;&gt;Node2</title>
<g id="a_edge1_Node000001_Node000002"><a xlink:title=" ">
<path fill="none" stroke="#63b8ff" d="M128.56,-74.03C150.38,-79.15 177.35,-85.49 199.89,-90.79"/>
<polygon fill="#63b8ff" stroke="#63b8ff" points="199.37,-94.26 209.9,-93.14 200.97,-87.44 199.37,-94.26"/>
</a>
</g>
</g>
<!-- Node3 -->
<g id="Node000003" class="node">
<title>Node3</title>
<g id="a_Node000003"><a xlink:href="../../d5/d60/utils_8h.html#a586071aa49d37b6beb5834b949798af2" target="_top" xlink:title="converts various datatypes to string using ostringstream">
<polygon fill="white" stroke="#666666" points="268.5,-74 224.5,-74 224.5,-55 268.5,-55 268.5,-74"/>
<text text-anchor="middle" x="246.5" y="-62" font-family="Helvetica,sans-Serif" font-size="10.00">to_str</text>
</a>
</g>
</g>
<!-- Node1&#45;&gt;Node3 -->
<g id="edge2_Node000001_Node000003" class="edge">
<title>Node1&#45;&gt;Node3</title>
<g id="a_edge2_Node000001_Node000003"><a xlink:title=" ">
<path fill="none" stroke="#63b8ff" d="M174.12,-64.5C188.42,-64.5 202.39,-64.5 214.12,-64.5"/>
<polygon fill="#63b8ff" stroke="#63b8ff" points="214.22,-68 224.22,-64.5 214.22,-61 214.22,-68"/>
</a>
</g>
</g>
<!-- Node4 -->
<g id="Node000004" class="node">
<title>Node4</title>
<g id="a_Node000004"><a xlink:href="../../d1/d5c/pdf__utils_8h.html#a718810ab35a6f1052271a2edb887936f" target="_top" xlink:title="write text on to the pdf at a given point">
<polygon fill="white" stroke="#666666" points="277.5,-37 215.5,-37 215.5,-18 277.5,-18 277.5,-37"/>
<text text-anchor="middle" x="246.5" y="-25" font-family="Helvetica,sans-Serif" font-size="10.00">writeText</text>
</a>
</g>
</g>
<!-- Node1&#45;&gt;Node4 -->
<g id="edge3_Node000001_Node000004" class="edge">
<title>Node1&#45;&gt;Node4</title>
<g id="a_edge3_Node000001_Node000004"><a xlink:title=" ">
<path fill="none" stroke="#63b8ff" d="M128.56,-54.97C152.06,-49.45 181.55,-42.52 205.03,-37.01"/>
<polygon fill="#63b8ff" stroke="#63b8ff" points="206.09,-40.35 215.03,-34.66 204.49,-33.54 206.09,-40.35"/>
</a>
</g>
</g>
<!-- Node5 -->
<g id="Node000005" class="node">
<title>Node5</title>
<g id="a_Node000005"><a xlink:href="../../d1/d5c/pdf__utils_8h.html#a03775da971402fe5e7cf8dbe201e3888" target="_top" xlink:title="calculates the height of a given text on the pdf">
<polygon fill="white" stroke="#666666" points="441,-56 319,-56 319,-37 441,-37 441,-56"/>
<text text-anchor="middle" x="380" y="-44" font-family="Helvetica,sans-Serif" font-size="10.00">calculate_text_height</text>
</a>
</g>
</g>
<!-- Node4&#45;&gt;Node5 -->
<g id="edge4_Node000004_Node000005" class="edge">
<title>Node4&#45;&gt;Node5</title>
<g id="a_edge4_Node000004_Node000005"><a xlink:title=" ">
<path fill="none" stroke="#63b8ff" d="M277.67,-31.86C287.07,-33.22 297.87,-34.78 308.83,-36.36"/>
<polygon fill="#63b8ff" stroke="#63b8ff" points="308.51,-39.85 318.9,-37.82 309.51,-32.92 308.51,-39.85"/>
</a>
</g>
</g>
<!-- Node6 -->
<g id="Node000006" class="node">
<title>Node6</title>
<g id="a_Node000006"><a xlink:href="../../d5/d60/utils_8h.html#ab750ae7075d3bd96b4e6bf46e08998fe" target="_top" xlink:title="converts a UTF8 string to ISO8859&#45;1 / ANSI using iconv">
<polygon fill="white" stroke="#666666" points="432,-19 328,-19 328,0 432,0 432,-19"/>
<text text-anchor="middle" x="380" y="-7" font-family="Helvetica,sans-Serif" font-size="10.00">UTF8toISO8859_1</text>
</a>
</g>
</g>
<!-- Node4&#45;&gt;Node6 -->
<g id="edge5_Node000004_Node000006" class="edge">
<title>Node4&#45;&gt;Node6</title>
<g id="a_edge5_Node000004_Node000006"><a xlink:title=" ">
<path fill="none" stroke="#63b8ff" d="M277.67,-23.37C289.63,-21.73 303.83,-19.79 317.77,-17.88"/>
<polygon fill="#63b8ff" stroke="#63b8ff" points="318.4,-21.33 327.83,-16.5 317.45,-14.39 318.4,-21.33"/>
</a>
</g>
</g>
</g>
</svg>
