<?xml version="1.0" encoding="UTF-8" standalone="no"?>
<!DOCTYPE svg PUBLIC "-//W3C//DTD SVG 1.1//EN"
 "http://www.w3.org/Graphics/SVG/1.1/DTD/svg11.dtd">
<!-- Generated by graphviz version 2.43.0 (0)
 -->
<!-- Title: Invoice::_generateNewPage Pages: 1 -->
<svg width="600pt" height="119pt"
 viewBox="0.00 0.00 600.00 119.00" xmlns="http://www.w3.org/2000/svg" xmlns:xlink="http://www.w3.org/1999/xlink">
<g id="graph0" class="graph" transform="scale(1 1) rotate(0) translate(4 115)">
<title>Invoice::_generateNewPage</title>
<!-- Node1 -->
<g id="Node000001" class="node">
<title>Node1</title>
<g id="a_Node000001"><a xlink:title="create a new page and add to pages list">
<polygon fill="#999999" stroke="#666666" points="152,-74 0,-74 0,-55 152,-55 152,-74"/>
<text text-anchor="middle" x="76" y="-62" font-family="Helvetica,sans-Serif" font-size="10.00">Invoice::_generateNewPage</text>
</a>
</g>
</g>
<!-- Node2 -->
<g id="Node000002" class="node">
<title>Node2</title>
<g id="a_Node000002"><a xlink:href="../../d0/d60/classInvoice.html#ab4acb460d577d22d5eec6a66cd36f451" target="_top" xlink:title="prints the footer on the current pdf page, excluding the page number">
<polygon fill="white" stroke="#666666" points="325,-74 188,-74 188,-55 325,-55 325,-74"/>
<text text-anchor="middle" x="256.5" y="-62" font-family="Helvetica,sans-Serif" font-size="10.00">Invoice::_generateFooter</text>
</a>
</g>
</g>
<!-- Node1&#45;&gt;Node2 -->
<g id="edge1_Node000001_Node000002" class="edge">
<title>Node1&#45;&gt;Node2</title>
<g id="a_edge1_Node000001_Node000002"><a xlink:title=" ">
<path fill="none" stroke="#63b8ff" d="M152.18,-64.5C160.58,-64.5 169.15,-64.5 177.58,-64.5"/>
<polygon fill="#63b8ff" stroke="#63b8ff" points="177.78,-68 187.78,-64.5 177.78,-61 177.78,-68"/>
</a>
</g>
</g>
<!-- Node3 -->
<g id="Node000003" class="node">
<title>Node3</title>
<g id="a_Node000003"><a xlink:href="../../d1/d5c/pdf__utils_8h.html#a8f9be0ef8bc5cfda0696a2a158d9f20c" target="_top" xlink:title="change the font and font size">
<polygon fill="white" stroke="#666666" points="434,-111 361,-111 361,-92 434,-92 434,-111"/>
<text text-anchor="middle" x="397.5" y="-99" font-family="Helvetica,sans-Serif" font-size="10.00">changeFont</text>
</a>
</g>
</g>
<!-- Node2&#45;&gt;Node3 -->
<g id="edge2_Node000002_Node000003" class="edge">
<title>Node2&#45;&gt;Node3</title>
<g id="a_edge2_Node000002_Node000003"><a xlink:title=" ">
<path fill="none" stroke="#63b8ff" d="M293.3,-74.03C310.89,-78.71 332.28,-84.41 351.02,-89.39"/>
<polygon fill="#63b8ff" stroke="#63b8ff" points="350.26,-92.81 360.83,-92 352.06,-86.05 350.26,-92.81"/>
</a>
</g>
</g>
<!-- Node4 -->
<g id="Node000004" class="node">
<title>Node4</title>
<g id="a_Node000004"><a xlink:href="../../d1/d5c/pdf__utils_8h.html#ab2771327d46765d94e49f3acf8d0d539" target="_top" xlink:title="draw a line, line width needs to be set before">
<polygon fill="white" stroke="#666666" points="428,-74 367,-74 367,-55 428,-55 428,-74"/>
<text text-anchor="middle" x="397.5" y="-62" font-family="Helvetica,sans-Serif" font-size="10.00">drawLine</text>
</a>
</g>
</g>
<!-- Node2&#45;&gt;Node4 -->
<g id="edge3_Node000002_Node000004" class="edge">
<title>Node2&#45;&gt;Node4</title>
<g id="a_edge3_Node000002_Node000004"><a xlink:title=" ">
<path fill="none" stroke="#63b8ff" d="M325.37,-64.5C336.1,-64.5 346.88,-64.5 356.69,-64.5"/>
<polygon fill="#63b8ff" stroke="#63b8ff" points="356.9,-68 366.9,-64.5 356.9,-61 356.9,-68"/>
</a>
</g>
</g>
<!-- Node5 -->
<g id="Node000005" class="node">
<title>Node5</title>
<g id="a_Node000005"><a xlink:href="../../d1/d5c/pdf__utils_8h.html#a718810ab35a6f1052271a2edb887936f" target="_top" xlink:title="write text on to the pdf at a given point">
<polygon fill="white" stroke="#666666" points="428.5,-37 366.5,-37 366.5,-18 428.5,-18 428.5,-37"/>
<text text-anchor="middle" x="397.5" y="-25" font-family="Helvetica,sans-Serif" font-size="10.00">writeText</text>
</a>
</g>
</g>
<!-- Node2&#45;&gt;Node5 -->
<g id="edge4_Node000002_Node000005" class="edge">
<title>Node2&#45;&gt;Node5</title>
<g id="a_edge4_Node000002_Node000005"><a xlink:title=" ">
<path fill="none" stroke="#63b8ff" d="M293.3,-54.97C312.7,-49.81 336.73,-43.41 356.72,-38.09"/>
<polygon fill="#63b8ff" stroke="#63b8ff" points="357.7,-41.45 366.46,-35.49 355.9,-34.69 357.7,-41.45"/>
</a>
</g>
</g>
<!-- Node6 -->
<g id="Node000006" class="node">
<title>Node6</title>
<g id="a_Node000006"><a xlink:href="../../d1/d5c/pdf__utils_8h.html#a03775da971402fe5e7cf8dbe201e3888" target="_top" xlink:title="calculates the height of a given text on the pdf">
<polygon fill="white" stroke="#666666" points="592,-56 470,-56 470,-37 592,-37 592,-56"/>
<text text-anchor="middle" x="531" y="-44" font-family="Helvetica,sans-Serif" font-size="10.00">calculate_text_height</text>
</a>
</g>
</g>
<!-- Node5&#45;&gt;Node6 -->
<g id="edge5_Node000005_Node000006" class="edge">
<title>Node5&#45;&gt;Node6</title>
<g id="a_edge5_Node000005_Node000006"><a xlink:title=" ">
<path fill="none" stroke="#63b8ff" d="M428.67,-31.86C438.07,-33.22 448.87,-34.78 459.83,-36.36"/>
<polygon fill="#63b8ff" stroke="#63b8ff" points="459.51,-39.85 469.9,-37.82 460.51,-32.92 459.51,-39.85"/>
</a>
</g>
</g>
<!-- Node7 -->
<g id="Node000007" class="node">
<title>Node7</title>
<g id="a_Node000007"><a xlink:href="../../d5/d60/utils_8h.html#ab750ae7075d3bd96b4e6bf46e08998fe" target="_top" xlink:title="converts a UTF8 string to ISO8859&#45;1 / ANSI using iconv">
<polygon fill="white" stroke="#666666" points="583,-19 479,-19 479,0 583,0 583,-19"/>
<text text-anchor="middle" x="531" y="-7" font-family="Helvetica,sans-Serif" font-size="10.00">UTF8toISO8859_1</text>
</a>
</g>
</g>
<!-- Node5&#45;&gt;Node7 -->
<g id="edge6_Node000005_Node000007" class="edge">
<title>Node5&#45;&gt;Node7</title>
<g id="a_edge6_Node000005_Node000007"><a xlink:title=" ">
<path fill="none" stroke="#63b8ff" d="M428.67,-23.37C440.63,-21.73 454.83,-19.79 468.77,-17.88"/>
<polygon fill="#63b8ff" stroke="#63b8ff" points="469.4,-21.33 478.83,-16.5 468.45,-14.39 469.4,-21.33"/>
</a>
</g>
</g>
</g>
</svg>
