<?xml version="1.0" encoding="UTF-8" standalone="no"?>
<!DOCTYPE svg PUBLIC "-//W3C//DTD SVG 1.1//EN"
 "http://www.w3.org/Graphics/SVG/1.1/DTD/svg11.dtd">
<!-- Generated by graphviz version 2.43.0 (0)
 -->
<!-- Title: Invoice::_generateFooter Pages: 1 -->
<svg width="412pt" height="119pt"
 viewBox="0.00 0.00 412.00 119.00" xmlns="http://www.w3.org/2000/svg" xmlns:xlink="http://www.w3.org/1999/xlink">
<g id="graph0" class="graph" transform="scale(1 1) rotate(0) translate(4 115)">
<title>Invoice::_generateFooter</title>
<!-- Node1 -->
<g id="Node000001" class="node">
<title>Node1</title>
<g id="a_Node000001"><a xlink:title="prints the footer on the current pdf page, excluding the page number">
<polygon fill="#999999" stroke="#666666" points="137,-74 0,-74 0,-55 137,-55 137,-74"/>
<text text-anchor="middle" x="68.5" y="-62" font-family="Helvetica,sans-Serif" font-size="10.00">Invoice::_generateFooter</text>
</a>
</g>
</g>
<!-- Node2 -->
<g id="Node000002" class="node">
<title>Node2</title>
<g id="a_Node000002"><a xlink:href="../../d1/d5c/pdf__utils_8h.html#a8f9be0ef8bc5cfda0696a2a158d9f20c" target="_top" xlink:title="change the font and font size">
<polygon fill="white" stroke="#666666" points="246,-111 173,-111 173,-92 246,-92 246,-111"/>
<text text-anchor="middle" x="209.5" y="-99" font-family="Helvetica,sans-Serif" font-size="10.00">changeFont</text>
</a>
</g>
</g>
<!-- Node1&#45;&gt;Node2 -->
<g id="edge1_Node000001_Node000002" class="edge">
<title>Node1&#45;&gt;Node2</title>
<g id="a_edge1_Node000001_Node000002"><a xlink:title=" ">
<path fill="none" stroke="#63b8ff" d="M105.3,-74.03C122.89,-78.71 144.28,-84.41 163.02,-89.39"/>
<polygon fill="#63b8ff" stroke="#63b8ff" points="162.26,-92.81 172.83,-92 164.06,-86.05 162.26,-92.81"/>
</a>
</g>
</g>
<!-- Node3 -->
<g id="Node000003" class="node">
<title>Node3</title>
<g id="a_Node000003"><a xlink:href="../../d1/d5c/pdf__utils_8h.html#ab2771327d46765d94e49f3acf8d0d539" target="_top" xlink:title="draw a line, line width needs to be set before">
<polygon fill="white" stroke="#666666" points="240,-74 179,-74 179,-55 240,-55 240,-74"/>
<text text-anchor="middle" x="209.5" y="-62" font-family="Helvetica,sans-Serif" font-size="10.00">drawLine</text>
</a>
</g>
</g>
<!-- Node1&#45;&gt;Node3 -->
<g id="edge2_Node000001_Node000003" class="edge">
<title>Node1&#45;&gt;Node3</title>
<g id="a_edge2_Node000001_Node000003"><a xlink:title=" ">
<path fill="none" stroke="#63b8ff" d="M137.37,-64.5C148.1,-64.5 158.88,-64.5 168.69,-64.5"/>
<polygon fill="#63b8ff" stroke="#63b8ff" points="168.9,-68 178.9,-64.5 168.9,-61 168.9,-68"/>
</a>
</g>
</g>
<!-- Node4 -->
<g id="Node000004" class="node">
<title>Node4</title>
<g id="a_Node000004"><a xlink:href="../../d1/d5c/pdf__utils_8h.html#a718810ab35a6f1052271a2edb887936f" target="_top" xlink:title="write text on to the pdf at a given point">
<polygon fill="white" stroke="#666666" points="240.5,-37 178.5,-37 178.5,-18 240.5,-18 240.5,-37"/>
<text text-anchor="middle" x="209.5" y="-25" font-family="Helvetica,sans-Serif" font-size="10.00">writeText</text>
</a>
</g>
</g>
<!-- Node1&#45;&gt;Node4 -->
<g id="edge3_Node000001_Node000004" class="edge">
<title>Node1&#45;&gt;Node4</title>
<g id="a_edge3_Node000001_Node000004"><a xlink:title=" ">
<path fill="none" stroke="#63b8ff" d="M105.3,-54.97C124.7,-49.81 148.73,-43.41 168.72,-38.09"/>
<polygon fill="#63b8ff" stroke="#63b8ff" points="169.7,-41.45 178.46,-35.49 167.9,-34.69 169.7,-41.45"/>
</a>
</g>
</g>
<!-- Node5 -->
<g id="Node000005" class="node">
<title>Node5</title>
<g id="a_Node000005"><a xlink:href="../../d1/d5c/pdf__utils_8h.html#a03775da971402fe5e7cf8dbe201e3888" target="_top" xlink:title="calculates the height of a given text on the pdf">
<polygon fill="white" stroke="#666666" points="404,-56 282,-56 282,-37 404,-37 404,-56"/>
<text text-anchor="middle" x="343" y="-44" font-family="Helvetica,sans-Serif" font-size="10.00">calculate_text_height</text>
</a>
</g>
</g>
<!-- Node4&#45;&gt;Node5 -->
<g id="edge4_Node000004_Node000005" class="edge">
<title>Node4&#45;&gt;Node5</title>
<g id="a_edge4_Node000004_Node000005"><a xlink:title=" ">
<path fill="none" stroke="#63b8ff" d="M240.67,-31.86C250.07,-33.22 260.87,-34.78 271.83,-36.36"/>
<polygon fill="#63b8ff" stroke="#63b8ff" points="271.51,-39.85 281.9,-37.82 272.51,-32.92 271.51,-39.85"/>
</a>
</g>
</g>
<!-- Node6 -->
<g id="Node000006" class="node">
<title>Node6</title>
<g id="a_Node000006"><a xlink:href="../../d5/d60/utils_8h.html#ab750ae7075d3bd96b4e6bf46e08998fe" target="_top" xlink:title="converts a UTF8 string to ISO8859&#45;1 / ANSI using iconv">
<polygon fill="white" stroke="#666666" points="395,-19 291,-19 291,0 395,0 395,-19"/>
<text text-anchor="middle" x="343" y="-7" font-family="Helvetica,sans-Serif" font-size="10.00">UTF8toISO8859_1</text>
</a>
</g>
</g>
<!-- Node4&#45;&gt;Node6 -->
<g id="edge5_Node000004_Node000006" class="edge">
<title>Node4&#45;&gt;Node6</title>
<g id="a_edge5_Node000004_Node000006"><a xlink:title=" ">
<path fill="none" stroke="#63b8ff" d="M240.67,-23.37C252.63,-21.73 266.83,-19.79 280.77,-17.88"/>
<polygon fill="#63b8ff" stroke="#63b8ff" points="281.4,-21.33 290.83,-16.5 280.45,-14.39 281.4,-21.33"/>
</a>
</g>
</g>
</g>
</svg>
