<?xml version="1.0" encoding="UTF-8" standalone="no"?>
<!DOCTYPE svg PUBLIC "-//W3C//DTD SVG 1.1//EN"
 "http://www.w3.org/Graphics/SVG/1.1/DTD/svg11.dtd">
<!-- Generated by graphviz version 2.43.0 (0)
 -->
<!-- Title: ui/customWidgets/representativeWidget/representativeWidget.cpp Pages: 1 -->
<svg width="556pt" height="214pt"
 viewBox="0.00 0.00 556.00 214.00" xmlns="http://www.w3.org/2000/svg" xmlns:xlink="http://www.w3.org/1999/xlink">
<g id="graph0" class="graph" transform="scale(1 1) rotate(0) translate(4 210)">
<title>ui/customWidgets/representativeWidget/representativeWidget.cpp</title>
<!-- Node1 -->
<g id="Node000001" class="node">
<title>Node1</title>
<g id="a_Node000001"><a xlink:title=" ">
<polygon fill="#999999" stroke="#666666" points="443.5,-206 263.5,-206 263.5,-176 443.5,-176 443.5,-206"/>
<text text-anchor="start" x="271.5" y="-194" font-family="Helvetica,sans-Serif" font-size="10.00">ui/customWidgets/representative</text>
<text text-anchor="middle" x="353.5" y="-183" font-family="Helvetica,sans-Serif" font-size="10.00">Widget/representativeWidget.cpp</text>
</a>
</g>
</g>
<!-- Node2 -->
<g id="Node000002" class="node">
<title>Node2</title>
<g id="a_Node000002"><a xlink:href="../../d1/db6/representativeWidget_8h.html" target="_top" xlink:title=" ">
<polygon fill="white" stroke="#666666" points="264,-140 133,-140 133,-121 264,-121 264,-140"/>
<text text-anchor="middle" x="198.5" y="-128" font-family="Helvetica,sans-Serif" font-size="10.00">representativeWidget.h</text>
</a>
</g>
</g>
<!-- Node1&#45;&gt;Node2 -->
<g id="edge1_Node000001_Node000002" class="edge">
<title>Node1&#45;&gt;Node2</title>
<g id="a_edge1_Node000001_Node000002"><a xlink:title=" ">
<path fill="none" stroke="#63b8ff" d="M316.37,-175.99C290.28,-166.14 255.72,-153.1 230.77,-143.68"/>
<polygon fill="#63b8ff" stroke="#63b8ff" points="231.98,-140.4 221.39,-140.14 229.51,-146.94 231.98,-140.4"/>
</a>
</g>
</g>
<!-- Node9 -->
<g id="Node000009" class="node">
<title>Node9</title>
<g id="a_Node000009"><a xlink:title=" ">
<polygon fill="#e0e0e0" stroke="#999999" points="425,-140 282,-140 282,-121 425,-121 425,-140"/>
<text text-anchor="middle" x="353.5" y="-128" font-family="Helvetica,sans-Serif" font-size="10.00">QtCore/qcoreapplication.h</text>
</a>
</g>
</g>
<!-- Node1&#45;&gt;Node9 -->
<g id="edge8_Node000001_Node000009" class="edge">
<title>Node1&#45;&gt;Node9</title>
<g id="a_edge8_Node000001_Node000009"><a xlink:title=" ">
<path fill="none" stroke="#63b8ff" d="M353.5,-175.84C353.5,-168.21 353.5,-158.7 353.5,-150.45"/>
<polygon fill="#63b8ff" stroke="#63b8ff" points="357,-150.27 353.5,-140.27 350,-150.27 357,-150.27"/>
</a>
</g>
</g>
<!-- Node10 -->
<g id="Node000010" class="node">
<title>Node10</title>
<g id="a_Node000010"><a xlink:title=" ">
<polygon fill="#e0e0e0" stroke="#999999" points="548,-140 443,-140 443,-121 548,-121 548,-140"/>
<text text-anchor="middle" x="495.5" y="-128" font-family="Helvetica,sans-Serif" font-size="10.00">QtGui/qvalidator.h</text>
</a>
</g>
</g>
<!-- Node1&#45;&gt;Node10 -->
<g id="edge9_Node000001_Node000010" class="edge">
<title>Node1&#45;&gt;Node10</title>
<g id="a_edge9_Node000001_Node000010"><a xlink:title=" ">
<path fill="none" stroke="#63b8ff" d="M387.51,-175.99C411.1,-166.27 442.24,-153.44 465.02,-144.06"/>
<polygon fill="#63b8ff" stroke="#63b8ff" points="466.62,-147.18 474.53,-140.14 463.95,-140.71 466.62,-147.18"/>
</a>
</g>
</g>
<!-- Node3 -->
<g id="Node000003" class="node">
<title>Node3</title>
<g id="a_Node000003"><a xlink:href="../../d3/df2/textInputWidget_8h.html" target="_top" xlink:title=" ">
<polygon fill="white" stroke="#666666" points="264.5,-85 132.5,-85 132.5,-55 264.5,-55 264.5,-85"/>
<text text-anchor="start" x="140.5" y="-73" font-family="Helvetica,sans-Serif" font-size="10.00">../inputWidget/textInput</text>
<text text-anchor="middle" x="198.5" y="-62" font-family="Helvetica,sans-Serif" font-size="10.00">Widget.h</text>
</a>
</g>
</g>
<!-- Node2&#45;&gt;Node3 -->
<g id="edge2_Node000002_Node000003" class="edge">
<title>Node2&#45;&gt;Node3</title>
<g id="a_edge2_Node000002_Node000003"><a xlink:title=" ">
<path fill="none" stroke="#63b8ff" d="M198.5,-120.87C198.5,-114.11 198.5,-104.35 198.5,-95.26"/>
<polygon fill="#63b8ff" stroke="#63b8ff" points="202,-95.11 198.5,-85.11 195,-95.11 202,-95.11"/>
</a>
</g>
</g>
<!-- Node4 -->
<g id="Node000004" class="node">
<title>Node4</title>
<g id="a_Node000004"><a xlink:title=" ">
<polygon fill="#e0e0e0" stroke="#999999" points="59,-19 0,-19 0,0 59,0 59,-19"/>
<text text-anchor="middle" x="29.5" y="-7" font-family="Helvetica,sans-Serif" font-size="10.00">QWidget</text>
</a>
</g>
</g>
<!-- Node3&#45;&gt;Node4 -->
<g id="edge3_Node000003_Node000004" class="edge">
<title>Node3&#45;&gt;Node4</title>
<g id="a_edge3_Node000003_Node000004"><a xlink:title=" ">
<path fill="none" stroke="#63b8ff" d="M158.02,-54.99C129.32,-45.05 91.22,-31.86 63.97,-22.43"/>
<polygon fill="#63b8ff" stroke="#63b8ff" points="65.05,-19.1 54.46,-19.14 62.76,-25.72 65.05,-19.1"/>
</a>
</g>
</g>
<!-- Node5 -->
<g id="Node000005" class="node">
<title>Node5</title>
<g id="a_Node000005"><a xlink:title=" ">
<polygon fill="#e0e0e0" stroke="#999999" points="140,-19 77,-19 77,0 140,0 140,-19"/>
<text text-anchor="middle" x="108.5" y="-7" font-family="Helvetica,sans-Serif" font-size="10.00">QLineEdit</text>
</a>
</g>
</g>
<!-- Node3&#45;&gt;Node5 -->
<g id="edge4_Node000003_Node000005" class="edge">
<title>Node3&#45;&gt;Node5</title>
<g id="a_edge4_Node000003_Node000005"><a xlink:title=" ">
<path fill="none" stroke="#63b8ff" d="M176.71,-54.84C162.63,-45.68 144.37,-33.82 130.29,-24.66"/>
<polygon fill="#63b8ff" stroke="#63b8ff" points="132.01,-21.61 121.72,-19.09 128.2,-27.48 132.01,-21.61"/>
</a>
</g>
</g>
<!-- Node6 -->
<g id="Node000006" class="node">
<title>Node6</title>
<g id="a_Node000006"><a xlink:title=" ">
<polygon fill="#e0e0e0" stroke="#999999" points="238.5,-19 158.5,-19 158.5,0 238.5,0 238.5,-19"/>
<text text-anchor="middle" x="198.5" y="-7" font-family="Helvetica,sans-Serif" font-size="10.00">QPushButton</text>
</a>
</g>
</g>
<!-- Node3&#45;&gt;Node6 -->
<g id="edge5_Node000003_Node000006" class="edge">
<title>Node3&#45;&gt;Node6</title>
<g id="a_edge5_Node000003_Node000006"><a xlink:title=" ">
<path fill="none" stroke="#63b8ff" d="M198.5,-54.84C198.5,-47.21 198.5,-37.7 198.5,-29.45"/>
<polygon fill="#63b8ff" stroke="#63b8ff" points="202,-29.27 198.5,-19.27 195,-29.27 202,-29.27"/>
</a>
</g>
</g>
<!-- Node7 -->
<g id="Node000007" class="node">
<title>Node7</title>
<g id="a_Node000007"><a xlink:title=" ">
<polygon fill="#e0e0e0" stroke="#999999" points="340,-19 257,-19 257,0 340,0 340,-19"/>
<text text-anchor="middle" x="298.5" y="-7" font-family="Helvetica,sans-Serif" font-size="10.00">QHBoxLayout</text>
</a>
</g>
</g>
<!-- Node3&#45;&gt;Node7 -->
<g id="edge6_Node000003_Node000007" class="edge">
<title>Node3&#45;&gt;Node7</title>
<g id="a_edge6_Node000003_Node000007"><a xlink:title=" ">
<path fill="none" stroke="#63b8ff" d="M222.45,-54.99C238.39,-45.66 259.23,-33.47 275.06,-24.21"/>
<polygon fill="#63b8ff" stroke="#63b8ff" points="276.87,-27.21 283.73,-19.14 273.33,-21.17 276.87,-27.21"/>
</a>
</g>
</g>
<!-- Node8 -->
<g id="Node000008" class="node">
<title>Node8</title>
<g id="a_Node000008"><a xlink:title=" ">
<polygon fill="#e0e0e0" stroke="#999999" points="408.5,-19 358.5,-19 358.5,0 408.5,0 408.5,-19"/>
<text text-anchor="middle" x="383.5" y="-7" font-family="Helvetica,sans-Serif" font-size="10.00">QLabel</text>
</a>
</g>
</g>
<!-- Node3&#45;&gt;Node8 -->
<g id="edge7_Node000003_Node000008" class="edge">
<title>Node3&#45;&gt;Node8</title>
<g id="a_edge7_Node000003_Node000008"><a xlink:title=" ">
<path fill="none" stroke="#63b8ff" d="M242.81,-54.99C275.27,-44.72 318.72,-30.98 348.7,-21.5"/>
<polygon fill="#63b8ff" stroke="#63b8ff" points="349.84,-24.82 358.32,-18.46 347.73,-18.14 349.84,-24.82"/>
</a>
</g>
</g>
</g>
</svg>
