<?xml version="1.0" encoding="UTF-8" standalone="no"?>
<!DOCTYPE svg PUBLIC "-//W3C//DTD SVG 1.1//EN"
 "http://www.w3.org/Graphics/SVG/1.1/DTD/svg11.dtd">
<!-- Generated by graphviz version 2.43.0 (0)
 -->
<!-- Title: ui/mainwindow.cpp Pages: 1 -->
<svg width="1609pt" height="269pt"
 viewBox="0.00 0.00 1608.50 269.00" xmlns="http://www.w3.org/2000/svg" xmlns:xlink="http://www.w3.org/1999/xlink">
<g id="graph0" class="graph" transform="scale(1 1) rotate(0) translate(4 265)">
<title>ui/mainwindow.cpp</title>
<!-- Node1 -->
<g id="Node000001" class="node">
<title>Node1</title>
<g id="a_Node000001"><a xlink:title=" ">
<polygon fill="#999999" stroke="#666666" points="1034.5,-261 924.5,-261 924.5,-242 1034.5,-242 1034.5,-261"/>
<text text-anchor="middle" x="979.5" y="-249" font-family="Helvetica,sans-Serif" font-size="10.00">ui/mainwindow.cpp</text>
</a>
</g>
</g>
<!-- Node2 -->
<g id="Node000002" class="node">
<title>Node2</title>
<g id="a_Node000002"><a xlink:href="../../d9/d53/mainwindow_8h.html" target="_top" xlink:title=" ">
<polygon fill="white" stroke="#666666" points="494,-206 407,-206 407,-187 494,-187 494,-206"/>
<text text-anchor="middle" x="450.5" y="-194" font-family="Helvetica,sans-Serif" font-size="10.00">mainwindow.h</text>
</a>
</g>
</g>
<!-- Node1&#45;&gt;Node2 -->
<g id="edge1_Node000001_Node000002" class="edge">
<title>Node1&#45;&gt;Node2</title>
<g id="a_edge1_Node000001_Node000002"><a xlink:title=" ">
<path fill="none" stroke="#63b8ff" d="M924.38,-244.98C822.3,-234.75 605.04,-212.98 504.11,-202.87"/>
<polygon fill="#63b8ff" stroke="#63b8ff" points="504.43,-199.39 494.13,-201.87 503.73,-206.35 504.43,-199.39"/>
</a>
</g>
</g>
<!-- Node15 -->
<g id="Node000015" class="node">
<title>Node15</title>
<g id="a_Node000015"><a xlink:href="../../d5/d96/dateInputWidget_8h.html" target="_top" xlink:title=" ">
<polygon fill="white" stroke="#666666" points="733,-85 578,-85 578,-55 733,-55 733,-85"/>
<text text-anchor="start" x="586" y="-73" font-family="Helvetica,sans-Serif" font-size="10.00">customWidgets/inputWidget</text>
<text text-anchor="middle" x="655.5" y="-62" font-family="Helvetica,sans-Serif" font-size="10.00">/dateInputWidget.h</text>
</a>
</g>
</g>
<!-- Node1&#45;&gt;Node15 -->
<g id="edge52_Node000001_Node000015" class="edge">
<title>Node1&#45;&gt;Node15</title>
<g id="a_edge52_Node000001_Node000015"><a xlink:title=" ">
<path fill="none" stroke="#63b8ff" d="M924.39,-242.03C896.34,-235.65 862.9,-224.67 837.5,-206 800.45,-178.76 814.4,-149.74 778.5,-121 760.87,-106.88 738.71,-96.25 718.08,-88.5"/>
<polygon fill="#63b8ff" stroke="#63b8ff" points="719.01,-85.11 708.42,-85.03 716.65,-91.7 719.01,-85.11"/>
</a>
</g>
</g>
<!-- Node18 -->
<g id="Node000018" class="node">
<title>Node18</title>
<g id="a_Node000018"><a xlink:title=" ">
<polygon fill="#e0e0e0" stroke="#999999" points="932.5,-206 846.5,-206 846.5,-187 932.5,-187 932.5,-206"/>
<text text-anchor="middle" x="889.5" y="-194" font-family="Helvetica,sans-Serif" font-size="10.00">QMessageBox</text>
</a>
</g>
</g>
<!-- Node1&#45;&gt;Node18 -->
<g id="edge26_Node000001_Node000018" class="edge">
<title>Node1&#45;&gt;Node18</title>
<g id="a_edge26_Node000001_Node000018"><a xlink:title=" ">
<path fill="none" stroke="#63b8ff" d="M965.04,-241.98C951.08,-233.77 929.71,-221.18 913.25,-211.49"/>
<polygon fill="#63b8ff" stroke="#63b8ff" points="914.62,-208.23 904.22,-206.17 911.06,-214.26 914.62,-208.23"/>
</a>
</g>
</g>
<!-- Node19 -->
<g id="Node000019" class="node">
<title>Node19</title>
<g id="a_Node000019"><a xlink:href="../../da/ddf/invoice__data_8h.html" target="_top" xlink:title=" ">
<polygon fill="white" stroke="#666666" points="1100.5,-151 974.5,-151 974.5,-121 1100.5,-121 1100.5,-151"/>
<text text-anchor="start" x="982.5" y="-139" font-family="Helvetica,sans-Serif" font-size="10.00">../data_objects/invoice</text>
<text text-anchor="middle" x="1037.5" y="-128" font-family="Helvetica,sans-Serif" font-size="10.00">_data.h</text>
</a>
</g>
</g>
<!-- Node1&#45;&gt;Node19 -->
<g id="edge27_Node000001_Node000019" class="edge">
<title>Node1&#45;&gt;Node19</title>
<g id="a_edge27_Node000001_Node000019"><a xlink:title=" ">
<path fill="none" stroke="#63b8ff" d="M983.86,-241.97C992.64,-224.78 1012.73,-185.47 1025.68,-160.13"/>
<polygon fill="#63b8ff" stroke="#63b8ff" points="1028.82,-161.68 1030.25,-151.18 1022.59,-158.49 1028.82,-161.68"/>
</a>
</g>
</g>
<!-- Node23 -->
<g id="Node000023" class="node">
<title>Node23</title>
<g id="a_Node000023"><a xlink:href="../../d3/dae/product__data_8h.html" target="_top" xlink:title=" ">
<polygon fill="white" stroke="#666666" points="846,-79.5 757,-79.5 757,-60.5 846,-60.5 846,-79.5"/>
<text text-anchor="middle" x="801.5" y="-67.5" font-family="Helvetica,sans-Serif" font-size="10.00">product_data.h</text>
</a>
</g>
</g>
<!-- Node1&#45;&gt;Node23 -->
<g id="edge35_Node000001_Node000023" class="edge">
<title>Node1&#45;&gt;Node23</title>
<g id="a_edge35_Node000001_Node000023"><a xlink:title=" ">
<path fill="none" stroke="#63b8ff" d="M975.42,-241.67C969.23,-228.81 956.56,-204.55 941.5,-187 905.18,-144.66 852.29,-105.5 823.01,-85.3"/>
<polygon fill="#63b8ff" stroke="#63b8ff" points="824.97,-82.4 814.73,-79.66 821.03,-88.18 824.97,-82.4"/>
</a>
</g>
</g>
<!-- Node24 -->
<g id="Node000024" class="node">
<title>Node24</title>
<g id="a_Node000024"><a xlink:href="../../dd/dca/representative__data_8h.html" target="_top" xlink:title=" ">
<polygon fill="white" stroke="#666666" points="1189.5,-79.5 1065.5,-79.5 1065.5,-60.5 1189.5,-60.5 1189.5,-79.5"/>
<text text-anchor="middle" x="1127.5" y="-67.5" font-family="Helvetica,sans-Serif" font-size="10.00">representative_data.h</text>
</a>
</g>
</g>
<!-- Node1&#45;&gt;Node24 -->
<g id="edge36_Node000001_Node000024" class="edge">
<title>Node1&#45;&gt;Node24</title>
<g id="a_edge36_Node000001_Node000024"><a xlink:title=" ">
<path fill="none" stroke="#63b8ff" d="M997.87,-241.77C1026.48,-227.18 1081.31,-195.04 1109.5,-151 1121.35,-132.49 1125.45,-107.21 1126.84,-90.06"/>
<polygon fill="#63b8ff" stroke="#63b8ff" points="1130.36,-89.85 1127.44,-79.67 1123.37,-89.45 1130.36,-89.85"/>
</a>
</g>
</g>
<!-- Node25 -->
<g id="Node000025" class="node">
<title>Node25</title>
<g id="a_Node000025"><a xlink:href="../../d7/de6/invoice_8h.html" target="_top" xlink:title=" ">
<polygon fill="white" stroke="#666666" points="1330,-206 1241,-206 1241,-187 1330,-187 1330,-206"/>
<text text-anchor="middle" x="1285.5" y="-194" font-family="Helvetica,sans-Serif" font-size="10.00">../pdf/invoice.h</text>
</a>
</g>
</g>
<!-- Node1&#45;&gt;Node25 -->
<g id="edge37_Node000001_Node000025" class="edge">
<title>Node1&#45;&gt;Node25</title>
<g id="a_edge37_Node000001_Node000025"><a xlink:title=" ">
<path fill="none" stroke="#63b8ff" d="M1028.66,-241.98C1083.97,-232.41 1173.54,-216.89 1230.96,-206.95"/>
<polygon fill="#63b8ff" stroke="#63b8ff" points="1231.68,-210.37 1240.94,-205.22 1230.49,-203.48 1231.68,-210.37"/>
</a>
</g>
</g>
<!-- Node29 -->
<g id="Node000029" class="node">
<title>Node29</title>
<g id="a_Node000029"><a xlink:href="../../d8/d60/pdf__exception_8h.html" target="_top" xlink:title=" ">
<polygon fill="white" stroke="#666666" points="1303,-79.5 1208,-79.5 1208,-60.5 1303,-60.5 1303,-79.5"/>
<text text-anchor="middle" x="1255.5" y="-67.5" font-family="Helvetica,sans-Serif" font-size="10.00">pdf_exception.h</text>
</a>
</g>
</g>
<!-- Node1&#45;&gt;Node29 -->
<g id="edge51_Node000001_Node000029" class="edge">
<title>Node1&#45;&gt;Node29</title>
<g id="a_edge51_Node000001_Node000029"><a xlink:title=" ">
<path fill="none" stroke="#63b8ff" d="M1004.08,-241.91C1025.5,-233.96 1057.03,-221.1 1082.5,-206 1144.5,-169.23 1209.36,-113.07 1238.98,-86.26"/>
<polygon fill="#63b8ff" stroke="#63b8ff" points="1241.34,-88.85 1246.37,-79.52 1236.62,-83.68 1241.34,-88.85"/>
</a>
</g>
</g>
<!-- Node3 -->
<g id="Node000003" class="node">
<title>Node3</title>
<g id="a_Node000003"><a xlink:title=" ">
<polygon fill="#e0e0e0" stroke="#999999" points="87,-145.5 0,-145.5 0,-126.5 87,-126.5 87,-145.5"/>
<text text-anchor="middle" x="43.5" y="-133.5" font-family="Helvetica,sans-Serif" font-size="10.00">QMainWindow</text>
</a>
</g>
</g>
<!-- Node2&#45;&gt;Node3 -->
<g id="edge2_Node000002_Node000003" class="edge">
<title>Node2&#45;&gt;Node3</title>
<g id="a_edge2_Node000002_Node000003"><a xlink:title=" ">
<path fill="none" stroke="#63b8ff" d="M406.88,-191.9C339.77,-185.94 207.32,-172.5 96.5,-151 92.07,-150.14 87.46,-149.12 82.9,-148.03"/>
<polygon fill="#63b8ff" stroke="#63b8ff" points="83.6,-144.59 73.05,-145.55 81.9,-151.38 83.6,-144.59"/>
</a>
</g>
</g>
<!-- Node4 -->
<g id="Node000004" class="node">
<title>Node4</title>
<g id="a_Node000004"><a xlink:title=" ">
<polygon fill="#e0e0e0" stroke="#999999" points="181.5,-145.5 105.5,-145.5 105.5,-126.5 181.5,-126.5 181.5,-145.5"/>
<text text-anchor="middle" x="143.5" y="-133.5" font-family="Helvetica,sans-Serif" font-size="10.00">QListWidget</text>
</a>
</g>
</g>
<!-- Node2&#45;&gt;Node4 -->
<g id="edge3_Node000002_Node000004" class="edge">
<title>Node2&#45;&gt;Node4</title>
<g id="a_edge3_Node000002_Node000004"><a xlink:title=" ">
<path fill="none" stroke="#63b8ff" d="M406.94,-189.68C355.03,-182.36 265.86,-168.61 190.5,-151 187.08,-150.2 183.54,-149.3 180.01,-148.34"/>
<polygon fill="#63b8ff" stroke="#63b8ff" points="180.77,-144.92 170.19,-145.56 178.86,-151.65 180.77,-144.92"/>
</a>
</g>
</g>
<!-- Node5 -->
<g id="Node000005" class="node">
<title>Node5</title>
<g id="a_Node000005"><a xlink:href="../../d8/d44/productWidget_8h.html" target="_top" xlink:title=" ">
<polygon fill="white" stroke="#666666" points="367,-151 200,-151 200,-121 367,-121 367,-151"/>
<text text-anchor="start" x="208" y="-139" font-family="Helvetica,sans-Serif" font-size="10.00">customWidgets/productWidget</text>
<text text-anchor="middle" x="283.5" y="-128" font-family="Helvetica,sans-Serif" font-size="10.00">/productWidget.h</text>
</a>
</g>
</g>
<!-- Node2&#45;&gt;Node5 -->
<g id="edge4_Node000002_Node000005" class="edge">
<title>Node2&#45;&gt;Node5</title>
<g id="a_edge4_Node000002_Node000005"><a xlink:title=" ">
<path fill="none" stroke="#63b8ff" d="M426.22,-186.99C401.97,-178.5 364.01,-165.2 333.33,-154.45"/>
<polygon fill="#63b8ff" stroke="#63b8ff" points="334.24,-151.07 323.65,-151.06 331.93,-157.67 334.24,-151.07"/>
</a>
</g>
</g>
<!-- Node6 -->
<g id="Node000006" class="node">
<title>Node6</title>
<g id="a_Node000006"><a xlink:href="../../d3/df2/textInputWidget_8h.html" target="_top" xlink:title=" ">
<polygon fill="white" stroke="#666666" points="556.5,-85 424.5,-85 424.5,-55 556.5,-55 556.5,-85"/>
<text text-anchor="start" x="432.5" y="-73" font-family="Helvetica,sans-Serif" font-size="10.00">../inputWidget/textInput</text>
<text text-anchor="middle" x="490.5" y="-62" font-family="Helvetica,sans-Serif" font-size="10.00">Widget.h</text>
</a>
</g>
</g>
<!-- Node2&#45;&gt;Node6 -->
<g id="edge18_Node000002_Node000006" class="edge">
<title>Node2&#45;&gt;Node6</title>
<g id="a_edge18_Node000002_Node000006"><a xlink:title=" ">
<path fill="none" stroke="#63b8ff" d="M439.79,-186.93C430.57,-178.8 417.91,-165.68 412.5,-151 407.89,-138.49 406.1,-132.7 412.5,-121 419.71,-107.81 432.05,-97.59 444.81,-89.93"/>
<polygon fill="#63b8ff" stroke="#63b8ff" points="446.61,-92.93 453.66,-85.02 443.21,-86.81 446.61,-92.93"/>
</a>
</g>
</g>
<!-- Node14 -->
<g id="Node000014" class="node">
<title>Node14</title>
<g id="a_Node000014"><a xlink:href="../../d1/db6/representativeWidget_8h.html" target="_top" xlink:title=" ">
<polygon fill="white" stroke="#666666" points="591,-151 422,-151 422,-121 591,-121 591,-151"/>
<text text-anchor="start" x="430" y="-139" font-family="Helvetica,sans-Serif" font-size="10.00">customWidgets/representative</text>
<text text-anchor="middle" x="506.5" y="-128" font-family="Helvetica,sans-Serif" font-size="10.00">Widget/representativeWidget.h</text>
</a>
</g>
</g>
<!-- Node2&#45;&gt;Node14 -->
<g id="edge16_Node000002_Node000014" class="edge">
<title>Node2&#45;&gt;Node14</title>
<g id="a_edge16_Node000002_Node000014"><a xlink:title=" ">
<path fill="none" stroke="#63b8ff" d="M458.76,-186.87C465.87,-179.44 476.43,-168.42 485.81,-158.62"/>
<polygon fill="#63b8ff" stroke="#63b8ff" points="488.6,-160.76 492.99,-151.11 483.55,-155.92 488.6,-160.76"/>
</a>
</g>
</g>
<!-- Node2&#45;&gt;Node15 -->
<g id="edge19_Node000002_Node000015" class="edge">
<title>Node2&#45;&gt;Node15</title>
<g id="a_edge19_Node000002_Node000015"><a xlink:title=" ">
<path fill="none" stroke="#63b8ff" d="M494.03,-195.94C571.07,-195.68 726.54,-190.19 760.5,-151 782.34,-125.8 745.44,-103.41 709.51,-88.76"/>
<polygon fill="#63b8ff" stroke="#63b8ff" points="710.53,-85.41 699.94,-85.03 707.98,-91.93 710.53,-85.41"/>
</a>
</g>
</g>
<!-- Node17 -->
<g id="Node000017" class="node">
<title>Node17</title>
<g id="a_Node000017"><a xlink:title=" ">
<polygon fill="#e0e0e0" stroke="#999999" points="752,-145.5 609,-145.5 609,-126.5 752,-126.5 752,-145.5"/>
<text text-anchor="middle" x="680.5" y="-133.5" font-family="Helvetica,sans-Serif" font-size="10.00">QtCore/qcoreapplication.h</text>
</a>
</g>
</g>
<!-- Node2&#45;&gt;Node17 -->
<g id="edge25_Node000002_Node000017" class="edge">
<title>Node2&#45;&gt;Node17</title>
<g id="a_edge25_Node000002_Node000017"><a xlink:title=" ">
<path fill="none" stroke="#63b8ff" d="M483.94,-186.99C524.4,-176.7 592.6,-159.36 637.08,-148.04"/>
<polygon fill="#63b8ff" stroke="#63b8ff" points="638.19,-151.37 647.02,-145.52 636.46,-144.59 638.19,-151.37"/>
</a>
</g>
</g>
<!-- Node5&#45;&gt;Node6 -->
<g id="edge5_Node000005_Node000006" class="edge">
<title>Node5&#45;&gt;Node6</title>
<g id="a_edge5_Node000005_Node000006"><a xlink:title=" ">
<path fill="none" stroke="#63b8ff" d="M328.93,-120.95C360.34,-111.24 402.3,-98.27 435.59,-87.98"/>
<polygon fill="#63b8ff" stroke="#63b8ff" points="436.66,-91.31 445.18,-85.01 434.59,-84.62 436.66,-91.31"/>
</a>
</g>
</g>
<!-- Node12 -->
<g id="Node000012" class="node">
<title>Node12</title>
<g id="a_Node000012"><a xlink:href="../../d1/dd8/spinBoxInputWidget_8h.html" target="_top" xlink:title=" ">
<polygon fill="white" stroke="#666666" points="404.5,-85 252.5,-85 252.5,-55 404.5,-55 404.5,-85"/>
<text text-anchor="start" x="260.5" y="-73" font-family="Helvetica,sans-Serif" font-size="10.00">../inputWidget/spinBoxInput</text>
<text text-anchor="middle" x="328.5" y="-62" font-family="Helvetica,sans-Serif" font-size="10.00">Widget.h</text>
</a>
</g>
</g>
<!-- Node5&#45;&gt;Node12 -->
<g id="edge11_Node000005_Node000012" class="edge">
<title>Node5&#45;&gt;Node12</title>
<g id="a_edge11_Node000005_Node000012"><a xlink:title=" ">
<path fill="none" stroke="#63b8ff" d="M293.49,-120.8C299.14,-112.76 306.33,-102.53 312.73,-93.43"/>
<polygon fill="#63b8ff" stroke="#63b8ff" points="315.65,-95.36 318.54,-85.16 309.93,-91.33 315.65,-95.36"/>
</a>
</g>
</g>
<!-- Node7 -->
<g id="Node000007" class="node">
<title>Node7</title>
<g id="a_Node000007"><a xlink:title=" ">
<polygon fill="#e0e0e0" stroke="#999999" points="597,-19 538,-19 538,0 597,0 597,-19"/>
<text text-anchor="middle" x="567.5" y="-7" font-family="Helvetica,sans-Serif" font-size="10.00">QWidget</text>
</a>
</g>
</g>
<!-- Node6&#45;&gt;Node7 -->
<g id="edge6_Node000006_Node000007" class="edge">
<title>Node6&#45;&gt;Node7</title>
<g id="a_edge6_Node000006_Node000007"><a xlink:title=" ">
<path fill="none" stroke="#63b8ff" d="M509.14,-54.84C520.89,-45.91 536.03,-34.41 547.95,-25.35"/>
<polygon fill="#63b8ff" stroke="#63b8ff" points="550.12,-28.1 555.96,-19.27 545.88,-22.53 550.12,-28.1"/>
</a>
</g>
</g>
<!-- Node8 -->
<g id="Node000008" class="node">
<title>Node8</title>
<g id="a_Node000008"><a xlink:title=" ">
<polygon fill="#e0e0e0" stroke="#999999" points="451,-19 388,-19 388,0 451,0 451,-19"/>
<text text-anchor="middle" x="419.5" y="-7" font-family="Helvetica,sans-Serif" font-size="10.00">QLineEdit</text>
</a>
</g>
</g>
<!-- Node6&#45;&gt;Node8 -->
<g id="edge7_Node000006_Node000008" class="edge">
<title>Node6&#45;&gt;Node8</title>
<g id="a_edge7_Node000006_Node000008"><a xlink:title=" ">
<path fill="none" stroke="#63b8ff" d="M473.31,-54.84C462.69,-46.09 449.06,-34.85 438.17,-25.88"/>
<polygon fill="#63b8ff" stroke="#63b8ff" points="440.08,-22.92 430.14,-19.27 435.63,-28.33 440.08,-22.92"/>
</a>
</g>
</g>
<!-- Node9 -->
<g id="Node000009" class="node">
<title>Node9</title>
<g id="a_Node000009"><a xlink:title=" ">
<polygon fill="#e0e0e0" stroke="#999999" points="695.5,-19 615.5,-19 615.5,0 695.5,0 695.5,-19"/>
<text text-anchor="middle" x="655.5" y="-7" font-family="Helvetica,sans-Serif" font-size="10.00">QPushButton</text>
</a>
</g>
</g>
<!-- Node6&#45;&gt;Node9 -->
<g id="edge8_Node000006_Node000009" class="edge">
<title>Node6&#45;&gt;Node9</title>
<g id="a_edge8_Node000006_Node000009"><a xlink:title=" ">
<path fill="none" stroke="#63b8ff" d="M530.02,-54.99C557.92,-45.1 594.91,-31.98 621.5,-22.56"/>
<polygon fill="#63b8ff" stroke="#63b8ff" points="622.88,-25.78 631.13,-19.14 620.54,-19.18 622.88,-25.78"/>
</a>
</g>
</g>
<!-- Node10 -->
<g id="Node000010" class="node">
<title>Node10</title>
<g id="a_Node000010"><a xlink:title=" ">
<polygon fill="#e0e0e0" stroke="#999999" points="370,-19 287,-19 287,0 370,0 370,-19"/>
<text text-anchor="middle" x="328.5" y="-7" font-family="Helvetica,sans-Serif" font-size="10.00">QHBoxLayout</text>
</a>
</g>
</g>
<!-- Node6&#45;&gt;Node10 -->
<g id="edge9_Node000006_Node000010" class="edge">
<title>Node6&#45;&gt;Node10</title>
<g id="a_edge9_Node000006_Node000010"><a xlink:title=" ">
<path fill="none" stroke="#63b8ff" d="M451.7,-54.99C424.31,-45.1 387.98,-31.98 361.89,-22.56"/>
<polygon fill="#63b8ff" stroke="#63b8ff" points="363.02,-19.24 352.42,-19.14 360.64,-25.83 363.02,-19.24"/>
</a>
</g>
</g>
<!-- Node11 -->
<g id="Node000011" class="node">
<title>Node11</title>
<g id="a_Node000011"><a xlink:title=" ">
<polygon fill="#e0e0e0" stroke="#999999" points="519.5,-19 469.5,-19 469.5,0 519.5,0 519.5,-19"/>
<text text-anchor="middle" x="494.5" y="-7" font-family="Helvetica,sans-Serif" font-size="10.00">QLabel</text>
</a>
</g>
</g>
<!-- Node6&#45;&gt;Node11 -->
<g id="edge10_Node000006_Node000011" class="edge">
<title>Node6&#45;&gt;Node11</title>
<g id="a_edge10_Node000006_Node000011"><a xlink:title=" ">
<path fill="none" stroke="#63b8ff" d="M491.47,-54.84C491.99,-47.21 492.64,-37.7 493.2,-29.45"/>
<polygon fill="#63b8ff" stroke="#63b8ff" points="496.71,-29.48 493.9,-19.27 489.73,-29 496.71,-29.48"/>
</a>
</g>
</g>
<!-- Node12&#45;&gt;Node7 -->
<g id="edge12_Node000012_Node000007" class="edge">
<title>Node12&#45;&gt;Node7</title>
<g id="a_edge12_Node000012_Node000007"><a xlink:title=" ">
<path fill="none" stroke="#63b8ff" d="M385.75,-54.99C429.74,-44.22 489.34,-29.63 528.1,-20.14"/>
<polygon fill="#63b8ff" stroke="#63b8ff" points="529.09,-23.51 537.97,-17.73 527.42,-16.71 529.09,-23.51"/>
</a>
</g>
</g>
<!-- Node12&#45;&gt;Node10 -->
<g id="edge14_Node000012_Node000010" class="edge">
<title>Node12&#45;&gt;Node10</title>
<g id="a_edge14_Node000012_Node000010"><a xlink:title=" ">
<path fill="none" stroke="#63b8ff" d="M328.5,-54.84C328.5,-47.21 328.5,-37.7 328.5,-29.45"/>
<polygon fill="#63b8ff" stroke="#63b8ff" points="332,-29.27 328.5,-19.27 325,-29.27 332,-29.27"/>
</a>
</g>
</g>
<!-- Node12&#45;&gt;Node11 -->
<g id="edge15_Node000012_Node000011" class="edge">
<title>Node12&#45;&gt;Node11</title>
<g id="a_edge15_Node000012_Node000011"><a xlink:title=" ">
<path fill="none" stroke="#63b8ff" d="M368.26,-54.99C396.33,-45.1 433.55,-31.98 460.29,-22.56"/>
<polygon fill="#63b8ff" stroke="#63b8ff" points="461.72,-25.76 469.99,-19.14 459.39,-19.16 461.72,-25.76"/>
</a>
</g>
</g>
<!-- Node13 -->
<g id="Node000013" class="node">
<title>Node13</title>
<g id="a_Node000013"><a xlink:title=" ">
<polygon fill="#e0e0e0" stroke="#999999" points="268.5,-19 204.5,-19 204.5,0 268.5,0 268.5,-19"/>
<text text-anchor="middle" x="236.5" y="-7" font-family="Helvetica,sans-Serif" font-size="10.00">QSpinBox</text>
</a>
</g>
</g>
<!-- Node12&#45;&gt;Node13 -->
<g id="edge13_Node000012_Node000013" class="edge">
<title>Node12&#45;&gt;Node13</title>
<g id="a_edge13_Node000012_Node000013"><a xlink:title=" ">
<path fill="none" stroke="#63b8ff" d="M306.23,-54.84C291.83,-45.68 273.17,-33.82 258.77,-24.66"/>
<polygon fill="#63b8ff" stroke="#63b8ff" points="260.33,-21.51 250.02,-19.09 256.58,-27.41 260.33,-21.51"/>
</a>
</g>
</g>
<!-- Node14&#45;&gt;Node6 -->
<g id="edge17_Node000014_Node000006" class="edge">
<title>Node14&#45;&gt;Node6</title>
<g id="a_edge17_Node000014_Node000006"><a xlink:title=" ">
<path fill="none" stroke="#63b8ff" d="M502.95,-120.8C501.06,-113.26 498.7,-103.78 496.53,-95.13"/>
<polygon fill="#63b8ff" stroke="#63b8ff" points="499.86,-94.02 494.04,-85.16 493.07,-95.71 499.86,-94.02"/>
</a>
</g>
</g>
<!-- Node15&#45;&gt;Node7 -->
<g id="edge20_Node000015_Node000007" class="edge">
<title>Node15&#45;&gt;Node7</title>
<g id="a_edge20_Node000015_Node000007"><a xlink:title=" ">
<path fill="none" stroke="#63b8ff" d="M634.2,-54.84C620.43,-45.68 602.57,-33.82 588.8,-24.66"/>
<polygon fill="#63b8ff" stroke="#63b8ff" points="590.69,-21.72 580.43,-19.09 586.82,-27.55 590.69,-21.72"/>
</a>
</g>
</g>
<!-- Node15&#45;&gt;Node9 -->
<g id="edge22_Node000015_Node000009" class="edge">
<title>Node15&#45;&gt;Node9</title>
<g id="a_edge22_Node000015_Node000009"><a xlink:title=" ">
<path fill="none" stroke="#63b8ff" d="M655.5,-54.84C655.5,-47.21 655.5,-37.7 655.5,-29.45"/>
<polygon fill="#63b8ff" stroke="#63b8ff" points="659,-29.27 655.5,-19.27 652,-29.27 659,-29.27"/>
</a>
</g>
</g>
<!-- Node15&#45;&gt;Node10 -->
<g id="edge23_Node000015_Node000010" class="edge">
<title>Node15&#45;&gt;Node10</title>
<g id="a_edge23_Node000015_Node000010"><a xlink:title=" ">
<path fill="none" stroke="#63b8ff" d="M577.59,-55.06C516.54,-44.14 433.32,-29.25 380.24,-19.76"/>
<polygon fill="#63b8ff" stroke="#63b8ff" points="380.83,-16.31 370.37,-17.99 379.59,-23.2 380.83,-16.31"/>
</a>
</g>
</g>
<!-- Node15&#45;&gt;Node11 -->
<g id="edge24_Node000015_Node000011" class="edge">
<title>Node15&#45;&gt;Node11</title>
<g id="a_edge24_Node000015_Node000011"><a xlink:title=" ">
<path fill="none" stroke="#63b8ff" d="M616.94,-54.99C589.71,-45.1 553.62,-31.98 527.68,-22.56"/>
<polygon fill="#63b8ff" stroke="#63b8ff" points="528.87,-19.26 518.28,-19.14 526.48,-25.84 528.87,-19.26"/>
</a>
</g>
</g>
<!-- Node16 -->
<g id="Node000016" class="node">
<title>Node16</title>
<g id="a_Node000016"><a xlink:title=" ">
<polygon fill="#e0e0e0" stroke="#999999" points="779.5,-19 713.5,-19 713.5,0 779.5,0 779.5,-19"/>
<text text-anchor="middle" x="746.5" y="-7" font-family="Helvetica,sans-Serif" font-size="10.00">QDateEdit</text>
</a>
</g>
</g>
<!-- Node15&#45;&gt;Node16 -->
<g id="edge21_Node000015_Node000016" class="edge">
<title>Node15&#45;&gt;Node16</title>
<g id="a_edge21_Node000015_Node000016"><a xlink:title=" ">
<path fill="none" stroke="#63b8ff" d="M677.53,-54.84C691.77,-45.68 710.23,-33.82 724.47,-24.66"/>
<polygon fill="#63b8ff" stroke="#63b8ff" points="726.61,-27.45 733.13,-19.09 722.83,-21.56 726.61,-27.45"/>
</a>
</g>
</g>
<!-- Node20 -->
<g id="Node000020" class="node">
<title>Node20</title>
<g id="a_Node000020"><a xlink:title=" ">
<polygon fill="#e0e0e0" stroke="#999999" points="1009.5,-79.5 977.5,-79.5 977.5,-60.5 1009.5,-60.5 1009.5,-79.5"/>
<text text-anchor="middle" x="993.5" y="-67.5" font-family="Helvetica,sans-Serif" font-size="10.00">list</text>
</a>
</g>
</g>
<!-- Node19&#45;&gt;Node20 -->
<g id="edge28_Node000019_Node000020" class="edge">
<title>Node19&#45;&gt;Node20</title>
<g id="a_edge28_Node000019_Node000020"><a xlink:title=" ">
<path fill="none" stroke="#63b8ff" d="M1027.73,-120.8C1021.14,-111.21 1012.41,-98.5 1005.41,-88.32"/>
<polygon fill="#63b8ff" stroke="#63b8ff" points="1008.13,-86.1 999.58,-79.84 1002.36,-90.07 1008.13,-86.1"/>
</a>
</g>
</g>
<!-- Node21 -->
<g id="Node000021" class="node">
<title>Node21</title>
<g id="a_Node000021"><a xlink:title=" ">
<polygon fill="#e0e0e0" stroke="#999999" points="959,-79.5 864,-79.5 864,-60.5 959,-60.5 959,-79.5"/>
<text text-anchor="middle" x="911.5" y="-67.5" font-family="Helvetica,sans-Serif" font-size="10.00">qdatetimeedit.h</text>
</a>
</g>
</g>
<!-- Node19&#45;&gt;Node21 -->
<g id="edge29_Node000019_Node000021" class="edge">
<title>Node19&#45;&gt;Node21</title>
<g id="a_edge29_Node000019_Node000021"><a xlink:title=" ">
<path fill="none" stroke="#63b8ff" d="M1009.85,-120.95C988.24,-109.98 958.42,-94.83 937.3,-84.11"/>
<polygon fill="#63b8ff" stroke="#63b8ff" points="938.77,-80.93 928.27,-79.52 935.6,-87.17 938.77,-80.93"/>
</a>
</g>
</g>
<!-- Node22 -->
<g id="Node000022" class="node">
<title>Node22</title>
<g id="a_Node000022"><a xlink:title=" ">
<polygon fill="#e0e0e0" stroke="#999999" points="1149.5,-19 1105.5,-19 1105.5,0 1149.5,0 1149.5,-19"/>
<text text-anchor="middle" x="1127.5" y="-7" font-family="Helvetica,sans-Serif" font-size="10.00">string</text>
</a>
</g>
</g>
<!-- Node19&#45;&gt;Node22 -->
<g id="edge30_Node000019_Node000022" class="edge">
<title>Node19&#45;&gt;Node22</title>
<g id="a_edge30_Node000019_Node000022"><a xlink:title=" ">
<path fill="none" stroke="#63b8ff" d="M1037.69,-120.96C1038.58,-103.87 1042.28,-74.84 1056.5,-55 1066.35,-41.26 1081.88,-30.83 1095.91,-23.53"/>
<polygon fill="#63b8ff" stroke="#63b8ff" points="1097.83,-26.49 1105.3,-18.97 1094.77,-20.19 1097.83,-26.49"/>
</a>
</g>
</g>
<!-- Node19&#45;&gt;Node23 -->
<g id="edge31_Node000019_Node000023" class="edge">
<title>Node19&#45;&gt;Node23</title>
<g id="a_edge31_Node000019_Node000023"><a xlink:title=" ">
<path fill="none" stroke="#63b8ff" d="M985.71,-120.95C942.77,-109.31 882.54,-92.98 842.8,-82.2"/>
<polygon fill="#63b8ff" stroke="#63b8ff" points="843.48,-78.76 832.91,-79.52 841.64,-85.51 843.48,-78.76"/>
</a>
</g>
</g>
<!-- Node19&#45;&gt;Node24 -->
<g id="edge33_Node000019_Node000024" class="edge">
<title>Node19&#45;&gt;Node24</title>
<g id="a_edge33_Node000019_Node000024"><a xlink:title=" ">
<path fill="none" stroke="#63b8ff" d="M1057.47,-120.8C1072.14,-110.37 1092.01,-96.24 1106.84,-85.69"/>
<polygon fill="#63b8ff" stroke="#63b8ff" points="1109.2,-88.31 1115.32,-79.66 1105.15,-82.6 1109.2,-88.31"/>
</a>
</g>
</g>
<!-- Node23&#45;&gt;Node22 -->
<g id="edge32_Node000023_Node000022" class="edge">
<title>Node23&#45;&gt;Node22</title>
<g id="a_edge32_Node000023_Node000022"><a xlink:title=" ">
<path fill="none" stroke="#63b8ff" d="M831.65,-60.5C839.09,-58.55 847.05,-56.59 854.5,-55 940.88,-36.6 1044.05,-21.67 1095.3,-14.72"/>
<polygon fill="#63b8ff" stroke="#63b8ff" points="1095.98,-18.16 1105.43,-13.36 1095.05,-11.22 1095.98,-18.16"/>
</a>
</g>
</g>
<!-- Node24&#45;&gt;Node22 -->
<g id="edge34_Node000024_Node000022" class="edge">
<title>Node24&#45;&gt;Node22</title>
<g id="a_edge34_Node000024_Node000022"><a xlink:title=" ">
<path fill="none" stroke="#63b8ff" d="M1127.5,-60.37C1127.5,-52.25 1127.5,-39.81 1127.5,-29.39"/>
<polygon fill="#63b8ff" stroke="#63b8ff" points="1131,-29.17 1127.5,-19.17 1124,-29.17 1131,-29.17"/>
</a>
</g>
</g>
<!-- Node25&#45;&gt;Node19 -->
<g id="edge50_Node000025_Node000019" class="edge">
<title>Node25&#45;&gt;Node19</title>
<g id="a_edge50_Node000025_Node000019"><a xlink:title=" ">
<path fill="none" stroke="#63b8ff" d="M1249.44,-186.99C1212.27,-178.23 1153.37,-164.33 1107.09,-153.42"/>
<polygon fill="#63b8ff" stroke="#63b8ff" points="1107.66,-149.95 1097.12,-151.06 1106.05,-156.77 1107.66,-149.95"/>
</a>
</g>
</g>
<!-- Node26 -->
<g id="Node000026" class="node">
<title>Node26</title>
<g id="a_Node000026"><a xlink:title=" ">
<polygon fill="#e0e0e0" stroke="#999999" points="1559,-79.5 1512,-79.5 1512,-60.5 1559,-60.5 1559,-79.5"/>
<text text-anchor="middle" x="1535.5" y="-67.5" font-family="Helvetica,sans-Serif" font-size="10.00">hpdf.h</text>
</a>
</g>
</g>
<!-- Node25&#45;&gt;Node26 -->
<g id="edge38_Node000025_Node000026" class="edge">
<title>Node25&#45;&gt;Node26</title>
<g id="a_edge38_Node000025_Node000026"><a xlink:title=" ">
<path fill="none" stroke="#63b8ff" d="M1312.33,-186.96C1336.64,-178.86 1373.18,-165.75 1403.5,-151 1444.49,-131.06 1489.29,-102.3 1514.74,-85.24"/>
<polygon fill="#63b8ff" stroke="#63b8ff" points="1516.87,-88.02 1523.19,-79.52 1512.95,-82.22 1516.87,-88.02"/>
</a>
</g>
</g>
<!-- Node27 -->
<g id="Node000027" class="node">
<title>Node27</title>
<g id="a_Node000027"><a xlink:href="../../d1/d5c/pdf__utils_8h.html" target="_top" xlink:title=" ">
<polygon fill="white" stroke="#666666" points="1394.5,-145.5 1326.5,-145.5 1326.5,-126.5 1394.5,-126.5 1394.5,-145.5"/>
<text text-anchor="middle" x="1360.5" y="-133.5" font-family="Helvetica,sans-Serif" font-size="10.00">pdf_utils.h</text>
</a>
</g>
</g>
<!-- Node25&#45;&gt;Node27 -->
<g id="edge39_Node000025_Node000027" class="edge">
<title>Node25&#45;&gt;Node27</title>
<g id="a_edge39_Node000025_Node000027"><a xlink:title=" ">
<path fill="none" stroke="#63b8ff" d="M1296.57,-186.87C1308.31,-177.71 1327.09,-163.06 1341.26,-152.01"/>
<polygon fill="#63b8ff" stroke="#63b8ff" points="1343.66,-154.58 1349.39,-145.67 1339.35,-149.06 1343.66,-154.58"/>
</a>
</g>
</g>
<!-- Node27&#45;&gt;Node22 -->
<g id="edge42_Node000027_Node000022" class="edge">
<title>Node27&#45;&gt;Node22</title>
<g id="a_edge42_Node000027_Node000022"><a xlink:title=" ">
<path fill="none" stroke="#63b8ff" d="M1357.76,-126.47C1352.01,-109.95 1337.04,-73.6 1311.5,-55 1265.99,-21.87 1199,-13.15 1159.65,-11.01"/>
<polygon fill="#63b8ff" stroke="#63b8ff" points="1159.71,-7.51 1149.57,-10.57 1159.41,-14.5 1159.71,-7.51"/>
</a>
</g>
</g>
<!-- Node27&#45;&gt;Node26 -->
<g id="edge40_Node000027_Node000026" class="edge">
<title>Node27&#45;&gt;Node26</title>
<g id="a_edge40_Node000027_Node000026"><a xlink:title=" ">
<path fill="none" stroke="#63b8ff" d="M1386.33,-126.45C1414.92,-116.85 1462.29,-100.59 1502.5,-85 1503.71,-84.53 1504.94,-84.05 1506.18,-83.55"/>
<polygon fill="#63b8ff" stroke="#63b8ff" points="1507.77,-86.68 1515.69,-79.64 1505.11,-80.21 1507.77,-86.68"/>
</a>
</g>
</g>
<!-- Node28 -->
<g id="Node000028" class="node">
<title>Node28</title>
<g id="a_Node000028"><a xlink:title=" ">
<polygon fill="#e0e0e0" stroke="#999999" points="1419.5,-79.5 1359.5,-79.5 1359.5,-60.5 1419.5,-60.5 1419.5,-79.5"/>
<text text-anchor="middle" x="1389.5" y="-67.5" font-family="Helvetica,sans-Serif" font-size="10.00">iostream</text>
</a>
</g>
</g>
<!-- Node27&#45;&gt;Node28 -->
<g id="edge41_Node000027_Node000028" class="edge">
<title>Node27&#45;&gt;Node28</title>
<g id="a_edge41_Node000027_Node000028"><a xlink:title=" ">
<path fill="none" stroke="#63b8ff" d="M1364.41,-126.37C1368.71,-116.88 1375.74,-101.36 1381.27,-89.16"/>
<polygon fill="#63b8ff" stroke="#63b8ff" points="1384.53,-90.46 1385.46,-79.91 1378.15,-87.57 1384.53,-90.46"/>
</a>
</g>
</g>
<!-- Node27&#45;&gt;Node29 -->
<g id="edge43_Node000027_Node000029" class="edge">
<title>Node27&#45;&gt;Node29</title>
<g id="a_edge43_Node000027_Node000029"><a xlink:title=" ">
<path fill="none" stroke="#63b8ff" d="M1346.34,-126.37C1328.96,-115.78 1299.26,-97.67 1278.57,-85.06"/>
<polygon fill="#63b8ff" stroke="#63b8ff" points="1280.13,-81.92 1269.77,-79.7 1276.49,-87.89 1280.13,-81.92"/>
</a>
</g>
</g>
<!-- Node30 -->
<g id="Node000030" class="node">
<title>Node30</title>
<g id="a_Node000030"><a xlink:href="../../d5/d60/utils_8h.html" target="_top" xlink:title=" ">
<polygon fill="white" stroke="#666666" points="1493.5,-79.5 1437.5,-79.5 1437.5,-60.5 1493.5,-60.5 1493.5,-79.5"/>
<text text-anchor="middle" x="1465.5" y="-67.5" font-family="Helvetica,sans-Serif" font-size="10.00">../utils.h</text>
</a>
</g>
</g>
<!-- Node27&#45;&gt;Node30 -->
<g id="edge45_Node000027_Node000030" class="edge">
<title>Node27&#45;&gt;Node30</title>
<g id="a_edge45_Node000027_Node000030"><a xlink:title=" ">
<path fill="none" stroke="#63b8ff" d="M1374.66,-126.37C1392.04,-115.78 1421.74,-97.67 1442.43,-85.06"/>
<polygon fill="#63b8ff" stroke="#63b8ff" points="1444.51,-87.89 1451.23,-79.7 1440.87,-81.92 1444.51,-87.89"/>
</a>
</g>
</g>
<!-- Node29&#45;&gt;Node22 -->
<g id="edge44_Node000029_Node000022" class="edge">
<title>Node29&#45;&gt;Node22</title>
<g id="a_edge44_Node000029_Node000022"><a xlink:title=" ">
<path fill="none" stroke="#63b8ff" d="M1236.89,-60.49C1215.46,-50.7 1180.06,-34.52 1155.35,-23.23"/>
<polygon fill="#63b8ff" stroke="#63b8ff" points="1156.68,-19.99 1146.13,-19.02 1153.78,-26.36 1156.68,-19.99"/>
</a>
</g>
</g>
<!-- Node31 -->
<g id="Node000031" class="node">
<title>Node31</title>
<g id="a_Node000031"><a xlink:title=" ">
<polygon fill="#e0e0e0" stroke="#999999" points="1378,-19 1327,-19 1327,0 1378,0 1378,-19"/>
<text text-anchor="middle" x="1352.5" y="-7" font-family="Helvetica,sans-Serif" font-size="10.00">iconv.h</text>
</a>
</g>
</g>
<!-- Node30&#45;&gt;Node31 -->
<g id="edge46_Node000030_Node000031" class="edge">
<title>Node30&#45;&gt;Node31</title>
<g id="a_edge46_Node000030_Node000031"><a xlink:title=" ">
<path fill="none" stroke="#63b8ff" d="M1448.83,-60.37C1430.22,-50.73 1399.88,-35.03 1378.22,-23.81"/>
<polygon fill="#63b8ff" stroke="#63b8ff" points="1379.73,-20.66 1369.24,-19.17 1376.51,-26.87 1379.73,-20.66"/>
</a>
</g>
</g>
<!-- Node32 -->
<g id="Node000032" class="node">
<title>Node32</title>
<g id="a_Node000032"><a xlink:title=" ">
<polygon fill="#e0e0e0" stroke="#999999" points="1461,-19 1396,-19 1396,0 1461,0 1461,-19"/>
<text text-anchor="middle" x="1428.5" y="-7" font-family="Helvetica,sans-Serif" font-size="10.00">stdexcept</text>
</a>
</g>
</g>
<!-- Node30&#45;&gt;Node32 -->
<g id="edge47_Node000030_Node000032" class="edge">
<title>Node30&#45;&gt;Node32</title>
<g id="a_edge47_Node000030_Node000032"><a xlink:title=" ">
<path fill="none" stroke="#63b8ff" d="M1460.04,-60.37C1454.63,-51.81 1446.19,-38.47 1439.4,-27.74"/>
<polygon fill="#63b8ff" stroke="#63b8ff" points="1442.29,-25.75 1433.98,-19.17 1436.37,-29.49 1442.29,-25.75"/>
</a>
</g>
</g>
<!-- Node33 -->
<g id="Node000033" class="node">
<title>Node33</title>
<g id="a_Node000033"><a xlink:title=" ">
<polygon fill="#e0e0e0" stroke="#999999" points="1526,-19 1479,-19 1479,0 1526,0 1526,-19"/>
<text text-anchor="middle" x="1502.5" y="-7" font-family="Helvetica,sans-Serif" font-size="10.00">vector</text>
</a>
</g>
</g>
<!-- Node30&#45;&gt;Node33 -->
<g id="edge48_Node000030_Node000033" class="edge">
<title>Node30&#45;&gt;Node33</title>
<g id="a_edge48_Node000030_Node000033"><a xlink:title=" ">
<path fill="none" stroke="#63b8ff" d="M1470.96,-60.37C1476.37,-51.81 1484.81,-38.47 1491.6,-27.74"/>
<polygon fill="#63b8ff" stroke="#63b8ff" points="1494.63,-29.49 1497.02,-19.17 1488.71,-25.75 1494.63,-29.49"/>
</a>
</g>
</g>
<!-- Node34 -->
<g id="Node000034" class="node">
<title>Node34</title>
<g id="a_Node000034"><a xlink:title=" ">
<polygon fill="#e0e0e0" stroke="#999999" points="1600.5,-19 1544.5,-19 1544.5,0 1600.5,0 1600.5,-19"/>
<text text-anchor="middle" x="1572.5" y="-7" font-family="Helvetica,sans-Serif" font-size="10.00">sstream</text>
</a>
</g>
</g>
<!-- Node30&#45;&gt;Node34 -->
<g id="edge49_Node000030_Node000034" class="edge">
<title>Node30&#45;&gt;Node34</title>
<g id="a_edge49_Node000030_Node000034"><a xlink:title=" ">
<path fill="none" stroke="#63b8ff" d="M1481.29,-60.37C1498.83,-50.78 1527.38,-35.17 1547.87,-23.97"/>
<polygon fill="#63b8ff" stroke="#63b8ff" points="1549.55,-27.04 1556.65,-19.17 1546.19,-20.89 1549.55,-27.04"/>
</a>
</g>
</g>
</g>
</svg>
