<?xml version="1.0" encoding="UTF-8" standalone="no"?>
<!DOCTYPE svg PUBLIC "-//W3C//DTD SVG 1.1//EN"
 "http://www.w3.org/Graphics/SVG/1.1/DTD/svg11.dtd">
<!-- Generated by graphviz version 2.43.0 (0)
 -->
<!-- Title: main.cpp Pages: 1 -->
<svg width="799pt" height="269pt"
 viewBox="0.00 0.00 799.00 269.00" xmlns="http://www.w3.org/2000/svg" xmlns:xlink="http://www.w3.org/1999/xlink">
<g id="graph0" class="graph" transform="scale(1 1) rotate(0) translate(4 265)">
<title>main.cpp</title>
<!-- Node1 -->
<g id="Node000001" class="node">
<title>Node1</title>
<g id="a_Node000001"><a xlink:title=" ">
<polygon fill="#999999" stroke="#666666" points="553.5,-261 491.5,-261 491.5,-242 553.5,-242 553.5,-261"/>
<text text-anchor="middle" x="522.5" y="-249" font-family="Helvetica,sans-Serif" font-size="10.00">main.cpp</text>
</a>
</g>
</g>
<!-- Node2 -->
<g id="Node000002" class="node">
<title>Node2</title>
<g id="a_Node000002"><a xlink:href="../../d9/d53/mainwindow_8h.html" target="_top" xlink:title=" ">
<polygon fill="white" stroke="#666666" points="519,-206 420,-206 420,-187 519,-187 519,-206"/>
<text text-anchor="middle" x="469.5" y="-194" font-family="Helvetica,sans-Serif" font-size="10.00">ui/mainwindow.h</text>
</a>
</g>
</g>
<!-- Node1&#45;&gt;Node2 -->
<g id="edge1_Node000001_Node000002" class="edge">
<title>Node1&#45;&gt;Node2</title>
<g id="a_edge1_Node000001_Node000002"><a xlink:title=" ">
<path fill="none" stroke="#63b8ff" d="M513.75,-241.75C506.03,-234.03 494.6,-222.6 485.28,-213.28"/>
<polygon fill="#63b8ff" stroke="#63b8ff" points="487.64,-210.69 478.09,-206.09 482.69,-215.64 487.64,-210.69"/>
</a>
</g>
</g>
<!-- Node18 -->
<g id="Node000018" class="node">
<title>Node18</title>
<g id="a_Node000018"><a xlink:title=" ">
<polygon fill="#e0e0e0" stroke="#999999" points="616,-206 537,-206 537,-187 616,-187 616,-206"/>
<text text-anchor="middle" x="576.5" y="-194" font-family="Helvetica,sans-Serif" font-size="10.00">QApplication</text>
</a>
</g>
</g>
<!-- Node1&#45;&gt;Node18 -->
<g id="edge26_Node000001_Node000018" class="edge">
<title>Node1&#45;&gt;Node18</title>
<g id="a_edge26_Node000001_Node000018"><a xlink:title=" ">
<path fill="none" stroke="#63b8ff" d="M531.42,-241.75C539.28,-234.03 550.93,-222.6 560.42,-213.28"/>
<polygon fill="#63b8ff" stroke="#63b8ff" points="563.06,-215.59 567.75,-206.09 558.16,-210.6 563.06,-215.59"/>
</a>
</g>
</g>
<!-- Node3 -->
<g id="Node000003" class="node">
<title>Node3</title>
<g id="a_Node000003"><a xlink:title=" ">
<polygon fill="#e0e0e0" stroke="#999999" points="87,-145.5 0,-145.5 0,-126.5 87,-126.5 87,-145.5"/>
<text text-anchor="middle" x="43.5" y="-133.5" font-family="Helvetica,sans-Serif" font-size="10.00">QMainWindow</text>
</a>
</g>
</g>
<!-- Node2&#45;&gt;Node3 -->
<g id="edge2_Node000002_Node000003" class="edge">
<title>Node2&#45;&gt;Node3</title>
<g id="a_edge2_Node000002_Node000003"><a xlink:title=" ">
<path fill="none" stroke="#63b8ff" d="M419.99,-191.81C348.22,-185.95 211.33,-172.91 96.5,-151 92.01,-150.14 87.35,-149.12 82.73,-148.01"/>
<polygon fill="#63b8ff" stroke="#63b8ff" points="83.32,-144.55 72.77,-145.51 81.61,-151.34 83.32,-144.55"/>
</a>
</g>
</g>
<!-- Node4 -->
<g id="Node000004" class="node">
<title>Node4</title>
<g id="a_Node000004"><a xlink:title=" ">
<polygon fill="#e0e0e0" stroke="#999999" points="181.5,-145.5 105.5,-145.5 105.5,-126.5 181.5,-126.5 181.5,-145.5"/>
<text text-anchor="middle" x="143.5" y="-133.5" font-family="Helvetica,sans-Serif" font-size="10.00">QListWidget</text>
</a>
</g>
</g>
<!-- Node2&#45;&gt;Node4 -->
<g id="edge3_Node000002_Node000004" class="edge">
<title>Node2&#45;&gt;Node4</title>
<g id="a_edge3_Node000002_Node000004"><a xlink:title=" ">
<path fill="none" stroke="#63b8ff" d="M419.99,-189.6C363.92,-182.46 270.01,-169.1 190.5,-151 187.08,-150.22 183.53,-149.33 180,-148.38"/>
<polygon fill="#63b8ff" stroke="#63b8ff" points="180.76,-144.96 170.18,-145.61 178.86,-151.69 180.76,-144.96"/>
</a>
</g>
</g>
<!-- Node5 -->
<g id="Node000005" class="node">
<title>Node5</title>
<g id="a_Node000005"><a xlink:href="../../d8/d44/productWidget_8h.html" target="_top" xlink:title=" ">
<polygon fill="white" stroke="#666666" points="367,-151 200,-151 200,-121 367,-121 367,-151"/>
<text text-anchor="start" x="208" y="-139" font-family="Helvetica,sans-Serif" font-size="10.00">customWidgets/productWidget</text>
<text text-anchor="middle" x="283.5" y="-128" font-family="Helvetica,sans-Serif" font-size="10.00">/productWidget.h</text>
</a>
</g>
</g>
<!-- Node2&#45;&gt;Node5 -->
<g id="edge4_Node000002_Node000005" class="edge">
<title>Node2&#45;&gt;Node5</title>
<g id="a_edge4_Node000002_Node000005"><a xlink:title=" ">
<path fill="none" stroke="#63b8ff" d="M442.45,-186.99C415.22,-178.43 372.43,-164.97 338.11,-154.18"/>
<polygon fill="#63b8ff" stroke="#63b8ff" points="338.81,-150.73 328.22,-151.06 336.71,-157.4 338.81,-150.73"/>
</a>
</g>
</g>
<!-- Node6 -->
<g id="Node000006" class="node">
<title>Node6</title>
<g id="a_Node000006"><a xlink:href="../../d3/df2/textInputWidget_8h.html" target="_top" xlink:title=" ">
<polygon fill="white" stroke="#666666" points="523.5,-85 391.5,-85 391.5,-55 523.5,-55 523.5,-85"/>
<text text-anchor="start" x="399.5" y="-73" font-family="Helvetica,sans-Serif" font-size="10.00">../inputWidget/textInput</text>
<text text-anchor="middle" x="457.5" y="-62" font-family="Helvetica,sans-Serif" font-size="10.00">Widget.h</text>
</a>
</g>
</g>
<!-- Node2&#45;&gt;Node6 -->
<g id="edge18_Node000002_Node000006" class="edge">
<title>Node2&#45;&gt;Node6</title>
<g id="a_edge18_Node000002_Node000006"><a xlink:title=" ">
<path fill="none" stroke="#63b8ff" d="M509.7,-186.87C529.19,-180.45 550.86,-169.48 562.5,-151 569.61,-139.72 569.62,-132.27 562.5,-121 553.57,-106.86 539.43,-96.64 524.39,-89.28"/>
<polygon fill="#63b8ff" stroke="#63b8ff" points="525.5,-85.94 514.94,-85.05 522.64,-92.33 525.5,-85.94"/>
</a>
</g>
</g>
<!-- Node14 -->
<g id="Node000014" class="node">
<title>Node14</title>
<g id="a_Node000014"><a xlink:href="../../d1/db6/representativeWidget_8h.html" target="_top" xlink:title=" ">
<polygon fill="white" stroke="#666666" points="554,-151 385,-151 385,-121 554,-121 554,-151"/>
<text text-anchor="start" x="393" y="-139" font-family="Helvetica,sans-Serif" font-size="10.00">customWidgets/representative</text>
<text text-anchor="middle" x="469.5" y="-128" font-family="Helvetica,sans-Serif" font-size="10.00">Widget/representativeWidget.h</text>
</a>
</g>
</g>
<!-- Node2&#45;&gt;Node14 -->
<g id="edge16_Node000002_Node000014" class="edge">
<title>Node2&#45;&gt;Node14</title>
<g id="a_edge16_Node000002_Node000014"><a xlink:title=" ">
<path fill="none" stroke="#63b8ff" d="M469.5,-186.87C469.5,-180.11 469.5,-170.35 469.5,-161.26"/>
<polygon fill="#63b8ff" stroke="#63b8ff" points="473,-161.11 469.5,-151.11 466,-161.11 473,-161.11"/>
</a>
</g>
</g>
<!-- Node15 -->
<g id="Node000015" class="node">
<title>Node15</title>
<g id="a_Node000015"><a xlink:href="../../d5/d96/dateInputWidget_8h.html" target="_top" xlink:title=" ">
<polygon fill="white" stroke="#666666" points="697,-85 542,-85 542,-55 697,-55 697,-85"/>
<text text-anchor="start" x="550" y="-73" font-family="Helvetica,sans-Serif" font-size="10.00">customWidgets/inputWidget</text>
<text text-anchor="middle" x="619.5" y="-62" font-family="Helvetica,sans-Serif" font-size="10.00">/dateInputWidget.h</text>
</a>
</g>
</g>
<!-- Node2&#45;&gt;Node15 -->
<g id="edge19_Node000002_Node000015" class="edge">
<title>Node2&#45;&gt;Node15</title>
<g id="a_edge19_Node000002_Node000015"><a xlink:title=" ">
<path fill="none" stroke="#63b8ff" d="M507.97,-186.98C530.69,-180.33 558.77,-169.1 578.5,-151 595.13,-135.74 606.06,-112.19 612.41,-94.59"/>
<polygon fill="#63b8ff" stroke="#63b8ff" points="615.76,-95.61 615.64,-85.02 609.13,-93.38 615.76,-95.61"/>
</a>
</g>
</g>
<!-- Node17 -->
<g id="Node000017" class="node">
<title>Node17</title>
<g id="a_Node000017"><a xlink:title=" ">
<polygon fill="#e0e0e0" stroke="#999999" points="791,-145.5 648,-145.5 648,-126.5 791,-126.5 791,-145.5"/>
<text text-anchor="middle" x="719.5" y="-133.5" font-family="Helvetica,sans-Serif" font-size="10.00">QtCore/qcoreapplication.h</text>
</a>
</g>
</g>
<!-- Node2&#45;&gt;Node17 -->
<g id="edge25_Node000002_Node000017" class="edge">
<title>Node2&#45;&gt;Node17</title>
<g id="a_edge25_Node000002_Node000017"><a xlink:title=" ">
<path fill="none" stroke="#63b8ff" d="M505.85,-186.99C550.1,-176.64 624.89,-159.14 673.21,-147.83"/>
<polygon fill="#63b8ff" stroke="#63b8ff" points="674.16,-151.2 683.1,-145.52 672.57,-144.39 674.16,-151.2"/>
</a>
</g>
</g>
<!-- Node5&#45;&gt;Node6 -->
<g id="edge5_Node000005_Node000006" class="edge">
<title>Node5&#45;&gt;Node6</title>
<g id="a_edge5_Node000005_Node000006"><a xlink:title=" ">
<path fill="none" stroke="#63b8ff" d="M321.69,-120.95C347.64,-111.41 382.16,-98.71 409.9,-88.51"/>
<polygon fill="#63b8ff" stroke="#63b8ff" points="411.23,-91.75 419.4,-85.01 408.81,-85.18 411.23,-91.75"/>
</a>
</g>
</g>
<!-- Node12 -->
<g id="Node000012" class="node">
<title>Node12</title>
<g id="a_Node000012"><a xlink:href="../../d1/dd8/spinBoxInputWidget_8h.html" target="_top" xlink:title=" ">
<polygon fill="white" stroke="#666666" points="371.5,-85 219.5,-85 219.5,-55 371.5,-55 371.5,-85"/>
<text text-anchor="start" x="227.5" y="-73" font-family="Helvetica,sans-Serif" font-size="10.00">../inputWidget/spinBoxInput</text>
<text text-anchor="middle" x="295.5" y="-62" font-family="Helvetica,sans-Serif" font-size="10.00">Widget.h</text>
</a>
</g>
</g>
<!-- Node5&#45;&gt;Node12 -->
<g id="edge11_Node000005_Node000012" class="edge">
<title>Node5&#45;&gt;Node12</title>
<g id="a_edge11_Node000005_Node000012"><a xlink:title=" ">
<path fill="none" stroke="#63b8ff" d="M286.16,-120.8C287.58,-113.26 289.35,-103.78 290.98,-95.13"/>
<polygon fill="#63b8ff" stroke="#63b8ff" points="294.44,-95.64 292.84,-85.16 287.56,-94.35 294.44,-95.64"/>
</a>
</g>
</g>
<!-- Node7 -->
<g id="Node000007" class="node">
<title>Node7</title>
<g id="a_Node000007"><a xlink:title=" ">
<polygon fill="#e0e0e0" stroke="#999999" points="398,-19 339,-19 339,0 398,0 398,-19"/>
<text text-anchor="middle" x="368.5" y="-7" font-family="Helvetica,sans-Serif" font-size="10.00">QWidget</text>
</a>
</g>
</g>
<!-- Node6&#45;&gt;Node7 -->
<g id="edge6_Node000006_Node000007" class="edge">
<title>Node6&#45;&gt;Node7</title>
<g id="a_edge6_Node000006_Node000007"><a xlink:title=" ">
<path fill="none" stroke="#63b8ff" d="M435.96,-54.84C422.03,-45.68 403.97,-33.82 390.05,-24.66"/>
<polygon fill="#63b8ff" stroke="#63b8ff" points="391.85,-21.66 381.58,-19.09 388.01,-27.51 391.85,-21.66"/>
</a>
</g>
</g>
<!-- Node8 -->
<g id="Node000008" class="node">
<title>Node8</title>
<g id="a_Node000008"><a xlink:title=" ">
<polygon fill="#e0e0e0" stroke="#999999" points="580,-19 517,-19 517,0 580,0 580,-19"/>
<text text-anchor="middle" x="548.5" y="-7" font-family="Helvetica,sans-Serif" font-size="10.00">QLineEdit</text>
</a>
</g>
</g>
<!-- Node6&#45;&gt;Node8 -->
<g id="edge7_Node000006_Node000008" class="edge">
<title>Node6&#45;&gt;Node8</title>
<g id="a_edge7_Node000006_Node000008"><a xlink:title=" ">
<path fill="none" stroke="#63b8ff" d="M479.53,-54.84C493.77,-45.68 512.23,-33.82 526.47,-24.66"/>
<polygon fill="#63b8ff" stroke="#63b8ff" points="528.61,-27.45 535.13,-19.09 524.83,-21.56 528.61,-27.45"/>
</a>
</g>
</g>
<!-- Node9 -->
<g id="Node000009" class="node">
<title>Node9</title>
<g id="a_Node000009"><a xlink:title=" ">
<polygon fill="#e0e0e0" stroke="#999999" points="678.5,-19 598.5,-19 598.5,0 678.5,0 678.5,-19"/>
<text text-anchor="middle" x="638.5" y="-7" font-family="Helvetica,sans-Serif" font-size="10.00">QPushButton</text>
</a>
</g>
</g>
<!-- Node6&#45;&gt;Node9 -->
<g id="edge8_Node000006_Node000009" class="edge">
<title>Node6&#45;&gt;Node9</title>
<g id="a_edge8_Node000006_Node000009"><a xlink:title=" ">
<path fill="none" stroke="#63b8ff" d="M500.85,-54.99C531.82,-44.98 573,-31.67 602.23,-22.22"/>
<polygon fill="#63b8ff" stroke="#63b8ff" points="603.6,-25.46 612.03,-19.05 601.44,-18.8 603.6,-25.46"/>
</a>
</g>
</g>
<!-- Node10 -->
<g id="Node000010" class="node">
<title>Node10</title>
<g id="a_Node000010"><a xlink:title=" ">
<polygon fill="#e0e0e0" stroke="#999999" points="499,-19 416,-19 416,0 499,0 499,-19"/>
<text text-anchor="middle" x="457.5" y="-7" font-family="Helvetica,sans-Serif" font-size="10.00">QHBoxLayout</text>
</a>
</g>
</g>
<!-- Node6&#45;&gt;Node10 -->
<g id="edge9_Node000006_Node000010" class="edge">
<title>Node6&#45;&gt;Node10</title>
<g id="a_edge9_Node000006_Node000010"><a xlink:title=" ">
<path fill="none" stroke="#63b8ff" d="M457.5,-54.84C457.5,-47.21 457.5,-37.7 457.5,-29.45"/>
<polygon fill="#63b8ff" stroke="#63b8ff" points="461,-29.27 457.5,-19.27 454,-29.27 461,-29.27"/>
</a>
</g>
</g>
<!-- Node11 -->
<g id="Node000011" class="node">
<title>Node11</title>
<g id="a_Node000011"><a xlink:title=" ">
<polygon fill="#e0e0e0" stroke="#999999" points="320.5,-19 270.5,-19 270.5,0 320.5,0 320.5,-19"/>
<text text-anchor="middle" x="295.5" y="-7" font-family="Helvetica,sans-Serif" font-size="10.00">QLabel</text>
</a>
</g>
</g>
<!-- Node6&#45;&gt;Node11 -->
<g id="edge10_Node000006_Node000011" class="edge">
<title>Node6&#45;&gt;Node11</title>
<g id="a_edge10_Node000006_Node000011"><a xlink:title=" ">
<path fill="none" stroke="#63b8ff" d="M418.7,-54.99C391.31,-45.1 354.98,-31.98 328.89,-22.56"/>
<polygon fill="#63b8ff" stroke="#63b8ff" points="330.02,-19.24 319.42,-19.14 327.64,-25.83 330.02,-19.24"/>
</a>
</g>
</g>
<!-- Node12&#45;&gt;Node7 -->
<g id="edge12_Node000012_Node000007" class="edge">
<title>Node12&#45;&gt;Node7</title>
<g id="a_edge12_Node000012_Node000007"><a xlink:title=" ">
<path fill="none" stroke="#63b8ff" d="M313.17,-54.84C324.2,-46 338.39,-34.63 349.63,-25.62"/>
<polygon fill="#63b8ff" stroke="#63b8ff" points="351.95,-28.25 357.56,-19.27 347.57,-22.79 351.95,-28.25"/>
</a>
</g>
</g>
<!-- Node12&#45;&gt;Node10 -->
<g id="edge14_Node000012_Node000010" class="edge">
<title>Node12&#45;&gt;Node10</title>
<g id="a_edge14_Node000012_Node000010"><a xlink:title=" ">
<path fill="none" stroke="#63b8ff" d="M334.3,-54.99C361.69,-45.1 398.02,-31.98 424.11,-22.56"/>
<polygon fill="#63b8ff" stroke="#63b8ff" points="425.36,-25.83 433.58,-19.14 422.98,-19.24 425.36,-25.83"/>
</a>
</g>
</g>
<!-- Node12&#45;&gt;Node11 -->
<g id="edge15_Node000012_Node000011" class="edge">
<title>Node12&#45;&gt;Node11</title>
<g id="a_edge15_Node000012_Node000011"><a xlink:title=" ">
<path fill="none" stroke="#63b8ff" d="M295.5,-54.84C295.5,-47.21 295.5,-37.7 295.5,-29.45"/>
<polygon fill="#63b8ff" stroke="#63b8ff" points="299,-29.27 295.5,-19.27 292,-29.27 299,-29.27"/>
</a>
</g>
</g>
<!-- Node13 -->
<g id="Node000013" class="node">
<title>Node13</title>
<g id="a_Node000013"><a xlink:title=" ">
<polygon fill="#e0e0e0" stroke="#999999" points="252.5,-19 188.5,-19 188.5,0 252.5,0 252.5,-19"/>
<text text-anchor="middle" x="220.5" y="-7" font-family="Helvetica,sans-Serif" font-size="10.00">QSpinBox</text>
</a>
</g>
</g>
<!-- Node12&#45;&gt;Node13 -->
<g id="edge13_Node000012_Node000013" class="edge">
<title>Node12&#45;&gt;Node13</title>
<g id="a_edge13_Node000012_Node000013"><a xlink:title=" ">
<path fill="none" stroke="#63b8ff" d="M277.34,-54.84C266.01,-46 251.44,-34.63 239.88,-25.62"/>
<polygon fill="#63b8ff" stroke="#63b8ff" points="241.78,-22.66 231.74,-19.27 237.47,-28.18 241.78,-22.66"/>
</a>
</g>
</g>
<!-- Node14&#45;&gt;Node6 -->
<g id="edge17_Node000014_Node000006" class="edge">
<title>Node14&#45;&gt;Node6</title>
<g id="a_edge17_Node000014_Node000006"><a xlink:title=" ">
<path fill="none" stroke="#63b8ff" d="M466.84,-120.8C465.42,-113.26 463.65,-103.78 462.02,-95.13"/>
<polygon fill="#63b8ff" stroke="#63b8ff" points="465.44,-94.35 460.16,-85.16 458.56,-95.64 465.44,-94.35"/>
</a>
</g>
</g>
<!-- Node15&#45;&gt;Node7 -->
<g id="edge20_Node000015_Node000007" class="edge">
<title>Node15&#45;&gt;Node7</title>
<g id="a_edge20_Node000015_Node000007"><a xlink:title=" ">
<path fill="none" stroke="#63b8ff" d="M559.38,-54.99C512.45,-44.05 448.6,-29.17 407.96,-19.7"/>
<polygon fill="#63b8ff" stroke="#63b8ff" points="408.69,-16.27 398.15,-17.41 407.1,-23.09 408.69,-16.27"/>
</a>
</g>
</g>
<!-- Node15&#45;&gt;Node9 -->
<g id="edge22_Node000015_Node000009" class="edge">
<title>Node15&#45;&gt;Node9</title>
<g id="a_edge22_Node000015_Node000009"><a xlink:title=" ">
<path fill="none" stroke="#63b8ff" d="M624.1,-54.84C626.63,-47.04 629.81,-37.27 632.53,-28.89"/>
<polygon fill="#63b8ff" stroke="#63b8ff" points="635.89,-29.86 635.65,-19.27 629.24,-27.7 635.89,-29.86"/>
</a>
</g>
</g>
<!-- Node15&#45;&gt;Node10 -->
<g id="edge23_Node000015_Node000010" class="edge">
<title>Node15&#45;&gt;Node10</title>
<g id="a_edge23_Node000015_Node000010"><a xlink:title=" ">
<path fill="none" stroke="#63b8ff" d="M580.7,-54.99C553.31,-45.1 516.98,-31.98 490.89,-22.56"/>
<polygon fill="#63b8ff" stroke="#63b8ff" points="492.02,-19.24 481.42,-19.14 489.64,-25.83 492.02,-19.24"/>
</a>
</g>
</g>
<!-- Node15&#45;&gt;Node11 -->
<g id="edge24_Node000015_Node000011" class="edge">
<title>Node15&#45;&gt;Node11</title>
<g id="a_edge24_Node000015_Node000011"><a xlink:title=" ">
<path fill="none" stroke="#63b8ff" d="M541.91,-56.29C474.82,-45.19 381.92,-29.51 330.68,-19.1"/>
<polygon fill="#63b8ff" stroke="#63b8ff" points="331.21,-15.63 320.7,-17.02 329.78,-22.48 331.21,-15.63"/>
</a>
</g>
</g>
<!-- Node16 -->
<g id="Node000016" class="node">
<title>Node16</title>
<g id="a_Node000016"><a xlink:title=" ">
<polygon fill="#e0e0e0" stroke="#999999" points="762.5,-19 696.5,-19 696.5,0 762.5,0 762.5,-19"/>
<text text-anchor="middle" x="729.5" y="-7" font-family="Helvetica,sans-Serif" font-size="10.00">QDateEdit</text>
</a>
</g>
</g>
<!-- Node15&#45;&gt;Node16 -->
<g id="edge21_Node000015_Node000016" class="edge">
<title>Node15&#45;&gt;Node16</title>
<g id="a_edge21_Node000015_Node000016"><a xlink:title=" ">
<path fill="none" stroke="#63b8ff" d="M645.85,-54.99C663.55,-45.58 686.73,-33.24 704.21,-23.95"/>
<polygon fill="#63b8ff" stroke="#63b8ff" points="706.07,-26.92 713.26,-19.14 702.78,-20.74 706.07,-26.92"/>
</a>
</g>
</g>
</g>
</svg>
